%TF.GenerationSoftware,KiCad,Pcbnew,9.0.2-9.0.2-0~ubuntu24.04.1*%
%TF.CreationDate,2025-05-22T11:35:46-04:00*%
%TF.ProjectId,drone_sim_controler,64726f6e-655f-4736-996d-5f636f6e7472,rev?*%
%TF.SameCoordinates,Original*%
%TF.FileFunction,Copper,L4,Bot*%
%TF.FilePolarity,Positive*%
%FSLAX46Y46*%
G04 Gerber Fmt 4.6, Leading zero omitted, Abs format (unit mm)*
G04 Created by KiCad (PCBNEW 9.0.2-9.0.2-0~ubuntu24.04.1) date 2025-05-22 11:35:46*
%MOMM*%
%LPD*%
G01*
G04 APERTURE LIST*
G04 Aperture macros list*
%AMRoundRect*
0 Rectangle with rounded corners*
0 $1 Rounding radius*
0 $2 $3 $4 $5 $6 $7 $8 $9 X,Y pos of 4 corners*
0 Add a 4 corners polygon primitive as box body*
4,1,4,$2,$3,$4,$5,$6,$7,$8,$9,$2,$3,0*
0 Add four circle primitives for the rounded corners*
1,1,$1+$1,$2,$3*
1,1,$1+$1,$4,$5*
1,1,$1+$1,$6,$7*
1,1,$1+$1,$8,$9*
0 Add four rect primitives between the rounded corners*
20,1,$1+$1,$2,$3,$4,$5,0*
20,1,$1+$1,$4,$5,$6,$7,0*
20,1,$1+$1,$6,$7,$8,$9,0*
20,1,$1+$1,$8,$9,$2,$3,0*%
G04 Aperture macros list end*
%TA.AperFunction,ComponentPad*%
%ADD10RoundRect,0.500000X-0.000010X0.400000X-0.000010X-0.400000X0.000010X-0.400000X0.000010X0.400000X0*%
%TD*%
%TA.AperFunction,ComponentPad*%
%ADD11RoundRect,0.500000X-0.000010X0.600000X-0.000010X-0.600000X0.000010X-0.600000X0.000010X0.600000X0*%
%TD*%
%TA.AperFunction,ComponentPad*%
%ADD12C,2.000000*%
%TD*%
%TA.AperFunction,ComponentPad*%
%ADD13C,1.778000*%
%TD*%
%TA.AperFunction,ComponentPad*%
%ADD14C,2.286000*%
%TD*%
%TA.AperFunction,ComponentPad*%
%ADD15C,0.499999*%
%TD*%
%TA.AperFunction,ComponentPad*%
%ADD16R,1.700000X1.700000*%
%TD*%
%TA.AperFunction,ComponentPad*%
%ADD17C,1.700000*%
%TD*%
%TA.AperFunction,ViaPad*%
%ADD18C,0.500000*%
%TD*%
%TA.AperFunction,ViaPad*%
%ADD19C,0.600000*%
%TD*%
%TA.AperFunction,Conductor*%
%ADD20C,0.500000*%
%TD*%
%TA.AperFunction,Conductor*%
%ADD21C,0.200000*%
%TD*%
G04 APERTURE END LIST*
D10*
%TO.P,J1,S,SHIELD*%
%TO.N,GNDS*%
X73500000Y-124000000D03*
D11*
X73500000Y-120000000D03*
D10*
X62260000Y-124000000D03*
D11*
X62260000Y-120000000D03*
%TD*%
D12*
%TO.P,SW2,1,1*%
%TO.N,BTN_2*%
X100250000Y-145578497D03*
%TO.P,SW2,2,2*%
%TO.N,unconnected-(SW2-Pad2)*%
X100250000Y-150078497D03*
%TO.P,SW2,3,K*%
%TO.N,unconnected-(SW2-K-Pad3)*%
X106750000Y-145578497D03*
%TO.P,SW2,4,A*%
%TO.N,GND*%
X106750000Y-150078497D03*
%TD*%
D13*
%TO.P,JS2,B1A,SW_COM*%
%TO.N,RS_SW*%
X123525000Y-137585200D03*
%TO.P,JS2,B1B,SW_NO*%
%TO.N,unconnected-(JS2-SW_NO-PadB1B)*%
X129875000Y-137605000D03*
%TO.P,JS2,B2A,SW_COM*%
%TO.N,unconnected-(JS2-SW_COM-PadB2A)*%
X123525000Y-142525200D03*
%TO.P,JS2,B2B,SW_NO*%
%TO.N,GND*%
X129885000Y-142545200D03*
%TO.P,JS2,H1,Y_LO*%
X124175000Y-157275200D03*
%TO.P,JS2,H2,Y_W*%
%TO.N,RS_Y*%
X126715000Y-157295200D03*
%TO.P,JS2,H3,Y_HI*%
%TO.N,+3V3*%
X129255000Y-157275200D03*
D14*
%TO.P,JS2,S,SHLD*%
%TO.N,GNDS*%
X120350000Y-143335200D03*
X120350000Y-153465200D03*
X133050000Y-143320000D03*
X133050000Y-153480000D03*
D13*
%TO.P,JS2,V1,X_LO*%
%TO.N,GND*%
X117810000Y-145860000D03*
%TO.P,JS2,V2,X_W*%
%TO.N,RS_X*%
X117795000Y-148385200D03*
%TO.P,JS2,V3,X_HI*%
%TO.N,+3V3*%
X117795000Y-150925200D03*
%TD*%
D15*
%TO.P,U3,11,EXP*%
%TO.N,GND*%
X59700000Y-128406300D03*
X59700000Y-129193700D03*
%TD*%
D16*
%TO.P,J3,1,Pin_1*%
%TO.N,MTD0*%
X125085000Y-123605000D03*
D17*
%TO.P,J3,2,Pin_2*%
%TO.N,MTCK*%
X127625000Y-123605000D03*
%TO.P,J3,3,Pin_3*%
%TO.N,MTMS*%
X125085000Y-126145000D03*
%TO.P,J3,4,Pin_4*%
%TO.N,MTDI*%
X127625000Y-126145000D03*
%TD*%
D12*
%TO.P,SW1,1,1*%
%TO.N,BTN_1*%
X86700000Y-145578497D03*
%TO.P,SW1,2,2*%
%TO.N,unconnected-(SW1-Pad2)*%
X86700000Y-150078497D03*
%TO.P,SW1,3,K*%
%TO.N,unconnected-(SW1-K-Pad3)*%
X93200000Y-145578497D03*
%TO.P,SW1,4,A*%
%TO.N,GND*%
X93200000Y-150078497D03*
%TD*%
D13*
%TO.P,JS1,B1A,SW_COM*%
%TO.N,LS_SW*%
X63525000Y-137585200D03*
%TO.P,JS1,B1B,SW_NO*%
%TO.N,unconnected-(JS1-SW_NO-PadB1B)*%
X69875000Y-137605000D03*
%TO.P,JS1,B2A,SW_COM*%
%TO.N,unconnected-(JS1-SW_COM-PadB2A)*%
X63525000Y-142525200D03*
%TO.P,JS1,B2B,SW_NO*%
%TO.N,GND*%
X69885000Y-142545200D03*
%TO.P,JS1,H1,Y_LO*%
X64175000Y-157275200D03*
%TO.P,JS1,H2,Y_W*%
%TO.N,LS_Y*%
X66715000Y-157295200D03*
%TO.P,JS1,H3,Y_HI*%
%TO.N,+3V3*%
X69255000Y-157275200D03*
D14*
%TO.P,JS1,S,SHLD*%
%TO.N,GNDS*%
X60350000Y-143335200D03*
X60350000Y-153465200D03*
X73050000Y-143320000D03*
X73050000Y-153480000D03*
D13*
%TO.P,JS1,V1,X_LO*%
%TO.N,GND*%
X57810000Y-145860000D03*
%TO.P,JS1,V2,X_W*%
%TO.N,LS_X*%
X57795000Y-148385200D03*
%TO.P,JS1,V3,X_HI*%
%TO.N,+3V3*%
X57795000Y-150925200D03*
%TD*%
D16*
%TO.P,J2,1,Pin_1*%
%TO.N,GND*%
X118860000Y-123600000D03*
D17*
%TO.P,J2,2,Pin_2*%
%TO.N,+3V3*%
X121400000Y-123600000D03*
%TO.P,J2,3,Pin_3*%
%TO.N,RST*%
X118860000Y-126140000D03*
%TO.P,J2,4,Pin_4*%
%TO.N,ESP_TX*%
X121400000Y-126140000D03*
%TO.P,J2,5,Pin_5*%
%TO.N,ESP_IO0*%
X118860000Y-128680000D03*
%TO.P,J2,6,Pin_6*%
%TO.N,ESP_RX*%
X121400000Y-128680000D03*
%TD*%
D18*
%TO.N,+3V3*%
X89600000Y-134500000D03*
X83200000Y-145600000D03*
X96975000Y-150200000D03*
X59000000Y-127100000D03*
X103100000Y-128400000D03*
X59800000Y-137700000D03*
X118900000Y-132100000D03*
X62600000Y-132800000D03*
X101837500Y-138562500D03*
X89500000Y-132900000D03*
X89600000Y-131400000D03*
X92300000Y-128500000D03*
X89500000Y-136000000D03*
X89600000Y-137500000D03*
X119800000Y-138500000D03*
%TO.N,GND*%
X69400000Y-129300000D03*
X63900000Y-125600000D03*
X71800000Y-126200000D03*
X96450000Y-136700000D03*
D19*
X88186773Y-132989136D03*
D18*
X58300000Y-121800000D03*
X66035967Y-129225000D03*
D19*
X101645827Y-126923002D03*
X95400000Y-126900000D03*
X88186773Y-134489136D03*
D18*
X63900000Y-126100000D03*
D19*
X103189812Y-126886271D03*
D18*
X71800000Y-125700000D03*
X71800000Y-125200000D03*
X66200000Y-132800000D03*
D19*
X97700000Y-127000000D03*
X103437896Y-138684373D03*
X88100000Y-136000000D03*
X88186773Y-137489136D03*
X92328504Y-127000534D03*
X88100000Y-131500000D03*
D18*
X63900000Y-125100000D03*
X58115685Y-125575000D03*
D19*
X93800000Y-126900000D03*
D18*
X83300000Y-134100000D03*
%TO.N,+5V*%
X65500000Y-127100000D03*
X70300000Y-127100000D03*
%TO.N,/USB_C_P*%
X68081376Y-126479815D03*
X66950000Y-126427951D03*
%TO.N,RST*%
X93200000Y-133500000D03*
%TO.N,ESP_RX*%
X96407658Y-132411619D03*
%TO.N,ESP_TX*%
X96890627Y-131904920D03*
%TO.N,ESP_IO0*%
X93930089Y-135341541D03*
%TO.N,MTMS*%
X97256341Y-131308048D03*
%TO.N,MTCK*%
X100303730Y-130942368D03*
%TO.N,MTDI*%
X97999999Y-131522183D03*
%TO.N,MTD0*%
X99731817Y-131346001D03*
%TO.N,RS_X*%
X92094977Y-136750000D03*
%TO.N,RS_Y*%
X91600000Y-137300000D03*
%TO.N,RS_SW*%
X93800000Y-138100000D03*
%TO.N,LS_SW*%
X89666909Y-138943369D03*
%TO.N,LS_Y*%
X93847582Y-136798485D03*
%TO.N,LS_X*%
X93911803Y-136086545D03*
%TO.N,Net-(U1-GPIO8)*%
X92000000Y-139150000D03*
X83300000Y-151500000D03*
%TO.N,Net-(U1-GPIO7)*%
X83300000Y-149500000D03*
X91200000Y-139150000D03*
%TD*%
D20*
%TO.N,+5V*%
X70219185Y-127180815D02*
X65580815Y-127180815D01*
X65580815Y-127180815D02*
X65500000Y-127100000D01*
X70300000Y-127100000D02*
X70219185Y-127180815D01*
D21*
%TO.N,/USB_C_P*%
X68081376Y-126479815D02*
X67001864Y-126479815D01*
X67001864Y-126479815D02*
X66950000Y-126427951D01*
%TO.N,RST*%
X111500000Y-133500000D02*
X118860000Y-126140000D01*
X93200000Y-133500000D02*
X111500000Y-133500000D01*
%TO.N,ESP_RX*%
X111333900Y-133099000D02*
X117600000Y-126832900D01*
X118300000Y-124800000D02*
X119400000Y-124800000D01*
X96899000Y-133099000D02*
X111333900Y-133099000D01*
X96407658Y-132411619D02*
X96407658Y-132607658D01*
X120100000Y-125500000D02*
X120100000Y-127380000D01*
X117600000Y-126832900D02*
X117600000Y-125500000D01*
X117600000Y-125500000D02*
X118300000Y-124800000D01*
X119400000Y-124800000D02*
X120100000Y-125500000D01*
X120100000Y-127380000D02*
X121400000Y-128680000D01*
X96407658Y-132607658D02*
X96899000Y-133099000D01*
%TO.N,ESP_TX*%
X96890627Y-131904920D02*
X97683707Y-132698000D01*
X120100000Y-124840000D02*
X121400000Y-126140000D01*
X97683707Y-132698000D02*
X111167800Y-132698000D01*
X120100000Y-122600000D02*
X120100000Y-124840000D01*
X119700000Y-122200000D02*
X120100000Y-122600000D01*
X118000000Y-122200000D02*
X119700000Y-122200000D01*
X111167800Y-132698000D02*
X117100000Y-126765800D01*
X117100000Y-126765800D02*
X117100000Y-123100000D01*
X117100000Y-123100000D02*
X118000000Y-122200000D01*
%TO.N,ESP_IO0*%
X93930089Y-135341541D02*
X112198459Y-135341541D01*
X112198459Y-135341541D02*
X118860000Y-128680000D01*
%TO.N,MTMS*%
X116699000Y-122933900D02*
X117833900Y-121799000D01*
X124145000Y-126145000D02*
X125085000Y-126145000D01*
X123100000Y-125100000D02*
X124145000Y-126145000D01*
X121499000Y-121799000D02*
X123100000Y-123400000D01*
X97897000Y-132297000D02*
X111001700Y-132297000D01*
X123100000Y-123400000D02*
X123100000Y-125100000D01*
X116699000Y-126599700D02*
X116699000Y-122933900D01*
X111001700Y-132297000D02*
X116699000Y-126599700D01*
X97441627Y-131841627D02*
X97897000Y-132297000D01*
X97441627Y-131493334D02*
X97441627Y-131841627D01*
X97256341Y-131308048D02*
X97441627Y-131493334D01*
X117833900Y-121799000D02*
X121499000Y-121799000D01*
%TO.N,MTCK*%
X124616000Y-120596000D02*
X127625000Y-123605000D01*
X115496000Y-122436900D02*
X117336900Y-120596000D01*
X117336900Y-120596000D02*
X124616000Y-120596000D01*
X110503400Y-131094000D02*
X115496000Y-126101400D01*
X100455362Y-131094000D02*
X110503400Y-131094000D01*
X100303730Y-130942368D02*
X100455362Y-131094000D01*
X115496000Y-126101400D02*
X115496000Y-122436900D01*
%TO.N,MTDI*%
X116298000Y-122767800D02*
X117667800Y-121398000D01*
X123501000Y-123233900D02*
X123501000Y-124600000D01*
X97999999Y-131522183D02*
X98373816Y-131896000D01*
X116298000Y-126433600D02*
X116298000Y-122767800D01*
X123801000Y-124900000D02*
X126380000Y-124900000D01*
X110835600Y-131896000D02*
X116298000Y-126433600D01*
X117667800Y-121398000D02*
X121665100Y-121398000D01*
X121665100Y-121398000D02*
X123501000Y-123233900D01*
X126380000Y-124900000D02*
X127625000Y-126145000D01*
X98373816Y-131896000D02*
X110835600Y-131896000D01*
X123501000Y-124600000D02*
X123801000Y-124900000D01*
%TO.N,MTD0*%
X122477000Y-120997000D02*
X125085000Y-123605000D01*
X117501700Y-120997000D02*
X122477000Y-120997000D01*
X110669500Y-131495000D02*
X115897000Y-126267500D01*
X99880816Y-131495000D02*
X110669500Y-131495000D01*
X117100000Y-121398700D02*
X117501700Y-120997000D01*
X115897000Y-126267500D02*
X115897000Y-122603000D01*
X117100000Y-121400000D02*
X117100000Y-121398700D01*
X99731817Y-131346001D02*
X99880816Y-131495000D01*
X115897000Y-122603000D02*
X117100000Y-121400000D01*
%TO.N,RS_X*%
X91371768Y-136749000D02*
X91049000Y-137071768D01*
X93653668Y-139300000D02*
X108709800Y-139300000D01*
X91049000Y-137071768D02*
X91049000Y-137528232D01*
X92204668Y-137851000D02*
X93653668Y-139300000D01*
X92094977Y-136750000D02*
X92093977Y-136749000D01*
X92093977Y-136749000D02*
X91371768Y-136749000D01*
X91049000Y-137528232D02*
X91371768Y-137851000D01*
X108709800Y-139300000D02*
X117795000Y-148385200D01*
X91371768Y-137851000D02*
X92204668Y-137851000D01*
%TO.N,RS_Y*%
X94480900Y-137986200D02*
X117186200Y-137986200D01*
X94028232Y-138651000D02*
X94383550Y-138295682D01*
X94383550Y-138083550D02*
X94480900Y-137986200D01*
X93571768Y-138651000D02*
X94028232Y-138651000D01*
X94383550Y-138295682D02*
X94383550Y-138083550D01*
X92220768Y-137300000D02*
X93571768Y-138651000D01*
X117186200Y-137986200D02*
X126715000Y-147515000D01*
X126715000Y-147515000D02*
X126715000Y-157295200D01*
X91600000Y-137300000D02*
X92220768Y-137300000D01*
%TO.N,RS_SW*%
X94314800Y-137585200D02*
X123525000Y-137585200D01*
X93800000Y-138100000D02*
X94314800Y-137585200D01*
%TO.N,LS_SW*%
X89666909Y-138943369D02*
X64883169Y-138943369D01*
X64883169Y-138943369D02*
X63525000Y-137585200D01*
%TO.N,LS_Y*%
X66715000Y-157185000D02*
X75113800Y-148786200D01*
X92323209Y-136199000D02*
X92922694Y-136798485D01*
X92922694Y-136798485D02*
X93847582Y-136798485D01*
X90648000Y-139652000D02*
X90648000Y-136905668D01*
X75113800Y-148786200D02*
X81513800Y-148786200D01*
X66715000Y-157295200D02*
X66715000Y-157185000D01*
X90648000Y-136905668D02*
X91354668Y-136199000D01*
X91354668Y-136199000D02*
X92323209Y-136199000D01*
X81513800Y-148786200D02*
X90648000Y-139652000D01*
%TO.N,LS_X*%
X90247000Y-136739568D02*
X90247000Y-139485900D01*
X90247000Y-139485900D02*
X81347700Y-148385200D01*
X93623258Y-135798000D02*
X91188568Y-135798000D01*
X93911803Y-136086545D02*
X93623258Y-135798000D01*
X91188568Y-135798000D02*
X90247000Y-136739568D01*
X81347700Y-148385200D02*
X57795000Y-148385200D01*
%TO.N,Net-(U1-GPIO8)*%
X83300000Y-151400000D02*
X83300000Y-151500000D01*
X92000000Y-139150000D02*
X92000000Y-142700000D01*
X92000000Y-142700000D02*
X83300000Y-151400000D01*
%TO.N,Net-(U1-GPIO7)*%
X91200000Y-139150000D02*
X91200000Y-142918389D01*
X84618389Y-149500000D02*
X83300000Y-149500000D01*
X91200000Y-142918389D02*
X84618389Y-149500000D01*
%TD*%
M02*
