%TF.GenerationSoftware,KiCad,Pcbnew,9.0.2-9.0.2-0~ubuntu24.04.1*%
%TF.CreationDate,2025-05-22T11:35:45-04:00*%
%TF.ProjectId,drone_sim_controler,64726f6e-655f-4736-996d-5f636f6e7472,rev?*%
%TF.SameCoordinates,Original*%
%TF.FileFunction,Copper,L2,Inr*%
%TF.FilePolarity,Positive*%
%FSLAX46Y46*%
G04 Gerber Fmt 4.6, Leading zero omitted, Abs format (unit mm)*
G04 Created by KiCad (PCBNEW 9.0.2-9.0.2-0~ubuntu24.04.1) date 2025-05-22 11:35:45*
%MOMM*%
%LPD*%
G01*
G04 APERTURE LIST*
G04 Aperture macros list*
%AMRoundRect*
0 Rectangle with rounded corners*
0 $1 Rounding radius*
0 $2 $3 $4 $5 $6 $7 $8 $9 X,Y pos of 4 corners*
0 Add a 4 corners polygon primitive as box body*
4,1,4,$2,$3,$4,$5,$6,$7,$8,$9,$2,$3,0*
0 Add four circle primitives for the rounded corners*
1,1,$1+$1,$2,$3*
1,1,$1+$1,$4,$5*
1,1,$1+$1,$6,$7*
1,1,$1+$1,$8,$9*
0 Add four rect primitives between the rounded corners*
20,1,$1+$1,$2,$3,$4,$5,0*
20,1,$1+$1,$4,$5,$6,$7,0*
20,1,$1+$1,$6,$7,$8,$9,0*
20,1,$1+$1,$8,$9,$2,$3,0*%
G04 Aperture macros list end*
%TA.AperFunction,ComponentPad*%
%ADD10RoundRect,0.500000X-0.000010X0.400000X-0.000010X-0.400000X0.000010X-0.400000X0.000010X0.400000X0*%
%TD*%
%TA.AperFunction,ComponentPad*%
%ADD11RoundRect,0.500000X-0.000010X0.600000X-0.000010X-0.600000X0.000010X-0.600000X0.000010X0.600000X0*%
%TD*%
%TA.AperFunction,ComponentPad*%
%ADD12C,2.000000*%
%TD*%
%TA.AperFunction,ComponentPad*%
%ADD13C,1.778000*%
%TD*%
%TA.AperFunction,ComponentPad*%
%ADD14C,2.286000*%
%TD*%
%TA.AperFunction,ComponentPad*%
%ADD15C,0.499999*%
%TD*%
%TA.AperFunction,ComponentPad*%
%ADD16R,1.700000X1.700000*%
%TD*%
%TA.AperFunction,ComponentPad*%
%ADD17C,1.700000*%
%TD*%
%TA.AperFunction,ViaPad*%
%ADD18C,0.500000*%
%TD*%
%TA.AperFunction,ViaPad*%
%ADD19C,0.600000*%
%TD*%
G04 APERTURE END LIST*
D10*
%TO.N,GNDS*%
%TO.C,J1*%
X73500000Y-124000000D03*
D11*
X73500000Y-120000000D03*
D10*
X62260000Y-124000000D03*
D11*
X62260000Y-120000000D03*
%TD*%
D12*
%TO.N,BTN_2*%
%TO.C,SW2*%
X100250000Y-145578497D03*
%TO.N,unconnected-(SW2-Pad2)*%
X100250000Y-150078497D03*
%TO.N,unconnected-(SW2-K-Pad3)*%
X106750000Y-145578497D03*
%TO.N,GND*%
X106750000Y-150078497D03*
%TD*%
D13*
%TO.N,RS_SW*%
%TO.C,JS2*%
X123525000Y-137585200D03*
%TO.N,unconnected-(JS2-SW_NO-PadB1B)*%
X129875000Y-137605000D03*
%TO.N,unconnected-(JS2-SW_COM-PadB2A)*%
X123525000Y-142525200D03*
%TO.N,GND*%
X129885000Y-142545200D03*
X124175000Y-157275200D03*
%TO.N,RS_Y*%
X126715000Y-157295200D03*
%TO.N,+3V3*%
X129255000Y-157275200D03*
D14*
%TO.N,GNDS*%
X120350000Y-143335200D03*
X120350000Y-153465200D03*
X133050000Y-143320000D03*
X133050000Y-153480000D03*
D13*
%TO.N,GND*%
X117810000Y-145860000D03*
%TO.N,RS_X*%
X117795000Y-148385200D03*
%TO.N,+3V3*%
X117795000Y-150925200D03*
%TD*%
D15*
%TO.N,GND*%
%TO.C,U3*%
X59700000Y-128406300D03*
X59700000Y-129193700D03*
%TD*%
D16*
%TO.N,MTD0*%
%TO.C,J3*%
X125085000Y-123605000D03*
D17*
%TO.N,MTCK*%
X127625000Y-123605000D03*
%TO.N,MTMS*%
X125085000Y-126145000D03*
%TO.N,MTDI*%
X127625000Y-126145000D03*
%TD*%
D12*
%TO.N,BTN_1*%
%TO.C,SW1*%
X86700000Y-145578497D03*
%TO.N,unconnected-(SW1-Pad2)*%
X86700000Y-150078497D03*
%TO.N,unconnected-(SW1-K-Pad3)*%
X93200000Y-145578497D03*
%TO.N,GND*%
X93200000Y-150078497D03*
%TD*%
D13*
%TO.N,LS_SW*%
%TO.C,JS1*%
X63525000Y-137585200D03*
%TO.N,unconnected-(JS1-SW_NO-PadB1B)*%
X69875000Y-137605000D03*
%TO.N,unconnected-(JS1-SW_COM-PadB2A)*%
X63525000Y-142525200D03*
%TO.N,GND*%
X69885000Y-142545200D03*
X64175000Y-157275200D03*
%TO.N,LS_Y*%
X66715000Y-157295200D03*
%TO.N,+3V3*%
X69255000Y-157275200D03*
D14*
%TO.N,GNDS*%
X60350000Y-143335200D03*
X60350000Y-153465200D03*
X73050000Y-143320000D03*
X73050000Y-153480000D03*
D13*
%TO.N,GND*%
X57810000Y-145860000D03*
%TO.N,LS_X*%
X57795000Y-148385200D03*
%TO.N,+3V3*%
X57795000Y-150925200D03*
%TD*%
D16*
%TO.N,GND*%
%TO.C,J2*%
X118860000Y-123600000D03*
D17*
%TO.N,+3V3*%
X121400000Y-123600000D03*
%TO.N,RST*%
X118860000Y-126140000D03*
%TO.N,ESP_TX*%
X121400000Y-126140000D03*
%TO.N,ESP_IO0*%
X118860000Y-128680000D03*
%TO.N,ESP_RX*%
X121400000Y-128680000D03*
%TD*%
D18*
%TO.N,+3V3*%
X89600000Y-134500000D03*
X83200000Y-145600000D03*
X96975000Y-150200000D03*
X59000000Y-127100000D03*
X103100000Y-128400000D03*
X59800000Y-137700000D03*
X118900000Y-132100000D03*
X62600000Y-132800000D03*
X101837500Y-138562500D03*
X89500000Y-132900000D03*
X89600000Y-131400000D03*
X92300000Y-128500000D03*
X89500000Y-136000000D03*
X89600000Y-137500000D03*
X119800000Y-138500000D03*
%TO.N,GND*%
X69400000Y-129300000D03*
X63900000Y-125600000D03*
X71800000Y-126200000D03*
X96450000Y-136700000D03*
D19*
X88186773Y-132989136D03*
D18*
X58300000Y-121800000D03*
X66035967Y-129225000D03*
D19*
X101645827Y-126923002D03*
X95400000Y-126900000D03*
X88186773Y-134489136D03*
D18*
X63900000Y-126100000D03*
D19*
X103189812Y-126886271D03*
D18*
X71800000Y-125700000D03*
X71800000Y-125200000D03*
X66200000Y-132800000D03*
D19*
X97700000Y-127000000D03*
X103437896Y-138684373D03*
X88100000Y-136000000D03*
X88186773Y-137489136D03*
X92328504Y-127000534D03*
X88100000Y-131500000D03*
D18*
X63900000Y-125100000D03*
X58115685Y-125575000D03*
D19*
X93800000Y-126900000D03*
D18*
X83300000Y-134100000D03*
%TO.N,+5V*%
X65500000Y-127100000D03*
X70300000Y-127100000D03*
%TO.N,/USB_C_P*%
X68081376Y-126479815D03*
X66950000Y-126427951D03*
%TO.N,RST*%
X93200000Y-133500000D03*
%TO.N,ESP_RX*%
X96407658Y-132411619D03*
%TO.N,ESP_TX*%
X96890627Y-131904920D03*
%TO.N,ESP_IO0*%
X93930089Y-135341541D03*
%TO.N,MTMS*%
X97256341Y-131308048D03*
%TO.N,MTCK*%
X100303730Y-130942368D03*
%TO.N,MTDI*%
X97999999Y-131522183D03*
%TO.N,MTD0*%
X99731817Y-131346001D03*
%TO.N,RS_X*%
X92094977Y-136750000D03*
%TO.N,RS_Y*%
X91600000Y-137300000D03*
%TO.N,RS_SW*%
X93800000Y-138100000D03*
%TO.N,LS_SW*%
X89666909Y-138943369D03*
%TO.N,LS_Y*%
X93847582Y-136798485D03*
%TO.N,LS_X*%
X93911803Y-136086545D03*
%TO.N,Net-(U1-GPIO8)*%
X92000000Y-139150000D03*
X83300000Y-151500000D03*
%TO.N,Net-(U1-GPIO7)*%
X83300000Y-149500000D03*
X91200000Y-139150000D03*
%TD*%
%TA.AperFunction,Conductor*%
%TO.N,GND*%
G36*
X146342536Y-118720195D02*
G01*
X146388293Y-118772997D01*
X146399500Y-118824512D01*
X146399500Y-167975500D01*
X146379815Y-168042539D01*
X146327011Y-168088294D01*
X146275500Y-168099500D01*
X47124500Y-168099500D01*
X47057461Y-168079815D01*
X47011706Y-168027011D01*
X47000500Y-167975500D01*
X47000500Y-157165883D01*
X62786000Y-157165883D01*
X62786000Y-157384516D01*
X62820202Y-157600459D01*
X62887761Y-157808388D01*
X62887762Y-157808391D01*
X62987020Y-158003193D01*
X62987021Y-158003195D01*
X63031806Y-158064838D01*
X63031807Y-158064838D01*
X63737352Y-157359293D01*
X63760792Y-157446771D01*
X63819311Y-157548130D01*
X63902070Y-157630889D01*
X64003429Y-157689408D01*
X64090905Y-157712847D01*
X63385360Y-158418391D01*
X63447008Y-158463180D01*
X63641808Y-158562437D01*
X63641811Y-158562438D01*
X63849740Y-158629997D01*
X64065684Y-158664200D01*
X64284316Y-158664200D01*
X64500259Y-158629997D01*
X64708188Y-158562438D01*
X64708191Y-158562437D01*
X64902995Y-158463178D01*
X64964638Y-158418391D01*
X64964639Y-158418391D01*
X64259094Y-157712847D01*
X64346571Y-157689408D01*
X64447930Y-157630889D01*
X64530689Y-157548130D01*
X64589208Y-157446771D01*
X64612647Y-157359295D01*
X65318191Y-158064839D01*
X65318192Y-158064838D01*
X65337107Y-158038805D01*
X65392437Y-157996139D01*
X65462050Y-157990160D01*
X65523845Y-158022766D01*
X65537743Y-158038805D01*
X65655142Y-158200392D01*
X65655146Y-158200397D01*
X65809806Y-158355057D01*
X65958625Y-158463178D01*
X65986743Y-158483607D01*
X66114132Y-158548515D01*
X66181616Y-158582901D01*
X66181619Y-158582902D01*
X66285621Y-158616693D01*
X66389625Y-158650486D01*
X66476212Y-158664200D01*
X66605639Y-158684700D01*
X66605644Y-158684700D01*
X66824361Y-158684700D01*
X66929082Y-158668112D01*
X67040375Y-158650486D01*
X67248383Y-158582901D01*
X67443257Y-158483607D01*
X67542601Y-158411429D01*
X67620193Y-158355057D01*
X67620195Y-158355054D01*
X67620199Y-158355052D01*
X67774852Y-158200399D01*
X67891949Y-158039227D01*
X67947276Y-157996564D01*
X68016889Y-157990585D01*
X68078684Y-158023190D01*
X68092580Y-158039225D01*
X68195144Y-158180393D01*
X68195148Y-158180399D01*
X68349806Y-158335057D01*
X68464508Y-158418391D01*
X68526743Y-158463607D01*
X68654132Y-158528515D01*
X68721616Y-158562901D01*
X68721619Y-158562902D01*
X68825621Y-158596693D01*
X68929625Y-158630486D01*
X69029672Y-158646332D01*
X69145639Y-158664700D01*
X69145644Y-158664700D01*
X69364361Y-158664700D01*
X69469082Y-158648112D01*
X69580375Y-158630486D01*
X69788383Y-158562901D01*
X69983257Y-158463607D01*
X70082601Y-158391429D01*
X70160193Y-158335057D01*
X70160195Y-158335054D01*
X70160199Y-158335052D01*
X70314852Y-158180399D01*
X70314854Y-158180395D01*
X70314857Y-158180393D01*
X70371229Y-158102801D01*
X70443407Y-158003457D01*
X70542701Y-157808583D01*
X70610286Y-157600575D01*
X70634646Y-157446771D01*
X70644500Y-157384561D01*
X70644500Y-157165883D01*
X122786000Y-157165883D01*
X122786000Y-157384516D01*
X122820202Y-157600459D01*
X122887761Y-157808388D01*
X122887762Y-157808391D01*
X122987020Y-158003193D01*
X122987021Y-158003195D01*
X123031806Y-158064838D01*
X123031807Y-158064838D01*
X123737352Y-157359293D01*
X123760792Y-157446771D01*
X123819311Y-157548130D01*
X123902070Y-157630889D01*
X124003429Y-157689408D01*
X124090905Y-157712847D01*
X123385360Y-158418391D01*
X123447008Y-158463180D01*
X123641808Y-158562437D01*
X123641811Y-158562438D01*
X123849740Y-158629997D01*
X124065684Y-158664200D01*
X124284316Y-158664200D01*
X124500259Y-158629997D01*
X124708188Y-158562438D01*
X124708191Y-158562437D01*
X124902995Y-158463178D01*
X124964638Y-158418391D01*
X124964639Y-158418391D01*
X124259094Y-157712847D01*
X124346571Y-157689408D01*
X124447930Y-157630889D01*
X124530689Y-157548130D01*
X124589208Y-157446771D01*
X124612647Y-157359295D01*
X125318191Y-158064839D01*
X125318192Y-158064838D01*
X125337107Y-158038805D01*
X125392437Y-157996139D01*
X125462050Y-157990160D01*
X125523845Y-158022766D01*
X125537743Y-158038805D01*
X125655142Y-158200392D01*
X125655146Y-158200397D01*
X125809806Y-158355057D01*
X125958625Y-158463178D01*
X125986743Y-158483607D01*
X126114132Y-158548515D01*
X126181616Y-158582901D01*
X126181619Y-158582902D01*
X126285621Y-158616693D01*
X126389625Y-158650486D01*
X126476212Y-158664200D01*
X126605639Y-158684700D01*
X126605644Y-158684700D01*
X126824361Y-158684700D01*
X126929082Y-158668112D01*
X127040375Y-158650486D01*
X127248383Y-158582901D01*
X127443257Y-158483607D01*
X127542601Y-158411429D01*
X127620193Y-158355057D01*
X127620195Y-158355054D01*
X127620199Y-158355052D01*
X127774852Y-158200399D01*
X127891949Y-158039227D01*
X127947276Y-157996564D01*
X128016889Y-157990585D01*
X128078684Y-158023190D01*
X128092580Y-158039225D01*
X128195144Y-158180393D01*
X128195148Y-158180399D01*
X128349806Y-158335057D01*
X128464508Y-158418391D01*
X128526743Y-158463607D01*
X128654132Y-158528515D01*
X128721616Y-158562901D01*
X128721619Y-158562902D01*
X128825621Y-158596693D01*
X128929625Y-158630486D01*
X129029672Y-158646332D01*
X129145639Y-158664700D01*
X129145644Y-158664700D01*
X129364361Y-158664700D01*
X129469082Y-158648112D01*
X129580375Y-158630486D01*
X129788383Y-158562901D01*
X129983257Y-158463607D01*
X130082601Y-158391429D01*
X130160193Y-158335057D01*
X130160195Y-158335054D01*
X130160199Y-158335052D01*
X130314852Y-158180399D01*
X130314854Y-158180395D01*
X130314857Y-158180393D01*
X130371229Y-158102801D01*
X130443407Y-158003457D01*
X130542701Y-157808583D01*
X130610286Y-157600575D01*
X130634646Y-157446771D01*
X130644500Y-157384561D01*
X130644500Y-157165838D01*
X130618592Y-157002270D01*
X130610286Y-156949825D01*
X130576493Y-156845821D01*
X130542702Y-156741819D01*
X130542701Y-156741816D01*
X130508315Y-156674332D01*
X130443407Y-156546943D01*
X130398810Y-156485560D01*
X130314857Y-156370006D01*
X130160193Y-156215342D01*
X129983260Y-156086795D01*
X129983259Y-156086794D01*
X129983257Y-156086793D01*
X129920825Y-156054982D01*
X129788383Y-155987498D01*
X129788380Y-155987497D01*
X129580376Y-155919914D01*
X129364361Y-155885700D01*
X129364356Y-155885700D01*
X129145644Y-155885700D01*
X129145639Y-155885700D01*
X128929623Y-155919914D01*
X128721619Y-155987497D01*
X128721616Y-155987498D01*
X128526739Y-156086795D01*
X128349806Y-156215342D01*
X128195146Y-156370002D01*
X128195142Y-156370007D01*
X128078052Y-156531169D01*
X128022722Y-156573835D01*
X127953109Y-156579814D01*
X127891314Y-156547208D01*
X127877420Y-156531175D01*
X127774852Y-156390001D01*
X127620199Y-156235348D01*
X127620193Y-156235342D01*
X127443260Y-156106795D01*
X127443259Y-156106794D01*
X127443257Y-156106793D01*
X127380825Y-156074982D01*
X127248383Y-156007498D01*
X127248380Y-156007497D01*
X127040376Y-155939914D01*
X126824361Y-155905700D01*
X126824356Y-155905700D01*
X126605644Y-155905700D01*
X126605639Y-155905700D01*
X126389623Y-155939914D01*
X126181619Y-156007497D01*
X126181616Y-156007498D01*
X125986739Y-156106795D01*
X125809806Y-156235342D01*
X125655146Y-156390002D01*
X125655142Y-156390007D01*
X125552273Y-156531595D01*
X125496943Y-156574261D01*
X125427330Y-156580240D01*
X125365535Y-156547634D01*
X125351636Y-156531594D01*
X125318191Y-156485560D01*
X124612647Y-157191104D01*
X124589208Y-157103629D01*
X124530689Y-157002270D01*
X124447930Y-156919511D01*
X124346571Y-156860992D01*
X124259092Y-156837552D01*
X124964638Y-156132007D01*
X124964638Y-156132006D01*
X124902995Y-156087221D01*
X124902993Y-156087220D01*
X124708191Y-155987962D01*
X124708188Y-155987961D01*
X124500259Y-155920402D01*
X124284316Y-155886200D01*
X124065684Y-155886200D01*
X123849740Y-155920402D01*
X123641811Y-155987961D01*
X123641808Y-155987962D01*
X123447001Y-156087223D01*
X123385360Y-156132006D01*
X123385360Y-156132007D01*
X124090905Y-156837552D01*
X124003429Y-156860992D01*
X123902070Y-156919511D01*
X123819311Y-157002270D01*
X123760792Y-157103629D01*
X123737352Y-157191105D01*
X123031807Y-156485560D01*
X123031806Y-156485560D01*
X122987023Y-156547201D01*
X122887762Y-156742008D01*
X122887761Y-156742011D01*
X122820202Y-156949940D01*
X122786000Y-157165883D01*
X70644500Y-157165883D01*
X70644500Y-157165838D01*
X70618592Y-157002270D01*
X70610286Y-156949825D01*
X70576493Y-156845821D01*
X70542702Y-156741819D01*
X70542701Y-156741816D01*
X70508315Y-156674332D01*
X70443407Y-156546943D01*
X70398810Y-156485560D01*
X70314857Y-156370006D01*
X70160193Y-156215342D01*
X69983260Y-156086795D01*
X69983259Y-156086794D01*
X69983257Y-156086793D01*
X69920825Y-156054982D01*
X69788383Y-155987498D01*
X69788380Y-155987497D01*
X69580376Y-155919914D01*
X69364361Y-155885700D01*
X69364356Y-155885700D01*
X69145644Y-155885700D01*
X69145639Y-155885700D01*
X68929623Y-155919914D01*
X68721619Y-155987497D01*
X68721616Y-155987498D01*
X68526739Y-156086795D01*
X68349806Y-156215342D01*
X68195146Y-156370002D01*
X68195142Y-156370007D01*
X68078052Y-156531169D01*
X68022722Y-156573835D01*
X67953109Y-156579814D01*
X67891314Y-156547208D01*
X67877420Y-156531175D01*
X67774852Y-156390001D01*
X67620199Y-156235348D01*
X67620193Y-156235342D01*
X67443260Y-156106795D01*
X67443259Y-156106794D01*
X67443257Y-156106793D01*
X67380825Y-156074982D01*
X67248383Y-156007498D01*
X67248380Y-156007497D01*
X67040376Y-155939914D01*
X66824361Y-155905700D01*
X66824356Y-155905700D01*
X66605644Y-155905700D01*
X66605639Y-155905700D01*
X66389623Y-155939914D01*
X66181619Y-156007497D01*
X66181616Y-156007498D01*
X65986739Y-156106795D01*
X65809806Y-156235342D01*
X65655146Y-156390002D01*
X65655142Y-156390007D01*
X65552273Y-156531595D01*
X65496943Y-156574261D01*
X65427330Y-156580240D01*
X65365535Y-156547634D01*
X65351636Y-156531594D01*
X65318191Y-156485560D01*
X64612647Y-157191104D01*
X64589208Y-157103629D01*
X64530689Y-157002270D01*
X64447930Y-156919511D01*
X64346571Y-156860992D01*
X64259092Y-156837552D01*
X64964638Y-156132007D01*
X64964638Y-156132006D01*
X64902995Y-156087221D01*
X64902993Y-156087220D01*
X64708191Y-155987962D01*
X64708188Y-155987961D01*
X64500259Y-155920402D01*
X64284316Y-155886200D01*
X64065684Y-155886200D01*
X63849740Y-155920402D01*
X63641811Y-155987961D01*
X63641808Y-155987962D01*
X63447001Y-156087223D01*
X63385360Y-156132006D01*
X63385360Y-156132007D01*
X64090905Y-156837552D01*
X64003429Y-156860992D01*
X63902070Y-156919511D01*
X63819311Y-157002270D01*
X63760792Y-157103629D01*
X63737352Y-157191105D01*
X63031807Y-156485560D01*
X63031806Y-156485560D01*
X62987023Y-156547201D01*
X62887762Y-156742008D01*
X62887761Y-156742011D01*
X62820202Y-156949940D01*
X62786000Y-157165883D01*
X47000500Y-157165883D01*
X47000500Y-153335848D01*
X58706500Y-153335848D01*
X58706500Y-153594551D01*
X58746967Y-153850050D01*
X58746968Y-153850054D01*
X58826909Y-154096085D01*
X58944353Y-154326582D01*
X59096408Y-154535868D01*
X59279332Y-154718792D01*
X59488618Y-154870847D01*
X59719115Y-154988291D01*
X59965146Y-155068232D01*
X60058591Y-155083032D01*
X60220649Y-155108700D01*
X60220654Y-155108700D01*
X60479351Y-155108700D01*
X60641409Y-155083032D01*
X60734854Y-155068232D01*
X60980885Y-154988291D01*
X61211382Y-154870847D01*
X61420668Y-154718792D01*
X61603592Y-154535868D01*
X61755647Y-154326582D01*
X61873091Y-154096085D01*
X61953032Y-153850054D01*
X61971017Y-153736494D01*
X61993500Y-153594551D01*
X61993500Y-153350648D01*
X71406500Y-153350648D01*
X71406500Y-153609351D01*
X71444623Y-153850050D01*
X71446968Y-153864854D01*
X71526909Y-154110885D01*
X71644353Y-154341382D01*
X71796408Y-154550668D01*
X71979332Y-154733592D01*
X72188618Y-154885647D01*
X72419115Y-155003091D01*
X72665146Y-155083032D01*
X72760961Y-155098207D01*
X72920649Y-155123500D01*
X72920654Y-155123500D01*
X73179351Y-155123500D01*
X73321294Y-155101017D01*
X73434854Y-155083032D01*
X73680885Y-155003091D01*
X73911382Y-154885647D01*
X74120668Y-154733592D01*
X74303592Y-154550668D01*
X74455647Y-154341382D01*
X74573091Y-154110885D01*
X74653032Y-153864854D01*
X74671017Y-153751294D01*
X74693500Y-153609351D01*
X74693500Y-153350656D01*
X74693458Y-153350391D01*
X74693458Y-153350385D01*
X74693457Y-153350380D01*
X74691155Y-153335848D01*
X118706500Y-153335848D01*
X118706500Y-153594551D01*
X118746967Y-153850050D01*
X118746968Y-153850054D01*
X118826909Y-154096085D01*
X118944353Y-154326582D01*
X119096408Y-154535868D01*
X119279332Y-154718792D01*
X119488618Y-154870847D01*
X119719115Y-154988291D01*
X119965146Y-155068232D01*
X120058591Y-155083032D01*
X120220649Y-155108700D01*
X120220654Y-155108700D01*
X120479351Y-155108700D01*
X120641409Y-155083032D01*
X120734854Y-155068232D01*
X120980885Y-154988291D01*
X121211382Y-154870847D01*
X121420668Y-154718792D01*
X121603592Y-154535868D01*
X121755647Y-154326582D01*
X121873091Y-154096085D01*
X121953032Y-153850054D01*
X121971017Y-153736494D01*
X121993500Y-153594551D01*
X121993500Y-153350648D01*
X131406500Y-153350648D01*
X131406500Y-153609351D01*
X131444623Y-153850050D01*
X131446968Y-153864854D01*
X131526909Y-154110885D01*
X131644353Y-154341382D01*
X131796408Y-154550668D01*
X131979332Y-154733592D01*
X132188618Y-154885647D01*
X132419115Y-155003091D01*
X132665146Y-155083032D01*
X132760961Y-155098207D01*
X132920649Y-155123500D01*
X132920654Y-155123500D01*
X133179351Y-155123500D01*
X133321294Y-155101017D01*
X133434854Y-155083032D01*
X133680885Y-155003091D01*
X133911382Y-154885647D01*
X134120668Y-154733592D01*
X134303592Y-154550668D01*
X134455647Y-154341382D01*
X134573091Y-154110885D01*
X134653032Y-153864854D01*
X134671017Y-153751294D01*
X134693500Y-153609351D01*
X134693500Y-153350648D01*
X134653032Y-153095149D01*
X134653032Y-153095146D01*
X134573091Y-152849115D01*
X134455647Y-152618618D01*
X134303592Y-152409332D01*
X134120668Y-152226408D01*
X133911382Y-152074353D01*
X133680885Y-151956909D01*
X133434854Y-151876968D01*
X133434852Y-151876967D01*
X133434850Y-151876967D01*
X133179351Y-151836500D01*
X133179346Y-151836500D01*
X132920654Y-151836500D01*
X132920649Y-151836500D01*
X132665149Y-151876967D01*
X132419112Y-151956910D01*
X132188617Y-152074353D01*
X131979329Y-152226410D01*
X131796410Y-152409329D01*
X131644353Y-152618617D01*
X131526910Y-152849112D01*
X131446967Y-153095149D01*
X131406500Y-153350648D01*
X121993500Y-153350648D01*
X121993500Y-153335848D01*
X121966521Y-153165515D01*
X121953032Y-153080346D01*
X121873091Y-152834315D01*
X121755647Y-152603818D01*
X121603592Y-152394532D01*
X121420668Y-152211608D01*
X121211382Y-152059553D01*
X120980885Y-151942109D01*
X120734854Y-151862168D01*
X120734852Y-151862167D01*
X120734850Y-151862167D01*
X120479351Y-151821700D01*
X120479346Y-151821700D01*
X120220654Y-151821700D01*
X120220649Y-151821700D01*
X119965149Y-151862167D01*
X119719112Y-151942110D01*
X119488617Y-152059553D01*
X119279329Y-152211610D01*
X119096410Y-152394529D01*
X118944353Y-152603817D01*
X118826910Y-152834312D01*
X118746967Y-153080349D01*
X118706500Y-153335848D01*
X74691155Y-153335848D01*
X74653032Y-153095149D01*
X74653032Y-153095146D01*
X74573091Y-152849115D01*
X74455647Y-152618618D01*
X74303592Y-152409332D01*
X74120668Y-152226408D01*
X73911382Y-152074353D01*
X73680885Y-151956909D01*
X73434854Y-151876968D01*
X73434852Y-151876967D01*
X73434850Y-151876967D01*
X73179351Y-151836500D01*
X73179346Y-151836500D01*
X72920654Y-151836500D01*
X72920649Y-151836500D01*
X72665149Y-151876967D01*
X72419112Y-151956910D01*
X72188617Y-152074353D01*
X71979329Y-152226410D01*
X71796410Y-152409329D01*
X71644353Y-152618617D01*
X71526910Y-152849112D01*
X71446967Y-153095149D01*
X71406500Y-153350648D01*
X61993500Y-153350648D01*
X61993500Y-153335848D01*
X61966521Y-153165515D01*
X61953032Y-153080346D01*
X61873091Y-152834315D01*
X61755647Y-152603818D01*
X61603592Y-152394532D01*
X61420668Y-152211608D01*
X61211382Y-152059553D01*
X60980885Y-151942109D01*
X60734854Y-151862168D01*
X60734852Y-151862167D01*
X60734850Y-151862167D01*
X60479351Y-151821700D01*
X60479346Y-151821700D01*
X60220654Y-151821700D01*
X60220649Y-151821700D01*
X59965149Y-151862167D01*
X59719112Y-151942110D01*
X59488617Y-152059553D01*
X59279329Y-152211610D01*
X59096410Y-152394529D01*
X58944353Y-152603817D01*
X58826910Y-152834312D01*
X58746967Y-153080349D01*
X58706500Y-153335848D01*
X47000500Y-153335848D01*
X47000500Y-148275838D01*
X56405500Y-148275838D01*
X56405500Y-148494561D01*
X56439714Y-148710576D01*
X56507297Y-148918580D01*
X56507298Y-148918583D01*
X56559779Y-149021580D01*
X56600239Y-149100987D01*
X56606595Y-149113460D01*
X56735142Y-149290393D01*
X56889806Y-149445057D01*
X57040969Y-149554882D01*
X57083635Y-149610211D01*
X57089614Y-149679825D01*
X57057009Y-149741620D01*
X57040969Y-149755518D01*
X56889806Y-149865342D01*
X56735142Y-150020006D01*
X56606595Y-150196939D01*
X56507298Y-150391816D01*
X56507297Y-150391819D01*
X56439714Y-150599823D01*
X56405500Y-150815838D01*
X56405500Y-151034561D01*
X56439714Y-151250576D01*
X56507297Y-151458580D01*
X56507298Y-151458583D01*
X56606595Y-151653460D01*
X56735142Y-151830393D01*
X56889806Y-151985057D01*
X57012714Y-152074353D01*
X57066743Y-152113607D01*
X57194132Y-152178515D01*
X57261616Y-152212901D01*
X57261619Y-152212902D01*
X57365621Y-152246693D01*
X57469625Y-152280486D01*
X57569672Y-152296332D01*
X57685639Y-152314700D01*
X57685644Y-152314700D01*
X57904361Y-152314700D01*
X58009082Y-152298112D01*
X58120375Y-152280486D01*
X58328383Y-152212901D01*
X58523257Y-152113607D01*
X58622601Y-152041429D01*
X58700193Y-151985057D01*
X58700195Y-151985054D01*
X58700199Y-151985052D01*
X58854852Y-151830399D01*
X58854854Y-151830395D01*
X58854857Y-151830393D01*
X58935848Y-151718917D01*
X58983407Y-151653457D01*
X59023933Y-151573920D01*
X82549499Y-151573920D01*
X82578340Y-151718907D01*
X82578343Y-151718917D01*
X82634912Y-151855488D01*
X82634919Y-151855501D01*
X82717048Y-151978415D01*
X82717051Y-151978419D01*
X82821580Y-152082948D01*
X82821584Y-152082951D01*
X82944498Y-152165080D01*
X82944511Y-152165087D01*
X83059948Y-152212902D01*
X83081087Y-152221658D01*
X83081091Y-152221658D01*
X83081092Y-152221659D01*
X83226079Y-152250500D01*
X83226082Y-152250500D01*
X83373920Y-152250500D01*
X83471462Y-152231096D01*
X83518913Y-152221658D01*
X83655495Y-152165084D01*
X83778416Y-152082951D01*
X83882951Y-151978416D01*
X83965084Y-151855495D01*
X84021658Y-151718913D01*
X84049490Y-151578997D01*
X84050500Y-151573920D01*
X84050500Y-151426079D01*
X84021659Y-151281092D01*
X84021658Y-151281091D01*
X84021658Y-151281087D01*
X84009020Y-151250575D01*
X83965087Y-151144511D01*
X83965080Y-151144498D01*
X83882951Y-151021584D01*
X83882948Y-151021580D01*
X83778419Y-150917051D01*
X83778415Y-150917048D01*
X83655501Y-150834919D01*
X83655488Y-150834912D01*
X83518917Y-150778343D01*
X83518907Y-150778340D01*
X83373920Y-150749500D01*
X83373918Y-150749500D01*
X83226082Y-150749500D01*
X83226080Y-150749500D01*
X83081092Y-150778340D01*
X83081082Y-150778343D01*
X82944511Y-150834912D01*
X82944498Y-150834919D01*
X82821584Y-150917048D01*
X82821580Y-150917051D01*
X82717051Y-151021580D01*
X82717048Y-151021584D01*
X82634919Y-151144498D01*
X82634912Y-151144511D01*
X82578343Y-151281082D01*
X82578340Y-151281092D01*
X82549500Y-151426079D01*
X82549500Y-151426082D01*
X82549500Y-151573918D01*
X82549500Y-151573920D01*
X82549499Y-151573920D01*
X59023933Y-151573920D01*
X59082701Y-151458583D01*
X59114135Y-151361840D01*
X59133852Y-151301155D01*
X59150286Y-151250575D01*
X59167912Y-151139282D01*
X59184500Y-151034561D01*
X59184500Y-150815838D01*
X59162734Y-150678419D01*
X59150286Y-150599825D01*
X59095774Y-150432051D01*
X59082702Y-150391819D01*
X59082701Y-150391816D01*
X59022628Y-150273918D01*
X58983407Y-150196943D01*
X58975147Y-150185574D01*
X58854857Y-150020006D01*
X58700199Y-149865348D01*
X58671501Y-149844498D01*
X58549028Y-149755516D01*
X58506364Y-149700189D01*
X58500385Y-149630576D01*
X58530278Y-149573920D01*
X82549499Y-149573920D01*
X82578340Y-149718907D01*
X82578343Y-149718917D01*
X82634912Y-149855488D01*
X82634919Y-149855501D01*
X82717048Y-149978415D01*
X82717051Y-149978419D01*
X82821580Y-150082948D01*
X82821584Y-150082951D01*
X82944498Y-150165080D01*
X82944511Y-150165087D01*
X83081082Y-150221656D01*
X83081087Y-150221658D01*
X83081091Y-150221658D01*
X83081092Y-150221659D01*
X83226079Y-150250500D01*
X83226082Y-150250500D01*
X83373920Y-150250500D01*
X83471462Y-150231096D01*
X83518913Y-150221658D01*
X83655495Y-150165084D01*
X83778416Y-150082951D01*
X83882951Y-149978416D01*
X83894989Y-149960399D01*
X85199500Y-149960399D01*
X85199500Y-150196594D01*
X85236446Y-150429865D01*
X85309433Y-150654493D01*
X85416519Y-150864660D01*
X85416657Y-150864930D01*
X85555483Y-151056007D01*
X85722490Y-151223014D01*
X85913567Y-151361840D01*
X85952490Y-151381672D01*
X86124003Y-151469063D01*
X86124005Y-151469063D01*
X86124008Y-151469065D01*
X86244412Y-151508186D01*
X86348631Y-151542050D01*
X86581903Y-151578997D01*
X86581908Y-151578997D01*
X86818097Y-151578997D01*
X87051368Y-151542050D01*
X87052870Y-151541562D01*
X87275992Y-151469065D01*
X87486433Y-151361840D01*
X87677510Y-151223014D01*
X87844517Y-151056007D01*
X87983343Y-150864930D01*
X88090568Y-150654489D01*
X88163553Y-150429865D01*
X88169579Y-150391816D01*
X88200500Y-150196594D01*
X88200500Y-149960444D01*
X91700000Y-149960444D01*
X91700000Y-150196549D01*
X91736934Y-150429744D01*
X91809897Y-150654299D01*
X91917087Y-150864671D01*
X91977338Y-150947601D01*
X91977340Y-150947602D01*
X92676212Y-150248730D01*
X92687482Y-150290789D01*
X92759890Y-150416205D01*
X92862292Y-150518607D01*
X92987708Y-150591015D01*
X93029765Y-150602284D01*
X92330893Y-151301155D01*
X92413828Y-151361411D01*
X92624197Y-151468599D01*
X92848752Y-151541562D01*
X92848751Y-151541562D01*
X93081948Y-151578497D01*
X93318052Y-151578497D01*
X93551247Y-151541562D01*
X93775802Y-151468599D01*
X93986163Y-151361415D01*
X93986169Y-151361411D01*
X94069104Y-151301155D01*
X94069105Y-151301155D01*
X93370233Y-150602284D01*
X93412292Y-150591015D01*
X93537708Y-150518607D01*
X93640110Y-150416205D01*
X93712518Y-150290789D01*
X93723787Y-150248730D01*
X94422658Y-150947602D01*
X94422658Y-150947601D01*
X94482914Y-150864666D01*
X94482918Y-150864660D01*
X94590102Y-150654299D01*
X94663065Y-150429744D01*
X94687745Y-150273920D01*
X96224499Y-150273920D01*
X96253340Y-150418907D01*
X96253343Y-150418917D01*
X96309912Y-150555488D01*
X96309919Y-150555501D01*
X96392048Y-150678415D01*
X96392051Y-150678419D01*
X96496580Y-150782948D01*
X96496584Y-150782951D01*
X96619498Y-150865080D01*
X96619511Y-150865087D01*
X96756082Y-150921656D01*
X96756087Y-150921658D01*
X96756091Y-150921658D01*
X96756092Y-150921659D01*
X96901079Y-150950500D01*
X96901082Y-150950500D01*
X97048920Y-150950500D01*
X97146462Y-150931096D01*
X97193913Y-150921658D01*
X97330495Y-150865084D01*
X97453416Y-150782951D01*
X97557951Y-150678416D01*
X97640084Y-150555495D01*
X97696658Y-150418913D01*
X97725500Y-150273918D01*
X97725500Y-150126082D01*
X97725500Y-150126079D01*
X97696658Y-149981088D01*
X97696656Y-149981082D01*
X97688089Y-149960399D01*
X98749500Y-149960399D01*
X98749500Y-150196594D01*
X98786446Y-150429865D01*
X98859433Y-150654493D01*
X98966519Y-150864660D01*
X98966657Y-150864930D01*
X99105483Y-151056007D01*
X99272490Y-151223014D01*
X99463567Y-151361840D01*
X99502490Y-151381672D01*
X99674003Y-151469063D01*
X99674005Y-151469063D01*
X99674008Y-151469065D01*
X99794412Y-151508186D01*
X99898631Y-151542050D01*
X100131903Y-151578997D01*
X100131908Y-151578997D01*
X100368097Y-151578997D01*
X100601368Y-151542050D01*
X100602870Y-151541562D01*
X100825992Y-151469065D01*
X101036433Y-151361840D01*
X101227510Y-151223014D01*
X101394517Y-151056007D01*
X101533343Y-150864930D01*
X101640568Y-150654489D01*
X101713553Y-150429865D01*
X101719579Y-150391816D01*
X101750500Y-150196594D01*
X101750500Y-149960444D01*
X105250000Y-149960444D01*
X105250000Y-150196549D01*
X105286934Y-150429744D01*
X105359897Y-150654299D01*
X105467087Y-150864671D01*
X105527338Y-150947601D01*
X105527340Y-150947602D01*
X106226212Y-150248730D01*
X106237482Y-150290789D01*
X106309890Y-150416205D01*
X106412292Y-150518607D01*
X106537708Y-150591015D01*
X106579765Y-150602284D01*
X105880893Y-151301155D01*
X105963828Y-151361411D01*
X106174197Y-151468599D01*
X106398752Y-151541562D01*
X106398751Y-151541562D01*
X106631948Y-151578497D01*
X106868052Y-151578497D01*
X107101247Y-151541562D01*
X107325802Y-151468599D01*
X107536163Y-151361415D01*
X107536169Y-151361411D01*
X107619104Y-151301155D01*
X107619105Y-151301155D01*
X106920233Y-150602284D01*
X106962292Y-150591015D01*
X107087708Y-150518607D01*
X107190110Y-150416205D01*
X107262518Y-150290789D01*
X107273787Y-150248731D01*
X107972658Y-150947602D01*
X107972658Y-150947601D01*
X108032914Y-150864666D01*
X108032918Y-150864660D01*
X108140102Y-150654299D01*
X108213065Y-150429744D01*
X108250000Y-150196549D01*
X108250000Y-149960444D01*
X108213065Y-149727249D01*
X108140102Y-149502694D01*
X108032914Y-149292325D01*
X107972658Y-149209391D01*
X107972658Y-149209390D01*
X107273787Y-149908262D01*
X107262518Y-149866205D01*
X107190110Y-149740789D01*
X107087708Y-149638387D01*
X106962292Y-149565979D01*
X106920234Y-149554709D01*
X107619105Y-148855837D01*
X107619104Y-148855835D01*
X107536174Y-148795584D01*
X107325802Y-148688394D01*
X107101247Y-148615431D01*
X107101248Y-148615431D01*
X106868052Y-148578497D01*
X106631948Y-148578497D01*
X106398752Y-148615431D01*
X106174197Y-148688394D01*
X105963830Y-148795581D01*
X105880894Y-148855837D01*
X106579766Y-149554709D01*
X106537708Y-149565979D01*
X106412292Y-149638387D01*
X106309890Y-149740789D01*
X106237482Y-149866205D01*
X106226212Y-149908263D01*
X105527340Y-149209391D01*
X105467084Y-149292327D01*
X105359897Y-149502694D01*
X105286934Y-149727249D01*
X105250000Y-149960444D01*
X101750500Y-149960444D01*
X101750500Y-149960399D01*
X101713553Y-149727128D01*
X101663772Y-149573920D01*
X101640568Y-149502505D01*
X101640566Y-149502502D01*
X101640566Y-149502500D01*
X101533477Y-149292327D01*
X101533343Y-149292064D01*
X101394517Y-149100987D01*
X101227510Y-148933980D01*
X101036433Y-148795154D01*
X101003434Y-148778340D01*
X100825996Y-148687930D01*
X100601368Y-148614943D01*
X100368097Y-148577997D01*
X100368092Y-148577997D01*
X100131908Y-148577997D01*
X100131903Y-148577997D01*
X99898631Y-148614943D01*
X99674003Y-148687930D01*
X99463566Y-148795154D01*
X99408839Y-148834916D01*
X99272490Y-148933980D01*
X99272488Y-148933982D01*
X99272487Y-148933982D01*
X99105485Y-149100984D01*
X99105485Y-149100985D01*
X99105483Y-149100987D01*
X99073865Y-149144505D01*
X98966657Y-149292063D01*
X98859433Y-149502500D01*
X98786446Y-149727128D01*
X98749500Y-149960399D01*
X97688089Y-149960399D01*
X97640087Y-149844511D01*
X97640080Y-149844498D01*
X97557951Y-149721584D01*
X97557948Y-149721580D01*
X97453419Y-149617051D01*
X97453415Y-149617048D01*
X97330501Y-149534919D01*
X97330488Y-149534912D01*
X97193917Y-149478343D01*
X97193907Y-149478340D01*
X97048920Y-149449500D01*
X97048918Y-149449500D01*
X96901082Y-149449500D01*
X96901080Y-149449500D01*
X96756092Y-149478340D01*
X96756082Y-149478343D01*
X96619511Y-149534912D01*
X96619498Y-149534919D01*
X96496584Y-149617048D01*
X96496580Y-149617051D01*
X96392051Y-149721580D01*
X96392048Y-149721584D01*
X96309919Y-149844498D01*
X96309912Y-149844511D01*
X96253343Y-149981082D01*
X96253340Y-149981092D01*
X96224500Y-150126079D01*
X96224500Y-150126082D01*
X96224500Y-150273918D01*
X96224500Y-150273920D01*
X96224499Y-150273920D01*
X94687745Y-150273920D01*
X94700000Y-150196549D01*
X94700000Y-149960444D01*
X94663065Y-149727249D01*
X94590102Y-149502694D01*
X94482914Y-149292325D01*
X94422658Y-149209391D01*
X94422658Y-149209390D01*
X93723787Y-149908262D01*
X93712518Y-149866205D01*
X93640110Y-149740789D01*
X93537708Y-149638387D01*
X93412292Y-149565979D01*
X93370234Y-149554709D01*
X94069105Y-148855837D01*
X94069104Y-148855835D01*
X93986174Y-148795584D01*
X93775802Y-148688394D01*
X93551247Y-148615431D01*
X93551248Y-148615431D01*
X93318052Y-148578497D01*
X93081948Y-148578497D01*
X92848752Y-148615431D01*
X92624197Y-148688394D01*
X92413830Y-148795581D01*
X92330894Y-148855837D01*
X93029766Y-149554709D01*
X92987708Y-149565979D01*
X92862292Y-149638387D01*
X92759890Y-149740789D01*
X92687482Y-149866205D01*
X92676212Y-149908263D01*
X91977340Y-149209391D01*
X91917084Y-149292327D01*
X91809897Y-149502694D01*
X91736934Y-149727249D01*
X91700000Y-149960444D01*
X88200500Y-149960444D01*
X88200500Y-149960399D01*
X88163553Y-149727128D01*
X88113772Y-149573920D01*
X88090568Y-149502505D01*
X88090566Y-149502502D01*
X88090566Y-149502500D01*
X87983477Y-149292327D01*
X87983343Y-149292064D01*
X87844517Y-149100987D01*
X87677510Y-148933980D01*
X87486433Y-148795154D01*
X87453434Y-148778340D01*
X87275996Y-148687930D01*
X87051368Y-148614943D01*
X86818097Y-148577997D01*
X86818092Y-148577997D01*
X86581908Y-148577997D01*
X86581903Y-148577997D01*
X86348631Y-148614943D01*
X86124003Y-148687930D01*
X85913566Y-148795154D01*
X85858839Y-148834916D01*
X85722490Y-148933980D01*
X85722488Y-148933982D01*
X85722487Y-148933982D01*
X85555485Y-149100984D01*
X85555485Y-149100985D01*
X85555483Y-149100987D01*
X85523865Y-149144505D01*
X85416657Y-149292063D01*
X85309433Y-149502500D01*
X85236446Y-149727128D01*
X85199500Y-149960399D01*
X83894989Y-149960399D01*
X83912620Y-149934011D01*
X83944273Y-149886642D01*
X83965080Y-149855501D01*
X83965080Y-149855500D01*
X83965084Y-149855495D01*
X84021658Y-149718913D01*
X84050500Y-149573918D01*
X84050500Y-149426082D01*
X84050500Y-149426079D01*
X84021659Y-149281092D01*
X84021658Y-149281091D01*
X84021658Y-149281087D01*
X83991960Y-149209390D01*
X83965087Y-149144511D01*
X83965080Y-149144498D01*
X83882951Y-149021584D01*
X83882948Y-149021580D01*
X83778419Y-148917051D01*
X83778415Y-148917048D01*
X83655501Y-148834919D01*
X83655488Y-148834912D01*
X83518917Y-148778343D01*
X83518907Y-148778340D01*
X83373920Y-148749500D01*
X83373918Y-148749500D01*
X83226082Y-148749500D01*
X83226080Y-148749500D01*
X83081092Y-148778340D01*
X83081082Y-148778343D01*
X82944511Y-148834912D01*
X82944498Y-148834919D01*
X82821584Y-148917048D01*
X82821580Y-148917051D01*
X82717051Y-149021580D01*
X82717048Y-149021584D01*
X82634919Y-149144498D01*
X82634912Y-149144511D01*
X82578343Y-149281082D01*
X82578340Y-149281092D01*
X82549500Y-149426079D01*
X82549500Y-149426082D01*
X82549500Y-149573918D01*
X82549500Y-149573920D01*
X82549499Y-149573920D01*
X58530278Y-149573920D01*
X58532990Y-149568780D01*
X58549023Y-149554886D01*
X58700199Y-149445052D01*
X58854852Y-149290399D01*
X58854854Y-149290395D01*
X58854857Y-149290393D01*
X58960849Y-149144505D01*
X58983407Y-149113457D01*
X59082701Y-148918583D01*
X59150286Y-148710575D01*
X59171284Y-148577997D01*
X59184500Y-148494561D01*
X59184500Y-148275838D01*
X116405500Y-148275838D01*
X116405500Y-148494561D01*
X116439714Y-148710576D01*
X116507297Y-148918580D01*
X116507298Y-148918583D01*
X116559779Y-149021580D01*
X116600239Y-149100987D01*
X116606595Y-149113460D01*
X116735142Y-149290393D01*
X116889806Y-149445057D01*
X117040969Y-149554882D01*
X117083635Y-149610211D01*
X117089614Y-149679825D01*
X117057009Y-149741620D01*
X117040969Y-149755518D01*
X116889806Y-149865342D01*
X116735142Y-150020006D01*
X116606595Y-150196939D01*
X116507298Y-150391816D01*
X116507297Y-150391819D01*
X116439714Y-150599823D01*
X116405500Y-150815838D01*
X116405500Y-151034561D01*
X116439714Y-151250576D01*
X116507297Y-151458580D01*
X116507298Y-151458583D01*
X116606595Y-151653460D01*
X116735142Y-151830393D01*
X116889806Y-151985057D01*
X117012714Y-152074353D01*
X117066743Y-152113607D01*
X117194132Y-152178515D01*
X117261616Y-152212901D01*
X117261619Y-152212902D01*
X117365621Y-152246693D01*
X117469625Y-152280486D01*
X117569672Y-152296332D01*
X117685639Y-152314700D01*
X117685644Y-152314700D01*
X117904361Y-152314700D01*
X118009082Y-152298112D01*
X118120375Y-152280486D01*
X118328383Y-152212901D01*
X118523257Y-152113607D01*
X118622601Y-152041429D01*
X118700193Y-151985057D01*
X118700195Y-151985054D01*
X118700199Y-151985052D01*
X118854852Y-151830399D01*
X118854854Y-151830395D01*
X118854857Y-151830393D01*
X118935848Y-151718917D01*
X118983407Y-151653457D01*
X119082701Y-151458583D01*
X119150286Y-151250575D01*
X119167912Y-151139282D01*
X119184500Y-151034561D01*
X119184500Y-150815838D01*
X119162734Y-150678419D01*
X119150286Y-150599825D01*
X119095774Y-150432051D01*
X119082702Y-150391819D01*
X119082701Y-150391816D01*
X119022628Y-150273918D01*
X118983407Y-150196943D01*
X118975147Y-150185574D01*
X118854857Y-150020006D01*
X118700199Y-149865348D01*
X118671501Y-149844498D01*
X118549028Y-149755516D01*
X118506364Y-149700189D01*
X118500385Y-149630576D01*
X118532990Y-149568780D01*
X118549023Y-149554886D01*
X118700199Y-149445052D01*
X118854852Y-149290399D01*
X118854854Y-149290395D01*
X118854857Y-149290393D01*
X118960849Y-149144505D01*
X118983407Y-149113457D01*
X119082701Y-148918583D01*
X119150286Y-148710575D01*
X119171284Y-148577997D01*
X119184500Y-148494561D01*
X119184500Y-148275838D01*
X119164595Y-148150171D01*
X119150286Y-148059825D01*
X119082701Y-147851817D01*
X119082701Y-147851816D01*
X119048315Y-147784332D01*
X118983407Y-147656943D01*
X118975147Y-147645574D01*
X118854857Y-147480006D01*
X118700197Y-147325346D01*
X118700192Y-147325342D01*
X118566290Y-147228057D01*
X118523624Y-147172727D01*
X118517645Y-147103114D01*
X118550250Y-147041319D01*
X118566290Y-147027421D01*
X118599638Y-147003191D01*
X118599639Y-147003191D01*
X117894094Y-146297647D01*
X117981571Y-146274208D01*
X118082930Y-146215689D01*
X118165689Y-146132930D01*
X118224208Y-146031571D01*
X118247647Y-145944095D01*
X118953191Y-146649639D01*
X118953191Y-146649638D01*
X118997978Y-146587995D01*
X119097237Y-146393191D01*
X119097238Y-146393188D01*
X119164797Y-146185259D01*
X119199000Y-145969316D01*
X119199000Y-145750683D01*
X119164797Y-145534740D01*
X119097238Y-145326811D01*
X119097237Y-145326808D01*
X118997980Y-145132008D01*
X118953191Y-145070360D01*
X118247647Y-145775904D01*
X118224208Y-145688429D01*
X118165689Y-145587070D01*
X118082930Y-145504311D01*
X117981571Y-145445792D01*
X117894092Y-145422352D01*
X118599638Y-144716807D01*
X118599638Y-144716806D01*
X118537995Y-144672021D01*
X118537993Y-144672020D01*
X118343191Y-144572762D01*
X118343188Y-144572761D01*
X118135259Y-144505202D01*
X117919316Y-144471000D01*
X117700684Y-144471000D01*
X117484740Y-144505202D01*
X117276811Y-144572761D01*
X117276808Y-144572762D01*
X117082001Y-144672023D01*
X117020360Y-144716806D01*
X117020360Y-144716807D01*
X117725905Y-145422352D01*
X117638429Y-145445792D01*
X117537070Y-145504311D01*
X117454311Y-145587070D01*
X117395792Y-145688429D01*
X117372352Y-145775905D01*
X116666807Y-145070360D01*
X116666806Y-145070360D01*
X116622023Y-145132001D01*
X116522762Y-145326808D01*
X116522761Y-145326811D01*
X116455202Y-145534740D01*
X116421000Y-145750683D01*
X116421000Y-145969316D01*
X116455202Y-146185259D01*
X116522761Y-146393188D01*
X116522762Y-146393191D01*
X116622020Y-146587993D01*
X116622021Y-146587995D01*
X116666806Y-146649638D01*
X116666807Y-146649638D01*
X117372352Y-145944093D01*
X117395792Y-146031571D01*
X117454311Y-146132930D01*
X117537070Y-146215689D01*
X117638429Y-146274208D01*
X117725905Y-146297647D01*
X117020360Y-147003191D01*
X117038709Y-147016522D01*
X117081375Y-147071852D01*
X117087354Y-147141465D01*
X117054749Y-147203261D01*
X117038709Y-147217159D01*
X116889807Y-147325342D01*
X116889802Y-147325346D01*
X116735142Y-147480006D01*
X116606595Y-147656939D01*
X116507298Y-147851816D01*
X116507297Y-147851819D01*
X116439714Y-148059823D01*
X116405500Y-148275838D01*
X59184500Y-148275838D01*
X59164595Y-148150171D01*
X59150286Y-148059825D01*
X59082701Y-147851817D01*
X59082701Y-147851816D01*
X59048315Y-147784332D01*
X58983407Y-147656943D01*
X58975147Y-147645574D01*
X58854857Y-147480006D01*
X58700197Y-147325346D01*
X58700192Y-147325342D01*
X58566290Y-147228057D01*
X58523624Y-147172727D01*
X58517645Y-147103114D01*
X58550250Y-147041319D01*
X58566290Y-147027421D01*
X58599638Y-147003191D01*
X58599639Y-147003191D01*
X57894094Y-146297647D01*
X57981571Y-146274208D01*
X58082930Y-146215689D01*
X58165689Y-146132930D01*
X58224208Y-146031571D01*
X58247647Y-145944095D01*
X58953191Y-146649639D01*
X58953191Y-146649638D01*
X58997978Y-146587995D01*
X59097237Y-146393191D01*
X59097238Y-146393188D01*
X59164797Y-146185259D01*
X59199000Y-145969316D01*
X59199000Y-145750683D01*
X59186842Y-145673920D01*
X82449499Y-145673920D01*
X82478340Y-145818907D01*
X82478343Y-145818917D01*
X82534912Y-145955488D01*
X82534919Y-145955501D01*
X82617048Y-146078415D01*
X82617051Y-146078419D01*
X82721580Y-146182948D01*
X82721584Y-146182951D01*
X82844498Y-146265080D01*
X82844511Y-146265087D01*
X82981082Y-146321656D01*
X82981087Y-146321658D01*
X82981091Y-146321658D01*
X82981092Y-146321659D01*
X83126079Y-146350500D01*
X83126082Y-146350500D01*
X83273920Y-146350500D01*
X83371462Y-146331096D01*
X83418913Y-146321658D01*
X83555495Y-146265084D01*
X83678416Y-146182951D01*
X83782951Y-146078416D01*
X83865084Y-145955495D01*
X83921658Y-145818913D01*
X83940058Y-145726412D01*
X83950500Y-145673920D01*
X83950500Y-145526079D01*
X83941279Y-145479725D01*
X83937435Y-145460399D01*
X85199500Y-145460399D01*
X85199500Y-145696594D01*
X85236446Y-145929865D01*
X85309433Y-146154493D01*
X85416657Y-146364930D01*
X85555483Y-146556007D01*
X85722490Y-146723014D01*
X85913567Y-146861840D01*
X86012991Y-146912499D01*
X86124003Y-146969063D01*
X86124005Y-146969063D01*
X86124008Y-146969065D01*
X86205982Y-146995700D01*
X86348631Y-147042050D01*
X86581903Y-147078997D01*
X86581908Y-147078997D01*
X86818097Y-147078997D01*
X87051368Y-147042050D01*
X87053618Y-147041319D01*
X87275992Y-146969065D01*
X87486433Y-146861840D01*
X87677510Y-146723014D01*
X87844517Y-146556007D01*
X87983343Y-146364930D01*
X88090568Y-146154489D01*
X88163553Y-145929865D01*
X88165350Y-145918520D01*
X88200500Y-145696594D01*
X88200500Y-145460399D01*
X91699500Y-145460399D01*
X91699500Y-145696594D01*
X91736446Y-145929865D01*
X91809433Y-146154493D01*
X91916657Y-146364930D01*
X92055483Y-146556007D01*
X92222490Y-146723014D01*
X92413567Y-146861840D01*
X92512991Y-146912499D01*
X92624003Y-146969063D01*
X92624005Y-146969063D01*
X92624008Y-146969065D01*
X92705982Y-146995700D01*
X92848631Y-147042050D01*
X93081903Y-147078997D01*
X93081908Y-147078997D01*
X93318097Y-147078997D01*
X93551368Y-147042050D01*
X93553618Y-147041319D01*
X93775992Y-146969065D01*
X93986433Y-146861840D01*
X94177510Y-146723014D01*
X94344517Y-146556007D01*
X94483343Y-146364930D01*
X94590568Y-146154489D01*
X94663553Y-145929865D01*
X94665350Y-145918520D01*
X94700500Y-145696594D01*
X94700500Y-145460399D01*
X98749500Y-145460399D01*
X98749500Y-145696594D01*
X98786446Y-145929865D01*
X98859433Y-146154493D01*
X98966657Y-146364930D01*
X99105483Y-146556007D01*
X99272490Y-146723014D01*
X99463567Y-146861840D01*
X99562991Y-146912499D01*
X99674003Y-146969063D01*
X99674005Y-146969063D01*
X99674008Y-146969065D01*
X99755982Y-146995700D01*
X99898631Y-147042050D01*
X100131903Y-147078997D01*
X100131908Y-147078997D01*
X100368097Y-147078997D01*
X100601368Y-147042050D01*
X100603618Y-147041319D01*
X100825992Y-146969065D01*
X101036433Y-146861840D01*
X101227510Y-146723014D01*
X101394517Y-146556007D01*
X101533343Y-146364930D01*
X101640568Y-146154489D01*
X101713553Y-145929865D01*
X101715350Y-145918520D01*
X101750500Y-145696594D01*
X101750500Y-145460399D01*
X105249500Y-145460399D01*
X105249500Y-145696594D01*
X105286446Y-145929865D01*
X105359433Y-146154493D01*
X105466657Y-146364930D01*
X105605483Y-146556007D01*
X105772490Y-146723014D01*
X105963567Y-146861840D01*
X106062991Y-146912499D01*
X106174003Y-146969063D01*
X106174005Y-146969063D01*
X106174008Y-146969065D01*
X106255982Y-146995700D01*
X106398631Y-147042050D01*
X106631903Y-147078997D01*
X106631908Y-147078997D01*
X106868097Y-147078997D01*
X107101368Y-147042050D01*
X107103618Y-147041319D01*
X107325992Y-146969065D01*
X107536433Y-146861840D01*
X107727510Y-146723014D01*
X107894517Y-146556007D01*
X108033343Y-146364930D01*
X108140568Y-146154489D01*
X108213553Y-145929865D01*
X108224618Y-145860001D01*
X108245777Y-145726413D01*
X108245777Y-145726412D01*
X108250500Y-145696593D01*
X108250500Y-145460399D01*
X108213553Y-145227128D01*
X108145294Y-145017051D01*
X108140568Y-145002505D01*
X108140566Y-145002502D01*
X108140566Y-145002500D01*
X108047761Y-144820361D01*
X108033342Y-144792063D01*
X107894517Y-144600987D01*
X107727510Y-144433980D01*
X107536433Y-144295154D01*
X107325996Y-144187930D01*
X107101368Y-144114943D01*
X106868097Y-144077997D01*
X106868092Y-144077997D01*
X106631908Y-144077997D01*
X106631903Y-144077997D01*
X106398631Y-144114943D01*
X106174003Y-144187930D01*
X105963566Y-144295154D01*
X105854550Y-144374359D01*
X105772490Y-144433980D01*
X105772488Y-144433982D01*
X105772487Y-144433982D01*
X105605485Y-144600984D01*
X105605485Y-144600985D01*
X105605483Y-144600987D01*
X105553874Y-144672020D01*
X105466657Y-144792063D01*
X105359433Y-145002500D01*
X105286446Y-145227128D01*
X105249500Y-145460399D01*
X101750500Y-145460399D01*
X101713553Y-145227128D01*
X101645294Y-145017051D01*
X101640568Y-145002505D01*
X101640566Y-145002502D01*
X101640566Y-145002500D01*
X101562608Y-144849500D01*
X101533343Y-144792064D01*
X101394517Y-144600987D01*
X101227510Y-144433980D01*
X101036433Y-144295154D01*
X100825996Y-144187930D01*
X100601368Y-144114943D01*
X100368097Y-144077997D01*
X100368092Y-144077997D01*
X100131908Y-144077997D01*
X100131903Y-144077997D01*
X99898631Y-144114943D01*
X99674003Y-144187930D01*
X99463566Y-144295154D01*
X99354550Y-144374359D01*
X99272490Y-144433980D01*
X99272488Y-144433982D01*
X99272487Y-144433982D01*
X99105485Y-144600984D01*
X99105485Y-144600985D01*
X99105483Y-144600987D01*
X99053874Y-144672020D01*
X98966657Y-144792063D01*
X98859433Y-145002500D01*
X98786446Y-145227128D01*
X98749500Y-145460399D01*
X94700500Y-145460399D01*
X94663553Y-145227128D01*
X94595294Y-145017051D01*
X94590568Y-145002505D01*
X94590566Y-145002502D01*
X94590566Y-145002500D01*
X94512608Y-144849500D01*
X94483343Y-144792064D01*
X94344517Y-144600987D01*
X94177510Y-144433980D01*
X93986433Y-144295154D01*
X93775996Y-144187930D01*
X93551368Y-144114943D01*
X93318097Y-144077997D01*
X93318092Y-144077997D01*
X93081908Y-144077997D01*
X93081903Y-144077997D01*
X92848631Y-144114943D01*
X92624003Y-144187930D01*
X92413566Y-144295154D01*
X92304550Y-144374359D01*
X92222490Y-144433980D01*
X92222488Y-144433982D01*
X92222487Y-144433982D01*
X92055485Y-144600984D01*
X92055485Y-144600985D01*
X92055483Y-144600987D01*
X92003874Y-144672020D01*
X91916657Y-144792063D01*
X91809433Y-145002500D01*
X91736446Y-145227128D01*
X91699500Y-145460399D01*
X88200500Y-145460399D01*
X88163553Y-145227128D01*
X88095294Y-145017051D01*
X88090568Y-145002505D01*
X88090566Y-145002502D01*
X88090566Y-145002500D01*
X88012608Y-144849500D01*
X87983343Y-144792064D01*
X87844517Y-144600987D01*
X87677510Y-144433980D01*
X87486433Y-144295154D01*
X87275996Y-144187930D01*
X87051368Y-144114943D01*
X86818097Y-144077997D01*
X86818092Y-144077997D01*
X86581908Y-144077997D01*
X86581903Y-144077997D01*
X86348631Y-144114943D01*
X86124003Y-144187930D01*
X85913566Y-144295154D01*
X85804550Y-144374359D01*
X85722490Y-144433980D01*
X85722488Y-144433982D01*
X85722487Y-144433982D01*
X85555485Y-144600984D01*
X85555485Y-144600985D01*
X85555483Y-144600987D01*
X85503874Y-144672020D01*
X85416657Y-144792063D01*
X85309433Y-145002500D01*
X85236446Y-145227128D01*
X85199500Y-145460399D01*
X83937435Y-145460399D01*
X83921659Y-145381092D01*
X83921658Y-145381091D01*
X83921658Y-145381087D01*
X83899175Y-145326808D01*
X83865087Y-145244511D01*
X83865080Y-145244498D01*
X83782951Y-145121584D01*
X83782948Y-145121580D01*
X83678419Y-145017051D01*
X83678415Y-145017048D01*
X83555501Y-144934919D01*
X83555488Y-144934912D01*
X83418917Y-144878343D01*
X83418907Y-144878340D01*
X83273920Y-144849500D01*
X83273918Y-144849500D01*
X83126082Y-144849500D01*
X83126080Y-144849500D01*
X82981092Y-144878340D01*
X82981082Y-144878343D01*
X82844511Y-144934912D01*
X82844498Y-144934919D01*
X82721584Y-145017048D01*
X82721580Y-145017051D01*
X82617051Y-145121580D01*
X82617048Y-145121584D01*
X82534919Y-145244498D01*
X82534912Y-145244511D01*
X82478343Y-145381082D01*
X82478340Y-145381092D01*
X82449500Y-145526079D01*
X82449500Y-145526082D01*
X82449500Y-145673918D01*
X82449500Y-145673920D01*
X82449499Y-145673920D01*
X59186842Y-145673920D01*
X59165534Y-145539388D01*
X59164797Y-145534740D01*
X59097238Y-145326811D01*
X59097237Y-145326808D01*
X58997980Y-145132008D01*
X58953191Y-145070360D01*
X58247647Y-145775904D01*
X58224208Y-145688429D01*
X58165689Y-145587070D01*
X58082930Y-145504311D01*
X57981571Y-145445792D01*
X57894092Y-145422352D01*
X58599638Y-144716807D01*
X58599638Y-144716806D01*
X58537995Y-144672021D01*
X58537993Y-144672020D01*
X58343191Y-144572762D01*
X58343188Y-144572761D01*
X58135259Y-144505202D01*
X57919316Y-144471000D01*
X57700684Y-144471000D01*
X57484740Y-144505202D01*
X57276811Y-144572761D01*
X57276808Y-144572762D01*
X57082001Y-144672023D01*
X57020360Y-144716806D01*
X57020360Y-144716807D01*
X57725905Y-145422352D01*
X57638429Y-145445792D01*
X57537070Y-145504311D01*
X57454311Y-145587070D01*
X57395792Y-145688429D01*
X57372352Y-145775905D01*
X56666807Y-145070360D01*
X56666806Y-145070360D01*
X56622023Y-145132001D01*
X56522762Y-145326808D01*
X56522761Y-145326811D01*
X56455202Y-145534740D01*
X56421000Y-145750683D01*
X56421000Y-145969316D01*
X56455202Y-146185259D01*
X56522761Y-146393188D01*
X56522762Y-146393191D01*
X56622020Y-146587993D01*
X56622021Y-146587995D01*
X56666806Y-146649638D01*
X56666807Y-146649638D01*
X57372352Y-145944093D01*
X57395792Y-146031571D01*
X57454311Y-146132930D01*
X57537070Y-146215689D01*
X57638429Y-146274208D01*
X57725905Y-146297647D01*
X57020360Y-147003191D01*
X57038709Y-147016522D01*
X57081375Y-147071852D01*
X57087354Y-147141465D01*
X57054749Y-147203261D01*
X57038709Y-147217159D01*
X56889807Y-147325342D01*
X56889802Y-147325346D01*
X56735142Y-147480006D01*
X56606595Y-147656939D01*
X56507298Y-147851816D01*
X56507297Y-147851819D01*
X56439714Y-148059823D01*
X56405500Y-148275838D01*
X47000500Y-148275838D01*
X47000500Y-143205848D01*
X58706500Y-143205848D01*
X58706500Y-143464551D01*
X58745946Y-143713604D01*
X58746968Y-143720054D01*
X58826909Y-143966085D01*
X58944353Y-144196582D01*
X59096408Y-144405868D01*
X59279332Y-144588792D01*
X59488618Y-144740847D01*
X59719115Y-144858291D01*
X59965146Y-144938232D01*
X60060961Y-144953407D01*
X60220649Y-144978700D01*
X60220654Y-144978700D01*
X60479351Y-144978700D01*
X60621294Y-144956217D01*
X60734854Y-144938232D01*
X60980885Y-144858291D01*
X61211382Y-144740847D01*
X61420668Y-144588792D01*
X61603592Y-144405868D01*
X61755647Y-144196582D01*
X61873091Y-143966085D01*
X61953032Y-143720054D01*
X61979419Y-143553452D01*
X61993500Y-143464551D01*
X61993500Y-143205848D01*
X61963550Y-143016755D01*
X61953032Y-142950346D01*
X61873091Y-142704315D01*
X61755647Y-142473818D01*
X61713522Y-142415838D01*
X62135500Y-142415838D01*
X62135500Y-142634561D01*
X62159195Y-142784172D01*
X62159199Y-142784189D01*
X62169714Y-142850575D01*
X62204130Y-142956498D01*
X62204135Y-142956517D01*
X62237297Y-143058580D01*
X62237298Y-143058583D01*
X62336595Y-143253460D01*
X62465142Y-143430393D01*
X62619806Y-143585057D01*
X62762036Y-143688391D01*
X62796743Y-143713607D01*
X62924132Y-143778515D01*
X62991616Y-143812901D01*
X62991619Y-143812902D01*
X63095621Y-143846693D01*
X63199625Y-143880486D01*
X63299672Y-143896332D01*
X63415639Y-143914700D01*
X63415644Y-143914700D01*
X63634361Y-143914700D01*
X63739082Y-143898112D01*
X63850375Y-143880486D01*
X64058383Y-143812901D01*
X64253257Y-143713607D01*
X64352601Y-143641429D01*
X64430193Y-143585057D01*
X64430195Y-143585054D01*
X64430199Y-143585052D01*
X64584852Y-143430399D01*
X64584854Y-143430395D01*
X64584857Y-143430393D01*
X64654281Y-143334838D01*
X64713407Y-143253457D01*
X64812701Y-143058583D01*
X64880286Y-142850575D01*
X64901142Y-142718894D01*
X64914500Y-142634561D01*
X64914500Y-142435883D01*
X68496000Y-142435883D01*
X68496000Y-142654516D01*
X68530202Y-142870459D01*
X68597761Y-143078388D01*
X68597762Y-143078391D01*
X68697020Y-143273193D01*
X68697021Y-143273195D01*
X68741806Y-143334838D01*
X68741807Y-143334838D01*
X69442861Y-142633784D01*
X69465667Y-142718894D01*
X69524910Y-142821506D01*
X69608694Y-142905290D01*
X69711306Y-142964533D01*
X69796414Y-142987337D01*
X69095360Y-143688391D01*
X69157008Y-143733180D01*
X69351808Y-143832437D01*
X69351811Y-143832438D01*
X69559740Y-143899997D01*
X69775684Y-143934200D01*
X69994316Y-143934200D01*
X70210259Y-143899997D01*
X70418188Y-143832438D01*
X70418191Y-143832437D01*
X70612995Y-143733178D01*
X70674638Y-143688391D01*
X70674639Y-143688391D01*
X69973585Y-142987338D01*
X70058694Y-142964533D01*
X70161306Y-142905290D01*
X70245090Y-142821506D01*
X70304333Y-142718894D01*
X70327137Y-142633785D01*
X71028191Y-143334839D01*
X71028191Y-143334838D01*
X71072978Y-143273195D01*
X71172236Y-143078392D01*
X71177107Y-143063400D01*
X71216543Y-143005723D01*
X71280900Y-142978522D01*
X71349747Y-142990433D01*
X71401225Y-143037676D01*
X71418990Y-143105249D01*
X71417514Y-143121110D01*
X71406500Y-143190653D01*
X71406500Y-143449351D01*
X71446967Y-143704850D01*
X71446968Y-143704854D01*
X71526909Y-143950885D01*
X71644353Y-144181382D01*
X71796408Y-144390668D01*
X71979332Y-144573592D01*
X72188618Y-144725647D01*
X72419115Y-144843091D01*
X72665146Y-144923032D01*
X72760961Y-144938207D01*
X72920649Y-144963500D01*
X72920654Y-144963500D01*
X73179351Y-144963500D01*
X73321294Y-144941017D01*
X73434854Y-144923032D01*
X73680885Y-144843091D01*
X73911382Y-144725647D01*
X74120668Y-144573592D01*
X74303592Y-144390668D01*
X74455647Y-144181382D01*
X74573091Y-143950885D01*
X74653032Y-143704854D01*
X74672007Y-143585052D01*
X74693500Y-143449351D01*
X74693500Y-143205848D01*
X118706500Y-143205848D01*
X118706500Y-143464551D01*
X118745946Y-143713604D01*
X118746968Y-143720054D01*
X118826909Y-143966085D01*
X118944353Y-144196582D01*
X119096408Y-144405868D01*
X119279332Y-144588792D01*
X119488618Y-144740847D01*
X119719115Y-144858291D01*
X119965146Y-144938232D01*
X120060961Y-144953407D01*
X120220649Y-144978700D01*
X120220654Y-144978700D01*
X120479351Y-144978700D01*
X120621294Y-144956217D01*
X120734854Y-144938232D01*
X120980885Y-144858291D01*
X121211382Y-144740847D01*
X121420668Y-144588792D01*
X121603592Y-144405868D01*
X121755647Y-144196582D01*
X121873091Y-143966085D01*
X121953032Y-143720054D01*
X121979419Y-143553452D01*
X121993500Y-143464551D01*
X121993500Y-143205848D01*
X121963550Y-143016755D01*
X121953032Y-142950346D01*
X121873091Y-142704315D01*
X121755647Y-142473818D01*
X121713522Y-142415838D01*
X122135500Y-142415838D01*
X122135500Y-142634561D01*
X122159195Y-142784172D01*
X122159199Y-142784189D01*
X122169714Y-142850575D01*
X122204130Y-142956498D01*
X122204135Y-142956517D01*
X122237297Y-143058580D01*
X122237298Y-143058583D01*
X122336595Y-143253460D01*
X122465142Y-143430393D01*
X122619806Y-143585057D01*
X122762036Y-143688391D01*
X122796743Y-143713607D01*
X122924132Y-143778515D01*
X122991616Y-143812901D01*
X122991619Y-143812902D01*
X123095621Y-143846693D01*
X123199625Y-143880486D01*
X123299672Y-143896332D01*
X123415639Y-143914700D01*
X123415644Y-143914700D01*
X123634361Y-143914700D01*
X123739082Y-143898112D01*
X123850375Y-143880486D01*
X124058383Y-143812901D01*
X124253257Y-143713607D01*
X124352601Y-143641429D01*
X124430193Y-143585057D01*
X124430195Y-143585054D01*
X124430199Y-143585052D01*
X124584852Y-143430399D01*
X124584854Y-143430395D01*
X124584857Y-143430393D01*
X124654281Y-143334838D01*
X124713407Y-143253457D01*
X124812701Y-143058583D01*
X124880286Y-142850575D01*
X124901142Y-142718894D01*
X124914500Y-142634561D01*
X124914500Y-142435883D01*
X128496000Y-142435883D01*
X128496000Y-142654516D01*
X128530202Y-142870459D01*
X128597761Y-143078388D01*
X128597762Y-143078391D01*
X128697020Y-143273193D01*
X128697021Y-143273195D01*
X128741806Y-143334838D01*
X128741807Y-143334838D01*
X129442861Y-142633784D01*
X129465667Y-142718894D01*
X129524910Y-142821506D01*
X129608694Y-142905290D01*
X129711306Y-142964533D01*
X129796414Y-142987337D01*
X129095360Y-143688391D01*
X129157008Y-143733180D01*
X129351808Y-143832437D01*
X129351811Y-143832438D01*
X129559740Y-143899997D01*
X129775684Y-143934200D01*
X129994316Y-143934200D01*
X130210259Y-143899997D01*
X130418188Y-143832438D01*
X130418191Y-143832437D01*
X130612995Y-143733178D01*
X130674638Y-143688391D01*
X130674639Y-143688391D01*
X129973585Y-142987338D01*
X130058694Y-142964533D01*
X130161306Y-142905290D01*
X130245090Y-142821506D01*
X130304333Y-142718894D01*
X130327137Y-142633785D01*
X131028191Y-143334839D01*
X131028191Y-143334838D01*
X131072978Y-143273195D01*
X131172236Y-143078392D01*
X131177107Y-143063400D01*
X131216543Y-143005723D01*
X131280900Y-142978522D01*
X131349747Y-142990433D01*
X131401225Y-143037676D01*
X131418990Y-143105249D01*
X131417514Y-143121110D01*
X131406500Y-143190653D01*
X131406500Y-143449351D01*
X131446967Y-143704850D01*
X131446968Y-143704854D01*
X131526909Y-143950885D01*
X131644353Y-144181382D01*
X131796408Y-144390668D01*
X131979332Y-144573592D01*
X132188618Y-144725647D01*
X132419115Y-144843091D01*
X132665146Y-144923032D01*
X132760961Y-144938207D01*
X132920649Y-144963500D01*
X132920654Y-144963500D01*
X133179351Y-144963500D01*
X133321294Y-144941017D01*
X133434854Y-144923032D01*
X133680885Y-144843091D01*
X133911382Y-144725647D01*
X134120668Y-144573592D01*
X134303592Y-144390668D01*
X134455647Y-144181382D01*
X134573091Y-143950885D01*
X134653032Y-143704854D01*
X134672007Y-143585052D01*
X134693500Y-143449351D01*
X134693500Y-143190648D01*
X134664210Y-143005723D01*
X134653032Y-142935146D01*
X134573091Y-142689115D01*
X134455647Y-142458618D01*
X134303592Y-142249332D01*
X134120668Y-142066408D01*
X133911382Y-141914353D01*
X133680885Y-141796909D01*
X133434854Y-141716968D01*
X133434852Y-141716967D01*
X133434850Y-141716967D01*
X133179351Y-141676500D01*
X133179346Y-141676500D01*
X132920654Y-141676500D01*
X132920649Y-141676500D01*
X132665149Y-141716967D01*
X132419112Y-141796910D01*
X132188617Y-141914353D01*
X131979329Y-142066410D01*
X131796410Y-142249329D01*
X131644353Y-142458617D01*
X131526911Y-142689109D01*
X131509654Y-142742221D01*
X131470215Y-142799896D01*
X131405856Y-142827093D01*
X131337010Y-142815178D01*
X131285535Y-142767933D01*
X131267774Y-142700359D01*
X131269250Y-142684501D01*
X131274000Y-142654513D01*
X131274000Y-142435883D01*
X131239797Y-142219940D01*
X131172238Y-142012011D01*
X131172237Y-142012008D01*
X131072980Y-141817208D01*
X131028191Y-141755560D01*
X130327137Y-142456614D01*
X130304333Y-142371506D01*
X130245090Y-142268894D01*
X130161306Y-142185110D01*
X130058694Y-142125867D01*
X129973583Y-142103061D01*
X130674638Y-141402007D01*
X130674638Y-141402006D01*
X130612995Y-141357221D01*
X130612993Y-141357220D01*
X130418191Y-141257962D01*
X130418188Y-141257961D01*
X130210259Y-141190402D01*
X129994316Y-141156200D01*
X129775684Y-141156200D01*
X129559740Y-141190402D01*
X129351811Y-141257961D01*
X129351808Y-141257962D01*
X129157001Y-141357223D01*
X129095360Y-141402006D01*
X129095360Y-141402007D01*
X129796414Y-142103061D01*
X129711306Y-142125867D01*
X129608694Y-142185110D01*
X129524910Y-142268894D01*
X129465667Y-142371506D01*
X129442861Y-142456614D01*
X128741807Y-141755560D01*
X128741806Y-141755560D01*
X128697023Y-141817201D01*
X128597762Y-142012008D01*
X128597761Y-142012011D01*
X128530202Y-142219940D01*
X128496000Y-142435883D01*
X124914500Y-142435883D01*
X124914500Y-142415838D01*
X124891225Y-142268894D01*
X124880286Y-142199825D01*
X124841876Y-142081610D01*
X124812702Y-141991819D01*
X124812701Y-141991816D01*
X124773231Y-141914353D01*
X124713407Y-141796943D01*
X124666345Y-141732167D01*
X124584857Y-141620006D01*
X124430193Y-141465342D01*
X124253260Y-141336795D01*
X124253259Y-141336794D01*
X124253257Y-141336793D01*
X124190825Y-141304982D01*
X124058383Y-141237498D01*
X124058380Y-141237497D01*
X123850376Y-141169914D01*
X123634361Y-141135700D01*
X123634356Y-141135700D01*
X123415644Y-141135700D01*
X123415639Y-141135700D01*
X123199623Y-141169914D01*
X122991619Y-141237497D01*
X122991616Y-141237498D01*
X122796739Y-141336795D01*
X122619806Y-141465342D01*
X122465142Y-141620006D01*
X122336595Y-141796939D01*
X122237298Y-141991816D01*
X122237297Y-141991819D01*
X122169714Y-142199823D01*
X122135500Y-142415838D01*
X121713522Y-142415838D01*
X121603592Y-142264532D01*
X121420668Y-142081608D01*
X121211382Y-141929553D01*
X120980885Y-141812109D01*
X120734854Y-141732168D01*
X120734852Y-141732167D01*
X120734850Y-141732167D01*
X120479351Y-141691700D01*
X120479346Y-141691700D01*
X120220654Y-141691700D01*
X120220649Y-141691700D01*
X119965149Y-141732167D01*
X119719112Y-141812110D01*
X119488617Y-141929553D01*
X119279329Y-142081610D01*
X119096410Y-142264529D01*
X118944353Y-142473817D01*
X118826910Y-142704312D01*
X118826909Y-142704314D01*
X118826909Y-142704315D01*
X118806238Y-142767933D01*
X118746967Y-142950349D01*
X118706500Y-143205848D01*
X74693500Y-143205848D01*
X74693500Y-143190648D01*
X74664210Y-143005723D01*
X74653032Y-142935146D01*
X74573091Y-142689115D01*
X74455647Y-142458618D01*
X74303592Y-142249332D01*
X74120668Y-142066408D01*
X73911382Y-141914353D01*
X73680885Y-141796909D01*
X73434854Y-141716968D01*
X73434852Y-141716967D01*
X73434850Y-141716967D01*
X73179351Y-141676500D01*
X73179346Y-141676500D01*
X72920654Y-141676500D01*
X72920649Y-141676500D01*
X72665149Y-141716967D01*
X72419112Y-141796910D01*
X72188617Y-141914353D01*
X71979329Y-142066410D01*
X71796410Y-142249329D01*
X71644353Y-142458617D01*
X71526911Y-142689109D01*
X71509654Y-142742221D01*
X71470215Y-142799896D01*
X71405856Y-142827093D01*
X71337010Y-142815178D01*
X71285535Y-142767933D01*
X71267774Y-142700359D01*
X71269250Y-142684501D01*
X71274000Y-142654513D01*
X71274000Y-142435883D01*
X71239797Y-142219940D01*
X71172238Y-142012011D01*
X71172237Y-142012008D01*
X71072980Y-141817208D01*
X71028191Y-141755560D01*
X70327137Y-142456614D01*
X70304333Y-142371506D01*
X70245090Y-142268894D01*
X70161306Y-142185110D01*
X70058694Y-142125867D01*
X69973583Y-142103061D01*
X70674638Y-141402007D01*
X70674638Y-141402006D01*
X70612995Y-141357221D01*
X70612993Y-141357220D01*
X70418191Y-141257962D01*
X70418188Y-141257961D01*
X70210259Y-141190402D01*
X69994316Y-141156200D01*
X69775684Y-141156200D01*
X69559740Y-141190402D01*
X69351811Y-141257961D01*
X69351808Y-141257962D01*
X69157001Y-141357223D01*
X69095360Y-141402006D01*
X69095360Y-141402007D01*
X69796414Y-142103061D01*
X69711306Y-142125867D01*
X69608694Y-142185110D01*
X69524910Y-142268894D01*
X69465667Y-142371506D01*
X69442861Y-142456614D01*
X68741807Y-141755560D01*
X68741806Y-141755560D01*
X68697023Y-141817201D01*
X68597762Y-142012008D01*
X68597761Y-142012011D01*
X68530202Y-142219940D01*
X68496000Y-142435883D01*
X64914500Y-142435883D01*
X64914500Y-142415838D01*
X64891225Y-142268894D01*
X64880286Y-142199825D01*
X64841876Y-142081610D01*
X64812702Y-141991819D01*
X64812701Y-141991816D01*
X64773231Y-141914353D01*
X64713407Y-141796943D01*
X64666345Y-141732167D01*
X64584857Y-141620006D01*
X64430193Y-141465342D01*
X64253260Y-141336795D01*
X64253259Y-141336794D01*
X64253257Y-141336793D01*
X64190825Y-141304982D01*
X64058383Y-141237498D01*
X64058380Y-141237497D01*
X63850376Y-141169914D01*
X63634361Y-141135700D01*
X63634356Y-141135700D01*
X63415644Y-141135700D01*
X63415639Y-141135700D01*
X63199623Y-141169914D01*
X62991619Y-141237497D01*
X62991616Y-141237498D01*
X62796739Y-141336795D01*
X62619806Y-141465342D01*
X62465142Y-141620006D01*
X62336595Y-141796939D01*
X62237298Y-141991816D01*
X62237297Y-141991819D01*
X62169714Y-142199823D01*
X62135500Y-142415838D01*
X61713522Y-142415838D01*
X61603592Y-142264532D01*
X61420668Y-142081608D01*
X61211382Y-141929553D01*
X60980885Y-141812109D01*
X60734854Y-141732168D01*
X60734852Y-141732167D01*
X60734850Y-141732167D01*
X60479351Y-141691700D01*
X60479346Y-141691700D01*
X60220654Y-141691700D01*
X60220649Y-141691700D01*
X59965149Y-141732167D01*
X59719112Y-141812110D01*
X59488617Y-141929553D01*
X59279329Y-142081610D01*
X59096410Y-142264529D01*
X58944353Y-142473817D01*
X58826910Y-142704312D01*
X58826909Y-142704314D01*
X58826909Y-142704315D01*
X58806238Y-142767933D01*
X58746967Y-142950349D01*
X58706500Y-143205848D01*
X47000500Y-143205848D01*
X47000500Y-137773920D01*
X59049499Y-137773920D01*
X59078340Y-137918907D01*
X59078343Y-137918917D01*
X59134912Y-138055488D01*
X59134919Y-138055501D01*
X59217048Y-138178415D01*
X59217051Y-138178419D01*
X59321580Y-138282948D01*
X59321584Y-138282951D01*
X59444498Y-138365080D01*
X59444511Y-138365087D01*
X59581082Y-138421656D01*
X59581087Y-138421658D01*
X59581091Y-138421658D01*
X59581092Y-138421659D01*
X59726079Y-138450500D01*
X59726082Y-138450500D01*
X59873920Y-138450500D01*
X59985321Y-138428340D01*
X60018913Y-138421658D01*
X60155495Y-138365084D01*
X60278416Y-138282951D01*
X60382951Y-138178416D01*
X60465084Y-138055495D01*
X60521658Y-137918913D01*
X60534274Y-137855488D01*
X60550500Y-137773920D01*
X60550500Y-137626079D01*
X60550499Y-137626077D01*
X60524461Y-137495173D01*
X60524459Y-137495167D01*
X60522910Y-137487385D01*
X60521658Y-137481087D01*
X60519484Y-137475838D01*
X62135500Y-137475838D01*
X62135500Y-137694561D01*
X62169714Y-137910576D01*
X62237297Y-138118580D01*
X62237298Y-138118583D01*
X62303659Y-138248820D01*
X62330975Y-138302432D01*
X62336595Y-138313460D01*
X62465142Y-138490393D01*
X62619806Y-138645057D01*
X62770887Y-138754822D01*
X62796743Y-138773607D01*
X62891044Y-138821656D01*
X62991616Y-138872901D01*
X62991619Y-138872902D01*
X63052559Y-138892702D01*
X63199625Y-138940486D01*
X63299672Y-138956332D01*
X63415639Y-138974700D01*
X63415644Y-138974700D01*
X63634361Y-138974700D01*
X63739082Y-138958112D01*
X63850375Y-138940486D01*
X64058383Y-138872901D01*
X64253257Y-138773607D01*
X64378035Y-138682951D01*
X64430193Y-138645057D01*
X64430195Y-138645054D01*
X64430199Y-138645052D01*
X64584852Y-138490399D01*
X64584854Y-138490395D01*
X64584857Y-138490393D01*
X64641229Y-138412801D01*
X64713407Y-138313457D01*
X64812701Y-138118583D01*
X64880286Y-137910575D01*
X64897912Y-137799282D01*
X64914500Y-137694561D01*
X64914500Y-137495638D01*
X68485500Y-137495638D01*
X68485500Y-137714361D01*
X68519714Y-137930376D01*
X68587297Y-138138380D01*
X68587298Y-138138383D01*
X68629730Y-138221658D01*
X68683354Y-138326901D01*
X68686595Y-138333260D01*
X68815142Y-138510193D01*
X68969806Y-138664857D01*
X69119486Y-138773604D01*
X69146743Y-138793407D01*
X69274132Y-138858315D01*
X69341616Y-138892701D01*
X69341619Y-138892702D01*
X69419443Y-138917988D01*
X69549625Y-138960286D01*
X69640632Y-138974700D01*
X69765639Y-138994500D01*
X69765644Y-138994500D01*
X69984361Y-138994500D01*
X70089082Y-138977912D01*
X70200375Y-138960286D01*
X70408383Y-138892701D01*
X70603257Y-138793407D01*
X70718033Y-138710018D01*
X70780193Y-138664857D01*
X70780195Y-138664854D01*
X70780199Y-138664852D01*
X70934852Y-138510199D01*
X70934854Y-138510195D01*
X70934857Y-138510193D01*
X71040286Y-138365080D01*
X71063407Y-138333257D01*
X71162701Y-138138383D01*
X71230286Y-137930375D01*
X71249035Y-137812000D01*
X71264500Y-137714361D01*
X71264500Y-137495638D01*
X71238732Y-137332951D01*
X71230286Y-137279625D01*
X71186385Y-137144511D01*
X71162702Y-137071619D01*
X71162701Y-137071616D01*
X71115175Y-136978343D01*
X71063407Y-136876743D01*
X71049019Y-136856939D01*
X70934857Y-136699806D01*
X70780193Y-136545142D01*
X70603260Y-136416595D01*
X70603259Y-136416594D01*
X70603257Y-136416593D01*
X70537903Y-136383293D01*
X70408383Y-136317298D01*
X70408380Y-136317297D01*
X70200376Y-136249714D01*
X69984361Y-136215500D01*
X69984356Y-136215500D01*
X69765644Y-136215500D01*
X69765639Y-136215500D01*
X69549623Y-136249714D01*
X69341619Y-136317297D01*
X69341616Y-136317298D01*
X69146739Y-136416595D01*
X68969806Y-136545142D01*
X68815142Y-136699806D01*
X68686595Y-136876739D01*
X68587298Y-137071616D01*
X68587297Y-137071619D01*
X68519714Y-137279623D01*
X68485500Y-137495638D01*
X64914500Y-137495638D01*
X64914500Y-137475838D01*
X64891868Y-137332951D01*
X64880286Y-137259825D01*
X64842817Y-137144505D01*
X64812702Y-137051819D01*
X64812701Y-137051816D01*
X64758019Y-136944498D01*
X64713407Y-136856943D01*
X64689413Y-136823918D01*
X64584857Y-136680006D01*
X64430193Y-136525342D01*
X64253260Y-136396795D01*
X64253259Y-136396794D01*
X64253257Y-136396793D01*
X64190825Y-136364982D01*
X64058383Y-136297498D01*
X64058380Y-136297497D01*
X63850376Y-136229914D01*
X63634361Y-136195700D01*
X63634356Y-136195700D01*
X63415644Y-136195700D01*
X63415639Y-136195700D01*
X63199623Y-136229914D01*
X62991619Y-136297497D01*
X62991616Y-136297498D01*
X62796739Y-136396795D01*
X62619806Y-136525342D01*
X62465142Y-136680006D01*
X62336595Y-136856939D01*
X62237298Y-137051816D01*
X62237297Y-137051819D01*
X62169714Y-137259823D01*
X62135500Y-137475838D01*
X60519484Y-137475838D01*
X60504119Y-137438743D01*
X60465087Y-137344511D01*
X60465080Y-137344498D01*
X60382951Y-137221584D01*
X60382948Y-137221580D01*
X60278419Y-137117051D01*
X60278415Y-137117048D01*
X60155501Y-137034919D01*
X60155488Y-137034912D01*
X60018917Y-136978343D01*
X60018907Y-136978340D01*
X59873920Y-136949500D01*
X59873918Y-136949500D01*
X59726082Y-136949500D01*
X59726080Y-136949500D01*
X59581092Y-136978340D01*
X59581082Y-136978343D01*
X59444511Y-137034912D01*
X59444498Y-137034919D01*
X59321584Y-137117048D01*
X59321580Y-137117051D01*
X59217051Y-137221580D01*
X59217048Y-137221584D01*
X59134919Y-137344498D01*
X59134912Y-137344511D01*
X59078343Y-137481082D01*
X59078340Y-137481092D01*
X59049500Y-137626079D01*
X59049500Y-137626082D01*
X59049500Y-137773918D01*
X59049500Y-137773920D01*
X59049499Y-137773920D01*
X47000500Y-137773920D01*
X47000500Y-132873920D01*
X61849499Y-132873920D01*
X61878340Y-133018907D01*
X61878343Y-133018917D01*
X61934912Y-133155488D01*
X61934919Y-133155501D01*
X62017048Y-133278415D01*
X62017051Y-133278419D01*
X62121580Y-133382948D01*
X62121584Y-133382951D01*
X62244498Y-133465080D01*
X62244511Y-133465087D01*
X62381082Y-133521656D01*
X62381087Y-133521658D01*
X62381091Y-133521658D01*
X62381092Y-133521659D01*
X62526079Y-133550500D01*
X62526082Y-133550500D01*
X62673920Y-133550500D01*
X62771462Y-133531096D01*
X62818913Y-133521658D01*
X62955495Y-133465084D01*
X63078416Y-133382951D01*
X63182951Y-133278416D01*
X63265084Y-133155495D01*
X63321658Y-133018913D01*
X63330608Y-132973920D01*
X88749499Y-132973920D01*
X88778340Y-133118907D01*
X88778343Y-133118917D01*
X88834912Y-133255488D01*
X88834919Y-133255501D01*
X88917048Y-133378415D01*
X88917051Y-133378419D01*
X89021580Y-133482948D01*
X89021584Y-133482951D01*
X89144498Y-133565080D01*
X89144511Y-133565087D01*
X89243645Y-133606149D01*
X89298049Y-133649989D01*
X89320114Y-133716283D01*
X89302835Y-133783983D01*
X89251698Y-133831594D01*
X89244980Y-133834661D01*
X89244498Y-133834919D01*
X89121584Y-133917048D01*
X89121580Y-133917051D01*
X89017051Y-134021580D01*
X89017048Y-134021584D01*
X88934919Y-134144498D01*
X88934912Y-134144511D01*
X88878343Y-134281082D01*
X88878340Y-134281092D01*
X88849500Y-134426079D01*
X88849500Y-134426082D01*
X88849500Y-134573918D01*
X88849500Y-134573920D01*
X88849499Y-134573920D01*
X88878340Y-134718907D01*
X88878343Y-134718917D01*
X88934912Y-134855488D01*
X88934919Y-134855501D01*
X89017048Y-134978415D01*
X89017051Y-134978419D01*
X89121580Y-135082948D01*
X89121588Y-135082954D01*
X89170248Y-135115468D01*
X89215054Y-135169080D01*
X89223761Y-135238405D01*
X89193607Y-135301432D01*
X89148823Y-135333126D01*
X89144513Y-135334911D01*
X89144498Y-135334919D01*
X89021584Y-135417048D01*
X89021580Y-135417051D01*
X88917051Y-135521580D01*
X88917048Y-135521584D01*
X88834919Y-135644498D01*
X88834912Y-135644511D01*
X88778343Y-135781082D01*
X88778340Y-135781092D01*
X88749500Y-135926079D01*
X88749500Y-135926082D01*
X88749500Y-136073918D01*
X88749500Y-136073920D01*
X88749499Y-136073920D01*
X88778340Y-136218907D01*
X88778343Y-136218917D01*
X88834912Y-136355488D01*
X88834919Y-136355501D01*
X88917048Y-136478415D01*
X88917051Y-136478419D01*
X89021580Y-136582948D01*
X89021584Y-136582951D01*
X89144498Y-136665080D01*
X89144502Y-136665082D01*
X89144505Y-136665084D01*
X89144510Y-136665086D01*
X89148813Y-136666869D01*
X89203215Y-136710711D01*
X89225279Y-136777005D01*
X89207999Y-136844704D01*
X89170250Y-136884531D01*
X89121580Y-136917051D01*
X89017051Y-137021580D01*
X89017048Y-137021584D01*
X88934919Y-137144498D01*
X88934912Y-137144511D01*
X88878343Y-137281082D01*
X88878340Y-137281092D01*
X88849500Y-137426079D01*
X88849500Y-137426082D01*
X88849500Y-137573918D01*
X88849500Y-137573920D01*
X88849499Y-137573920D01*
X88878340Y-137718907D01*
X88878343Y-137718917D01*
X88934912Y-137855488D01*
X88934919Y-137855501D01*
X89017048Y-137978415D01*
X89017051Y-137978419D01*
X89121580Y-138082948D01*
X89121584Y-138082951D01*
X89208364Y-138140936D01*
X89253169Y-138194548D01*
X89261876Y-138263873D01*
X89231722Y-138326901D01*
X89208365Y-138347140D01*
X89188489Y-138360420D01*
X89083960Y-138464949D01*
X89083957Y-138464953D01*
X89001828Y-138587867D01*
X89001821Y-138587880D01*
X88945252Y-138724451D01*
X88945249Y-138724461D01*
X88916409Y-138869448D01*
X88916409Y-138869451D01*
X88916409Y-139017287D01*
X88916409Y-139017289D01*
X88916408Y-139017289D01*
X88945249Y-139162276D01*
X88945252Y-139162286D01*
X89001821Y-139298857D01*
X89001828Y-139298870D01*
X89083957Y-139421784D01*
X89083960Y-139421788D01*
X89188489Y-139526317D01*
X89188493Y-139526320D01*
X89311407Y-139608449D01*
X89311420Y-139608456D01*
X89447991Y-139665025D01*
X89447996Y-139665027D01*
X89448000Y-139665027D01*
X89448001Y-139665028D01*
X89592988Y-139693869D01*
X89592991Y-139693869D01*
X89740829Y-139693869D01*
X89838371Y-139674465D01*
X89885822Y-139665027D01*
X90022404Y-139608453D01*
X90145325Y-139526320D01*
X90249860Y-139421785D01*
X90275539Y-139383352D01*
X90329151Y-139338548D01*
X90398476Y-139329840D01*
X90461504Y-139359994D01*
X90493203Y-139404791D01*
X90534912Y-139505488D01*
X90534919Y-139505501D01*
X90617048Y-139628415D01*
X90617051Y-139628419D01*
X90721580Y-139732948D01*
X90721584Y-139732951D01*
X90844498Y-139815080D01*
X90844511Y-139815087D01*
X90981082Y-139871656D01*
X90981087Y-139871658D01*
X90981091Y-139871658D01*
X90981092Y-139871659D01*
X91126079Y-139900500D01*
X91126082Y-139900500D01*
X91273920Y-139900500D01*
X91371462Y-139881096D01*
X91418913Y-139871658D01*
X91552547Y-139816304D01*
X91622017Y-139808836D01*
X91647452Y-139816304D01*
X91781087Y-139871658D01*
X91781091Y-139871658D01*
X91781092Y-139871659D01*
X91926079Y-139900500D01*
X91926082Y-139900500D01*
X92073920Y-139900500D01*
X92171462Y-139881096D01*
X92218913Y-139871658D01*
X92355495Y-139815084D01*
X92478416Y-139732951D01*
X92582951Y-139628416D01*
X92665084Y-139505495D01*
X92721658Y-139368913D01*
X92738518Y-139284156D01*
X92750500Y-139223920D01*
X92750500Y-139076079D01*
X92721659Y-138931092D01*
X92721658Y-138931091D01*
X92721658Y-138931087D01*
X92716232Y-138917988D01*
X92665087Y-138794511D01*
X92665080Y-138794498D01*
X92582951Y-138671584D01*
X92582948Y-138671580D01*
X92478419Y-138567051D01*
X92478415Y-138567048D01*
X92355501Y-138484919D01*
X92355488Y-138484912D01*
X92218917Y-138428343D01*
X92218907Y-138428340D01*
X92073920Y-138399500D01*
X92073918Y-138399500D01*
X91926082Y-138399500D01*
X91926080Y-138399500D01*
X91781092Y-138428340D01*
X91781082Y-138428343D01*
X91647452Y-138483694D01*
X91577982Y-138491163D01*
X91552548Y-138483694D01*
X91418917Y-138428343D01*
X91418907Y-138428340D01*
X91273920Y-138399500D01*
X91273918Y-138399500D01*
X91126082Y-138399500D01*
X91126080Y-138399500D01*
X90981092Y-138428340D01*
X90981082Y-138428343D01*
X90844511Y-138484912D01*
X90844498Y-138484919D01*
X90721584Y-138567048D01*
X90721580Y-138567051D01*
X90617049Y-138671582D01*
X90591367Y-138710018D01*
X90537754Y-138754822D01*
X90468429Y-138763528D01*
X90405402Y-138733372D01*
X90373707Y-138688581D01*
X90331993Y-138587874D01*
X90331991Y-138587871D01*
X90331989Y-138587867D01*
X90249860Y-138464953D01*
X90249857Y-138464949D01*
X90145328Y-138360420D01*
X90145324Y-138360417D01*
X90058544Y-138302432D01*
X90013739Y-138248820D01*
X90005032Y-138179495D01*
X90007699Y-138173920D01*
X93049499Y-138173920D01*
X93078340Y-138318907D01*
X93078343Y-138318917D01*
X93134912Y-138455488D01*
X93134919Y-138455501D01*
X93217048Y-138578415D01*
X93217051Y-138578419D01*
X93321580Y-138682948D01*
X93321584Y-138682951D01*
X93444498Y-138765080D01*
X93444511Y-138765087D01*
X93515548Y-138794511D01*
X93581087Y-138821658D01*
X93581091Y-138821658D01*
X93581092Y-138821659D01*
X93726079Y-138850500D01*
X93726082Y-138850500D01*
X93873920Y-138850500D01*
X93971462Y-138831096D01*
X94018913Y-138821658D01*
X94155495Y-138765084D01*
X94278416Y-138682951D01*
X94324947Y-138636420D01*
X101086999Y-138636420D01*
X101115840Y-138781407D01*
X101115843Y-138781417D01*
X101172412Y-138917988D01*
X101172419Y-138918001D01*
X101254548Y-139040915D01*
X101254551Y-139040919D01*
X101359080Y-139145448D01*
X101359084Y-139145451D01*
X101481998Y-139227580D01*
X101482011Y-139227587D01*
X101618582Y-139284156D01*
X101618587Y-139284158D01*
X101618591Y-139284158D01*
X101618592Y-139284159D01*
X101763579Y-139313000D01*
X101763582Y-139313000D01*
X101911420Y-139313000D01*
X102008962Y-139293596D01*
X102056413Y-139284158D01*
X102192995Y-139227584D01*
X102315916Y-139145451D01*
X102420451Y-139040916D01*
X102502584Y-138917995D01*
X102559158Y-138781413D01*
X102578744Y-138682951D01*
X102588000Y-138636420D01*
X102588000Y-138573920D01*
X119049499Y-138573920D01*
X119078340Y-138718907D01*
X119078343Y-138718917D01*
X119134912Y-138855488D01*
X119134919Y-138855501D01*
X119217048Y-138978415D01*
X119217051Y-138978419D01*
X119321580Y-139082948D01*
X119321584Y-139082951D01*
X119444498Y-139165080D01*
X119444511Y-139165087D01*
X119581082Y-139221656D01*
X119581087Y-139221658D01*
X119581091Y-139221658D01*
X119581092Y-139221659D01*
X119726079Y-139250500D01*
X119726082Y-139250500D01*
X119873920Y-139250500D01*
X119971462Y-139231096D01*
X120018913Y-139221658D01*
X120155495Y-139165084D01*
X120278416Y-139082951D01*
X120382951Y-138978416D01*
X120465084Y-138855495D01*
X120521658Y-138718913D01*
X120547725Y-138587871D01*
X120550500Y-138573920D01*
X120550500Y-138426079D01*
X120521659Y-138281092D01*
X120521658Y-138281091D01*
X120521658Y-138281087D01*
X120490975Y-138207011D01*
X120465087Y-138144511D01*
X120465080Y-138144498D01*
X120382951Y-138021584D01*
X120382948Y-138021580D01*
X120278419Y-137917051D01*
X120278415Y-137917048D01*
X120155501Y-137834919D01*
X120155488Y-137834912D01*
X120018917Y-137778343D01*
X120018907Y-137778340D01*
X119873920Y-137749500D01*
X119873918Y-137749500D01*
X119726082Y-137749500D01*
X119726080Y-137749500D01*
X119581092Y-137778340D01*
X119581082Y-137778343D01*
X119444511Y-137834912D01*
X119444498Y-137834919D01*
X119321584Y-137917048D01*
X119321580Y-137917051D01*
X119217051Y-138021580D01*
X119217048Y-138021584D01*
X119134919Y-138144498D01*
X119134912Y-138144511D01*
X119078343Y-138281082D01*
X119078340Y-138281092D01*
X119049500Y-138426079D01*
X119049500Y-138426082D01*
X119049500Y-138573918D01*
X119049500Y-138573920D01*
X119049499Y-138573920D01*
X102588000Y-138573920D01*
X102588000Y-138488579D01*
X102587999Y-138488577D01*
X102579169Y-138444181D01*
X102559159Y-138343592D01*
X102559158Y-138343591D01*
X102559158Y-138343587D01*
X102559156Y-138343582D01*
X102502587Y-138207011D01*
X102502580Y-138206998D01*
X102420451Y-138084084D01*
X102420448Y-138084080D01*
X102315919Y-137979551D01*
X102315915Y-137979548D01*
X102193001Y-137897419D01*
X102192988Y-137897412D01*
X102056417Y-137840843D01*
X102056407Y-137840840D01*
X101911420Y-137812000D01*
X101911418Y-137812000D01*
X101763582Y-137812000D01*
X101763580Y-137812000D01*
X101618592Y-137840840D01*
X101618582Y-137840843D01*
X101482011Y-137897412D01*
X101481998Y-137897419D01*
X101359084Y-137979548D01*
X101359080Y-137979551D01*
X101254551Y-138084080D01*
X101254548Y-138084084D01*
X101172419Y-138206998D01*
X101172412Y-138207011D01*
X101115843Y-138343582D01*
X101115840Y-138343592D01*
X101087000Y-138488579D01*
X101087000Y-138488582D01*
X101087000Y-138636418D01*
X101087000Y-138636420D01*
X101086999Y-138636420D01*
X94324947Y-138636420D01*
X94382951Y-138578416D01*
X94465084Y-138455495D01*
X94467153Y-138450500D01*
X94473558Y-138435038D01*
X94504466Y-138360418D01*
X94521658Y-138318913D01*
X94543917Y-138207011D01*
X94550500Y-138173920D01*
X94550500Y-138026079D01*
X94521659Y-137881092D01*
X94521658Y-137881091D01*
X94521658Y-137881087D01*
X94511060Y-137855501D01*
X94465087Y-137744511D01*
X94465080Y-137744498D01*
X94382951Y-137621584D01*
X94382948Y-137621580D01*
X94322082Y-137560714D01*
X94317743Y-137552768D01*
X94310496Y-137547343D01*
X94302881Y-137526927D01*
X94299030Y-137522483D01*
X94298252Y-137517072D01*
X94288597Y-137499391D01*
X94289242Y-137490361D01*
X94286079Y-137481879D01*
X94287393Y-137475838D01*
X122135500Y-137475838D01*
X122135500Y-137694561D01*
X122169714Y-137910576D01*
X122237297Y-138118580D01*
X122237298Y-138118583D01*
X122303659Y-138248820D01*
X122330975Y-138302432D01*
X122336595Y-138313460D01*
X122465142Y-138490393D01*
X122619806Y-138645057D01*
X122770887Y-138754822D01*
X122796743Y-138773607D01*
X122891044Y-138821656D01*
X122991616Y-138872901D01*
X122991619Y-138872902D01*
X123052559Y-138892702D01*
X123199625Y-138940486D01*
X123299672Y-138956332D01*
X123415639Y-138974700D01*
X123415644Y-138974700D01*
X123634361Y-138974700D01*
X123739082Y-138958112D01*
X123850375Y-138940486D01*
X124058383Y-138872901D01*
X124253257Y-138773607D01*
X124378035Y-138682951D01*
X124430193Y-138645057D01*
X124430195Y-138645054D01*
X124430199Y-138645052D01*
X124584852Y-138490399D01*
X124584854Y-138490395D01*
X124584857Y-138490393D01*
X124641229Y-138412801D01*
X124713407Y-138313457D01*
X124812701Y-138118583D01*
X124880286Y-137910575D01*
X124897912Y-137799282D01*
X124914500Y-137694561D01*
X124914500Y-137495638D01*
X128485500Y-137495638D01*
X128485500Y-137714361D01*
X128519714Y-137930376D01*
X128587297Y-138138380D01*
X128587298Y-138138383D01*
X128629730Y-138221658D01*
X128683354Y-138326901D01*
X128686595Y-138333260D01*
X128815142Y-138510193D01*
X128969806Y-138664857D01*
X129119486Y-138773604D01*
X129146743Y-138793407D01*
X129274132Y-138858315D01*
X129341616Y-138892701D01*
X129341619Y-138892702D01*
X129419443Y-138917988D01*
X129549625Y-138960286D01*
X129640632Y-138974700D01*
X129765639Y-138994500D01*
X129765644Y-138994500D01*
X129984361Y-138994500D01*
X130089082Y-138977912D01*
X130200375Y-138960286D01*
X130408383Y-138892701D01*
X130603257Y-138793407D01*
X130718033Y-138710018D01*
X130780193Y-138664857D01*
X130780195Y-138664854D01*
X130780199Y-138664852D01*
X130934852Y-138510199D01*
X130934854Y-138510195D01*
X130934857Y-138510193D01*
X131040286Y-138365080D01*
X131063407Y-138333257D01*
X131162701Y-138138383D01*
X131230286Y-137930375D01*
X131249035Y-137812000D01*
X131264500Y-137714361D01*
X131264500Y-137495638D01*
X131238732Y-137332951D01*
X131230286Y-137279625D01*
X131186385Y-137144511D01*
X131162702Y-137071619D01*
X131162701Y-137071616D01*
X131115175Y-136978343D01*
X131063407Y-136876743D01*
X131049019Y-136856939D01*
X130934857Y-136699806D01*
X130780193Y-136545142D01*
X130603260Y-136416595D01*
X130603259Y-136416594D01*
X130603257Y-136416593D01*
X130537903Y-136383293D01*
X130408383Y-136317298D01*
X130408380Y-136317297D01*
X130200376Y-136249714D01*
X129984361Y-136215500D01*
X129984356Y-136215500D01*
X129765644Y-136215500D01*
X129765639Y-136215500D01*
X129549623Y-136249714D01*
X129341619Y-136317297D01*
X129341616Y-136317298D01*
X129146739Y-136416595D01*
X128969806Y-136545142D01*
X128815142Y-136699806D01*
X128686595Y-136876739D01*
X128587298Y-137071616D01*
X128587297Y-137071619D01*
X128519714Y-137279623D01*
X128485500Y-137495638D01*
X124914500Y-137495638D01*
X124914500Y-137475838D01*
X124891868Y-137332951D01*
X124880286Y-137259825D01*
X124842817Y-137144505D01*
X124812702Y-137051819D01*
X124812701Y-137051816D01*
X124758019Y-136944498D01*
X124713407Y-136856943D01*
X124689413Y-136823918D01*
X124584857Y-136680006D01*
X124430193Y-136525342D01*
X124253260Y-136396795D01*
X124253259Y-136396794D01*
X124253257Y-136396793D01*
X124190825Y-136364982D01*
X124058383Y-136297498D01*
X124058380Y-136297497D01*
X123850376Y-136229914D01*
X123634361Y-136195700D01*
X123634356Y-136195700D01*
X123415644Y-136195700D01*
X123415639Y-136195700D01*
X123199623Y-136229914D01*
X122991619Y-136297497D01*
X122991616Y-136297498D01*
X122796739Y-136396795D01*
X122619806Y-136525342D01*
X122465142Y-136680006D01*
X122336595Y-136856939D01*
X122237298Y-137051816D01*
X122237297Y-137051819D01*
X122169714Y-137259823D01*
X122135500Y-137475838D01*
X94287393Y-137475838D01*
X94290361Y-137462193D01*
X94289086Y-137453325D01*
X94292412Y-137446041D01*
X94293581Y-137429699D01*
X94299399Y-137420645D01*
X94300931Y-137413606D01*
X94317071Y-137392045D01*
X94318111Y-137389769D01*
X94321502Y-137386126D01*
X94322082Y-137385352D01*
X94324129Y-137383304D01*
X94325994Y-137381438D01*
X94325998Y-137381436D01*
X94430533Y-137276901D01*
X94512666Y-137153980D01*
X94569240Y-137017398D01*
X94582746Y-136949500D01*
X94598082Y-136872405D01*
X94598082Y-136724564D01*
X94569241Y-136579577D01*
X94569240Y-136579576D01*
X94569240Y-136579572D01*
X94562362Y-136562969D01*
X94554894Y-136493501D01*
X94573822Y-136446625D01*
X94576887Y-136442040D01*
X94633461Y-136305458D01*
X94648488Y-136229914D01*
X94662303Y-136160465D01*
X94662303Y-136012624D01*
X94633462Y-135867637D01*
X94633461Y-135867636D01*
X94633461Y-135867632D01*
X94598641Y-135783568D01*
X94591172Y-135714099D01*
X94598641Y-135688663D01*
X94616926Y-135644519D01*
X94651747Y-135560454D01*
X94661185Y-135513003D01*
X94680589Y-135415461D01*
X94680589Y-135267620D01*
X94651748Y-135122633D01*
X94651747Y-135122632D01*
X94651747Y-135122628D01*
X94635311Y-135082948D01*
X94595176Y-134986052D01*
X94595169Y-134986039D01*
X94513040Y-134863125D01*
X94513037Y-134863121D01*
X94408508Y-134758592D01*
X94408504Y-134758589D01*
X94285590Y-134676460D01*
X94285577Y-134676453D01*
X94149006Y-134619884D01*
X94148996Y-134619881D01*
X94004009Y-134591041D01*
X94004007Y-134591041D01*
X93856171Y-134591041D01*
X93856169Y-134591041D01*
X93711181Y-134619881D01*
X93711171Y-134619884D01*
X93574600Y-134676453D01*
X93574587Y-134676460D01*
X93451673Y-134758589D01*
X93451669Y-134758592D01*
X93347140Y-134863121D01*
X93347137Y-134863125D01*
X93265008Y-134986039D01*
X93265001Y-134986052D01*
X93208432Y-135122623D01*
X93208429Y-135122633D01*
X93179589Y-135267620D01*
X93179589Y-135267623D01*
X93179589Y-135415459D01*
X93179589Y-135415461D01*
X93179588Y-135415461D01*
X93208429Y-135560448D01*
X93208431Y-135560453D01*
X93243251Y-135644519D01*
X93250719Y-135713988D01*
X93243250Y-135739422D01*
X93190146Y-135867627D01*
X93190143Y-135867637D01*
X93161303Y-136012624D01*
X93161303Y-136012627D01*
X93161303Y-136160463D01*
X93161303Y-136160465D01*
X93161302Y-136160465D01*
X93190143Y-136305452D01*
X93190146Y-136305462D01*
X93197022Y-136322062D01*
X93204489Y-136391531D01*
X93185570Y-136438391D01*
X93182499Y-136442987D01*
X93182498Y-136442989D01*
X93125926Y-136579567D01*
X93125922Y-136579577D01*
X93097082Y-136724564D01*
X93097082Y-136872402D01*
X93097081Y-136872405D01*
X93125922Y-137017392D01*
X93125925Y-137017402D01*
X93182494Y-137153973D01*
X93182501Y-137153986D01*
X93264630Y-137276900D01*
X93264633Y-137276904D01*
X93325499Y-137337770D01*
X93358984Y-137399093D01*
X93354000Y-137468785D01*
X93325500Y-137513132D01*
X93217048Y-137621584D01*
X93134919Y-137744498D01*
X93134912Y-137744511D01*
X93078343Y-137881082D01*
X93078340Y-137881092D01*
X93049500Y-138026079D01*
X93049500Y-138026082D01*
X93049500Y-138173918D01*
X93049500Y-138173920D01*
X93049499Y-138173920D01*
X90007699Y-138173920D01*
X90035187Y-138116467D01*
X90058541Y-138096230D01*
X90078416Y-138082951D01*
X90182951Y-137978416D01*
X90265084Y-137855495D01*
X90271154Y-137840842D01*
X90297011Y-137778416D01*
X90321658Y-137718913D01*
X90340125Y-137626077D01*
X90350500Y-137573920D01*
X90350500Y-137426079D01*
X90340124Y-137373920D01*
X90849499Y-137373920D01*
X90878340Y-137518907D01*
X90878343Y-137518917D01*
X90934912Y-137655488D01*
X90934919Y-137655501D01*
X91017048Y-137778415D01*
X91017051Y-137778419D01*
X91121580Y-137882948D01*
X91121584Y-137882951D01*
X91244498Y-137965080D01*
X91244511Y-137965087D01*
X91279431Y-137979551D01*
X91381087Y-138021658D01*
X91381091Y-138021658D01*
X91381092Y-138021659D01*
X91526079Y-138050500D01*
X91526082Y-138050500D01*
X91673920Y-138050500D01*
X91771462Y-138031096D01*
X91818913Y-138021658D01*
X91955495Y-137965084D01*
X91955501Y-137965080D01*
X92027626Y-137916888D01*
X92078416Y-137882951D01*
X92182948Y-137778419D01*
X92182951Y-137778416D01*
X92265084Y-137655495D01*
X92321658Y-137518913D01*
X92321659Y-137518905D01*
X92322144Y-137517310D01*
X92322628Y-137516570D01*
X92323989Y-137513286D01*
X92324611Y-137513544D01*
X92360441Y-137458871D01*
X92393353Y-137438743D01*
X92402593Y-137434916D01*
X92450472Y-137415084D01*
X92573393Y-137332951D01*
X92677928Y-137228416D01*
X92760061Y-137105495D01*
X92816635Y-136968913D01*
X92835832Y-136872405D01*
X92845477Y-136823920D01*
X92845477Y-136676079D01*
X92816636Y-136531092D01*
X92816635Y-136531091D01*
X92816635Y-136531087D01*
X92814255Y-136525342D01*
X92760064Y-136394511D01*
X92760057Y-136394498D01*
X92677928Y-136271584D01*
X92677925Y-136271580D01*
X92573396Y-136167051D01*
X92573392Y-136167048D01*
X92450478Y-136084919D01*
X92450465Y-136084912D01*
X92313894Y-136028343D01*
X92313884Y-136028340D01*
X92168897Y-135999500D01*
X92168895Y-135999500D01*
X92021059Y-135999500D01*
X92021057Y-135999500D01*
X91876069Y-136028340D01*
X91876059Y-136028343D01*
X91739488Y-136084912D01*
X91739475Y-136084919D01*
X91616561Y-136167048D01*
X91616557Y-136167051D01*
X91512028Y-136271580D01*
X91512025Y-136271584D01*
X91429896Y-136394498D01*
X91429889Y-136394511D01*
X91373316Y-136531091D01*
X91372825Y-136532712D01*
X91372337Y-136533454D01*
X91370988Y-136536714D01*
X91370369Y-136536457D01*
X91334516Y-136591143D01*
X91301626Y-136611254D01*
X91244510Y-136634913D01*
X91244498Y-136634919D01*
X91121584Y-136717048D01*
X91121580Y-136717051D01*
X91017051Y-136821580D01*
X91017048Y-136821584D01*
X90934919Y-136944498D01*
X90934912Y-136944511D01*
X90878343Y-137081082D01*
X90878340Y-137081092D01*
X90849500Y-137226079D01*
X90849500Y-137226082D01*
X90849500Y-137373918D01*
X90849500Y-137373920D01*
X90849499Y-137373920D01*
X90340124Y-137373920D01*
X90321659Y-137281092D01*
X90321656Y-137281081D01*
X90316007Y-137267444D01*
X90316006Y-137267442D01*
X90265087Y-137144511D01*
X90265080Y-137144498D01*
X90182951Y-137021584D01*
X90182948Y-137021580D01*
X90078419Y-136917051D01*
X90078415Y-136917048D01*
X89955501Y-136834919D01*
X89955490Y-136834913D01*
X89951180Y-136833128D01*
X89896780Y-136789283D01*
X89874720Y-136722987D01*
X89892004Y-136655289D01*
X89929748Y-136615469D01*
X89978416Y-136582951D01*
X90082951Y-136478416D01*
X90165084Y-136355495D01*
X90221658Y-136218913D01*
X90248312Y-136084919D01*
X90250500Y-136073920D01*
X90250500Y-135926079D01*
X90221659Y-135781092D01*
X90221658Y-135781091D01*
X90221658Y-135781087D01*
X90193865Y-135713988D01*
X90165087Y-135644511D01*
X90165080Y-135644498D01*
X90082951Y-135521584D01*
X90082948Y-135521580D01*
X89978419Y-135417051D01*
X89978415Y-135417048D01*
X89929750Y-135384531D01*
X89884945Y-135330919D01*
X89876238Y-135261594D01*
X89906392Y-135198566D01*
X89951190Y-135166867D01*
X89955495Y-135165084D01*
X90078416Y-135082951D01*
X90182951Y-134978416D01*
X90265084Y-134855495D01*
X90321658Y-134718913D01*
X90350500Y-134573918D01*
X90350500Y-134426082D01*
X90350500Y-134426079D01*
X90321659Y-134281092D01*
X90321658Y-134281091D01*
X90321658Y-134281087D01*
X90321656Y-134281082D01*
X90265087Y-134144511D01*
X90265080Y-134144498D01*
X90182951Y-134021584D01*
X90182948Y-134021580D01*
X90078419Y-133917051D01*
X90078415Y-133917048D01*
X89955501Y-133834919D01*
X89955492Y-133834914D01*
X89856353Y-133793850D01*
X89801950Y-133750009D01*
X89779885Y-133683715D01*
X89797164Y-133616016D01*
X89842378Y-133573920D01*
X92449499Y-133573920D01*
X92478340Y-133718907D01*
X92478343Y-133718917D01*
X92534912Y-133855488D01*
X92534919Y-133855501D01*
X92617048Y-133978415D01*
X92617051Y-133978419D01*
X92721580Y-134082948D01*
X92721584Y-134082951D01*
X92844498Y-134165080D01*
X92844511Y-134165087D01*
X92981082Y-134221656D01*
X92981087Y-134221658D01*
X92981091Y-134221658D01*
X92981092Y-134221659D01*
X93126079Y-134250500D01*
X93126082Y-134250500D01*
X93273920Y-134250500D01*
X93371462Y-134231096D01*
X93418913Y-134221658D01*
X93555495Y-134165084D01*
X93678416Y-134082951D01*
X93782951Y-133978416D01*
X93865084Y-133855495D01*
X93921658Y-133718913D01*
X93950500Y-133573918D01*
X93950500Y-133426082D01*
X93950500Y-133426079D01*
X93921659Y-133281092D01*
X93921658Y-133281091D01*
X93921658Y-133281087D01*
X93911060Y-133255501D01*
X93865087Y-133144511D01*
X93865080Y-133144498D01*
X93782951Y-133021584D01*
X93782948Y-133021580D01*
X93678419Y-132917051D01*
X93678415Y-132917048D01*
X93555501Y-132834919D01*
X93555488Y-132834912D01*
X93418917Y-132778343D01*
X93418907Y-132778340D01*
X93273920Y-132749500D01*
X93273918Y-132749500D01*
X93126082Y-132749500D01*
X93126080Y-132749500D01*
X92981092Y-132778340D01*
X92981082Y-132778343D01*
X92844511Y-132834912D01*
X92844498Y-132834919D01*
X92721584Y-132917048D01*
X92721580Y-132917051D01*
X92617051Y-133021580D01*
X92617048Y-133021584D01*
X92534919Y-133144498D01*
X92534912Y-133144511D01*
X92478343Y-133281082D01*
X92478340Y-133281092D01*
X92449500Y-133426079D01*
X92449500Y-133426082D01*
X92449500Y-133573918D01*
X92449500Y-133573920D01*
X92449499Y-133573920D01*
X89842378Y-133573920D01*
X89848301Y-133568405D01*
X89855024Y-133565335D01*
X89855488Y-133565086D01*
X89855495Y-133565084D01*
X89978416Y-133482951D01*
X90082951Y-133378416D01*
X90165084Y-133255495D01*
X90221658Y-133118913D01*
X90231096Y-133071462D01*
X90250500Y-132973920D01*
X90250500Y-132826079D01*
X90221659Y-132681092D01*
X90221658Y-132681091D01*
X90221658Y-132681087D01*
X90200719Y-132630536D01*
X90165087Y-132544511D01*
X90165080Y-132544498D01*
X90125685Y-132485539D01*
X95657157Y-132485539D01*
X95685998Y-132630526D01*
X95686001Y-132630536D01*
X95742570Y-132767107D01*
X95742577Y-132767120D01*
X95824706Y-132890034D01*
X95824709Y-132890038D01*
X95929238Y-132994567D01*
X95929242Y-132994570D01*
X96052156Y-133076699D01*
X96052169Y-133076706D01*
X96188740Y-133133275D01*
X96188745Y-133133277D01*
X96188749Y-133133277D01*
X96188750Y-133133278D01*
X96333737Y-133162119D01*
X96333740Y-133162119D01*
X96481578Y-133162119D01*
X96579120Y-133142715D01*
X96626571Y-133133277D01*
X96763153Y-133076703D01*
X96886074Y-132994570D01*
X96990609Y-132890035D01*
X97072742Y-132767114D01*
X97115733Y-132663323D01*
X97159573Y-132608920D01*
X97182842Y-132596215D01*
X97246115Y-132570007D01*
X97246115Y-132570006D01*
X97246122Y-132570004D01*
X97369043Y-132487871D01*
X97473578Y-132383336D01*
X97555711Y-132260415D01*
X97555713Y-132260408D01*
X97556701Y-132258931D01*
X97610313Y-132214126D01*
X97679638Y-132205417D01*
X97707256Y-132213259D01*
X97781086Y-132243841D01*
X97781090Y-132243841D01*
X97781091Y-132243842D01*
X97926078Y-132272683D01*
X97926081Y-132272683D01*
X98073919Y-132272683D01*
X98171461Y-132253279D01*
X98218912Y-132243841D01*
X98342375Y-132192701D01*
X98355487Y-132187270D01*
X98355487Y-132187269D01*
X98355494Y-132187267D01*
X98375469Y-132173920D01*
X118149499Y-132173920D01*
X118178340Y-132318907D01*
X118178343Y-132318917D01*
X118234912Y-132455488D01*
X118234919Y-132455501D01*
X118317048Y-132578415D01*
X118317051Y-132578419D01*
X118421580Y-132682948D01*
X118421584Y-132682951D01*
X118544498Y-132765080D01*
X118544511Y-132765087D01*
X118681082Y-132821656D01*
X118681087Y-132821658D01*
X118681091Y-132821658D01*
X118681092Y-132821659D01*
X118826079Y-132850500D01*
X118826082Y-132850500D01*
X118973920Y-132850500D01*
X119071462Y-132831096D01*
X119118913Y-132821658D01*
X119255495Y-132765084D01*
X119378416Y-132682951D01*
X119482951Y-132578416D01*
X119565084Y-132455495D01*
X119621658Y-132318913D01*
X119633294Y-132260415D01*
X119650500Y-132173920D01*
X119650500Y-132026079D01*
X119621659Y-131881092D01*
X119621658Y-131881091D01*
X119621658Y-131881087D01*
X119620551Y-131878415D01*
X119565087Y-131744511D01*
X119565080Y-131744498D01*
X119482951Y-131621584D01*
X119482948Y-131621580D01*
X119378419Y-131517051D01*
X119378415Y-131517048D01*
X119255501Y-131434919D01*
X119255488Y-131434912D01*
X119118917Y-131378343D01*
X119118907Y-131378340D01*
X118973920Y-131349500D01*
X118973918Y-131349500D01*
X118826082Y-131349500D01*
X118826080Y-131349500D01*
X118681092Y-131378340D01*
X118681082Y-131378343D01*
X118544511Y-131434912D01*
X118544498Y-131434919D01*
X118421584Y-131517048D01*
X118421580Y-131517051D01*
X118317051Y-131621580D01*
X118317048Y-131621584D01*
X118234919Y-131744498D01*
X118234912Y-131744511D01*
X118178343Y-131881082D01*
X118178340Y-131881092D01*
X118149500Y-132026079D01*
X118149500Y-132026082D01*
X118149500Y-132173918D01*
X118149500Y-132173920D01*
X118149499Y-132173920D01*
X98375469Y-132173920D01*
X98478415Y-132105134D01*
X98582950Y-132000599D01*
X98665083Y-131877678D01*
X98721657Y-131741096D01*
X98745961Y-131618917D01*
X98750499Y-131596103D01*
X98750499Y-131524804D01*
X98750499Y-131448265D01*
X98734550Y-131368088D01*
X98734550Y-131368083D01*
X98721658Y-131303275D01*
X98721657Y-131303274D01*
X98721657Y-131303270D01*
X98719417Y-131297863D01*
X98708738Y-131272080D01*
X98981317Y-131272080D01*
X98981317Y-131272083D01*
X98981317Y-131419919D01*
X98997263Y-131500086D01*
X98997265Y-131500099D01*
X99010157Y-131564908D01*
X99010160Y-131564918D01*
X99066729Y-131701489D01*
X99066736Y-131701502D01*
X99148865Y-131824416D01*
X99148868Y-131824420D01*
X99253397Y-131928949D01*
X99253401Y-131928952D01*
X99376315Y-132011081D01*
X99376328Y-132011088D01*
X99469064Y-132049500D01*
X99512904Y-132067659D01*
X99512908Y-132067659D01*
X99512909Y-132067660D01*
X99657896Y-132096501D01*
X99657899Y-132096501D01*
X99805737Y-132096501D01*
X99903279Y-132077097D01*
X99950730Y-132067659D01*
X100056364Y-132023903D01*
X100087305Y-132011088D01*
X100087305Y-132011087D01*
X100087312Y-132011085D01*
X100210233Y-131928952D01*
X100314768Y-131824417D01*
X100377967Y-131729831D01*
X100431577Y-131685029D01*
X100456868Y-131677109D01*
X100522643Y-131664026D01*
X100659225Y-131607452D01*
X100782146Y-131525319D01*
X100886681Y-131420784D01*
X100968814Y-131297863D01*
X101025388Y-131161281D01*
X101048764Y-131043767D01*
X101054230Y-131016288D01*
X101054230Y-130868447D01*
X101025389Y-130723460D01*
X101025388Y-130723459D01*
X101025388Y-130723455D01*
X101025386Y-130723450D01*
X100968817Y-130586879D01*
X100968810Y-130586866D01*
X100886681Y-130463952D01*
X100886678Y-130463948D01*
X100782149Y-130359419D01*
X100782145Y-130359416D01*
X100659231Y-130277287D01*
X100659218Y-130277280D01*
X100522647Y-130220711D01*
X100522637Y-130220708D01*
X100377650Y-130191868D01*
X100377648Y-130191868D01*
X100229812Y-130191868D01*
X100229810Y-130191868D01*
X100084822Y-130220708D01*
X100084812Y-130220711D01*
X99948241Y-130277280D01*
X99948228Y-130277287D01*
X99825314Y-130359416D01*
X99825310Y-130359419D01*
X99720781Y-130463948D01*
X99720778Y-130463952D01*
X99657580Y-130558534D01*
X99603967Y-130603339D01*
X99578671Y-130611260D01*
X99512907Y-130624341D01*
X99512901Y-130624343D01*
X99376328Y-130680913D01*
X99376315Y-130680920D01*
X99253401Y-130763049D01*
X99253397Y-130763052D01*
X99148868Y-130867581D01*
X99148865Y-130867585D01*
X99066736Y-130990499D01*
X99066729Y-130990512D01*
X99010160Y-131127083D01*
X99010157Y-131127093D01*
X98981317Y-131272080D01*
X98708738Y-131272080D01*
X98665086Y-131166694D01*
X98665079Y-131166681D01*
X98582950Y-131043767D01*
X98582947Y-131043763D01*
X98478418Y-130939234D01*
X98478414Y-130939231D01*
X98355500Y-130857102D01*
X98355487Y-130857095D01*
X98218916Y-130800526D01*
X98218906Y-130800523D01*
X98073919Y-130771683D01*
X98073917Y-130771683D01*
X97926081Y-130771683D01*
X97870361Y-130782766D01*
X97800770Y-130776537D01*
X97758490Y-130748829D01*
X97734760Y-130725099D01*
X97734756Y-130725096D01*
X97611842Y-130642967D01*
X97611829Y-130642960D01*
X97475258Y-130586391D01*
X97475248Y-130586388D01*
X97330261Y-130557548D01*
X97330259Y-130557548D01*
X97182423Y-130557548D01*
X97182421Y-130557548D01*
X97037433Y-130586388D01*
X97037423Y-130586391D01*
X96900852Y-130642960D01*
X96900839Y-130642967D01*
X96777925Y-130725096D01*
X96777921Y-130725099D01*
X96673392Y-130829628D01*
X96673389Y-130829632D01*
X96591260Y-130952546D01*
X96591253Y-130952559D01*
X96534684Y-131089130D01*
X96534681Y-131089140D01*
X96510062Y-131212906D01*
X96477677Y-131274817D01*
X96457337Y-131291815D01*
X96412213Y-131321966D01*
X96412207Y-131321971D01*
X96307678Y-131426500D01*
X96307675Y-131426504D01*
X96225546Y-131549418D01*
X96225541Y-131549428D01*
X96182551Y-131653215D01*
X96138710Y-131707618D01*
X96115443Y-131720323D01*
X96052166Y-131746533D01*
X96052156Y-131746538D01*
X95929242Y-131828667D01*
X95929238Y-131828670D01*
X95824709Y-131933199D01*
X95824706Y-131933203D01*
X95742577Y-132056117D01*
X95742570Y-132056130D01*
X95686001Y-132192701D01*
X95685998Y-132192711D01*
X95657158Y-132337698D01*
X95657158Y-132337701D01*
X95657158Y-132485537D01*
X95657158Y-132485539D01*
X95657157Y-132485539D01*
X90125685Y-132485539D01*
X90083022Y-132421690D01*
X90083021Y-132421689D01*
X90082951Y-132421584D01*
X89978416Y-132317049D01*
X89922760Y-132279861D01*
X89916463Y-132274288D01*
X89902174Y-132251535D01*
X89884945Y-132230919D01*
X89883874Y-132222394D01*
X89879305Y-132215118D01*
X89879586Y-132188251D01*
X89876238Y-132161594D01*
X89879946Y-132153843D01*
X89880036Y-132145252D01*
X89894794Y-132122806D01*
X89906392Y-132098566D01*
X89914511Y-132092820D01*
X89918423Y-132086872D01*
X89930495Y-132081510D01*
X89951190Y-132066867D01*
X89955495Y-132065084D01*
X90078416Y-131982951D01*
X90182951Y-131878416D01*
X90265084Y-131755495D01*
X90321658Y-131618913D01*
X90335482Y-131549418D01*
X90350500Y-131473920D01*
X90350500Y-131326079D01*
X90321659Y-131181092D01*
X90321658Y-131181091D01*
X90321658Y-131181087D01*
X90299289Y-131127083D01*
X90265087Y-131044511D01*
X90265080Y-131044498D01*
X90182951Y-130921584D01*
X90182948Y-130921580D01*
X90078419Y-130817051D01*
X90078415Y-130817048D01*
X89955501Y-130734919D01*
X89955488Y-130734912D01*
X89818917Y-130678343D01*
X89818907Y-130678340D01*
X89673920Y-130649500D01*
X89673918Y-130649500D01*
X89526082Y-130649500D01*
X89526080Y-130649500D01*
X89381092Y-130678340D01*
X89381082Y-130678343D01*
X89244511Y-130734912D01*
X89244498Y-130734919D01*
X89121584Y-130817048D01*
X89121580Y-130817051D01*
X89017051Y-130921580D01*
X89017048Y-130921584D01*
X88934919Y-131044498D01*
X88934912Y-131044511D01*
X88878343Y-131181082D01*
X88878340Y-131181092D01*
X88849500Y-131326079D01*
X88849500Y-131326082D01*
X88849500Y-131473918D01*
X88849500Y-131473920D01*
X88849499Y-131473920D01*
X88878340Y-131618907D01*
X88878343Y-131618917D01*
X88934912Y-131755488D01*
X88934919Y-131755501D01*
X89017048Y-131878415D01*
X89017051Y-131878419D01*
X89121580Y-131982948D01*
X89121588Y-131982954D01*
X89170248Y-132015468D01*
X89215054Y-132069080D01*
X89223761Y-132138405D01*
X89193607Y-132201432D01*
X89148823Y-132233126D01*
X89144513Y-132234911D01*
X89144498Y-132234919D01*
X89021584Y-132317048D01*
X89021580Y-132317051D01*
X88917051Y-132421580D01*
X88917048Y-132421584D01*
X88834919Y-132544498D01*
X88834912Y-132544511D01*
X88778343Y-132681082D01*
X88778340Y-132681092D01*
X88749500Y-132826079D01*
X88749500Y-132826082D01*
X88749500Y-132973918D01*
X88749500Y-132973920D01*
X88749499Y-132973920D01*
X63330608Y-132973920D01*
X63341921Y-132917048D01*
X63350500Y-132873920D01*
X63350500Y-132726079D01*
X63321659Y-132581092D01*
X63321658Y-132581091D01*
X63321658Y-132581087D01*
X63306505Y-132544505D01*
X63265087Y-132444511D01*
X63265080Y-132444498D01*
X63182951Y-132321584D01*
X63182948Y-132321580D01*
X63078419Y-132217051D01*
X63078415Y-132217048D01*
X62955501Y-132134919D01*
X62955488Y-132134912D01*
X62818917Y-132078343D01*
X62818907Y-132078340D01*
X62673920Y-132049500D01*
X62673918Y-132049500D01*
X62526082Y-132049500D01*
X62526080Y-132049500D01*
X62381092Y-132078340D01*
X62381082Y-132078343D01*
X62244511Y-132134912D01*
X62244498Y-132134919D01*
X62121584Y-132217048D01*
X62121580Y-132217051D01*
X62017051Y-132321580D01*
X62017048Y-132321584D01*
X61934919Y-132444498D01*
X61934912Y-132444511D01*
X61878343Y-132581082D01*
X61878340Y-132581092D01*
X61849500Y-132726079D01*
X61849500Y-132726082D01*
X61849500Y-132873918D01*
X61849500Y-132873920D01*
X61849499Y-132873920D01*
X47000500Y-132873920D01*
X47000500Y-129871276D01*
X59375973Y-129871276D01*
X59481232Y-129914876D01*
X59481240Y-129914878D01*
X59626127Y-129943698D01*
X59626131Y-129943699D01*
X59773869Y-129943699D01*
X59773872Y-129943698D01*
X59918759Y-129914878D01*
X59918767Y-129914876D01*
X60024025Y-129871276D01*
X59700001Y-129547252D01*
X59700000Y-129547252D01*
X59375973Y-129871276D01*
X47000500Y-129871276D01*
X47000500Y-127173920D01*
X58249499Y-127173920D01*
X58278340Y-127318907D01*
X58278343Y-127318917D01*
X58334912Y-127455488D01*
X58334919Y-127455501D01*
X58417048Y-127578415D01*
X58417051Y-127578419D01*
X58521580Y-127682948D01*
X58521584Y-127682951D01*
X58644498Y-127765080D01*
X58644511Y-127765087D01*
X58781082Y-127821656D01*
X58781087Y-127821658D01*
X58781091Y-127821658D01*
X58781092Y-127821659D01*
X58926079Y-127850500D01*
X58937369Y-127850500D01*
X59004408Y-127870185D01*
X59050163Y-127922989D01*
X59060107Y-127992147D01*
X59040470Y-128043393D01*
X59035360Y-128051039D01*
X59035355Y-128051048D01*
X58978823Y-128187531D01*
X58978820Y-128187540D01*
X58950001Y-128332427D01*
X58950001Y-128480172D01*
X58978821Y-128625059D01*
X59031627Y-128752548D01*
X59039095Y-128822018D01*
X59031627Y-128847452D01*
X58978821Y-128974940D01*
X58978820Y-128974940D01*
X58950001Y-129119827D01*
X58950001Y-129267572D01*
X58978820Y-129412459D01*
X58978823Y-129412468D01*
X59022421Y-129517724D01*
X59435542Y-129104604D01*
X59496865Y-129071119D01*
X59566556Y-129076103D01*
X59610904Y-129104604D01*
X59628158Y-129121858D01*
X59613868Y-129136148D01*
X59598400Y-129173491D01*
X59598400Y-129213909D01*
X59613868Y-129251252D01*
X59642448Y-129279832D01*
X59679791Y-129295300D01*
X59720209Y-129295300D01*
X59757552Y-129279832D01*
X59786132Y-129251252D01*
X59801600Y-129213909D01*
X59801600Y-129173491D01*
X59786132Y-129136148D01*
X59771841Y-129121857D01*
X59789093Y-129104605D01*
X59850416Y-129071120D01*
X59920108Y-129076104D01*
X59964456Y-129104605D01*
X60377576Y-129517725D01*
X60421176Y-129412467D01*
X60421178Y-129412459D01*
X60449998Y-129267572D01*
X60449999Y-129267569D01*
X60449999Y-129119831D01*
X60449998Y-129119827D01*
X60421179Y-128974940D01*
X60421176Y-128974931D01*
X60368373Y-128847452D01*
X60360904Y-128777983D01*
X60368373Y-128752548D01*
X60421176Y-128625068D01*
X60421179Y-128625059D01*
X60431351Y-128573920D01*
X91549499Y-128573920D01*
X91578340Y-128718907D01*
X91578343Y-128718917D01*
X91634912Y-128855488D01*
X91634919Y-128855501D01*
X91717048Y-128978415D01*
X91717051Y-128978419D01*
X91821580Y-129082948D01*
X91821584Y-129082951D01*
X91944498Y-129165080D01*
X91944511Y-129165087D01*
X92062379Y-129213909D01*
X92081087Y-129221658D01*
X92081091Y-129221658D01*
X92081092Y-129221659D01*
X92226079Y-129250500D01*
X92226082Y-129250500D01*
X92373920Y-129250500D01*
X92471462Y-129231096D01*
X92518913Y-129221658D01*
X92655495Y-129165084D01*
X92778416Y-129082951D01*
X92882951Y-128978416D01*
X92965084Y-128855495D01*
X93021658Y-128718913D01*
X93031096Y-128671462D01*
X93050500Y-128573920D01*
X93050500Y-128473920D01*
X102349499Y-128473920D01*
X102378340Y-128618907D01*
X102378343Y-128618917D01*
X102434912Y-128755488D01*
X102434919Y-128755501D01*
X102517048Y-128878415D01*
X102517051Y-128878419D01*
X102621580Y-128982948D01*
X102621584Y-128982951D01*
X102744498Y-129065080D01*
X102744511Y-129065087D01*
X102876676Y-129119831D01*
X102881087Y-129121658D01*
X102881091Y-129121658D01*
X102881092Y-129121659D01*
X103026079Y-129150500D01*
X103026082Y-129150500D01*
X103173920Y-129150500D01*
X103271462Y-129131096D01*
X103318913Y-129121658D01*
X103455495Y-129065084D01*
X103578416Y-128982951D01*
X103682951Y-128878416D01*
X103765084Y-128755495D01*
X103821658Y-128618913D01*
X103840559Y-128523895D01*
X103850500Y-128473920D01*
X103850500Y-128326079D01*
X103821659Y-128181092D01*
X103821658Y-128181091D01*
X103821658Y-128181087D01*
X103806505Y-128144505D01*
X103765087Y-128044511D01*
X103765080Y-128044498D01*
X103682951Y-127921584D01*
X103682948Y-127921580D01*
X103578419Y-127817051D01*
X103578415Y-127817048D01*
X103455501Y-127734919D01*
X103455488Y-127734912D01*
X103318917Y-127678343D01*
X103318907Y-127678340D01*
X103173920Y-127649500D01*
X103173918Y-127649500D01*
X103026082Y-127649500D01*
X103026080Y-127649500D01*
X102881092Y-127678340D01*
X102881082Y-127678343D01*
X102744511Y-127734912D01*
X102744498Y-127734919D01*
X102621584Y-127817048D01*
X102621580Y-127817051D01*
X102517051Y-127921580D01*
X102517048Y-127921584D01*
X102434919Y-128044498D01*
X102434912Y-128044511D01*
X102378343Y-128181082D01*
X102378340Y-128181092D01*
X102349500Y-128326079D01*
X102349500Y-128326082D01*
X102349500Y-128473918D01*
X102349500Y-128473920D01*
X102349499Y-128473920D01*
X93050500Y-128473920D01*
X93050500Y-128426079D01*
X93034209Y-128344182D01*
X93021659Y-128281092D01*
X93021658Y-128281091D01*
X93021658Y-128281087D01*
X93021656Y-128281082D01*
X92965087Y-128144511D01*
X92965080Y-128144498D01*
X92882951Y-128021584D01*
X92882948Y-128021580D01*
X92778419Y-127917051D01*
X92778415Y-127917048D01*
X92655501Y-127834919D01*
X92655488Y-127834912D01*
X92518917Y-127778343D01*
X92518907Y-127778340D01*
X92373920Y-127749500D01*
X92373918Y-127749500D01*
X92226082Y-127749500D01*
X92226080Y-127749500D01*
X92081092Y-127778340D01*
X92081082Y-127778343D01*
X91944511Y-127834912D01*
X91944498Y-127834919D01*
X91821584Y-127917048D01*
X91821580Y-127917051D01*
X91717051Y-128021580D01*
X91717048Y-128021584D01*
X91634919Y-128144498D01*
X91634912Y-128144511D01*
X91578343Y-128281082D01*
X91578340Y-128281092D01*
X91549500Y-128426079D01*
X91549500Y-128426082D01*
X91549500Y-128573918D01*
X91549500Y-128573920D01*
X91549499Y-128573920D01*
X60431351Y-128573920D01*
X60449998Y-128480172D01*
X60449999Y-128480169D01*
X60449999Y-128332431D01*
X60449998Y-128332427D01*
X60421178Y-128187540D01*
X60421176Y-128187532D01*
X60377576Y-128082273D01*
X59964456Y-128495394D01*
X59903133Y-128528879D01*
X59833441Y-128523895D01*
X59789094Y-128495394D01*
X59771842Y-128478142D01*
X59786132Y-128463852D01*
X59801600Y-128426509D01*
X59801600Y-128386091D01*
X59786132Y-128348748D01*
X59757552Y-128320168D01*
X59720209Y-128304700D01*
X59679791Y-128304700D01*
X59642448Y-128320168D01*
X59628158Y-128334458D01*
X59610904Y-128317204D01*
X59577419Y-128255881D01*
X59582403Y-128186189D01*
X59610904Y-128141842D01*
X60024024Y-127728721D01*
X59918768Y-127685123D01*
X59918759Y-127685120D01*
X59773872Y-127656301D01*
X59762898Y-127656301D01*
X59695859Y-127636616D01*
X59650104Y-127583812D01*
X59640160Y-127514654D01*
X59659796Y-127463410D01*
X59665080Y-127455501D01*
X59665080Y-127455500D01*
X59665084Y-127455495D01*
X59721658Y-127318913D01*
X59745019Y-127201473D01*
X59750500Y-127173920D01*
X64749499Y-127173920D01*
X64778340Y-127318907D01*
X64778343Y-127318917D01*
X64834912Y-127455488D01*
X64834919Y-127455501D01*
X64917048Y-127578415D01*
X64917051Y-127578419D01*
X65021580Y-127682948D01*
X65021584Y-127682951D01*
X65144498Y-127765080D01*
X65144511Y-127765087D01*
X65281082Y-127821656D01*
X65281087Y-127821658D01*
X65281091Y-127821658D01*
X65281092Y-127821659D01*
X65426079Y-127850500D01*
X65426082Y-127850500D01*
X65573920Y-127850500D01*
X65671462Y-127831096D01*
X65718913Y-127821658D01*
X65855495Y-127765084D01*
X65978416Y-127682951D01*
X66082951Y-127578416D01*
X66165084Y-127455495D01*
X66221658Y-127318913D01*
X66245019Y-127201473D01*
X66250500Y-127173920D01*
X66250500Y-127089181D01*
X66270185Y-127022142D01*
X66322989Y-126976387D01*
X66392147Y-126966443D01*
X66455703Y-126995468D01*
X66462181Y-127001500D01*
X66471580Y-127010899D01*
X66471584Y-127010902D01*
X66594498Y-127093031D01*
X66594511Y-127093038D01*
X66719706Y-127144895D01*
X66731087Y-127149609D01*
X66731091Y-127149609D01*
X66731092Y-127149610D01*
X66876079Y-127178451D01*
X66876082Y-127178451D01*
X67023920Y-127178451D01*
X67121462Y-127159047D01*
X67168913Y-127149609D01*
X67305495Y-127093035D01*
X67350796Y-127062766D01*
X67417343Y-127018301D01*
X67484021Y-126997423D01*
X67551401Y-127015908D01*
X67573915Y-127033722D01*
X67602956Y-127062763D01*
X67602960Y-127062766D01*
X67725874Y-127144895D01*
X67725887Y-127144902D01*
X67862458Y-127201471D01*
X67862463Y-127201473D01*
X67862467Y-127201473D01*
X67862468Y-127201474D01*
X68007455Y-127230315D01*
X68007458Y-127230315D01*
X68155296Y-127230315D01*
X68252838Y-127210911D01*
X68300289Y-127201473D01*
X68366808Y-127173920D01*
X69549499Y-127173920D01*
X69578340Y-127318907D01*
X69578343Y-127318917D01*
X69634912Y-127455488D01*
X69634919Y-127455501D01*
X69717048Y-127578415D01*
X69717051Y-127578419D01*
X69821580Y-127682948D01*
X69821584Y-127682951D01*
X69944498Y-127765080D01*
X69944511Y-127765087D01*
X70081082Y-127821656D01*
X70081087Y-127821658D01*
X70081091Y-127821658D01*
X70081092Y-127821659D01*
X70226079Y-127850500D01*
X70226082Y-127850500D01*
X70373920Y-127850500D01*
X70471462Y-127831096D01*
X70518913Y-127821658D01*
X70655495Y-127765084D01*
X70778416Y-127682951D01*
X70882951Y-127578416D01*
X70965084Y-127455495D01*
X71021658Y-127318913D01*
X71045019Y-127201473D01*
X71050500Y-127173920D01*
X71050500Y-127026079D01*
X71021659Y-126881092D01*
X71021658Y-126881091D01*
X71021658Y-126881087D01*
X71021656Y-126881082D01*
X70965087Y-126744511D01*
X70965080Y-126744498D01*
X70882951Y-126621584D01*
X70882948Y-126621580D01*
X70778419Y-126517051D01*
X70778415Y-126517048D01*
X70655501Y-126434919D01*
X70655488Y-126434912D01*
X70518917Y-126378343D01*
X70518907Y-126378340D01*
X70373920Y-126349500D01*
X70373918Y-126349500D01*
X70226082Y-126349500D01*
X70226080Y-126349500D01*
X70081092Y-126378340D01*
X70081082Y-126378343D01*
X69944511Y-126434912D01*
X69944498Y-126434919D01*
X69821584Y-126517048D01*
X69821580Y-126517051D01*
X69717051Y-126621580D01*
X69717048Y-126621584D01*
X69634919Y-126744498D01*
X69634912Y-126744511D01*
X69578343Y-126881082D01*
X69578340Y-126881092D01*
X69549500Y-127026079D01*
X69549500Y-127026082D01*
X69549500Y-127173918D01*
X69549500Y-127173920D01*
X69549499Y-127173920D01*
X68366808Y-127173920D01*
X68436871Y-127144899D01*
X68559792Y-127062766D01*
X68664327Y-126958231D01*
X68664353Y-126958191D01*
X68669094Y-126951098D01*
X68746456Y-126835316D01*
X68746456Y-126835315D01*
X68746460Y-126835310D01*
X68803034Y-126698728D01*
X68821350Y-126606650D01*
X68831876Y-126553735D01*
X68831876Y-126405894D01*
X68803035Y-126260907D01*
X68803034Y-126260906D01*
X68803034Y-126260902D01*
X68796980Y-126246286D01*
X68746463Y-126124326D01*
X68746456Y-126124313D01*
X68728695Y-126097732D01*
X68685919Y-126033713D01*
X117509500Y-126033713D01*
X117509500Y-126246286D01*
X117539986Y-126438770D01*
X117542754Y-126456243D01*
X117591624Y-126606650D01*
X117608444Y-126658414D01*
X117704951Y-126847820D01*
X117829890Y-127019786D01*
X117980213Y-127170109D01*
X118152182Y-127295050D01*
X118160946Y-127299516D01*
X118211742Y-127347491D01*
X118228536Y-127415312D01*
X118205998Y-127481447D01*
X118160946Y-127520484D01*
X118152182Y-127524949D01*
X117980213Y-127649890D01*
X117829890Y-127800213D01*
X117704951Y-127972179D01*
X117608444Y-128161585D01*
X117542753Y-128363760D01*
X117509500Y-128573713D01*
X117509500Y-128786286D01*
X117540648Y-128982951D01*
X117542754Y-128996243D01*
X117592875Y-129150500D01*
X117608444Y-129198414D01*
X117704951Y-129387820D01*
X117829890Y-129559786D01*
X117980213Y-129710109D01*
X118152179Y-129835048D01*
X118152181Y-129835049D01*
X118152184Y-129835051D01*
X118341588Y-129931557D01*
X118543757Y-129997246D01*
X118753713Y-130030500D01*
X118753714Y-130030500D01*
X118966286Y-130030500D01*
X118966287Y-130030500D01*
X119176243Y-129997246D01*
X119378412Y-129931557D01*
X119567816Y-129835051D01*
X119589789Y-129819086D01*
X119739786Y-129710109D01*
X119739788Y-129710106D01*
X119739792Y-129710104D01*
X119890104Y-129559792D01*
X119890106Y-129559788D01*
X119890109Y-129559786D01*
X120015048Y-129387820D01*
X120015047Y-129387820D01*
X120015051Y-129387816D01*
X120019514Y-129379054D01*
X120067488Y-129328259D01*
X120135308Y-129311463D01*
X120201444Y-129333999D01*
X120240486Y-129379056D01*
X120244951Y-129387820D01*
X120369890Y-129559786D01*
X120520213Y-129710109D01*
X120692179Y-129835048D01*
X120692181Y-129835049D01*
X120692184Y-129835051D01*
X120881588Y-129931557D01*
X121083757Y-129997246D01*
X121293713Y-130030500D01*
X121293714Y-130030500D01*
X121506286Y-130030500D01*
X121506287Y-130030500D01*
X121716243Y-129997246D01*
X121918412Y-129931557D01*
X122107816Y-129835051D01*
X122129789Y-129819086D01*
X122279786Y-129710109D01*
X122279788Y-129710106D01*
X122279792Y-129710104D01*
X122430104Y-129559792D01*
X122430106Y-129559788D01*
X122430109Y-129559786D01*
X122555048Y-129387820D01*
X122555047Y-129387820D01*
X122555051Y-129387816D01*
X122651557Y-129198412D01*
X122717246Y-128996243D01*
X122750500Y-128786287D01*
X122750500Y-128573713D01*
X122717246Y-128363757D01*
X122651557Y-128161588D01*
X122555051Y-127972184D01*
X122555049Y-127972181D01*
X122555048Y-127972179D01*
X122430109Y-127800213D01*
X122279786Y-127649890D01*
X122107820Y-127524951D01*
X122107115Y-127524591D01*
X122099054Y-127520485D01*
X122048259Y-127472512D01*
X122031463Y-127404692D01*
X122053999Y-127338556D01*
X122099054Y-127299515D01*
X122107816Y-127295051D01*
X122236615Y-127201474D01*
X122279786Y-127170109D01*
X122279788Y-127170106D01*
X122279792Y-127170104D01*
X122430104Y-127019792D01*
X122430106Y-127019788D01*
X122430109Y-127019786D01*
X122555048Y-126847820D01*
X122555047Y-126847820D01*
X122555051Y-126847816D01*
X122651557Y-126658412D01*
X122717246Y-126456243D01*
X122750500Y-126246287D01*
X122750500Y-126033713D01*
X122717246Y-125823757D01*
X122651557Y-125621588D01*
X122555051Y-125432184D01*
X122555049Y-125432181D01*
X122555048Y-125432179D01*
X122430109Y-125260213D01*
X122279786Y-125109890D01*
X122107820Y-124984951D01*
X122107115Y-124984591D01*
X122099054Y-124980485D01*
X122048259Y-124932512D01*
X122031463Y-124864692D01*
X122053999Y-124798556D01*
X122099054Y-124759515D01*
X122107816Y-124755051D01*
X122187256Y-124697335D01*
X122279786Y-124630109D01*
X122279788Y-124630106D01*
X122279792Y-124630104D01*
X122430104Y-124479792D01*
X122430106Y-124479788D01*
X122430109Y-124479786D01*
X122555048Y-124307820D01*
X122555047Y-124307820D01*
X122555051Y-124307816D01*
X122651557Y-124118412D01*
X122717246Y-123916243D01*
X122750500Y-123706287D01*
X122750500Y-123493713D01*
X122717246Y-123283757D01*
X122651557Y-123081588D01*
X122555051Y-122892184D01*
X122555049Y-122892181D01*
X122555048Y-122892179D01*
X122471142Y-122776691D01*
X122430109Y-122720214D01*
X122430105Y-122720209D01*
X122417031Y-122707135D01*
X123734500Y-122707135D01*
X123734500Y-124502870D01*
X123734501Y-124502876D01*
X123740908Y-124562483D01*
X123791202Y-124697328D01*
X123791206Y-124697335D01*
X123877452Y-124812544D01*
X123877455Y-124812547D01*
X123992664Y-124898793D01*
X123992671Y-124898797D01*
X124124082Y-124947810D01*
X124180016Y-124989681D01*
X124204433Y-125055145D01*
X124189582Y-125123418D01*
X124168431Y-125151673D01*
X124054889Y-125265215D01*
X123929951Y-125437179D01*
X123833444Y-125626585D01*
X123767753Y-125828760D01*
X123734500Y-126038713D01*
X123734500Y-126251286D01*
X123764194Y-126438770D01*
X123767754Y-126461243D01*
X123831818Y-126658412D01*
X123833444Y-126663414D01*
X123929951Y-126852820D01*
X124054890Y-127024786D01*
X124205213Y-127175109D01*
X124377179Y-127300048D01*
X124377181Y-127300049D01*
X124377184Y-127300051D01*
X124566588Y-127396557D01*
X124768757Y-127462246D01*
X124978713Y-127495500D01*
X124978714Y-127495500D01*
X125191286Y-127495500D01*
X125191287Y-127495500D01*
X125401243Y-127462246D01*
X125603412Y-127396557D01*
X125792816Y-127300051D01*
X125928497Y-127201474D01*
X125964786Y-127175109D01*
X125964788Y-127175106D01*
X125964792Y-127175104D01*
X126115104Y-127024792D01*
X126115106Y-127024788D01*
X126115109Y-127024786D01*
X126240048Y-126852820D01*
X126240047Y-126852820D01*
X126240051Y-126852816D01*
X126244514Y-126844054D01*
X126292488Y-126793259D01*
X126360308Y-126776463D01*
X126426444Y-126798999D01*
X126465484Y-126844054D01*
X126469591Y-126852115D01*
X126469951Y-126852820D01*
X126594890Y-127024786D01*
X126745213Y-127175109D01*
X126917179Y-127300048D01*
X126917181Y-127300049D01*
X126917184Y-127300051D01*
X127106588Y-127396557D01*
X127308757Y-127462246D01*
X127518713Y-127495500D01*
X127518714Y-127495500D01*
X127731286Y-127495500D01*
X127731287Y-127495500D01*
X127941243Y-127462246D01*
X128143412Y-127396557D01*
X128332816Y-127300051D01*
X128468497Y-127201474D01*
X128504786Y-127175109D01*
X128504788Y-127175106D01*
X128504792Y-127175104D01*
X128655104Y-127024792D01*
X128655106Y-127024788D01*
X128655109Y-127024786D01*
X128780048Y-126852820D01*
X128780047Y-126852820D01*
X128780051Y-126852816D01*
X128876557Y-126663412D01*
X128942246Y-126461243D01*
X128975500Y-126251287D01*
X128975500Y-126038713D01*
X128942246Y-125828757D01*
X128876557Y-125626588D01*
X128780051Y-125437184D01*
X128780049Y-125437181D01*
X128780048Y-125437179D01*
X128655109Y-125265213D01*
X128504786Y-125114890D01*
X128332820Y-124989951D01*
X128332115Y-124989591D01*
X128324054Y-124985485D01*
X128273259Y-124937512D01*
X128256463Y-124869692D01*
X128278999Y-124803556D01*
X128324054Y-124764515D01*
X128332816Y-124760051D01*
X128419138Y-124697335D01*
X128504786Y-124635109D01*
X128504788Y-124635106D01*
X128504792Y-124635104D01*
X128655104Y-124484792D01*
X128655106Y-124484788D01*
X128655109Y-124484786D01*
X128780048Y-124312820D01*
X128780047Y-124312820D01*
X128780051Y-124312816D01*
X128876557Y-124123412D01*
X128942246Y-123921243D01*
X128975500Y-123711287D01*
X128975500Y-123498713D01*
X128942246Y-123288757D01*
X128876557Y-123086588D01*
X128780051Y-122897184D01*
X128780049Y-122897181D01*
X128780048Y-122897179D01*
X128655109Y-122725213D01*
X128504786Y-122574890D01*
X128332820Y-122449951D01*
X128143414Y-122353444D01*
X128143413Y-122353443D01*
X128143412Y-122353443D01*
X127941243Y-122287754D01*
X127941241Y-122287753D01*
X127941240Y-122287753D01*
X127779957Y-122262208D01*
X127731287Y-122254500D01*
X127518713Y-122254500D01*
X127470042Y-122262208D01*
X127308760Y-122287753D01*
X127106585Y-122353444D01*
X126917179Y-122449951D01*
X126745215Y-122574889D01*
X126631673Y-122688431D01*
X126570350Y-122721915D01*
X126500658Y-122716931D01*
X126444725Y-122675059D01*
X126427810Y-122644082D01*
X126378797Y-122512671D01*
X126378793Y-122512664D01*
X126292547Y-122397455D01*
X126292544Y-122397452D01*
X126177335Y-122311206D01*
X126177328Y-122311202D01*
X126042482Y-122260908D01*
X126042483Y-122260908D01*
X125982883Y-122254501D01*
X125982881Y-122254500D01*
X125982873Y-122254500D01*
X125982864Y-122254500D01*
X124187129Y-122254500D01*
X124187123Y-122254501D01*
X124127516Y-122260908D01*
X123992671Y-122311202D01*
X123992664Y-122311206D01*
X123877455Y-122397452D01*
X123877452Y-122397455D01*
X123791206Y-122512664D01*
X123791202Y-122512671D01*
X123740908Y-122647517D01*
X123734501Y-122707116D01*
X123734500Y-122707135D01*
X122417031Y-122707135D01*
X122279786Y-122569890D01*
X122107820Y-122444951D01*
X121918414Y-122348444D01*
X121918413Y-122348443D01*
X121918412Y-122348443D01*
X121716243Y-122282754D01*
X121716241Y-122282753D01*
X121716240Y-122282753D01*
X121554957Y-122257208D01*
X121506287Y-122249500D01*
X121293713Y-122249500D01*
X121245042Y-122257208D01*
X121083760Y-122282753D01*
X120881585Y-122348444D01*
X120692179Y-122444951D01*
X120520215Y-122569889D01*
X120406285Y-122683819D01*
X120344962Y-122717303D01*
X120275270Y-122712319D01*
X120219337Y-122670447D01*
X120202422Y-122639470D01*
X120153354Y-122507913D01*
X120153350Y-122507906D01*
X120067190Y-122392812D01*
X120067187Y-122392809D01*
X119952093Y-122306649D01*
X119952086Y-122306645D01*
X119817379Y-122256403D01*
X119817372Y-122256401D01*
X119757844Y-122250000D01*
X119110000Y-122250000D01*
X119110000Y-123166988D01*
X119052993Y-123134075D01*
X118925826Y-123100000D01*
X118794174Y-123100000D01*
X118667007Y-123134075D01*
X118610000Y-123166988D01*
X118610000Y-122250000D01*
X117962155Y-122250000D01*
X117902627Y-122256401D01*
X117902620Y-122256403D01*
X117767913Y-122306645D01*
X117767906Y-122306649D01*
X117652812Y-122392809D01*
X117652809Y-122392812D01*
X117566649Y-122507906D01*
X117566645Y-122507913D01*
X117516403Y-122642620D01*
X117516401Y-122642627D01*
X117510000Y-122702155D01*
X117510000Y-123350000D01*
X118426988Y-123350000D01*
X118394075Y-123407007D01*
X118360000Y-123534174D01*
X118360000Y-123665826D01*
X118394075Y-123792993D01*
X118426988Y-123850000D01*
X117510000Y-123850000D01*
X117510000Y-124497844D01*
X117516401Y-124557372D01*
X117516403Y-124557379D01*
X117566645Y-124692086D01*
X117566649Y-124692093D01*
X117652809Y-124807187D01*
X117652812Y-124807190D01*
X117767906Y-124893350D01*
X117767913Y-124893354D01*
X117899470Y-124942422D01*
X117955404Y-124984293D01*
X117979821Y-125049758D01*
X117964969Y-125118031D01*
X117943819Y-125146285D01*
X117829889Y-125260215D01*
X117704951Y-125432179D01*
X117608444Y-125621585D01*
X117542753Y-125823760D01*
X117509500Y-126033713D01*
X68685919Y-126033713D01*
X68664327Y-126001399D01*
X68664324Y-126001395D01*
X68559795Y-125896866D01*
X68559791Y-125896863D01*
X68436877Y-125814734D01*
X68436864Y-125814727D01*
X68300293Y-125758158D01*
X68300283Y-125758155D01*
X68155296Y-125729315D01*
X68155294Y-125729315D01*
X68007458Y-125729315D01*
X68007456Y-125729315D01*
X67862468Y-125758155D01*
X67862458Y-125758158D01*
X67725887Y-125814727D01*
X67725869Y-125814737D01*
X67614031Y-125889465D01*
X67547354Y-125910343D01*
X67479974Y-125891858D01*
X67457462Y-125874046D01*
X67428416Y-125845000D01*
X67428415Y-125844999D01*
X67428414Y-125844998D01*
X67305501Y-125762870D01*
X67305488Y-125762863D01*
X67168917Y-125706294D01*
X67168907Y-125706291D01*
X67023920Y-125677451D01*
X67023918Y-125677451D01*
X66876082Y-125677451D01*
X66876080Y-125677451D01*
X66731092Y-125706291D01*
X66731082Y-125706294D01*
X66594511Y-125762863D01*
X66594498Y-125762870D01*
X66471584Y-125844999D01*
X66471580Y-125845002D01*
X66367051Y-125949531D01*
X66367048Y-125949535D01*
X66284919Y-126072449D01*
X66284912Y-126072462D01*
X66228343Y-126209033D01*
X66228340Y-126209043D01*
X66199500Y-126354030D01*
X66199500Y-126438770D01*
X66179815Y-126505809D01*
X66127011Y-126551564D01*
X66057853Y-126561508D01*
X65994297Y-126532483D01*
X65987819Y-126526451D01*
X65978419Y-126517051D01*
X65978415Y-126517048D01*
X65855501Y-126434919D01*
X65855488Y-126434912D01*
X65718917Y-126378343D01*
X65718907Y-126378340D01*
X65573920Y-126349500D01*
X65573918Y-126349500D01*
X65426082Y-126349500D01*
X65426080Y-126349500D01*
X65281092Y-126378340D01*
X65281082Y-126378343D01*
X65144511Y-126434912D01*
X65144498Y-126434919D01*
X65021584Y-126517048D01*
X65021580Y-126517051D01*
X64917051Y-126621580D01*
X64917048Y-126621584D01*
X64834919Y-126744498D01*
X64834912Y-126744511D01*
X64778343Y-126881082D01*
X64778340Y-126881092D01*
X64749500Y-127026079D01*
X64749500Y-127026082D01*
X64749500Y-127173918D01*
X64749500Y-127173920D01*
X64749499Y-127173920D01*
X59750500Y-127173920D01*
X59750500Y-127026079D01*
X59721659Y-126881092D01*
X59721658Y-126881091D01*
X59721658Y-126881087D01*
X59721656Y-126881082D01*
X59665087Y-126744511D01*
X59665080Y-126744498D01*
X59582951Y-126621584D01*
X59582948Y-126621580D01*
X59478419Y-126517051D01*
X59478415Y-126517048D01*
X59355501Y-126434919D01*
X59355488Y-126434912D01*
X59218917Y-126378343D01*
X59218907Y-126378340D01*
X59073920Y-126349500D01*
X59073918Y-126349500D01*
X58926082Y-126349500D01*
X58926080Y-126349500D01*
X58781092Y-126378340D01*
X58781082Y-126378343D01*
X58644511Y-126434912D01*
X58644498Y-126434919D01*
X58521584Y-126517048D01*
X58521580Y-126517051D01*
X58417051Y-126621580D01*
X58417048Y-126621584D01*
X58334919Y-126744498D01*
X58334912Y-126744511D01*
X58278343Y-126881082D01*
X58278340Y-126881092D01*
X58249500Y-127026079D01*
X58249500Y-127026082D01*
X58249500Y-127173918D01*
X58249500Y-127173920D01*
X58249499Y-127173920D01*
X47000500Y-127173920D01*
X47000500Y-118824563D01*
X47020185Y-118757524D01*
X47072989Y-118711769D01*
X47124515Y-118700563D01*
X61222988Y-118702695D01*
X61223011Y-118702701D01*
X61262392Y-118702701D01*
X61290810Y-118702705D01*
X61357846Y-118722399D01*
X61403594Y-118775209D01*
X61413527Y-118844369D01*
X61400701Y-118884116D01*
X61326090Y-119026952D01*
X61270114Y-119222583D01*
X61270113Y-119222586D01*
X61259500Y-119341966D01*
X61259500Y-120658028D01*
X61259501Y-120658034D01*
X61270113Y-120777415D01*
X61326089Y-120973045D01*
X61326090Y-120973048D01*
X61326091Y-120973049D01*
X61420302Y-121153407D01*
X61420304Y-121153409D01*
X61548890Y-121311109D01*
X61642803Y-121387684D01*
X61706593Y-121439698D01*
X61886951Y-121533909D01*
X62082582Y-121589886D01*
X62201963Y-121600500D01*
X62318036Y-121600499D01*
X62437418Y-121589886D01*
X62633049Y-121533909D01*
X62779348Y-121457488D01*
X62847881Y-121443898D01*
X62912885Y-121469517D01*
X62953718Y-121526212D01*
X62960758Y-121567449D01*
X62960316Y-122632422D01*
X62940604Y-122699454D01*
X62887781Y-122745187D01*
X62818618Y-122755102D01*
X62778908Y-122742281D01*
X62633049Y-122666091D01*
X62633048Y-122666090D01*
X62633045Y-122666089D01*
X62513710Y-122631944D01*
X62437418Y-122610114D01*
X62437415Y-122610113D01*
X62437413Y-122610113D01*
X62376515Y-122604699D01*
X62318037Y-122599500D01*
X62318031Y-122599500D01*
X62201972Y-122599500D01*
X62201964Y-122599501D01*
X62082584Y-122610113D01*
X61886954Y-122666089D01*
X61808376Y-122707135D01*
X61706593Y-122760302D01*
X61706591Y-122760303D01*
X61706590Y-122760304D01*
X61548890Y-122888890D01*
X61420304Y-123046590D01*
X61420302Y-123046593D01*
X61392405Y-123100000D01*
X61326089Y-123226954D01*
X61270114Y-123422583D01*
X61270113Y-123422586D01*
X61259500Y-123541966D01*
X61259500Y-124458028D01*
X61259501Y-124458034D01*
X61270113Y-124577415D01*
X61326089Y-124773045D01*
X61326090Y-124773048D01*
X61326091Y-124773049D01*
X61420302Y-124953407D01*
X61442382Y-124980486D01*
X61548890Y-125111109D01*
X61642803Y-125187684D01*
X61706593Y-125239698D01*
X61886951Y-125333909D01*
X62082582Y-125389886D01*
X62201963Y-125400500D01*
X62318036Y-125400499D01*
X62437418Y-125389886D01*
X62633049Y-125333909D01*
X62813407Y-125239698D01*
X62971109Y-125111109D01*
X63099698Y-124953407D01*
X63099698Y-124953406D01*
X63103672Y-124948533D01*
X63104991Y-124949609D01*
X63111175Y-124944372D01*
X63119863Y-124930477D01*
X63137287Y-124922255D01*
X63151987Y-124909806D01*
X63168829Y-124907374D01*
X63183052Y-124900664D01*
X63218344Y-124900225D01*
X63220167Y-124900464D01*
X63220270Y-124900478D01*
X63220310Y-124900483D01*
X63220313Y-124900484D01*
X63220316Y-124900484D01*
X63220437Y-124900500D01*
X63220438Y-124900500D01*
X63259874Y-124900500D01*
X63259890Y-124900500D01*
X63299437Y-124900516D01*
X63299440Y-124900515D01*
X63307344Y-124900518D01*
X63307635Y-124900500D01*
X72539561Y-124900500D01*
X72539562Y-124900500D01*
X72539562Y-124900499D01*
X72541581Y-124900234D01*
X72543287Y-124900500D01*
X72547690Y-124900500D01*
X72547690Y-124901186D01*
X72610617Y-124910996D01*
X72655088Y-124949543D01*
X72656328Y-124948533D01*
X72788890Y-125111109D01*
X72882803Y-125187684D01*
X72946593Y-125239698D01*
X73126951Y-125333909D01*
X73322582Y-125389886D01*
X73441963Y-125400500D01*
X73558036Y-125400499D01*
X73677418Y-125389886D01*
X73873049Y-125333909D01*
X74053407Y-125239698D01*
X74211109Y-125111109D01*
X74339698Y-124953407D01*
X74433909Y-124773049D01*
X74489886Y-124577418D01*
X74500500Y-124458037D01*
X74500499Y-123541964D01*
X74489886Y-123422582D01*
X74433909Y-123226951D01*
X74339698Y-123046593D01*
X74273001Y-122964795D01*
X74211109Y-122888890D01*
X74095903Y-122794953D01*
X74053407Y-122760302D01*
X73873049Y-122666091D01*
X73873048Y-122666090D01*
X73873045Y-122666089D01*
X73753710Y-122631944D01*
X73677418Y-122610114D01*
X73677415Y-122610113D01*
X73677413Y-122610113D01*
X73616515Y-122604699D01*
X73558037Y-122599500D01*
X73558031Y-122599500D01*
X73441972Y-122599500D01*
X73441964Y-122599501D01*
X73322584Y-122610113D01*
X73126952Y-122666090D01*
X72981911Y-122741853D01*
X72913376Y-122755444D01*
X72848373Y-122729825D01*
X72807539Y-122673129D01*
X72800500Y-122631944D01*
X72800500Y-121568055D01*
X72820185Y-121501016D01*
X72872989Y-121455261D01*
X72942147Y-121445317D01*
X72981906Y-121458144D01*
X73126951Y-121533909D01*
X73322582Y-121589886D01*
X73441963Y-121600500D01*
X73558036Y-121600499D01*
X73677418Y-121589886D01*
X73873049Y-121533909D01*
X74053407Y-121439698D01*
X74211109Y-121311109D01*
X74339698Y-121153407D01*
X74433909Y-120973049D01*
X74489886Y-120777418D01*
X74500500Y-120658037D01*
X74500499Y-119341964D01*
X74489886Y-119222582D01*
X74433909Y-119026951D01*
X74359295Y-118884110D01*
X74345705Y-118815578D01*
X74371324Y-118750574D01*
X74428019Y-118709741D01*
X74469196Y-118702701D01*
X146275498Y-118700512D01*
X146342536Y-118720195D01*
G37*
%TD.AperFunction*%
%TD*%
M02*
