%TF.GenerationSoftware,KiCad,Pcbnew,9.0.1-9.0.1-0~ubuntu24.04.1*%
%TF.CreationDate,2025-05-01T11:00:14-04:00*%
%TF.ProjectId,drone_sim_controler,64726f6e-655f-4736-996d-5f636f6e7472,rev?*%
%TF.SameCoordinates,Original*%
%TF.FileFunction,Legend,Bot*%
%TF.FilePolarity,Positive*%
%FSLAX46Y46*%
G04 Gerber Fmt 4.6, Leading zero omitted, Abs format (unit mm)*
G04 Created by KiCad (PCBNEW 9.0.1-9.0.1-0~ubuntu24.04.1) date 2025-05-01 11:00:14*
%MOMM*%
%LPD*%
G01*
G04 APERTURE LIST*
%ADD10C,0.300000*%
%ADD11C,0.000000*%
G04 APERTURE END LIST*
D10*
X98121427Y-139849757D02*
X98264285Y-139778328D01*
X98264285Y-139778328D02*
X98478570Y-139778328D01*
X98478570Y-139778328D02*
X98692856Y-139849757D01*
X98692856Y-139849757D02*
X98835713Y-139992614D01*
X98835713Y-139992614D02*
X98907142Y-140135471D01*
X98907142Y-140135471D02*
X98978570Y-140421185D01*
X98978570Y-140421185D02*
X98978570Y-140635471D01*
X98978570Y-140635471D02*
X98907142Y-140921185D01*
X98907142Y-140921185D02*
X98835713Y-141064042D01*
X98835713Y-141064042D02*
X98692856Y-141206900D01*
X98692856Y-141206900D02*
X98478570Y-141278328D01*
X98478570Y-141278328D02*
X98335713Y-141278328D01*
X98335713Y-141278328D02*
X98121427Y-141206900D01*
X98121427Y-141206900D02*
X98049999Y-141135471D01*
X98049999Y-141135471D02*
X98049999Y-140635471D01*
X98049999Y-140635471D02*
X98335713Y-140635471D01*
X97192856Y-139778328D02*
X97192856Y-140135471D01*
X97549999Y-139992614D02*
X97192856Y-140135471D01*
X97192856Y-140135471D02*
X96835713Y-139992614D01*
X97407142Y-140421185D02*
X97192856Y-140135471D01*
X97192856Y-140135471D02*
X96978570Y-140421185D01*
X96049999Y-139778328D02*
X96049999Y-140135471D01*
X96407142Y-139992614D02*
X96049999Y-140135471D01*
X96049999Y-140135471D02*
X95692856Y-139992614D01*
X96264285Y-140421185D02*
X96049999Y-140135471D01*
X96049999Y-140135471D02*
X95835713Y-140421185D01*
X94907142Y-139778328D02*
X94907142Y-140135471D01*
X95264285Y-139992614D02*
X94907142Y-140135471D01*
X94907142Y-140135471D02*
X94549999Y-139992614D01*
X95121428Y-140421185D02*
X94907142Y-140135471D01*
X94907142Y-140135471D02*
X94692856Y-140421185D01*
D11*
%TO.C,G\u002A\u002A\u002A*%
G36*
X47476260Y-111168254D02*
G01*
X47297101Y-111434813D01*
X47016243Y-111822287D01*
X46873422Y-111974603D01*
X46857029Y-111954207D01*
X46816304Y-111673469D01*
X46800000Y-111168254D01*
X46800967Y-110992866D01*
X46844499Y-110565283D01*
X47016321Y-110393487D01*
X47402837Y-110361905D01*
X48005675Y-110361905D01*
X47476260Y-111168254D01*
G37*
G36*
X51072841Y-110383809D02*
G01*
X51323669Y-110476380D01*
X51325199Y-110670786D01*
X51326941Y-110737809D01*
X51488133Y-111127439D01*
X51863850Y-111813126D01*
X52440663Y-112772240D01*
X53205141Y-113982151D01*
X54143855Y-115420230D01*
X57080105Y-119860793D01*
X57435605Y-119395079D01*
X57677103Y-119003224D01*
X57795552Y-118638394D01*
X57760973Y-118537967D01*
X57539956Y-118128635D01*
X57141736Y-117466595D01*
X56597927Y-116602597D01*
X55940144Y-115587392D01*
X55200000Y-114471730D01*
X54760537Y-113814960D01*
X54066341Y-112770054D01*
X53471840Y-111865860D01*
X53008384Y-111150520D01*
X52707320Y-110672176D01*
X52600000Y-110478971D01*
X52612222Y-110458017D01*
X52867658Y-110391437D01*
X53350000Y-110367325D01*
X53580274Y-110374315D01*
X53802529Y-110419809D01*
X54023364Y-110546182D01*
X54279743Y-110796033D01*
X54608631Y-111211961D01*
X55046993Y-111836563D01*
X55631794Y-112712441D01*
X56400000Y-113882191D01*
X57145668Y-115013830D01*
X57741892Y-115898525D01*
X58181032Y-116515944D01*
X58492984Y-116903032D01*
X58707642Y-117096735D01*
X58854901Y-117134000D01*
X58964654Y-117051771D01*
X59008399Y-116995456D01*
X59232042Y-116681710D01*
X59351816Y-116395083D01*
X59347693Y-116100622D01*
X88069842Y-116100622D01*
X88168379Y-116277421D01*
X88467306Y-116758380D01*
X88933063Y-117485108D01*
X89534230Y-118409053D01*
X90239381Y-119481664D01*
X91017096Y-120654392D01*
X93850527Y-124909190D01*
X94223946Y-124338325D01*
X94251019Y-124296520D01*
X94496936Y-123870276D01*
X94598682Y-123606090D01*
X94543107Y-123490016D01*
X94293871Y-123074948D01*
X93872292Y-122408100D01*
X93308938Y-121537061D01*
X92634381Y-120509418D01*
X91879190Y-119372757D01*
X91346796Y-118578124D01*
X90616637Y-117495594D01*
X89972710Y-116549384D01*
X89449078Y-115789179D01*
X89079801Y-115264662D01*
X88898940Y-115025520D01*
X88769079Y-114913748D01*
X88564641Y-114935640D01*
X88297760Y-115275948D01*
X88090637Y-115732180D01*
X88069842Y-116100622D01*
X59347693Y-116100622D01*
X59347343Y-116075627D01*
X59198250Y-115663393D01*
X58884161Y-115098432D01*
X58384700Y-114320796D01*
X58201506Y-114047966D01*
X59800512Y-114047966D01*
X59893635Y-114301990D01*
X60129148Y-114712580D01*
X60458297Y-115218911D01*
X66279148Y-115189278D01*
X66661428Y-115187138D01*
X68122011Y-115175256D01*
X69439248Y-115158817D01*
X70561808Y-115138862D01*
X71438360Y-115116431D01*
X72017574Y-115092565D01*
X72248119Y-115068303D01*
X72268162Y-115039448D01*
X72200007Y-114775189D01*
X71948119Y-114359580D01*
X71500000Y-113742200D01*
X65650512Y-113815941D01*
X65218606Y-113821816D01*
X63769505Y-113848099D01*
X62472817Y-113881563D01*
X61378058Y-113920246D01*
X60534744Y-113962184D01*
X59992390Y-114005411D01*
X59800512Y-114047966D01*
X58201506Y-114047966D01*
X57679494Y-113270538D01*
X56585526Y-111650737D01*
X58204447Y-111650737D01*
X58309470Y-111938512D01*
X58574549Y-112353093D01*
X58940203Y-112832376D01*
X64664988Y-112744622D01*
X64970688Y-112739766D01*
X66422238Y-112711898D01*
X67731132Y-112679051D01*
X68845907Y-112643072D01*
X69715097Y-112605808D01*
X70287239Y-112569107D01*
X70510867Y-112534814D01*
X70515913Y-112528858D01*
X70491130Y-112282195D01*
X70285194Y-111879326D01*
X69938427Y-111345892D01*
X64069213Y-111386778D01*
X64061983Y-111386828D01*
X62193883Y-111405485D01*
X60707159Y-111433164D01*
X59583331Y-111470697D01*
X58803922Y-111518916D01*
X58350453Y-111578652D01*
X58204447Y-111650737D01*
X56585526Y-111650737D01*
X55783159Y-110462699D01*
X63341579Y-110407649D01*
X64476188Y-110399478D01*
X66205289Y-110388377D01*
X67595807Y-110383275D01*
X68687056Y-110386030D01*
X69518355Y-110398501D01*
X70129020Y-110422545D01*
X70558368Y-110460022D01*
X70845716Y-110512790D01*
X71030381Y-110582708D01*
X71151679Y-110671633D01*
X71248927Y-110781425D01*
X71450029Y-111132187D01*
X71466862Y-111441237D01*
X71424650Y-111532391D01*
X71500639Y-111521666D01*
X71589775Y-111544779D01*
X71870810Y-111819712D01*
X72276607Y-112329003D01*
X72752617Y-113007896D01*
X73839825Y-114644682D01*
X74218594Y-114065595D01*
X74249445Y-114017861D01*
X74496591Y-113585472D01*
X74598682Y-113313022D01*
X74593074Y-113285109D01*
X74441545Y-112987531D01*
X74125081Y-112475714D01*
X73700000Y-111841856D01*
X73591943Y-111685395D01*
X73189048Y-111088911D01*
X72906530Y-110649522D01*
X72800000Y-110453041D01*
X72812190Y-110436750D01*
X73067593Y-110384933D01*
X73550000Y-110366209D01*
X73669160Y-110368396D01*
X74125340Y-110443096D01*
X74482065Y-110690816D01*
X74884220Y-111202355D01*
X75468440Y-112034197D01*
X75847472Y-111562397D01*
X76082452Y-111136432D01*
X76131976Y-110726251D01*
X76110968Y-110602697D01*
X76190504Y-110448117D01*
X76499610Y-110378256D01*
X77123197Y-110361905D01*
X78208946Y-110361905D01*
X76840526Y-112428175D01*
X76826404Y-112449500D01*
X76287905Y-113264964D01*
X75825497Y-113969372D01*
X75488003Y-114488077D01*
X75324249Y-114746429D01*
X75298235Y-114858226D01*
X75496679Y-114962393D01*
X76038196Y-114986484D01*
X76900000Y-114974556D01*
X78372603Y-112668230D01*
X78614584Y-112289526D01*
X79139839Y-111479284D01*
X79520215Y-110935430D01*
X79807785Y-110604864D01*
X80054625Y-110434487D01*
X80312807Y-110371201D01*
X80634407Y-110361905D01*
X80924668Y-110369865D01*
X81261475Y-110444647D01*
X81275750Y-110613889D01*
X81274152Y-110616597D01*
X81105422Y-110882424D01*
X80764183Y-111406723D01*
X80299258Y-112114846D01*
X79759473Y-112932143D01*
X78391053Y-114998413D01*
X79271810Y-114998413D01*
X80152566Y-114998413D01*
X81625903Y-112680159D01*
X81816934Y-112379807D01*
X82357235Y-111541505D01*
X82748870Y-110974947D01*
X83042884Y-110626922D01*
X83290318Y-110444215D01*
X83542215Y-110373614D01*
X83849620Y-110361905D01*
X83984581Y-110363676D01*
X84423123Y-110400640D01*
X84600000Y-110470432D01*
X84540738Y-110593527D01*
X84298768Y-110995608D01*
X83913380Y-111600981D01*
X83431289Y-112335114D01*
X83087011Y-112856445D01*
X82608350Y-113595102D01*
X82234023Y-114189428D01*
X82024253Y-114544842D01*
X81958706Y-114673628D01*
X81904035Y-114895765D01*
X82090882Y-114983176D01*
X82598431Y-114998413D01*
X83410935Y-114998413D01*
X84904228Y-112680159D01*
X86397521Y-110361905D01*
X87203234Y-110361905D01*
X88008946Y-110361905D01*
X86604473Y-112471852D01*
X86552612Y-112549912D01*
X86025414Y-113361504D01*
X85595548Y-114055046D01*
X85306061Y-114559112D01*
X85200000Y-114802275D01*
X85204372Y-114828846D01*
X85434113Y-114949940D01*
X85943972Y-114960185D01*
X85946494Y-114959972D01*
X86258209Y-114916089D01*
X86524164Y-114807420D01*
X86796950Y-114579209D01*
X87129155Y-114176700D01*
X87573370Y-113545136D01*
X87599254Y-113506219D01*
X89552360Y-113506219D01*
X92509563Y-117911726D01*
X95466766Y-122317232D01*
X95833383Y-121860887D01*
X96083004Y-121484352D01*
X96200000Y-121160082D01*
X96128705Y-120998781D01*
X95860543Y-120536006D01*
X95421591Y-119826666D01*
X94842023Y-118918544D01*
X94152015Y-117859427D01*
X93381740Y-116697097D01*
X92749628Y-115752523D01*
X92027794Y-114678098D01*
X91401762Y-113750936D01*
X90903305Y-113017915D01*
X90564197Y-112525913D01*
X90416212Y-112321809D01*
X90379727Y-112304041D01*
X90172296Y-112445242D01*
X89910651Y-112835633D01*
X89552360Y-113506219D01*
X87599254Y-113506219D01*
X88182184Y-112629762D01*
X89676424Y-110361905D01*
X90559610Y-110361905D01*
X91072071Y-110383541D01*
X91323589Y-110476045D01*
X91325199Y-110670786D01*
X91326941Y-110737809D01*
X91488133Y-111127439D01*
X91863850Y-111813126D01*
X92440663Y-112772240D01*
X93205141Y-113982151D01*
X94143855Y-115420230D01*
X97080105Y-119860793D01*
X97435605Y-119395079D01*
X97677103Y-119003224D01*
X97795552Y-118638394D01*
X97760973Y-118537967D01*
X97539956Y-118128635D01*
X97141736Y-117466595D01*
X96597927Y-116602597D01*
X95940144Y-115587392D01*
X95200000Y-114471730D01*
X94760537Y-113814960D01*
X94066341Y-112770054D01*
X93471840Y-111865860D01*
X93008384Y-111150520D01*
X92707320Y-110672176D01*
X92600000Y-110478971D01*
X92612222Y-110458017D01*
X92867658Y-110391437D01*
X93350000Y-110367325D01*
X93580274Y-110374315D01*
X93802529Y-110419809D01*
X94023364Y-110546182D01*
X94279743Y-110796033D01*
X94608631Y-111211961D01*
X95046993Y-111836563D01*
X95631794Y-112712441D01*
X96400000Y-113882191D01*
X97145668Y-115013830D01*
X97741892Y-115898525D01*
X98181032Y-116515944D01*
X98492984Y-116903032D01*
X98707642Y-117096735D01*
X98854901Y-117134000D01*
X98964654Y-117051771D01*
X99008399Y-116995456D01*
X99232042Y-116681710D01*
X99351816Y-116395083D01*
X99347693Y-116100622D01*
X128069842Y-116100622D01*
X128168379Y-116277421D01*
X128467306Y-116758380D01*
X128933063Y-117485108D01*
X129534230Y-118409053D01*
X130239381Y-119481664D01*
X131017096Y-120654392D01*
X133850527Y-124909190D01*
X134223946Y-124338325D01*
X134250658Y-124297071D01*
X134496819Y-123869084D01*
X134598682Y-123601608D01*
X134543533Y-123485447D01*
X134294715Y-123070073D01*
X133873376Y-122403006D01*
X133310122Y-121531909D01*
X132635560Y-120504444D01*
X131880295Y-119368275D01*
X131349865Y-118577143D01*
X130619410Y-117495044D01*
X129975092Y-116549130D01*
X129451019Y-115789102D01*
X129081301Y-115264665D01*
X128900046Y-115025520D01*
X128769353Y-114913482D01*
X128564657Y-114935571D01*
X128297760Y-115275948D01*
X128090637Y-115732180D01*
X128069842Y-116100622D01*
X99347693Y-116100622D01*
X99347343Y-116075627D01*
X99198250Y-115663393D01*
X98884161Y-115098432D01*
X98384700Y-114320796D01*
X98201506Y-114047966D01*
X99800512Y-114047966D01*
X99893635Y-114301990D01*
X100129148Y-114712580D01*
X100458297Y-115218911D01*
X106279148Y-115189278D01*
X106661428Y-115187138D01*
X108122011Y-115175256D01*
X109439248Y-115158817D01*
X110561808Y-115138862D01*
X111438360Y-115116431D01*
X112017574Y-115092565D01*
X112248119Y-115068303D01*
X112268162Y-115039448D01*
X112200007Y-114775189D01*
X111948119Y-114359580D01*
X111500000Y-113742200D01*
X105650512Y-113815941D01*
X105218606Y-113821816D01*
X103769505Y-113848099D01*
X102472817Y-113881563D01*
X101378058Y-113920246D01*
X100534744Y-113962184D01*
X99992390Y-114005411D01*
X99800512Y-114047966D01*
X98201506Y-114047966D01*
X97679494Y-113270538D01*
X96585526Y-111650737D01*
X98204447Y-111650737D01*
X98309470Y-111938512D01*
X98574549Y-112353093D01*
X98940203Y-112832376D01*
X104664988Y-112744622D01*
X104970688Y-112739766D01*
X106422238Y-112711898D01*
X107731132Y-112679051D01*
X108845907Y-112643072D01*
X109715097Y-112605808D01*
X110287239Y-112569107D01*
X110510867Y-112534814D01*
X110515913Y-112528858D01*
X110491130Y-112282195D01*
X110285194Y-111879326D01*
X109938427Y-111345892D01*
X104069213Y-111386778D01*
X104061983Y-111386828D01*
X102193883Y-111405485D01*
X100707159Y-111433164D01*
X99583331Y-111470697D01*
X98803922Y-111518916D01*
X98350453Y-111578652D01*
X98204447Y-111650737D01*
X96585526Y-111650737D01*
X95783159Y-110462699D01*
X103341579Y-110407649D01*
X104476188Y-110399478D01*
X106205289Y-110388377D01*
X107595807Y-110383275D01*
X108687056Y-110386030D01*
X109518355Y-110398501D01*
X110129020Y-110422545D01*
X110558368Y-110460022D01*
X110845716Y-110512790D01*
X111030381Y-110582708D01*
X111151679Y-110671633D01*
X111248927Y-110781425D01*
X111450029Y-111132187D01*
X111466862Y-111441237D01*
X111424650Y-111532391D01*
X111500639Y-111521666D01*
X111589775Y-111544779D01*
X111870810Y-111819712D01*
X112276607Y-112329003D01*
X112752617Y-113007896D01*
X113839825Y-114644682D01*
X114218594Y-114065595D01*
X114249445Y-114017861D01*
X114496591Y-113585472D01*
X114598682Y-113313022D01*
X114593074Y-113285109D01*
X114441545Y-112987531D01*
X114125081Y-112475714D01*
X113699999Y-111841856D01*
X113591943Y-111685395D01*
X113189048Y-111088911D01*
X112906530Y-110649522D01*
X112800000Y-110453041D01*
X112812190Y-110436750D01*
X113067593Y-110384933D01*
X113550000Y-110366209D01*
X113669160Y-110368396D01*
X114125340Y-110443096D01*
X114482065Y-110690816D01*
X114884220Y-111202355D01*
X115468440Y-112034197D01*
X115847472Y-111562397D01*
X116082452Y-111136432D01*
X116131976Y-110726251D01*
X116110968Y-110602697D01*
X116190504Y-110448117D01*
X116499610Y-110378256D01*
X117123197Y-110361905D01*
X118208946Y-110361905D01*
X116840526Y-112428175D01*
X116826404Y-112449500D01*
X116287905Y-113264964D01*
X115825497Y-113969372D01*
X115488003Y-114488077D01*
X115324249Y-114746429D01*
X115298235Y-114858226D01*
X115496679Y-114962393D01*
X116038196Y-114986484D01*
X116900000Y-114974556D01*
X118372603Y-112668230D01*
X118614584Y-112289526D01*
X119139839Y-111479284D01*
X119520215Y-110935430D01*
X119807785Y-110604864D01*
X120054625Y-110434487D01*
X120312807Y-110371201D01*
X120634407Y-110361905D01*
X120924668Y-110369865D01*
X121261475Y-110444647D01*
X121275750Y-110613889D01*
X121274152Y-110616597D01*
X121105422Y-110882424D01*
X120764183Y-111406723D01*
X120299258Y-112114846D01*
X119759473Y-112932143D01*
X118391053Y-114998413D01*
X119271810Y-114998413D01*
X120152566Y-114998413D01*
X121625903Y-112680159D01*
X121816934Y-112379807D01*
X122357235Y-111541505D01*
X122748870Y-110974947D01*
X123042884Y-110626922D01*
X123290318Y-110444215D01*
X123542215Y-110373614D01*
X123849620Y-110361905D01*
X123984581Y-110363676D01*
X124423123Y-110400640D01*
X124600000Y-110470432D01*
X124540738Y-110593527D01*
X124298768Y-110995608D01*
X123913380Y-111600981D01*
X123431289Y-112335114D01*
X123087011Y-112856445D01*
X122608350Y-113595102D01*
X122234023Y-114189428D01*
X122024253Y-114544842D01*
X121958706Y-114673628D01*
X121904035Y-114895765D01*
X122090882Y-114983176D01*
X122598431Y-114998413D01*
X123410935Y-114998413D01*
X124904228Y-112680159D01*
X126397521Y-110361905D01*
X127203234Y-110361905D01*
X128008946Y-110361905D01*
X126604473Y-112471852D01*
X126552612Y-112549912D01*
X126025414Y-113361504D01*
X125595548Y-114055046D01*
X125306061Y-114559112D01*
X125199999Y-114802275D01*
X125204372Y-114828846D01*
X125434113Y-114949940D01*
X125943972Y-114960185D01*
X125946494Y-114959972D01*
X126258209Y-114916089D01*
X126524164Y-114807420D01*
X126796950Y-114579209D01*
X127129155Y-114176700D01*
X127573370Y-113545136D01*
X127599254Y-113506219D01*
X129552360Y-113506219D01*
X132509563Y-117911726D01*
X135466766Y-122317232D01*
X135833383Y-121860887D01*
X136083004Y-121484352D01*
X136200000Y-121160082D01*
X136128705Y-120998781D01*
X135860543Y-120536006D01*
X135421591Y-119826666D01*
X134842023Y-118918544D01*
X134152015Y-117859427D01*
X133381740Y-116697097D01*
X132749628Y-115752523D01*
X132027794Y-114678098D01*
X131401762Y-113750936D01*
X130903305Y-113017915D01*
X130564197Y-112525913D01*
X130416212Y-112321809D01*
X130379727Y-112304041D01*
X130172296Y-112445242D01*
X129910651Y-112835633D01*
X129552360Y-113506219D01*
X127599254Y-113506219D01*
X128182184Y-112629762D01*
X129676424Y-110361905D01*
X130559610Y-110361905D01*
X131072071Y-110383541D01*
X131323589Y-110476045D01*
X131325199Y-110670786D01*
X131326941Y-110737809D01*
X131488133Y-111127439D01*
X131863850Y-111813126D01*
X132440663Y-112772240D01*
X133205141Y-113982151D01*
X134143855Y-115420230D01*
X137080105Y-119860793D01*
X137435605Y-119395079D01*
X137677103Y-119003224D01*
X137795552Y-118638394D01*
X137760973Y-118537967D01*
X137539956Y-118128635D01*
X137141736Y-117466595D01*
X136597927Y-116602597D01*
X135940144Y-115587392D01*
X135200000Y-114471730D01*
X134760537Y-113814960D01*
X134066341Y-112770054D01*
X133471840Y-111865860D01*
X133008384Y-111150520D01*
X132707320Y-110672176D01*
X132600000Y-110478971D01*
X132612222Y-110458017D01*
X132867658Y-110391437D01*
X133350000Y-110367325D01*
X133580274Y-110374315D01*
X133802529Y-110419809D01*
X134023364Y-110546182D01*
X134279743Y-110796033D01*
X134608631Y-111211961D01*
X135046993Y-111836563D01*
X135631794Y-112712441D01*
X136400000Y-113882191D01*
X137145668Y-115013830D01*
X137741892Y-115898525D01*
X138181032Y-116515944D01*
X138492984Y-116903032D01*
X138707642Y-117096735D01*
X138854901Y-117134000D01*
X138964654Y-117051771D01*
X139162253Y-116788969D01*
X139330670Y-116486054D01*
X139372998Y-116176378D01*
X139268901Y-115795008D01*
X138998043Y-115277009D01*
X138540090Y-114557448D01*
X137874707Y-113571392D01*
X137598194Y-113163874D01*
X137011670Y-112293289D01*
X136516009Y-111549269D01*
X136156628Y-111000254D01*
X135978944Y-110714683D01*
X135951131Y-110654308D01*
X135954799Y-110562977D01*
X136064092Y-110492881D01*
X136321065Y-110441228D01*
X136767769Y-110405227D01*
X137446258Y-110382086D01*
X138398585Y-110369013D01*
X139666802Y-110363217D01*
X141292963Y-110361905D01*
X146800000Y-110361905D01*
X146800000Y-110865873D01*
X146800000Y-111369842D01*
X143150000Y-111404729D01*
X142094972Y-111414047D01*
X140958317Y-111422315D01*
X139986307Y-111427501D01*
X139257387Y-111429200D01*
X138850000Y-111427004D01*
X138626928Y-111429302D01*
X138279130Y-111521604D01*
X138252137Y-111786480D01*
X138523001Y-112284077D01*
X138846003Y-112780953D01*
X142823001Y-112780953D01*
X146800000Y-112780953D01*
X146800000Y-113257971D01*
X146799999Y-113262132D01*
X146789668Y-113437482D01*
X146720820Y-113565901D01*
X146536603Y-113658137D01*
X146180167Y-113724942D01*
X145594663Y-113777065D01*
X144723240Y-113825256D01*
X143509046Y-113880266D01*
X142735793Y-113910546D01*
X141705426Y-113937834D01*
X140859804Y-113944597D01*
X140270490Y-113930528D01*
X140009046Y-113895318D01*
X139928686Y-113856057D01*
X139808483Y-113931607D01*
X139877225Y-114242104D01*
X140123001Y-114703125D01*
X140235843Y-114865903D01*
X140386080Y-115005784D01*
X140616839Y-115099891D01*
X140992014Y-115157295D01*
X141575503Y-115187067D01*
X142431200Y-115198279D01*
X143623001Y-115200000D01*
X146800000Y-115200000D01*
X146796753Y-116359127D01*
X146796577Y-116410578D01*
X146787341Y-116784464D01*
X146745182Y-117120443D01*
X146643240Y-117471944D01*
X146454658Y-117892397D01*
X146152577Y-118435231D01*
X145710138Y-119153873D01*
X145100483Y-120101754D01*
X144296753Y-121332301D01*
X143917283Y-121913399D01*
X143238275Y-122960833D01*
X142655837Y-123869265D01*
X142201175Y-124589498D01*
X141905494Y-125072336D01*
X141800000Y-125268580D01*
X141823560Y-125295502D01*
X142108346Y-125334623D01*
X142612518Y-125312712D01*
X142812124Y-125290649D01*
X143092944Y-125226098D01*
X143349479Y-125082432D01*
X143630715Y-124808217D01*
X143985641Y-124352020D01*
X144463246Y-123662408D01*
X145112518Y-122687948D01*
X146800000Y-120141286D01*
X146800000Y-121297153D01*
X146799146Y-121447252D01*
X146760618Y-122040535D01*
X146629958Y-122550486D01*
X146359433Y-123113555D01*
X145901311Y-123866192D01*
X145002622Y-125279365D01*
X145901311Y-125279365D01*
X146238742Y-125282745D01*
X146622971Y-125335962D01*
X146773847Y-125512056D01*
X146800000Y-125884127D01*
X146800000Y-126488889D01*
X143950000Y-126534603D01*
X143712432Y-126538473D01*
X142588127Y-126558269D01*
X141539145Y-126578938D01*
X140673699Y-126598249D01*
X140100000Y-126613971D01*
X139746058Y-126623938D01*
X138935932Y-126640864D01*
X137952692Y-126656715D01*
X136936381Y-126669051D01*
X134772762Y-126690476D01*
X135199999Y-127295238D01*
X135627237Y-127900000D01*
X141213618Y-127900000D01*
X146800000Y-127900000D01*
X146800000Y-128504762D01*
X146800000Y-129109524D01*
X141586381Y-129109524D01*
X136372762Y-129109524D01*
X136800000Y-129714286D01*
X137227237Y-130319048D01*
X142013618Y-130319048D01*
X146800000Y-130319048D01*
X146800000Y-130923810D01*
X146800000Y-131528572D01*
X142500000Y-131528572D01*
X141996809Y-131529768D01*
X140783941Y-131543147D01*
X139740082Y-131569499D01*
X138922976Y-131606482D01*
X138390368Y-131651754D01*
X138200000Y-131702973D01*
X138200392Y-131711170D01*
X138325035Y-131988885D01*
X138605289Y-132396707D01*
X139010579Y-132916039D01*
X142905289Y-132795651D01*
X146800000Y-132675264D01*
X146800000Y-133311442D01*
X146800000Y-133947619D01*
X143300000Y-133947619D01*
X142317124Y-133954663D01*
X141311884Y-133978697D01*
X140514616Y-134016727D01*
X139989321Y-134065565D01*
X139800000Y-134122021D01*
X139802330Y-134143034D01*
X139943505Y-134434946D01*
X140236106Y-134855242D01*
X140672213Y-135414062D01*
X143736106Y-135291934D01*
X146800000Y-135169806D01*
X146800000Y-136407272D01*
X146800000Y-137644738D01*
X144300000Y-141445855D01*
X143921623Y-142022258D01*
X143241271Y-143064644D01*
X142657645Y-143966631D01*
X142202034Y-144679453D01*
X141905723Y-145154343D01*
X141800000Y-145342534D01*
X141817212Y-145362454D01*
X142087719Y-145416431D01*
X142582388Y-145438095D01*
X142814891Y-145434582D01*
X143073982Y-145393472D01*
X143313547Y-145264958D01*
X143581378Y-144999101D01*
X143925268Y-144545964D01*
X144393007Y-143855609D01*
X145032388Y-142878100D01*
X146700000Y-140318104D01*
X146759874Y-141463393D01*
X146770564Y-142113952D01*
X146687914Y-142610623D01*
X146462416Y-143110003D01*
X146044703Y-143771405D01*
X145579264Y-144468625D01*
X145243238Y-144998104D01*
X145110866Y-145297986D01*
X145176031Y-145427126D01*
X145432614Y-145444376D01*
X145874496Y-145408589D01*
X146800000Y-145334397D01*
X146800000Y-146091802D01*
X146800000Y-146849207D01*
X140788692Y-146849207D01*
X134777385Y-146849207D01*
X135131814Y-147453969D01*
X135167461Y-147513205D01*
X135461087Y-147907088D01*
X135693121Y-148079343D01*
X135695681Y-148079564D01*
X135957982Y-148083536D01*
X136564210Y-148084549D01*
X137460445Y-148082763D01*
X138592767Y-148078344D01*
X139907259Y-148071453D01*
X141350000Y-148062253D01*
X146799999Y-148024551D01*
X146800000Y-148646402D01*
X146800000Y-149268254D01*
X141580359Y-149268254D01*
X136360719Y-149268254D01*
X136773037Y-149923413D01*
X137185356Y-150578572D01*
X141992678Y-150500496D01*
X146799999Y-150422420D01*
X146800000Y-151054861D01*
X146800000Y-151687302D01*
X143150000Y-151722189D01*
X142094972Y-151731508D01*
X140958317Y-151739775D01*
X139986307Y-151744961D01*
X139257387Y-151746660D01*
X138850000Y-151744464D01*
X138626928Y-151746762D01*
X138279130Y-151839064D01*
X138252137Y-152103941D01*
X138523001Y-152601537D01*
X138846003Y-153098413D01*
X142823001Y-153098413D01*
X146800000Y-153098413D01*
X146800000Y-153575431D01*
X146799999Y-153579592D01*
X146789668Y-153754943D01*
X146720820Y-153883361D01*
X146536603Y-153975598D01*
X146180167Y-154042403D01*
X145594663Y-154094526D01*
X144723240Y-154142717D01*
X143509046Y-154197726D01*
X142735793Y-154228006D01*
X141705426Y-154255294D01*
X140859804Y-154262057D01*
X140270490Y-154247988D01*
X140009046Y-154212779D01*
X139928686Y-154173517D01*
X139808483Y-154249067D01*
X139877225Y-154559565D01*
X140123001Y-155020585D01*
X140235843Y-155183363D01*
X140386080Y-155323244D01*
X140616839Y-155417351D01*
X140992014Y-155474755D01*
X141575503Y-155504528D01*
X142431200Y-155515739D01*
X143623001Y-155517461D01*
X146800000Y-155517461D01*
X146796753Y-156676588D01*
X146796577Y-156728038D01*
X146787341Y-157101924D01*
X146745182Y-157437903D01*
X146643240Y-157789405D01*
X146454658Y-158209858D01*
X146152577Y-158752691D01*
X145710138Y-159471333D01*
X145100483Y-160419214D01*
X144296753Y-161649761D01*
X143917283Y-162230859D01*
X143238275Y-163278293D01*
X142655837Y-164186725D01*
X142201175Y-164906959D01*
X141905494Y-165389796D01*
X141800000Y-165586041D01*
X141823560Y-165612962D01*
X142108346Y-165652083D01*
X142612518Y-165630172D01*
X142812124Y-165608110D01*
X143092944Y-165543559D01*
X143349479Y-165399892D01*
X143630715Y-165125677D01*
X143985641Y-164669480D01*
X144463246Y-163979869D01*
X145112518Y-163005409D01*
X146800000Y-160458746D01*
X146800000Y-161614613D01*
X146799146Y-161764712D01*
X146760618Y-162357995D01*
X146629958Y-162867946D01*
X146359433Y-163431015D01*
X145901311Y-164183653D01*
X145002622Y-165596826D01*
X145901311Y-165596826D01*
X146238742Y-165600205D01*
X146622971Y-165653422D01*
X146773847Y-165829516D01*
X146800000Y-166201588D01*
X146800000Y-166806349D01*
X143950000Y-166852063D01*
X143712432Y-166855933D01*
X142588127Y-166875730D01*
X141539145Y-166896398D01*
X140673699Y-166915709D01*
X140100000Y-166931431D01*
X139746058Y-166941398D01*
X138935932Y-166958325D01*
X137952692Y-166974175D01*
X136936381Y-166986511D01*
X134772762Y-167007937D01*
X135200000Y-167612699D01*
X135627237Y-168217461D01*
X141213618Y-168217461D01*
X146800000Y-168217461D01*
X146800000Y-168822222D01*
X146800000Y-169426984D01*
X141586381Y-169426984D01*
X136372762Y-169426984D01*
X136797486Y-170028188D01*
X137222209Y-170629391D01*
X142061104Y-170687102D01*
X146900000Y-170744813D01*
X141353491Y-170791454D01*
X135806983Y-170838095D01*
X134735228Y-169224574D01*
X134246225Y-168500014D01*
X133907587Y-168046154D01*
X133682038Y-167837458D01*
X133517565Y-167826200D01*
X133362157Y-167964653D01*
X133083890Y-168321911D01*
X132930159Y-168712906D01*
X133031215Y-169129956D01*
X133389235Y-169713595D01*
X133627399Y-170071648D01*
X133895629Y-170506300D01*
X134000000Y-170723226D01*
X133882649Y-170831574D01*
X133510730Y-170861590D01*
X133022481Y-170800692D01*
X132561665Y-170668669D01*
X132272048Y-170485318D01*
X132146219Y-170329974D01*
X131958908Y-170242464D01*
X131727951Y-170485318D01*
X131371790Y-170730811D01*
X130627951Y-170838095D01*
X130424386Y-170835408D01*
X129978021Y-170804713D01*
X129799999Y-170750771D01*
X129801671Y-170743951D01*
X129930329Y-170515839D01*
X130234233Y-170027180D01*
X130671438Y-169344391D01*
X131199999Y-168533892D01*
X131267445Y-168431182D01*
X131787424Y-167630942D01*
X132210849Y-166964863D01*
X132495710Y-166499889D01*
X132599999Y-166302962D01*
X132579520Y-166280212D01*
X132300417Y-166224063D01*
X131798760Y-166201588D01*
X130997521Y-166201588D01*
X129504228Y-168519842D01*
X128010935Y-170838095D01*
X127200994Y-170838095D01*
X126391053Y-170838095D01*
X127795526Y-168728149D01*
X127851931Y-168643279D01*
X128377533Y-167838865D01*
X128805935Y-167159491D01*
X129094352Y-166674464D01*
X129200000Y-166453092D01*
X129190790Y-166426901D01*
X128946053Y-166328012D01*
X128472415Y-166287982D01*
X128418188Y-166288165D01*
X128127899Y-166309340D01*
X127877800Y-166403148D01*
X127616005Y-166622506D01*
X127290624Y-167020330D01*
X126849770Y-167649535D01*
X126241554Y-168563039D01*
X126034125Y-168876743D01*
X125485313Y-169695775D01*
X125088170Y-170247637D01*
X124789748Y-170585065D01*
X124537100Y-170760794D01*
X124277278Y-170827559D01*
X123957335Y-170838095D01*
X123676851Y-170830535D01*
X123338554Y-170755997D01*
X123323956Y-170586111D01*
X123412056Y-170444434D01*
X123695463Y-170003789D01*
X124109780Y-169367612D01*
X124600000Y-168620635D01*
X124925506Y-168125237D01*
X125372465Y-167440909D01*
X125707647Y-166922640D01*
X125876043Y-166655159D01*
X125905401Y-166555911D01*
X125731780Y-166438229D01*
X125212651Y-166403175D01*
X125109184Y-166403375D01*
X124798990Y-166421984D01*
X124541968Y-166509245D01*
X124283380Y-166718702D01*
X123968489Y-167103900D01*
X123542557Y-167718384D01*
X122950848Y-168615699D01*
X122852381Y-168765806D01*
X122286034Y-169620084D01*
X121876981Y-170198617D01*
X121571447Y-170555297D01*
X121315656Y-170744019D01*
X121055831Y-170818675D01*
X120738196Y-170833159D01*
X120473796Y-170827939D01*
X120137621Y-170756390D01*
X120125543Y-170586111D01*
X120213013Y-170445595D01*
X120495154Y-170005149D01*
X120907371Y-169368481D01*
X121394745Y-168620635D01*
X121716130Y-168128330D01*
X122162263Y-167442627D01*
X122498344Y-166923208D01*
X122669201Y-166655159D01*
X122698125Y-166541140D01*
X122501589Y-166436224D01*
X121961803Y-166408111D01*
X121100000Y-166413048D01*
X119649151Y-168625572D01*
X118198303Y-170838095D01*
X117235046Y-170838095D01*
X116271789Y-170838095D01*
X113701326Y-166957540D01*
X113311874Y-166370381D01*
X112581488Y-165273504D01*
X111925473Y-164293771D01*
X111380607Y-163485829D01*
X110983665Y-162904325D01*
X110771424Y-162603907D01*
X110411986Y-162130829D01*
X110073920Y-162845386D01*
X109735855Y-163559943D01*
X112176469Y-167199019D01*
X114617083Y-170838095D01*
X113815468Y-170838095D01*
X113013853Y-170838095D01*
X111256926Y-168191829D01*
X110799569Y-167502012D01*
X110129616Y-166492994D01*
X109634176Y-165763108D01*
X109279647Y-165278185D01*
X109032427Y-165004058D01*
X108858912Y-164906557D01*
X108725501Y-164951515D01*
X108598591Y-165104764D01*
X108444579Y-165332135D01*
X108020241Y-165932793D01*
X109276186Y-167831079D01*
X109703784Y-168478180D01*
X110216662Y-169256466D01*
X110632643Y-169890076D01*
X110889067Y-170283730D01*
X111246003Y-170838095D01*
X103526493Y-170838095D01*
X95806983Y-170838095D01*
X94873872Y-169433302D01*
X96377225Y-169433302D01*
X96802231Y-170034905D01*
X97227237Y-170636508D01*
X103239250Y-170636508D01*
X109251263Y-170636508D01*
X108763308Y-169998744D01*
X108666990Y-169879185D01*
X108285826Y-169503620D01*
X107987676Y-169343585D01*
X107972040Y-169342943D01*
X107649557Y-169340846D01*
X106988787Y-169342478D01*
X106043518Y-169347511D01*
X104867541Y-169355618D01*
X103514642Y-169366472D01*
X102038612Y-169379746D01*
X96377225Y-169433302D01*
X94873872Y-169433302D01*
X94735228Y-169224574D01*
X94246225Y-168500014D01*
X93907587Y-168046154D01*
X93682038Y-167837458D01*
X93517565Y-167826200D01*
X93362157Y-167964653D01*
X93083890Y-168321911D01*
X92930159Y-168712906D01*
X93031215Y-169129956D01*
X93389235Y-169713595D01*
X93627399Y-170071648D01*
X93895629Y-170506300D01*
X93999999Y-170723226D01*
X93882649Y-170831574D01*
X93510730Y-170861590D01*
X93022481Y-170800692D01*
X92561665Y-170668669D01*
X92272048Y-170485318D01*
X92146219Y-170329974D01*
X91958908Y-170242464D01*
X91727951Y-170485318D01*
X91371790Y-170730811D01*
X90627951Y-170838095D01*
X90424386Y-170835408D01*
X89978021Y-170804713D01*
X89800000Y-170750771D01*
X89801671Y-170743951D01*
X89930329Y-170515839D01*
X90234233Y-170027180D01*
X90671438Y-169344391D01*
X91200000Y-168533892D01*
X91267445Y-168431182D01*
X91787424Y-167630942D01*
X92174682Y-167021756D01*
X94782524Y-167021756D01*
X95204881Y-167619608D01*
X95627237Y-168217461D01*
X101513618Y-168217461D01*
X101976910Y-168216922D01*
X103428322Y-168207933D01*
X104726514Y-168188999D01*
X105822133Y-168161582D01*
X106665822Y-168127145D01*
X107208229Y-168087150D01*
X107400000Y-168043059D01*
X107398204Y-168024806D01*
X107260441Y-167735860D01*
X106970410Y-167318189D01*
X106540821Y-166767721D01*
X102820410Y-166837432D01*
X101899927Y-166855139D01*
X100482623Y-166883891D01*
X99103311Y-166913431D01*
X97882641Y-166941153D01*
X96941262Y-166964449D01*
X94782524Y-167021756D01*
X92174682Y-167021756D01*
X92210849Y-166964863D01*
X92495710Y-166499889D01*
X92600000Y-166302962D01*
X92579520Y-166280212D01*
X92300417Y-166224063D01*
X91798760Y-166201588D01*
X90997521Y-166201588D01*
X89504228Y-168519842D01*
X88010935Y-170838095D01*
X87200994Y-170838095D01*
X86391053Y-170838095D01*
X87795526Y-168728149D01*
X87851931Y-168643279D01*
X88377533Y-167838865D01*
X88805935Y-167159491D01*
X89094352Y-166674464D01*
X89200000Y-166453092D01*
X89190790Y-166426901D01*
X88946053Y-166328012D01*
X88472415Y-166287982D01*
X88418188Y-166288165D01*
X88127899Y-166309340D01*
X87877800Y-166403148D01*
X87616005Y-166622506D01*
X87290624Y-167020330D01*
X86849770Y-167649535D01*
X86241554Y-168563039D01*
X86034125Y-168876743D01*
X85485313Y-169695775D01*
X85088170Y-170247637D01*
X84789748Y-170585065D01*
X84537100Y-170760794D01*
X84277278Y-170827559D01*
X83957335Y-170838095D01*
X83676851Y-170830535D01*
X83338554Y-170755997D01*
X83323956Y-170586111D01*
X83412056Y-170444434D01*
X83695463Y-170003789D01*
X84109780Y-169367612D01*
X84600000Y-168620635D01*
X84925506Y-168125237D01*
X85372465Y-167440909D01*
X85707647Y-166922640D01*
X85876043Y-166655159D01*
X85905401Y-166555911D01*
X85731780Y-166438229D01*
X85212651Y-166403175D01*
X85109184Y-166403375D01*
X84798990Y-166421984D01*
X84541968Y-166509245D01*
X84283380Y-166718702D01*
X83968489Y-167103900D01*
X83542557Y-167718384D01*
X82950848Y-168615699D01*
X82852381Y-168765806D01*
X82286034Y-169620084D01*
X81876981Y-170198617D01*
X81571447Y-170555297D01*
X81315656Y-170744019D01*
X81055831Y-170818675D01*
X80738196Y-170833159D01*
X80473796Y-170827939D01*
X80137621Y-170756390D01*
X80125543Y-170586111D01*
X80213013Y-170445595D01*
X80495154Y-170005149D01*
X80907371Y-169368481D01*
X81394745Y-168620635D01*
X81716130Y-168128330D01*
X82162263Y-167442627D01*
X82498344Y-166923208D01*
X82669201Y-166655159D01*
X82698125Y-166541140D01*
X82501589Y-166436224D01*
X81961803Y-166408111D01*
X81100000Y-166413048D01*
X79649151Y-168625572D01*
X78198303Y-170838095D01*
X77235046Y-170838095D01*
X76271789Y-170838095D01*
X73701326Y-166957540D01*
X73311874Y-166370381D01*
X72581488Y-165273504D01*
X71925473Y-164293771D01*
X71380607Y-163485829D01*
X70983665Y-162904325D01*
X70771424Y-162603907D01*
X70411986Y-162130829D01*
X70073920Y-162845386D01*
X69735855Y-163559943D01*
X72176469Y-167199019D01*
X74617083Y-170838095D01*
X73815468Y-170838095D01*
X73013853Y-170838095D01*
X71256926Y-168191829D01*
X70799569Y-167502012D01*
X70129616Y-166492994D01*
X69634176Y-165763108D01*
X69279647Y-165278185D01*
X69032427Y-165004058D01*
X68858912Y-164906557D01*
X68725501Y-164951515D01*
X68598591Y-165104764D01*
X68444579Y-165332135D01*
X68020241Y-165932793D01*
X69276186Y-167831079D01*
X69703784Y-168478180D01*
X70216662Y-169256466D01*
X70632643Y-169890076D01*
X70889067Y-170283730D01*
X71246003Y-170838095D01*
X63526493Y-170838095D01*
X55806983Y-170838095D01*
X54873872Y-169433302D01*
X56377225Y-169433302D01*
X56802231Y-170034905D01*
X57227237Y-170636508D01*
X63239250Y-170636508D01*
X69251263Y-170636508D01*
X68763308Y-169998744D01*
X68666990Y-169879185D01*
X68285826Y-169503620D01*
X67987676Y-169343585D01*
X67972040Y-169342943D01*
X67649557Y-169340846D01*
X66988787Y-169342478D01*
X66043518Y-169347511D01*
X64867541Y-169355618D01*
X63514642Y-169366472D01*
X62038612Y-169379746D01*
X56377225Y-169433302D01*
X54873872Y-169433302D01*
X54735228Y-169224574D01*
X54246225Y-168500014D01*
X53907587Y-168046154D01*
X53682038Y-167837458D01*
X53517565Y-167826200D01*
X53362157Y-167964653D01*
X53083890Y-168321911D01*
X52930159Y-168712906D01*
X53031215Y-169129956D01*
X53389235Y-169713595D01*
X53627399Y-170071648D01*
X53895629Y-170506300D01*
X54000000Y-170723226D01*
X53882649Y-170831574D01*
X53510730Y-170861590D01*
X53022481Y-170800692D01*
X52561665Y-170668669D01*
X52272048Y-170485318D01*
X52146219Y-170329974D01*
X51958908Y-170242464D01*
X51727951Y-170485318D01*
X51371790Y-170730811D01*
X50627951Y-170838095D01*
X50424386Y-170835408D01*
X49978021Y-170804713D01*
X49800000Y-170750771D01*
X49801671Y-170743951D01*
X49930329Y-170515839D01*
X50234233Y-170027180D01*
X50671438Y-169344391D01*
X51200000Y-168533892D01*
X51267445Y-168431182D01*
X51787424Y-167630942D01*
X52174682Y-167021756D01*
X54782524Y-167021756D01*
X55204881Y-167619608D01*
X55627237Y-168217461D01*
X61513618Y-168217461D01*
X61976910Y-168216922D01*
X63428322Y-168207933D01*
X64726514Y-168188999D01*
X65822133Y-168161582D01*
X66665822Y-168127145D01*
X67208229Y-168087150D01*
X67400000Y-168043059D01*
X67398204Y-168024806D01*
X67260441Y-167735860D01*
X66970410Y-167318189D01*
X66540821Y-166767721D01*
X62820410Y-166837432D01*
X61899927Y-166855139D01*
X60482623Y-166883891D01*
X59103311Y-166913431D01*
X57882641Y-166941153D01*
X56941262Y-166964449D01*
X54782524Y-167021756D01*
X52174682Y-167021756D01*
X52210849Y-166964863D01*
X52495710Y-166499889D01*
X52600000Y-166302962D01*
X52579520Y-166280212D01*
X52300417Y-166224063D01*
X51798760Y-166201588D01*
X50997521Y-166201588D01*
X49504228Y-168519842D01*
X49010326Y-169280287D01*
X48533989Y-169982115D01*
X48183209Y-170435929D01*
X47910112Y-170694609D01*
X47666823Y-170811037D01*
X47405467Y-170838095D01*
X47140087Y-170821522D01*
X46894624Y-170712728D01*
X46846807Y-170463152D01*
X47007713Y-170027725D01*
X47388418Y-169361380D01*
X47999999Y-168419048D01*
X48390313Y-167824526D01*
X48809084Y-167160771D01*
X49094507Y-166676252D01*
X49199999Y-166447500D01*
X49190484Y-166419941D01*
X48945002Y-166323647D01*
X48471305Y-166295159D01*
X48101241Y-166331204D01*
X47668610Y-166534300D01*
X47271305Y-167008830D01*
X46800000Y-167702115D01*
X46800000Y-166447883D01*
X46800000Y-165661383D01*
X55200000Y-165661383D01*
X55222248Y-165701312D01*
X55491340Y-165775881D01*
X55938327Y-165789985D01*
X56401573Y-165745459D01*
X56719438Y-165644136D01*
X56724543Y-165639880D01*
X56756306Y-165598370D01*
X58600000Y-165598370D01*
X58702950Y-165704402D01*
X59050000Y-165711334D01*
X59361783Y-165660935D01*
X59827044Y-165611806D01*
X59896952Y-165573843D01*
X61890922Y-165573843D01*
X62097577Y-165653282D01*
X62619505Y-165629501D01*
X62959435Y-165596826D01*
X64997642Y-165596826D01*
X65848821Y-165594744D01*
X66700000Y-165592662D01*
X69453195Y-161369505D01*
X69732812Y-160939172D01*
X71400000Y-160939172D01*
X71491414Y-161123929D01*
X71780162Y-161602650D01*
X72237374Y-162325872D01*
X72833451Y-163247413D01*
X73538792Y-164321094D01*
X74323796Y-165500733D01*
X77247592Y-169867668D01*
X77622478Y-169294548D01*
X77653992Y-169245947D01*
X77897947Y-168834767D01*
X77998682Y-168599484D01*
X77939651Y-168484740D01*
X77687423Y-168072547D01*
X77264577Y-167407619D01*
X76701338Y-166536929D01*
X76027932Y-165507449D01*
X75274585Y-164366151D01*
X74726144Y-163540891D01*
X74000448Y-162455620D01*
X73362007Y-161508563D01*
X72844344Y-160749121D01*
X72480983Y-160226696D01*
X72305447Y-159990687D01*
X72203971Y-159899414D01*
X71996765Y-159905267D01*
X71730861Y-160235579D01*
X71501026Y-160644086D01*
X71400000Y-160939172D01*
X69732812Y-160939172D01*
X70048808Y-160452852D01*
X70757615Y-159353474D01*
X71203323Y-158655199D01*
X73077326Y-158655199D01*
X73164524Y-158807235D01*
X73447136Y-159254712D01*
X73887554Y-159935059D01*
X74448462Y-160792082D01*
X75092543Y-161769589D01*
X75782478Y-162811387D01*
X76480953Y-163861284D01*
X77150649Y-164863086D01*
X77754251Y-165760600D01*
X78254439Y-166497635D01*
X78613899Y-167017997D01*
X78795313Y-167265493D01*
X78830336Y-167283272D01*
X79031598Y-167140218D01*
X79290891Y-166748782D01*
X79650725Y-166075307D01*
X79378144Y-165661383D01*
X95200000Y-165661383D01*
X95222248Y-165701312D01*
X95491340Y-165775881D01*
X95938327Y-165789985D01*
X96401573Y-165745459D01*
X96719438Y-165644136D01*
X96724543Y-165639880D01*
X96756306Y-165598370D01*
X98600000Y-165598370D01*
X98702950Y-165704402D01*
X99050000Y-165711334D01*
X99361783Y-165660935D01*
X99827044Y-165611806D01*
X99896952Y-165573843D01*
X101890922Y-165573843D01*
X102097577Y-165653282D01*
X102619505Y-165629501D01*
X102959435Y-165596826D01*
X104997642Y-165596826D01*
X105848821Y-165594744D01*
X106700000Y-165592662D01*
X109453195Y-161369505D01*
X109732812Y-160939172D01*
X111400000Y-160939172D01*
X111491414Y-161123929D01*
X111780162Y-161602650D01*
X112237374Y-162325872D01*
X112833451Y-163247413D01*
X113538792Y-164321094D01*
X114323796Y-165500733D01*
X117247592Y-169867668D01*
X117622478Y-169294548D01*
X117653992Y-169245947D01*
X117897947Y-168834767D01*
X117998682Y-168599484D01*
X117939651Y-168484740D01*
X117687423Y-168072547D01*
X117264577Y-167407619D01*
X116701338Y-166536929D01*
X116027932Y-165507449D01*
X115274585Y-164366151D01*
X114726144Y-163540891D01*
X114000448Y-162455620D01*
X113362007Y-161508563D01*
X112844344Y-160749121D01*
X112480983Y-160226696D01*
X112305447Y-159990687D01*
X112203971Y-159899414D01*
X111996765Y-159905267D01*
X111730861Y-160235579D01*
X111501026Y-160644086D01*
X111400000Y-160939172D01*
X109732812Y-160939172D01*
X110048808Y-160452852D01*
X110757615Y-159353474D01*
X111203323Y-158655199D01*
X113077326Y-158655199D01*
X113164524Y-158807235D01*
X113447136Y-159254712D01*
X113887554Y-159935059D01*
X114448462Y-160792082D01*
X115092543Y-161769589D01*
X115782478Y-162811387D01*
X116480953Y-163861284D01*
X117150649Y-164863086D01*
X117754251Y-165760600D01*
X118254439Y-166497635D01*
X118613899Y-167017997D01*
X118795313Y-167265493D01*
X118830336Y-167283272D01*
X119031598Y-167140218D01*
X119290891Y-166748782D01*
X119650725Y-166075307D01*
X119378144Y-165661383D01*
X135200000Y-165661383D01*
X135222248Y-165701312D01*
X135491340Y-165775881D01*
X135938327Y-165789985D01*
X136401573Y-165745459D01*
X136719438Y-165644136D01*
X136724543Y-165639880D01*
X136756306Y-165598370D01*
X138600000Y-165598370D01*
X138702950Y-165704402D01*
X139050000Y-165711334D01*
X139361783Y-165660935D01*
X139827044Y-165611806D01*
X139902047Y-165571076D01*
X140204363Y-165247015D01*
X140684903Y-164624679D01*
X141321784Y-163734231D01*
X142093126Y-162605835D01*
X142977044Y-161269654D01*
X143650458Y-160234293D01*
X144346443Y-159156953D01*
X144938584Y-158232463D01*
X145397686Y-157506687D01*
X145694555Y-157025490D01*
X145800000Y-156834734D01*
X145783365Y-156812599D01*
X145514487Y-156751514D01*
X145021167Y-156726984D01*
X144242335Y-156726984D01*
X141421167Y-161063921D01*
X140751577Y-162098929D01*
X140055024Y-163188937D01*
X139462335Y-164130907D01*
X139002763Y-164877818D01*
X138705566Y-165382647D01*
X138600000Y-165598370D01*
X136756306Y-165598370D01*
X136891584Y-165421581D01*
X137238378Y-164925760D01*
X137728702Y-164206988D01*
X138326331Y-163319834D01*
X138995042Y-162318870D01*
X139698609Y-161258664D01*
X140400810Y-160193787D01*
X141065420Y-159178809D01*
X141656214Y-158268300D01*
X142136969Y-157516830D01*
X142471461Y-156978969D01*
X142502652Y-156876409D01*
X142328052Y-156761141D01*
X141808687Y-156726984D01*
X140993768Y-156726984D01*
X138096884Y-161125668D01*
X137371377Y-162231671D01*
X136667403Y-163314182D01*
X136069133Y-164244044D01*
X135605712Y-164975620D01*
X135306285Y-165463278D01*
X135200000Y-165661383D01*
X119378144Y-165661383D01*
X118283373Y-163998931D01*
X119783220Y-163998931D01*
X120209005Y-164601637D01*
X120634791Y-165204343D01*
X126317395Y-165187416D01*
X127482278Y-165181081D01*
X129047057Y-165161074D01*
X130304319Y-165129431D01*
X131230964Y-165087023D01*
X131803890Y-165034719D01*
X132000000Y-164973390D01*
X131911130Y-164701246D01*
X131676998Y-164279416D01*
X131353996Y-163782540D01*
X127526998Y-163824730D01*
X126459854Y-163838040D01*
X125068461Y-163859371D01*
X123744356Y-163883678D01*
X122598439Y-163908888D01*
X121741610Y-163932926D01*
X119783220Y-163998931D01*
X118283373Y-163998931D01*
X116775362Y-161708960D01*
X116668129Y-161546996D01*
X118296765Y-161546996D01*
X118381642Y-161804935D01*
X118634326Y-162218431D01*
X119056835Y-162816499D01*
X124613801Y-162743088D01*
X124776304Y-162740886D01*
X126216791Y-162716407D01*
X127519286Y-162685678D01*
X128631390Y-162650588D01*
X129500703Y-162613026D01*
X130074828Y-162574881D01*
X130301364Y-162538043D01*
X130307150Y-162531225D01*
X130287822Y-162277211D01*
X130083754Y-161870762D01*
X129735548Y-161335114D01*
X124068148Y-161382523D01*
X123806446Y-161384813D01*
X122361145Y-161401183D01*
X121058722Y-161422057D01*
X119950601Y-161446164D01*
X119088205Y-161472230D01*
X118522958Y-161498983D01*
X118306283Y-161525148D01*
X118296765Y-161546996D01*
X116668129Y-161546996D01*
X116062047Y-160631573D01*
X115347587Y-159565119D01*
X115028430Y-159095635D01*
X116600993Y-159095635D01*
X116602470Y-159109184D01*
X116745633Y-159370914D01*
X117050993Y-159760375D01*
X117500000Y-160273924D01*
X123168605Y-160163550D01*
X128837211Y-160053175D01*
X128404089Y-159498810D01*
X127970967Y-158944445D01*
X122285483Y-158944445D01*
X121991816Y-158944645D01*
X120553597Y-158951660D01*
X119264334Y-158967716D01*
X118174235Y-158991477D01*
X117333507Y-159021607D01*
X116792357Y-159056772D01*
X116600993Y-159095635D01*
X115028430Y-159095635D01*
X114730982Y-158658084D01*
X114242703Y-157954837D01*
X113913219Y-157499746D01*
X113773001Y-157337179D01*
X113762834Y-157337324D01*
X113534612Y-157511933D01*
X113286263Y-157899712D01*
X113104822Y-158335766D01*
X113077326Y-158655199D01*
X111203323Y-158655199D01*
X111370894Y-158392671D01*
X111857349Y-157619859D01*
X112185681Y-157084454D01*
X112324592Y-156835873D01*
X112347553Y-156679849D01*
X112296844Y-156645468D01*
X115000000Y-156645468D01*
X115003681Y-156666557D01*
X115142478Y-156937101D01*
X115419808Y-157359786D01*
X115448330Y-157400008D01*
X115699214Y-157708241D01*
X115968796Y-157861852D01*
X116383514Y-157899008D01*
X117069808Y-157857879D01*
X117211123Y-157848430D01*
X117890180Y-157819797D01*
X118864447Y-157793940D01*
X120054435Y-157772389D01*
X121380655Y-157756673D01*
X122763618Y-157748323D01*
X127227237Y-157734921D01*
X126800000Y-157130159D01*
X126372762Y-156525397D01*
X120686381Y-156525397D01*
X120392160Y-156525557D01*
X118953787Y-156531130D01*
X117664332Y-156543882D01*
X116574010Y-156562752D01*
X115733037Y-156586680D01*
X115191628Y-156614606D01*
X115000000Y-156645468D01*
X112296844Y-156645468D01*
X112169090Y-156558851D01*
X111671397Y-156528312D01*
X111625999Y-156528512D01*
X111349676Y-156541599D01*
X111113593Y-156608726D01*
X110874248Y-156776920D01*
X110588141Y-157093209D01*
X110211771Y-157604622D01*
X109701638Y-158358186D01*
X109014241Y-159400931D01*
X108669593Y-159926046D01*
X107926399Y-161062029D01*
X107198414Y-162179030D01*
X106554387Y-163171461D01*
X106063062Y-163933730D01*
X104997642Y-165596826D01*
X102959435Y-165596826D01*
X103447811Y-165549882D01*
X106273905Y-161205650D01*
X106953806Y-160154883D01*
X107643806Y-159075590D01*
X108227251Y-158148961D01*
X108675571Y-157420870D01*
X108960197Y-156937193D01*
X109052560Y-156743805D01*
X108933553Y-156663438D01*
X108508862Y-156619955D01*
X107900000Y-156677549D01*
X107673192Y-156841294D01*
X107238101Y-157347385D01*
X106608076Y-158196799D01*
X105781603Y-159391583D01*
X104757172Y-160933785D01*
X104175198Y-161825426D01*
X103466424Y-162919403D01*
X102853398Y-163874756D01*
X102367517Y-164642184D01*
X102040176Y-165172385D01*
X101902772Y-165416059D01*
X101890922Y-165573843D01*
X99896952Y-165573843D01*
X99902047Y-165571076D01*
X100204363Y-165247015D01*
X100684903Y-164624679D01*
X101321784Y-163734231D01*
X102093126Y-162605835D01*
X102977044Y-161269654D01*
X103650458Y-160234293D01*
X104346443Y-159156953D01*
X104938584Y-158232463D01*
X105397686Y-157506687D01*
X105694555Y-157025490D01*
X105800000Y-156834734D01*
X105783365Y-156812599D01*
X105514487Y-156751514D01*
X105021167Y-156726984D01*
X104242335Y-156726984D01*
X101421167Y-161063921D01*
X100751577Y-162098929D01*
X100055024Y-163188937D01*
X99462335Y-164130907D01*
X99002763Y-164877818D01*
X98705566Y-165382647D01*
X98600000Y-165598370D01*
X96756306Y-165598370D01*
X96891584Y-165421581D01*
X97238378Y-164925760D01*
X97728702Y-164206988D01*
X98326331Y-163319834D01*
X98995042Y-162318870D01*
X99698609Y-161258664D01*
X100400810Y-160193787D01*
X101065420Y-159178809D01*
X101656214Y-158268300D01*
X102136969Y-157516830D01*
X102471461Y-156978969D01*
X102502652Y-156876409D01*
X102328052Y-156761141D01*
X101808687Y-156726984D01*
X100993768Y-156726984D01*
X98096884Y-161125668D01*
X97371377Y-162231671D01*
X96667403Y-163314182D01*
X96069133Y-164244044D01*
X95605712Y-164975620D01*
X95306285Y-165463278D01*
X95200000Y-165661383D01*
X79378144Y-165661383D01*
X78283373Y-163998931D01*
X79783220Y-163998931D01*
X80209005Y-164601637D01*
X80634791Y-165204343D01*
X86317395Y-165187416D01*
X87482278Y-165181081D01*
X89047057Y-165161074D01*
X90304319Y-165129431D01*
X91230964Y-165087023D01*
X91803890Y-165034719D01*
X92000000Y-164973390D01*
X91911130Y-164701246D01*
X91676998Y-164279416D01*
X91353996Y-163782540D01*
X87526998Y-163824730D01*
X86459854Y-163838040D01*
X85068461Y-163859371D01*
X83744356Y-163883678D01*
X82598439Y-163908888D01*
X81741610Y-163932926D01*
X79783220Y-163998931D01*
X78283373Y-163998931D01*
X76775362Y-161708960D01*
X76668129Y-161546996D01*
X78296765Y-161546996D01*
X78381642Y-161804935D01*
X78634326Y-162218431D01*
X79056835Y-162816499D01*
X84613801Y-162743088D01*
X84776304Y-162740886D01*
X86216791Y-162716407D01*
X87519286Y-162685678D01*
X88631390Y-162650588D01*
X89500703Y-162613026D01*
X90074828Y-162574881D01*
X90301364Y-162538043D01*
X90307150Y-162531225D01*
X90287822Y-162277211D01*
X90083754Y-161870762D01*
X89735548Y-161335114D01*
X84068148Y-161382523D01*
X83806446Y-161384813D01*
X82361145Y-161401183D01*
X81058722Y-161422057D01*
X79950601Y-161446164D01*
X79088205Y-161472230D01*
X78522958Y-161498983D01*
X78306283Y-161525148D01*
X78296765Y-161546996D01*
X76668129Y-161546996D01*
X76062047Y-160631573D01*
X75347587Y-159565119D01*
X75028430Y-159095635D01*
X76600993Y-159095635D01*
X76602470Y-159109184D01*
X76745633Y-159370914D01*
X77050993Y-159760375D01*
X77500000Y-160273924D01*
X83168605Y-160163550D01*
X88837211Y-160053175D01*
X88404089Y-159498810D01*
X87970967Y-158944445D01*
X82285483Y-158944445D01*
X81991816Y-158944645D01*
X80553597Y-158951660D01*
X79264334Y-158967716D01*
X78174235Y-158991477D01*
X77333507Y-159021607D01*
X76792357Y-159056772D01*
X76600993Y-159095635D01*
X75028430Y-159095635D01*
X74730982Y-158658084D01*
X74242703Y-157954837D01*
X73913219Y-157499746D01*
X73773001Y-157337179D01*
X73762834Y-157337324D01*
X73534612Y-157511933D01*
X73286263Y-157899712D01*
X73104822Y-158335766D01*
X73077326Y-158655199D01*
X71203323Y-158655199D01*
X71370894Y-158392671D01*
X71857349Y-157619859D01*
X72185681Y-157084454D01*
X72324592Y-156835873D01*
X72347553Y-156679849D01*
X72296844Y-156645468D01*
X75000000Y-156645468D01*
X75003681Y-156666557D01*
X75142478Y-156937101D01*
X75419808Y-157359786D01*
X75448330Y-157400008D01*
X75699214Y-157708241D01*
X75968796Y-157861852D01*
X76383514Y-157899008D01*
X77069808Y-157857879D01*
X77211123Y-157848430D01*
X77890180Y-157819797D01*
X78864447Y-157793940D01*
X80054435Y-157772389D01*
X81380655Y-157756673D01*
X82763618Y-157748323D01*
X87227237Y-157734921D01*
X86800000Y-157130159D01*
X86372762Y-156525397D01*
X80686381Y-156525397D01*
X80392160Y-156525557D01*
X78953787Y-156531130D01*
X77664332Y-156543882D01*
X76574010Y-156562752D01*
X75733037Y-156586680D01*
X75191628Y-156614606D01*
X75000000Y-156645468D01*
X72296844Y-156645468D01*
X72169090Y-156558851D01*
X71671397Y-156528312D01*
X71625999Y-156528512D01*
X71349676Y-156541599D01*
X71113593Y-156608726D01*
X70874248Y-156776920D01*
X70588141Y-157093209D01*
X70211771Y-157604622D01*
X69701638Y-158358186D01*
X69014241Y-159400931D01*
X68669593Y-159926046D01*
X67926399Y-161062029D01*
X67198414Y-162179030D01*
X66554387Y-163171461D01*
X66063062Y-163933730D01*
X64997642Y-165596826D01*
X62959435Y-165596826D01*
X63447811Y-165549882D01*
X66273905Y-161205650D01*
X66953806Y-160154883D01*
X67643806Y-159075590D01*
X68227251Y-158148961D01*
X68675571Y-157420870D01*
X68960197Y-156937193D01*
X69052560Y-156743805D01*
X68933553Y-156663438D01*
X68508862Y-156619955D01*
X67900000Y-156677549D01*
X67673192Y-156841294D01*
X67238101Y-157347385D01*
X66608076Y-158196799D01*
X65781603Y-159391583D01*
X64757172Y-160933785D01*
X64175198Y-161825426D01*
X63466424Y-162919403D01*
X62853398Y-163874756D01*
X62367517Y-164642184D01*
X62040176Y-165172385D01*
X61902772Y-165416059D01*
X61890922Y-165573843D01*
X59896952Y-165573843D01*
X59902047Y-165571076D01*
X60204363Y-165247015D01*
X60684903Y-164624679D01*
X61321784Y-163734231D01*
X62093126Y-162605835D01*
X62977044Y-161269654D01*
X63650458Y-160234293D01*
X64346443Y-159156953D01*
X64938584Y-158232463D01*
X65397686Y-157506687D01*
X65694555Y-157025490D01*
X65800000Y-156834734D01*
X65783365Y-156812599D01*
X65514487Y-156751514D01*
X65021167Y-156726984D01*
X64242335Y-156726984D01*
X61421167Y-161063921D01*
X60751577Y-162098929D01*
X60055024Y-163188937D01*
X59462335Y-164130907D01*
X59002763Y-164877818D01*
X58705566Y-165382647D01*
X58600000Y-165598370D01*
X56756306Y-165598370D01*
X56891584Y-165421581D01*
X57238378Y-164925760D01*
X57728702Y-164206988D01*
X58326331Y-163319834D01*
X58995042Y-162318870D01*
X59698609Y-161258664D01*
X60400810Y-160193787D01*
X61065420Y-159178809D01*
X61656214Y-158268300D01*
X62136969Y-157516830D01*
X62471461Y-156978969D01*
X62502652Y-156876409D01*
X62328052Y-156761141D01*
X61808687Y-156726984D01*
X60993768Y-156726984D01*
X58096884Y-161125668D01*
X57371377Y-162231671D01*
X56667403Y-163314182D01*
X56069133Y-164244044D01*
X55605712Y-164975620D01*
X55306285Y-165463278D01*
X55200000Y-165661383D01*
X46800000Y-165661383D01*
X46800000Y-165193651D01*
X49250000Y-165169779D01*
X49289001Y-165169402D01*
X50239184Y-165162253D01*
X51037987Y-165159933D01*
X51602547Y-165162441D01*
X51849999Y-165169779D01*
X51987128Y-165093779D01*
X51936866Y-164772946D01*
X51676998Y-164279416D01*
X51577784Y-164135593D01*
X51405962Y-163968435D01*
X51148579Y-163864572D01*
X50727028Y-163808984D01*
X50062703Y-163786647D01*
X49076998Y-163782540D01*
X46800000Y-163782540D01*
X46800000Y-163278572D01*
X46805774Y-163133983D01*
X46942237Y-162839996D01*
X47350000Y-162749867D01*
X48425772Y-162698903D01*
X49298586Y-162649490D01*
X49871834Y-162604017D01*
X50198478Y-162558184D01*
X50331479Y-162507689D01*
X50334108Y-162504716D01*
X50300681Y-162277313D01*
X50092978Y-161884951D01*
X50028790Y-161789327D01*
X49817960Y-161557171D01*
X49526688Y-161429193D01*
X49048519Y-161374823D01*
X48276998Y-161363492D01*
X46800000Y-161363492D01*
X46800000Y-160769265D01*
X46812253Y-160483610D01*
X46918182Y-160265831D01*
X47219955Y-160164500D01*
X47819521Y-160114107D01*
X48839042Y-160053175D01*
X48405005Y-159498810D01*
X48006135Y-159122156D01*
X47385483Y-158944445D01*
X47082704Y-158926345D01*
X46850018Y-158768405D01*
X46800000Y-158339683D01*
X46800001Y-158337180D01*
X46870323Y-157910497D01*
X47040000Y-157734921D01*
X47179144Y-157692766D01*
X47040000Y-157493016D01*
X46948751Y-157318090D01*
X46841717Y-156811679D01*
X46816803Y-156418083D01*
X48069842Y-156418083D01*
X48168379Y-156594881D01*
X48467306Y-157075841D01*
X48933063Y-157802568D01*
X49534230Y-158726513D01*
X50239381Y-159799125D01*
X51017096Y-160971853D01*
X53850527Y-165226650D01*
X54223946Y-164655786D01*
X54251019Y-164613980D01*
X54496936Y-164187737D01*
X54598682Y-163923551D01*
X54543107Y-163807476D01*
X54293871Y-163392408D01*
X53872292Y-162725560D01*
X53308938Y-161854521D01*
X52634381Y-160826878D01*
X51879190Y-159690217D01*
X51346796Y-158895584D01*
X50616637Y-157813054D01*
X49972710Y-156866844D01*
X49449078Y-156106639D01*
X49079801Y-155582123D01*
X48898940Y-155342980D01*
X48769079Y-155231209D01*
X48564641Y-155253100D01*
X48297760Y-155593408D01*
X48090637Y-156049640D01*
X48069842Y-156418083D01*
X46816803Y-156418083D01*
X46800000Y-156152616D01*
X46800309Y-156047573D01*
X46813647Y-155706243D01*
X46865953Y-155383365D01*
X46983350Y-155028378D01*
X47191962Y-154590717D01*
X47517914Y-154019818D01*
X47639910Y-153823680D01*
X49552360Y-153823680D01*
X52509563Y-158229186D01*
X55466766Y-162634693D01*
X55833383Y-162178347D01*
X56083004Y-161801812D01*
X56200000Y-161477543D01*
X56128705Y-161316241D01*
X55860543Y-160853467D01*
X55421591Y-160144126D01*
X54842023Y-159236005D01*
X54152015Y-158176887D01*
X53381740Y-157014558D01*
X52749628Y-156069983D01*
X52027794Y-154995558D01*
X51401762Y-154068396D01*
X50903305Y-153335375D01*
X50564197Y-152843373D01*
X50416212Y-152639269D01*
X50379727Y-152621501D01*
X50172296Y-152762703D01*
X49910651Y-153153093D01*
X49552360Y-153823680D01*
X47639910Y-153823680D01*
X47987329Y-153265119D01*
X48626331Y-152276054D01*
X49287594Y-151266792D01*
X51187545Y-151266792D01*
X54133825Y-155722522D01*
X57080105Y-160178253D01*
X57435605Y-159712539D01*
X57677273Y-159321699D01*
X57795552Y-158960989D01*
X57718232Y-158776507D01*
X57444158Y-158291140D01*
X57000468Y-157561153D01*
X56416992Y-156634531D01*
X55723559Y-155559263D01*
X54950000Y-154383335D01*
X54270416Y-153364319D01*
X53556376Y-152303876D01*
X52940966Y-151400938D01*
X52454846Y-150700095D01*
X52128677Y-150245939D01*
X51993121Y-150083060D01*
X51980022Y-150085440D01*
X51798881Y-150273223D01*
X51536894Y-150670698D01*
X51187545Y-151266792D01*
X49287594Y-151266792D01*
X49461044Y-151002061D01*
X49967398Y-150230614D01*
X50675678Y-149150080D01*
X51057763Y-148566120D01*
X52997084Y-148566120D01*
X53018746Y-148784111D01*
X53128760Y-149082866D01*
X53349463Y-149504779D01*
X53703188Y-150092248D01*
X54212270Y-150887667D01*
X54899042Y-151933434D01*
X55785840Y-153271943D01*
X58750044Y-157740999D01*
X59108355Y-157189808D01*
X59119891Y-157171951D01*
X59363947Y-156731431D01*
X59462552Y-156430816D01*
X59456492Y-156418083D01*
X88069842Y-156418083D01*
X88168379Y-156594881D01*
X88467306Y-157075841D01*
X88933063Y-157802568D01*
X89534230Y-158726513D01*
X90239381Y-159799125D01*
X91017096Y-160971853D01*
X93850527Y-165226650D01*
X94223946Y-164655786D01*
X94251019Y-164613980D01*
X94496936Y-164187737D01*
X94598682Y-163923551D01*
X94543107Y-163807476D01*
X94293871Y-163392408D01*
X93872292Y-162725560D01*
X93308938Y-161854521D01*
X92634381Y-160826878D01*
X91879190Y-159690217D01*
X91346796Y-158895584D01*
X90616637Y-157813054D01*
X89972710Y-156866844D01*
X89449078Y-156106639D01*
X89079801Y-155582123D01*
X88898940Y-155342980D01*
X88769079Y-155231209D01*
X88564641Y-155253100D01*
X88297760Y-155593408D01*
X88090637Y-156049640D01*
X88069842Y-156418083D01*
X59456492Y-156418083D01*
X59387333Y-156272777D01*
X59114722Y-155815584D01*
X58671671Y-155111536D01*
X58190095Y-154365426D01*
X59800512Y-154365426D01*
X59893635Y-154619450D01*
X60129148Y-155030040D01*
X60458297Y-155536371D01*
X66279148Y-155506738D01*
X66661428Y-155504598D01*
X68122011Y-155492716D01*
X69439248Y-155476277D01*
X70561808Y-155456322D01*
X71438360Y-155433892D01*
X72017574Y-155410025D01*
X72248119Y-155385764D01*
X72268162Y-155356908D01*
X72257579Y-155315873D01*
X78394153Y-155315873D01*
X79257655Y-155315873D01*
X80121157Y-155315873D01*
X80187042Y-155215080D01*
X81747275Y-155215080D01*
X82502689Y-155279391D01*
X82527237Y-155281362D01*
X83124941Y-155249569D01*
X83310877Y-155164776D01*
X85229562Y-155164776D01*
X85417804Y-155282437D01*
X85927945Y-155278678D01*
X86024214Y-155270028D01*
X86255219Y-155231212D01*
X86471878Y-155137957D01*
X86707840Y-154950050D01*
X86996753Y-154627280D01*
X87372265Y-154129435D01*
X87584822Y-153823680D01*
X89552360Y-153823680D01*
X92509563Y-158229186D01*
X95466766Y-162634693D01*
X95833383Y-162178347D01*
X96083004Y-161801812D01*
X96200000Y-161477543D01*
X96128705Y-161316241D01*
X95860543Y-160853467D01*
X95421591Y-160144126D01*
X94842023Y-159236005D01*
X94152015Y-158176887D01*
X93381740Y-157014558D01*
X92749628Y-156069983D01*
X92027794Y-154995558D01*
X91401762Y-154068396D01*
X90903305Y-153335375D01*
X90564197Y-152843373D01*
X90416212Y-152639269D01*
X90379727Y-152621501D01*
X90172296Y-152762703D01*
X89910651Y-153153093D01*
X89552360Y-153823680D01*
X87584822Y-153823680D01*
X87868026Y-153416303D01*
X88517683Y-152447673D01*
X89299624Y-151266792D01*
X91187545Y-151266792D01*
X94133825Y-155722522D01*
X97080105Y-160178253D01*
X97435605Y-159712539D01*
X97677273Y-159321699D01*
X97795552Y-158960989D01*
X97718232Y-158776507D01*
X97444158Y-158291140D01*
X97000468Y-157561153D01*
X96416992Y-156634531D01*
X95723559Y-155559263D01*
X94950000Y-154383335D01*
X94270416Y-153364319D01*
X93556376Y-152303876D01*
X92940966Y-151400938D01*
X92454846Y-150700095D01*
X92128677Y-150245939D01*
X91993121Y-150083060D01*
X91980022Y-150085440D01*
X91798881Y-150273223D01*
X91536894Y-150670698D01*
X91187545Y-151266792D01*
X89299624Y-151266792D01*
X89354887Y-151183334D01*
X89847340Y-150437297D01*
X90564995Y-149346620D01*
X91076334Y-148566120D01*
X92997084Y-148566120D01*
X93018746Y-148784111D01*
X93128760Y-149082866D01*
X93349463Y-149504779D01*
X93703188Y-150092248D01*
X94212270Y-150887667D01*
X94899042Y-151933434D01*
X95785840Y-153271943D01*
X98750044Y-157740999D01*
X99108355Y-157189808D01*
X99119891Y-157171951D01*
X99363947Y-156731431D01*
X99462552Y-156430816D01*
X99456492Y-156418083D01*
X128069842Y-156418083D01*
X128168379Y-156594881D01*
X128467306Y-157075841D01*
X128933063Y-157802568D01*
X129534230Y-158726513D01*
X130239381Y-159799125D01*
X131017096Y-160971853D01*
X133850527Y-165226650D01*
X134223946Y-164655786D01*
X134251019Y-164613980D01*
X134496936Y-164187737D01*
X134598682Y-163923551D01*
X134543107Y-163807476D01*
X134293871Y-163392408D01*
X133872292Y-162725560D01*
X133308938Y-161854521D01*
X132634381Y-160826878D01*
X131879190Y-159690217D01*
X131346796Y-158895584D01*
X130616637Y-157813054D01*
X129972710Y-156866844D01*
X129449078Y-156106639D01*
X129079801Y-155582123D01*
X128898940Y-155342980D01*
X128769079Y-155231209D01*
X128564641Y-155253100D01*
X128297760Y-155593408D01*
X128090637Y-156049640D01*
X128069842Y-156418083D01*
X99456492Y-156418083D01*
X99387333Y-156272777D01*
X99114722Y-155815584D01*
X98671671Y-155111536D01*
X98190095Y-154365426D01*
X99800512Y-154365426D01*
X99893635Y-154619450D01*
X100129148Y-155030040D01*
X100458297Y-155536371D01*
X106279148Y-155506738D01*
X106661428Y-155504598D01*
X108122011Y-155492716D01*
X109439248Y-155476277D01*
X110561808Y-155456322D01*
X111438360Y-155433892D01*
X112017574Y-155410025D01*
X112248119Y-155385764D01*
X112268162Y-155356908D01*
X112257579Y-155315873D01*
X118394153Y-155315873D01*
X119257655Y-155315873D01*
X120121157Y-155315873D01*
X120187042Y-155215080D01*
X121747275Y-155215080D01*
X122502689Y-155279391D01*
X122527237Y-155281362D01*
X123124941Y-155249569D01*
X123310877Y-155164776D01*
X125229562Y-155164776D01*
X125417804Y-155282437D01*
X125927945Y-155278678D01*
X126024214Y-155270028D01*
X126255219Y-155231212D01*
X126471878Y-155137957D01*
X126707840Y-154950050D01*
X126996753Y-154627280D01*
X127372265Y-154129435D01*
X127584822Y-153823680D01*
X129552360Y-153823680D01*
X132509563Y-158229186D01*
X135466766Y-162634693D01*
X135833383Y-162178347D01*
X136083004Y-161801812D01*
X136200000Y-161477543D01*
X136128705Y-161316241D01*
X135860543Y-160853467D01*
X135421591Y-160144126D01*
X134842023Y-159236005D01*
X134152015Y-158176887D01*
X133381740Y-157014558D01*
X132749628Y-156069983D01*
X132027794Y-154995558D01*
X131401762Y-154068396D01*
X130903305Y-153335375D01*
X130564197Y-152843373D01*
X130416212Y-152639269D01*
X130379727Y-152621501D01*
X130172296Y-152762703D01*
X129910651Y-153153093D01*
X129552360Y-153823680D01*
X127584822Y-153823680D01*
X127868026Y-153416303D01*
X128517683Y-152447673D01*
X129299624Y-151266792D01*
X131187545Y-151266792D01*
X134133825Y-155722522D01*
X137080105Y-160178253D01*
X137435605Y-159712539D01*
X137677273Y-159321699D01*
X137795552Y-158960989D01*
X137718232Y-158776507D01*
X137444158Y-158291140D01*
X137000468Y-157561153D01*
X136416992Y-156634531D01*
X135723559Y-155559263D01*
X134950000Y-154383335D01*
X134270416Y-153364319D01*
X133556376Y-152303876D01*
X132940966Y-151400938D01*
X132454846Y-150700095D01*
X132128677Y-150245939D01*
X131993121Y-150083060D01*
X131980022Y-150085440D01*
X131798881Y-150273223D01*
X131536894Y-150670698D01*
X131187545Y-151266792D01*
X129299624Y-151266792D01*
X129354887Y-151183334D01*
X129847340Y-150437297D01*
X130564995Y-149346620D01*
X131076334Y-148566120D01*
X132997084Y-148566120D01*
X133018746Y-148784111D01*
X133128760Y-149082866D01*
X133349463Y-149504779D01*
X133703188Y-150092248D01*
X134212270Y-150887667D01*
X134899042Y-151933434D01*
X135785840Y-153271943D01*
X138750044Y-157740999D01*
X139108355Y-157189808D01*
X139119891Y-157171951D01*
X139363947Y-156731431D01*
X139462552Y-156430816D01*
X139387333Y-156272777D01*
X139114722Y-155815584D01*
X138671671Y-155111536D01*
X138088339Y-154207775D01*
X137394884Y-153151443D01*
X136621464Y-151989683D01*
X135970766Y-151024137D01*
X135244898Y-149960744D01*
X134613297Y-149050397D01*
X134107951Y-148338641D01*
X133760849Y-147871025D01*
X133603977Y-147693096D01*
X133589715Y-147690008D01*
X133376138Y-147833933D01*
X133122550Y-148216364D01*
X133041443Y-148386495D01*
X132997084Y-148566120D01*
X131076334Y-148566120D01*
X131194216Y-148386187D01*
X131701556Y-147607244D01*
X132053564Y-147061037D01*
X132216791Y-146798810D01*
X132246957Y-146742480D01*
X132284647Y-146550032D01*
X132080978Y-146466612D01*
X131557036Y-146450569D01*
X130700000Y-146455105D01*
X128000000Y-150621961D01*
X127440703Y-151488852D01*
X126743324Y-152581119D01*
X126143093Y-153534305D01*
X125670762Y-154299027D01*
X125357085Y-154825901D01*
X125232812Y-155065547D01*
X125229562Y-155164776D01*
X123310877Y-155164776D01*
X123501591Y-155077804D01*
X123611199Y-154931731D01*
X123925491Y-154476123D01*
X124400881Y-153768673D01*
X125004484Y-152858751D01*
X125703417Y-151795726D01*
X126464796Y-150628969D01*
X129184516Y-146446032D01*
X128342258Y-146449907D01*
X127500000Y-146453781D01*
X124623637Y-150834430D01*
X121747275Y-155215080D01*
X120187042Y-155215080D01*
X122910578Y-151048539D01*
X123546205Y-150074420D01*
X124249650Y-148991988D01*
X124853727Y-148057631D01*
X125328126Y-147318409D01*
X125642542Y-146821385D01*
X125766666Y-146613618D01*
X125757101Y-146571554D01*
X125504296Y-146481798D01*
X125014182Y-146446032D01*
X124880127Y-146446876D01*
X124473739Y-146486383D01*
X124170682Y-146641355D01*
X123868104Y-146988659D01*
X123463150Y-147605159D01*
X123144962Y-148101815D01*
X122635440Y-148886515D01*
X122001386Y-149856201D01*
X121293557Y-150933260D01*
X120562712Y-152040080D01*
X118394153Y-155315873D01*
X112257579Y-155315873D01*
X112231583Y-155215080D01*
X115205592Y-155215080D01*
X116048223Y-155279305D01*
X116262525Y-155290152D01*
X116732655Y-155266350D01*
X116946263Y-155178511D01*
X117005612Y-155073062D01*
X117259205Y-154667331D01*
X117682668Y-154007028D01*
X118244768Y-153140460D01*
X118914268Y-152115931D01*
X119659934Y-150981746D01*
X120158527Y-150225180D01*
X120868293Y-149146868D01*
X121487055Y-148205253D01*
X121982172Y-147450076D01*
X122321001Y-146931083D01*
X122470901Y-146698016D01*
X122503098Y-146599025D01*
X122336742Y-146481024D01*
X121825422Y-146446032D01*
X121760471Y-146445329D01*
X121535396Y-146437273D01*
X121348391Y-146447157D01*
X121170314Y-146510088D01*
X120972029Y-146661173D01*
X120724396Y-146935520D01*
X120398275Y-147368235D01*
X119964529Y-147994425D01*
X119394019Y-148849199D01*
X118657605Y-149967661D01*
X117726149Y-151384921D01*
X115205592Y-155215080D01*
X112231583Y-155215080D01*
X112200007Y-155092649D01*
X111948119Y-154677041D01*
X111500000Y-154059660D01*
X105650512Y-154133402D01*
X105218606Y-154139277D01*
X103769505Y-154165559D01*
X102472817Y-154199024D01*
X101378058Y-154237707D01*
X100534744Y-154279644D01*
X99992390Y-154322872D01*
X99800512Y-154365426D01*
X98190095Y-154365426D01*
X98088339Y-154207775D01*
X97394884Y-153151443D01*
X96621464Y-151989683D01*
X96606984Y-151968197D01*
X98204447Y-151968197D01*
X98309470Y-152255972D01*
X98574549Y-152670553D01*
X98940203Y-153149836D01*
X104664988Y-153062082D01*
X104970688Y-153057226D01*
X106422238Y-153029358D01*
X107731132Y-152996512D01*
X108845907Y-152960533D01*
X109715097Y-152923269D01*
X110287239Y-152886567D01*
X110510867Y-152852274D01*
X110515913Y-152846318D01*
X110491130Y-152599655D01*
X110285194Y-152196786D01*
X109938427Y-151663353D01*
X104069213Y-151704238D01*
X104061983Y-151704289D01*
X102193883Y-151722946D01*
X100707159Y-151750625D01*
X99583331Y-151788158D01*
X98803922Y-151836376D01*
X98350453Y-151896112D01*
X98204447Y-151968197D01*
X96606984Y-151968197D01*
X95970766Y-151024137D01*
X95244898Y-149960744D01*
X94764447Y-149268254D01*
X96360719Y-149268254D01*
X96772633Y-149923413D01*
X97184547Y-150578572D01*
X103042273Y-150504592D01*
X103470212Y-150499031D01*
X104925786Y-150477675D01*
X106232473Y-150454808D01*
X107340054Y-150431562D01*
X108198311Y-150409072D01*
X108757026Y-150388471D01*
X108965980Y-150370892D01*
X108967883Y-150368766D01*
X108910143Y-150169478D01*
X108692978Y-149789713D01*
X108353996Y-149268254D01*
X102357357Y-149268254D01*
X96360719Y-149268254D01*
X94764447Y-149268254D01*
X94613297Y-149050397D01*
X94107951Y-148338641D01*
X93760849Y-147871025D01*
X93603977Y-147693096D01*
X93589715Y-147690008D01*
X93376138Y-147833933D01*
X93122550Y-148216364D01*
X93041443Y-148386495D01*
X92997084Y-148566120D01*
X91076334Y-148566120D01*
X91194216Y-148386187D01*
X91701556Y-147607244D01*
X92053564Y-147061037D01*
X92185421Y-146849207D01*
X94777385Y-146849207D01*
X95131814Y-147453969D01*
X95167499Y-147513265D01*
X95461106Y-147906956D01*
X95693121Y-148078877D01*
X95934806Y-148087130D01*
X96520672Y-148091653D01*
X97376117Y-148091304D01*
X98440273Y-148086713D01*
X99652267Y-148078509D01*
X100951230Y-148067320D01*
X102276292Y-148053775D01*
X103566581Y-148038503D01*
X104761228Y-148022134D01*
X105799362Y-148005296D01*
X106620112Y-147988619D01*
X107162608Y-147972730D01*
X107365980Y-147958260D01*
X107367798Y-147956057D01*
X107310283Y-147752547D01*
X107092978Y-147370665D01*
X106753996Y-146849207D01*
X100765690Y-146849207D01*
X94777385Y-146849207D01*
X92185421Y-146849207D01*
X92216791Y-146798810D01*
X92246957Y-146742480D01*
X92284647Y-146550032D01*
X92080978Y-146466612D01*
X91557036Y-146450569D01*
X90700000Y-146455105D01*
X88000000Y-150621961D01*
X87440703Y-151488852D01*
X86743324Y-152581119D01*
X86143093Y-153534305D01*
X85670762Y-154299027D01*
X85357085Y-154825901D01*
X85232812Y-155065547D01*
X85229562Y-155164776D01*
X83310877Y-155164776D01*
X83501591Y-155077804D01*
X83611199Y-154931731D01*
X83925491Y-154476123D01*
X84400881Y-153768673D01*
X85004484Y-152858751D01*
X85703417Y-151795726D01*
X86464796Y-150628969D01*
X89184516Y-146446032D01*
X88342258Y-146449907D01*
X87500000Y-146453781D01*
X84623637Y-150834430D01*
X81747275Y-155215080D01*
X80187042Y-155215080D01*
X82910578Y-151048539D01*
X83546205Y-150074420D01*
X84249650Y-148991988D01*
X84853727Y-148057631D01*
X85328126Y-147318409D01*
X85642542Y-146821385D01*
X85766666Y-146613618D01*
X85757101Y-146571554D01*
X85504296Y-146481798D01*
X85014182Y-146446032D01*
X84880127Y-146446876D01*
X84473739Y-146486383D01*
X84170682Y-146641355D01*
X83868104Y-146988659D01*
X83463150Y-147605159D01*
X83144962Y-148101815D01*
X82635440Y-148886515D01*
X82001386Y-149856201D01*
X81293557Y-150933260D01*
X80562712Y-152040080D01*
X78394153Y-155315873D01*
X72257579Y-155315873D01*
X72231583Y-155215080D01*
X75205592Y-155215080D01*
X76048223Y-155279305D01*
X76262525Y-155290152D01*
X76732655Y-155266350D01*
X76946263Y-155178511D01*
X77005612Y-155073062D01*
X77259205Y-154667331D01*
X77682668Y-154007028D01*
X78244768Y-153140460D01*
X78914268Y-152115931D01*
X79659934Y-150981746D01*
X80158527Y-150225180D01*
X80868293Y-149146868D01*
X81487055Y-148205253D01*
X81982172Y-147450076D01*
X82321001Y-146931083D01*
X82470901Y-146698016D01*
X82503098Y-146599025D01*
X82336742Y-146481024D01*
X81825422Y-146446032D01*
X81760471Y-146445329D01*
X81535396Y-146437273D01*
X81348391Y-146447157D01*
X81170314Y-146510088D01*
X80972029Y-146661173D01*
X80724396Y-146935520D01*
X80398275Y-147368235D01*
X79964529Y-147994425D01*
X79394019Y-148849199D01*
X78657605Y-149967661D01*
X77726149Y-151384921D01*
X75205592Y-155215080D01*
X72231583Y-155215080D01*
X72200007Y-155092649D01*
X71948119Y-154677041D01*
X71500000Y-154059660D01*
X65650512Y-154133402D01*
X65218606Y-154139277D01*
X63769505Y-154165559D01*
X62472817Y-154199024D01*
X61378058Y-154237707D01*
X60534744Y-154279644D01*
X59992390Y-154322872D01*
X59800512Y-154365426D01*
X58190095Y-154365426D01*
X58088339Y-154207775D01*
X57394884Y-153151443D01*
X56621464Y-151989683D01*
X56606984Y-151968197D01*
X58204447Y-151968197D01*
X58309470Y-152255972D01*
X58574549Y-152670553D01*
X58940203Y-153149836D01*
X64664988Y-153062082D01*
X64970688Y-153057226D01*
X66422238Y-153029358D01*
X67731132Y-152996512D01*
X68845907Y-152960533D01*
X69715097Y-152923269D01*
X70287239Y-152886567D01*
X70510867Y-152852274D01*
X70515913Y-152846318D01*
X70491130Y-152599655D01*
X70285194Y-152196786D01*
X69938427Y-151663353D01*
X64069213Y-151704238D01*
X64061983Y-151704289D01*
X62193883Y-151722946D01*
X60707159Y-151750625D01*
X59583331Y-151788158D01*
X58803922Y-151836376D01*
X58350453Y-151896112D01*
X58204447Y-151968197D01*
X56606984Y-151968197D01*
X55970766Y-151024137D01*
X55244898Y-149960744D01*
X54764447Y-149268254D01*
X56360719Y-149268254D01*
X56772633Y-149923413D01*
X57184547Y-150578572D01*
X63042273Y-150504592D01*
X63470212Y-150499031D01*
X64925786Y-150477675D01*
X66232473Y-150454808D01*
X67340054Y-150431562D01*
X68198311Y-150409072D01*
X68757026Y-150388471D01*
X68965980Y-150370892D01*
X68967883Y-150368766D01*
X68910143Y-150169478D01*
X68692978Y-149789713D01*
X68353996Y-149268254D01*
X62357357Y-149268254D01*
X56360719Y-149268254D01*
X54764447Y-149268254D01*
X54613297Y-149050397D01*
X54107951Y-148338641D01*
X53760849Y-147871025D01*
X53603977Y-147693096D01*
X53589715Y-147690008D01*
X53376138Y-147833933D01*
X53122550Y-148216364D01*
X53041443Y-148386495D01*
X52997084Y-148566120D01*
X51057763Y-148566120D01*
X51292823Y-148206867D01*
X51786373Y-147450660D01*
X52123868Y-146931148D01*
X52176231Y-146849207D01*
X54777385Y-146849207D01*
X55131814Y-147453969D01*
X55167499Y-147513265D01*
X55461106Y-147906956D01*
X55693121Y-148078877D01*
X55934806Y-148087130D01*
X56520672Y-148091653D01*
X57376117Y-148091304D01*
X58440273Y-148086713D01*
X59652267Y-148078509D01*
X60951230Y-148067320D01*
X62276292Y-148053775D01*
X63566581Y-148038503D01*
X64761228Y-148022134D01*
X65799362Y-148005296D01*
X66620112Y-147988619D01*
X67162608Y-147972730D01*
X67365980Y-147958260D01*
X67367798Y-147956057D01*
X67310283Y-147752547D01*
X67092978Y-147370665D01*
X66753996Y-146849207D01*
X60765690Y-146849207D01*
X54777385Y-146849207D01*
X52176231Y-146849207D01*
X52272847Y-146698016D01*
X52300143Y-146585984D01*
X52103028Y-146478455D01*
X51561803Y-146447472D01*
X50700000Y-146448912D01*
X48800000Y-149420276D01*
X46900000Y-152391641D01*
X46840224Y-151240043D01*
X46827823Y-150966031D01*
X46834932Y-150505311D01*
X46917352Y-150102582D01*
X47112974Y-149660335D01*
X47459687Y-149081057D01*
X47995382Y-148267239D01*
X49210317Y-146446032D01*
X48351482Y-146446032D01*
X47836305Y-146476502D01*
X47446987Y-146635771D01*
X47151645Y-147000397D01*
X46810643Y-147554762D01*
X46805321Y-146395635D01*
X46803351Y-145966574D01*
X68000000Y-145966574D01*
X68041655Y-146079468D01*
X68269759Y-146493490D01*
X68663115Y-147139016D01*
X69183460Y-147953941D01*
X69792534Y-148876161D01*
X70180529Y-149464407D01*
X70720875Y-150321968D01*
X71137837Y-151032743D01*
X71396131Y-151535529D01*
X71460469Y-151769124D01*
X71421998Y-151852663D01*
X71500639Y-151839126D01*
X71589775Y-151862240D01*
X71870810Y-152137172D01*
X72276607Y-152646463D01*
X72752617Y-153325356D01*
X73839825Y-154962142D01*
X74218594Y-154383055D01*
X74250107Y-154334314D01*
X74496806Y-153905170D01*
X74598682Y-153638775D01*
X74542936Y-153521970D01*
X74293014Y-153106244D01*
X73870299Y-152439145D01*
X73305441Y-151568256D01*
X72629090Y-150541160D01*
X71871894Y-149405441D01*
X71337027Y-148609729D01*
X70606398Y-147529142D01*
X69963028Y-146585001D01*
X69440891Y-145826844D01*
X69073962Y-145304209D01*
X68896217Y-145066636D01*
X68799164Y-144974963D01*
X68590202Y-144957516D01*
X68324322Y-145262681D01*
X68106844Y-145637248D01*
X68000000Y-145966574D01*
X46803351Y-145966574D01*
X46800925Y-145438095D01*
X55153996Y-145438095D01*
X55982812Y-145438095D01*
X56811628Y-145438095D01*
X58406720Y-145438095D01*
X59253360Y-145436653D01*
X60100000Y-145435211D01*
X60160594Y-145342033D01*
X61800000Y-145342033D01*
X61816036Y-145361458D01*
X62083242Y-145416129D01*
X62575229Y-145438095D01*
X63350459Y-145438095D01*
X63441756Y-145299554D01*
X65101964Y-145299554D01*
X65279285Y-145407912D01*
X65789597Y-145438095D01*
X66599071Y-145438095D01*
X67819535Y-143566478D01*
X69539670Y-143566478D01*
X72419835Y-147869424D01*
X73115529Y-148899940D01*
X73844303Y-149959148D01*
X74478920Y-150859919D01*
X74987597Y-151557895D01*
X75338551Y-152008724D01*
X75500000Y-152168048D01*
X75723978Y-152013968D01*
X75993237Y-151637141D01*
X76044765Y-151539142D01*
X76100799Y-151367863D01*
X76092606Y-151162289D01*
X75997308Y-150879639D01*
X75792027Y-150477127D01*
X75453888Y-149911973D01*
X74960011Y-149141392D01*
X74287521Y-148122601D01*
X73413539Y-146812818D01*
X72732585Y-145795462D01*
X72008663Y-144717022D01*
X71382601Y-143787719D01*
X70885719Y-143053921D01*
X70549336Y-142561997D01*
X70404773Y-142358317D01*
X70367764Y-142340625D01*
X70165071Y-142488733D01*
X69904306Y-142884016D01*
X69539670Y-143566478D01*
X67819535Y-143566478D01*
X69464676Y-141043607D01*
X71153689Y-141043607D01*
X74115844Y-145482159D01*
X74941470Y-146718200D01*
X75649870Y-147770871D01*
X76188925Y-148553711D01*
X76586706Y-149100417D01*
X76871284Y-149444687D01*
X77070731Y-149620218D01*
X77213118Y-149660708D01*
X77326517Y-149599855D01*
X77438999Y-149471357D01*
X77681402Y-149093128D01*
X77800000Y-148728439D01*
X77714805Y-148531599D01*
X77430601Y-148037568D01*
X76975858Y-147301243D01*
X76380597Y-146370200D01*
X75674836Y-145292015D01*
X74888593Y-144114264D01*
X74171360Y-143051947D01*
X73455421Y-141996117D01*
X72843419Y-141098439D01*
X72365423Y-140402846D01*
X72051499Y-139953272D01*
X71931714Y-139793651D01*
X71921226Y-139800276D01*
X71771413Y-140008725D01*
X71519966Y-140418629D01*
X71153689Y-141043607D01*
X69464676Y-141043607D01*
X69499535Y-140990149D01*
X70244339Y-139845019D01*
X70943703Y-138763746D01*
X71016253Y-138650810D01*
X72867020Y-138650810D01*
X72971247Y-138826687D01*
X73275958Y-139300684D01*
X73748339Y-140019678D01*
X74357194Y-140936511D01*
X75071331Y-142004022D01*
X75859555Y-143175050D01*
X78754674Y-147463591D01*
X79159166Y-146819671D01*
X79563657Y-146175750D01*
X79424733Y-145966574D01*
X108000000Y-145966574D01*
X108041655Y-146079468D01*
X108269759Y-146493490D01*
X108663115Y-147139016D01*
X109183460Y-147953941D01*
X109792534Y-148876161D01*
X110180529Y-149464407D01*
X110720875Y-150321968D01*
X111137837Y-151032743D01*
X111396131Y-151535529D01*
X111460469Y-151769124D01*
X111421998Y-151852663D01*
X111500639Y-151839126D01*
X111589775Y-151862240D01*
X111870810Y-152137172D01*
X112276607Y-152646463D01*
X112752617Y-153325356D01*
X113839825Y-154962142D01*
X114218594Y-154383055D01*
X114250107Y-154334314D01*
X114496806Y-153905170D01*
X114598682Y-153638775D01*
X114542936Y-153521970D01*
X114293014Y-153106244D01*
X113870299Y-152439145D01*
X113305441Y-151568256D01*
X112629090Y-150541160D01*
X111871894Y-149405441D01*
X111337027Y-148609729D01*
X110606398Y-147529142D01*
X109963028Y-146585001D01*
X109440891Y-145826844D01*
X109073962Y-145304209D01*
X108896217Y-145066636D01*
X108799164Y-144974963D01*
X108590202Y-144957516D01*
X108324322Y-145262681D01*
X108106844Y-145637248D01*
X108000000Y-145966574D01*
X79424733Y-145966574D01*
X79073744Y-145438095D01*
X95153996Y-145438095D01*
X95982812Y-145438095D01*
X96811628Y-145438095D01*
X98406720Y-145438095D01*
X99253360Y-145436653D01*
X100100000Y-145435211D01*
X100160594Y-145342033D01*
X101800000Y-145342033D01*
X101816036Y-145361458D01*
X102083242Y-145416129D01*
X102575229Y-145438095D01*
X103350459Y-145438095D01*
X103441756Y-145299554D01*
X105101964Y-145299554D01*
X105279285Y-145407912D01*
X105789597Y-145438095D01*
X106599071Y-145438095D01*
X107819535Y-143566478D01*
X109539670Y-143566478D01*
X112419835Y-147869424D01*
X113115529Y-148899940D01*
X113844303Y-149959148D01*
X114478920Y-150859919D01*
X114987597Y-151557895D01*
X115338551Y-152008724D01*
X115500000Y-152168048D01*
X115723978Y-152013968D01*
X115993237Y-151637141D01*
X116044765Y-151539142D01*
X116100799Y-151367863D01*
X116092606Y-151162289D01*
X115997308Y-150879639D01*
X115792027Y-150477127D01*
X115453888Y-149911973D01*
X114960011Y-149141392D01*
X114287521Y-148122601D01*
X113413539Y-146812818D01*
X112732585Y-145795462D01*
X112008663Y-144717022D01*
X111382601Y-143787719D01*
X110885719Y-143053921D01*
X110549336Y-142561997D01*
X110404773Y-142358317D01*
X110367764Y-142340625D01*
X110165071Y-142488733D01*
X109904306Y-142884016D01*
X109539670Y-143566478D01*
X107819535Y-143566478D01*
X109464676Y-141043607D01*
X111153689Y-141043607D01*
X114115844Y-145482159D01*
X114941470Y-146718200D01*
X115649870Y-147770871D01*
X116188925Y-148553711D01*
X116586706Y-149100417D01*
X116871284Y-149444687D01*
X117070731Y-149620218D01*
X117213118Y-149660708D01*
X117326517Y-149599855D01*
X117438999Y-149471357D01*
X117681402Y-149093128D01*
X117800000Y-148728439D01*
X117714805Y-148531599D01*
X117430601Y-148037568D01*
X116975858Y-147301243D01*
X116380597Y-146370200D01*
X115674836Y-145292015D01*
X114888593Y-144114264D01*
X114171360Y-143051947D01*
X113455421Y-141996117D01*
X112843419Y-141098439D01*
X112365423Y-140402846D01*
X112051499Y-139953272D01*
X111931714Y-139793651D01*
X111921226Y-139800276D01*
X111771413Y-140008725D01*
X111519966Y-140418629D01*
X111153689Y-141043607D01*
X109464676Y-141043607D01*
X109499535Y-140990149D01*
X110244339Y-139845019D01*
X110943703Y-138763746D01*
X111016253Y-138650810D01*
X112867020Y-138650810D01*
X112971247Y-138826687D01*
X113275958Y-139300684D01*
X113748339Y-140019678D01*
X114357194Y-140936511D01*
X115071331Y-142004022D01*
X115859555Y-143175050D01*
X118754674Y-147463591D01*
X119159166Y-146819671D01*
X119563657Y-146175750D01*
X119073744Y-145438095D01*
X135153996Y-145438095D01*
X135982812Y-145438095D01*
X136811628Y-145438095D01*
X138406720Y-145438095D01*
X139253360Y-145436653D01*
X140100000Y-145435211D01*
X142862291Y-141187521D01*
X143471255Y-140248190D01*
X144178187Y-139149876D01*
X144788904Y-138192261D01*
X145272398Y-137424308D01*
X145597662Y-136894983D01*
X145733689Y-136653249D01*
X145751752Y-136533720D01*
X145575631Y-136404223D01*
X145071397Y-136368541D01*
X144887833Y-136370957D01*
X144619295Y-136405548D01*
X144377933Y-136522601D01*
X144114730Y-136773245D01*
X143780672Y-137208605D01*
X143326741Y-137879809D01*
X142703922Y-138837985D01*
X142700272Y-138843628D01*
X141974394Y-139964123D01*
X141177746Y-141191088D01*
X140406614Y-142376372D01*
X139757282Y-143371826D01*
X138406720Y-145438095D01*
X136811628Y-145438095D01*
X139705814Y-141028526D01*
X140434034Y-139914943D01*
X141136343Y-138832381D01*
X141733133Y-137903377D01*
X142195366Y-137173441D01*
X142494001Y-136688082D01*
X142600000Y-136492812D01*
X142583917Y-136467269D01*
X142316642Y-136395502D01*
X141824672Y-136366667D01*
X141049344Y-136366667D01*
X138459786Y-140348016D01*
X138034481Y-141001957D01*
X137307587Y-142119850D01*
X136655860Y-143122436D01*
X136115342Y-143954252D01*
X135722079Y-144559838D01*
X135512112Y-144883730D01*
X135153996Y-145438095D01*
X119073744Y-145438095D01*
X118141691Y-144034715D01*
X119593695Y-144034715D01*
X120034459Y-144635611D01*
X120475223Y-145236508D01*
X126457251Y-145236508D01*
X132439280Y-145236508D01*
X132028455Y-144581349D01*
X131994074Y-144525315D01*
X131889781Y-144352336D01*
X131780287Y-144212936D01*
X131626113Y-144104106D01*
X131387781Y-144022835D01*
X131025813Y-143966113D01*
X130500730Y-143930930D01*
X129773053Y-143914275D01*
X128803305Y-143913138D01*
X127552007Y-143924509D01*
X125979680Y-143945377D01*
X124046847Y-143972732D01*
X119593695Y-144034715D01*
X118141691Y-144034715D01*
X116674492Y-141825574D01*
X116536069Y-141618277D01*
X117980066Y-141618277D01*
X118403652Y-142217869D01*
X118827237Y-142817461D01*
X124713618Y-142817461D01*
X125603313Y-142816169D01*
X127402133Y-142803034D01*
X128801207Y-142775728D01*
X129800539Y-142734250D01*
X130400135Y-142678601D01*
X130600000Y-142608781D01*
X130511461Y-142329416D01*
X130276998Y-141903225D01*
X130252931Y-141864780D01*
X130184188Y-141747574D01*
X130109164Y-141651535D01*
X129992070Y-141575308D01*
X129797119Y-141517539D01*
X129488521Y-141476872D01*
X129030488Y-141451951D01*
X128387233Y-141441421D01*
X127522968Y-141443928D01*
X126401903Y-141458115D01*
X124988251Y-141482628D01*
X123246224Y-141516110D01*
X121140033Y-141557208D01*
X117980066Y-141618277D01*
X116536069Y-141618277D01*
X115963972Y-140761529D01*
X115240312Y-139690624D01*
X114840351Y-139107373D01*
X116400000Y-139107373D01*
X116405499Y-139134195D01*
X116551786Y-139413187D01*
X116834920Y-139843082D01*
X117269841Y-140458720D01*
X123068429Y-140327596D01*
X123443942Y-140318935D01*
X124896951Y-140282103D01*
X126203341Y-140243837D01*
X127312451Y-140205982D01*
X128173620Y-140170385D01*
X128736187Y-140138891D01*
X128949489Y-140113346D01*
X128951710Y-140110756D01*
X128905706Y-139895714D01*
X128692978Y-139508761D01*
X128353996Y-138987302D01*
X122376998Y-138987302D01*
X121836661Y-138987792D01*
X120379541Y-138994238D01*
X119077518Y-139007390D01*
X117979573Y-139026264D01*
X117134685Y-139049875D01*
X116591834Y-139077239D01*
X116400000Y-139107373D01*
X114840351Y-139107373D01*
X114612961Y-138775777D01*
X114113092Y-138061985D01*
X113771882Y-137594246D01*
X113620505Y-137417555D01*
X113583301Y-137413157D01*
X113346483Y-137577536D01*
X113086550Y-137939449D01*
X112895922Y-138347630D01*
X112867020Y-138650810D01*
X111016253Y-138650810D01*
X111537703Y-137839087D01*
X111997588Y-137116007D01*
X112244757Y-136719445D01*
X114800993Y-136719445D01*
X114805337Y-136745234D01*
X114957368Y-137028895D01*
X115258949Y-137446215D01*
X115715912Y-138021795D01*
X121553487Y-137872869D01*
X127391063Y-137723942D01*
X127052410Y-137146098D01*
X126713756Y-136568254D01*
X120756878Y-136568254D01*
X120233495Y-136568837D01*
X118777727Y-136576884D01*
X117476699Y-136593414D01*
X116379460Y-136617179D01*
X115535062Y-136646937D01*
X114992556Y-136681440D01*
X114800993Y-136719445D01*
X112244757Y-136719445D01*
X112294605Y-136639469D01*
X112400000Y-136454435D01*
X112385066Y-136437225D01*
X112121062Y-136386906D01*
X111631651Y-136366667D01*
X110863302Y-136366667D01*
X108081651Y-140630174D01*
X107459581Y-141584314D01*
X106745114Y-142681967D01*
X106124356Y-143637633D01*
X105628879Y-144402631D01*
X105290257Y-144928277D01*
X105140061Y-145165888D01*
X105101964Y-145299554D01*
X103441756Y-145299554D01*
X106275229Y-140999810D01*
X107027583Y-139854839D01*
X107732417Y-138775515D01*
X108331039Y-137851862D01*
X108794486Y-137128797D01*
X109093794Y-136651236D01*
X109200000Y-136464096D01*
X109183815Y-136444316D01*
X108916190Y-136388921D01*
X108423864Y-136366667D01*
X107647729Y-136366667D01*
X104723864Y-140806319D01*
X103971432Y-141952071D01*
X103266909Y-143031448D01*
X102668557Y-143955038D01*
X102205323Y-144677936D01*
X101906155Y-145155236D01*
X101800000Y-145342033D01*
X100160594Y-145342033D01*
X102862291Y-141187521D01*
X103471255Y-140248190D01*
X104178187Y-139149876D01*
X104788904Y-138192261D01*
X105272398Y-137424308D01*
X105597662Y-136894983D01*
X105733689Y-136653249D01*
X105751752Y-136533720D01*
X105575631Y-136404223D01*
X105071397Y-136368541D01*
X104887833Y-136370957D01*
X104619295Y-136405548D01*
X104377933Y-136522601D01*
X104114730Y-136773245D01*
X103780672Y-137208605D01*
X103326741Y-137879809D01*
X102703922Y-138837985D01*
X102700272Y-138843628D01*
X101974394Y-139964123D01*
X101177746Y-141191088D01*
X100406614Y-142376372D01*
X99757282Y-143371826D01*
X98406720Y-145438095D01*
X96811628Y-145438095D01*
X99705814Y-141028526D01*
X100434034Y-139914943D01*
X101136343Y-138832381D01*
X101733133Y-137903377D01*
X102195366Y-137173441D01*
X102494001Y-136688082D01*
X102600000Y-136492812D01*
X102583917Y-136467269D01*
X102316642Y-136395502D01*
X101824672Y-136366667D01*
X101049344Y-136366667D01*
X98459786Y-140348016D01*
X98034481Y-141001957D01*
X97307587Y-142119850D01*
X96655860Y-143122436D01*
X96115342Y-143954252D01*
X95722079Y-144559838D01*
X95512112Y-144883730D01*
X95153996Y-145438095D01*
X79073744Y-145438095D01*
X78141691Y-144034715D01*
X79593695Y-144034715D01*
X80034459Y-144635611D01*
X80475223Y-145236508D01*
X86457251Y-145236508D01*
X92439280Y-145236508D01*
X92028455Y-144581349D01*
X91994074Y-144525315D01*
X91889781Y-144352336D01*
X91780287Y-144212936D01*
X91626113Y-144104106D01*
X91387781Y-144022835D01*
X91025813Y-143966113D01*
X90500730Y-143930930D01*
X89773053Y-143914275D01*
X88803305Y-143913138D01*
X87552007Y-143924509D01*
X85979680Y-143945377D01*
X84046847Y-143972732D01*
X79593695Y-144034715D01*
X78141691Y-144034715D01*
X76674492Y-141825574D01*
X76536069Y-141618277D01*
X77980066Y-141618277D01*
X78403652Y-142217869D01*
X78827237Y-142817461D01*
X84713618Y-142817461D01*
X85603313Y-142816169D01*
X87402133Y-142803034D01*
X88801207Y-142775728D01*
X89800539Y-142734250D01*
X90400135Y-142678601D01*
X90600000Y-142608781D01*
X90511461Y-142329416D01*
X90276998Y-141903225D01*
X90252931Y-141864780D01*
X90184188Y-141747574D01*
X90109164Y-141651535D01*
X89992070Y-141575308D01*
X89797119Y-141517539D01*
X89488521Y-141476872D01*
X89030488Y-141451951D01*
X88387233Y-141441421D01*
X87522968Y-141443928D01*
X86401903Y-141458115D01*
X84988251Y-141482628D01*
X83246224Y-141516110D01*
X81140033Y-141557208D01*
X77980066Y-141618277D01*
X76536069Y-141618277D01*
X75963972Y-140761529D01*
X75240312Y-139690624D01*
X74840351Y-139107373D01*
X76400000Y-139107373D01*
X76405499Y-139134195D01*
X76551786Y-139413187D01*
X76834920Y-139843082D01*
X77269841Y-140458720D01*
X83068429Y-140327596D01*
X83443942Y-140318935D01*
X84896951Y-140282103D01*
X86203341Y-140243837D01*
X87312451Y-140205982D01*
X88173620Y-140170385D01*
X88736187Y-140138891D01*
X88949489Y-140113346D01*
X88951710Y-140110756D01*
X88905706Y-139895714D01*
X88692978Y-139508761D01*
X88353996Y-138987302D01*
X82376998Y-138987302D01*
X81836661Y-138987792D01*
X80379541Y-138994238D01*
X79077518Y-139007390D01*
X77979573Y-139026264D01*
X77134685Y-139049875D01*
X76591834Y-139077239D01*
X76400000Y-139107373D01*
X74840351Y-139107373D01*
X74612961Y-138775777D01*
X74113092Y-138061985D01*
X73771882Y-137594246D01*
X73620505Y-137417555D01*
X73583301Y-137413157D01*
X73346483Y-137577536D01*
X73086550Y-137939449D01*
X72895922Y-138347630D01*
X72867020Y-138650810D01*
X71016253Y-138650810D01*
X71537703Y-137839087D01*
X71997588Y-137116007D01*
X72244757Y-136719445D01*
X74800993Y-136719445D01*
X74805337Y-136745234D01*
X74957368Y-137028895D01*
X75258949Y-137446215D01*
X75715912Y-138021795D01*
X81553487Y-137872869D01*
X87391063Y-137723942D01*
X87052410Y-137146098D01*
X86713756Y-136568254D01*
X80756878Y-136568254D01*
X80233495Y-136568837D01*
X78777727Y-136576884D01*
X77476699Y-136593414D01*
X76379460Y-136617179D01*
X75535062Y-136646937D01*
X74992556Y-136681440D01*
X74800993Y-136719445D01*
X72244757Y-136719445D01*
X72294605Y-136639469D01*
X72400000Y-136454435D01*
X72385066Y-136437225D01*
X72121062Y-136386906D01*
X71631651Y-136366667D01*
X70863302Y-136366667D01*
X68081651Y-140630174D01*
X67459581Y-141584314D01*
X66745114Y-142681967D01*
X66124356Y-143637633D01*
X65628879Y-144402631D01*
X65290257Y-144928277D01*
X65140061Y-145165888D01*
X65101964Y-145299554D01*
X63441756Y-145299554D01*
X66275229Y-140999810D01*
X67027583Y-139854839D01*
X67732417Y-138775515D01*
X68331039Y-137851862D01*
X68794486Y-137128797D01*
X69093794Y-136651236D01*
X69200000Y-136464096D01*
X69183815Y-136444316D01*
X68916190Y-136388921D01*
X68423864Y-136366667D01*
X67647729Y-136366667D01*
X64723864Y-140806319D01*
X63971432Y-141952071D01*
X63266909Y-143031448D01*
X62668557Y-143955038D01*
X62205323Y-144677936D01*
X61906155Y-145155236D01*
X61800000Y-145342033D01*
X60160594Y-145342033D01*
X62862291Y-141187521D01*
X63471255Y-140248190D01*
X64178187Y-139149876D01*
X64788904Y-138192261D01*
X65272398Y-137424308D01*
X65597662Y-136894983D01*
X65733689Y-136653249D01*
X65751752Y-136533720D01*
X65575631Y-136404223D01*
X65071397Y-136368541D01*
X64887833Y-136370957D01*
X64619295Y-136405548D01*
X64377933Y-136522601D01*
X64114730Y-136773245D01*
X63780672Y-137208605D01*
X63326741Y-137879809D01*
X62703922Y-138837985D01*
X62700272Y-138843628D01*
X61974394Y-139964123D01*
X61177746Y-141191088D01*
X60406614Y-142376372D01*
X59757282Y-143371826D01*
X58406720Y-145438095D01*
X56811628Y-145438095D01*
X59705814Y-141028526D01*
X60434034Y-139914943D01*
X61136343Y-138832381D01*
X61733133Y-137903377D01*
X62195366Y-137173441D01*
X62494001Y-136688082D01*
X62600000Y-136492812D01*
X62583917Y-136467269D01*
X62316642Y-136395502D01*
X61824672Y-136366667D01*
X61049344Y-136366667D01*
X58459786Y-140348016D01*
X58034481Y-141001957D01*
X57307587Y-142119850D01*
X56655860Y-143122436D01*
X56115342Y-143954252D01*
X55722079Y-144559838D01*
X55512112Y-144883730D01*
X55153996Y-145438095D01*
X46800925Y-145438095D01*
X46800000Y-145236508D01*
X49619640Y-145236508D01*
X52439280Y-145236508D01*
X52023865Y-144581349D01*
X51608450Y-143926191D01*
X49204225Y-143966792D01*
X46800000Y-144007394D01*
X46800000Y-143412427D01*
X46800000Y-142817461D01*
X48700000Y-142817461D01*
X49054108Y-142816502D01*
X49871610Y-142793712D01*
X50354076Y-142719149D01*
X50550079Y-142564654D01*
X50508195Y-142302066D01*
X50276998Y-141903225D01*
X50192793Y-141780751D01*
X49986263Y-141577463D01*
X49681898Y-141464849D01*
X49179031Y-141416587D01*
X48376998Y-141406349D01*
X46800000Y-141406349D01*
X46800000Y-140801588D01*
X46800001Y-140792339D01*
X46819603Y-140450609D01*
X46943834Y-140273532D01*
X47271147Y-140206981D01*
X47900000Y-140196826D01*
X48352365Y-140187223D01*
X48819069Y-140148036D01*
X48999999Y-140088940D01*
X48908599Y-139873323D01*
X48676998Y-139484178D01*
X48555376Y-139319034D01*
X48175416Y-139057848D01*
X47576998Y-138987302D01*
X47446250Y-138986735D01*
X47009806Y-138945592D01*
X46833097Y-138774321D01*
X46800000Y-138382540D01*
X46874056Y-137927252D01*
X47123001Y-137777778D01*
X47301665Y-137760639D01*
X47328886Y-137630967D01*
X47123001Y-137280902D01*
X47050552Y-137146092D01*
X46871623Y-136552154D01*
X46825928Y-136116366D01*
X47948962Y-136116366D01*
X50903765Y-140501381D01*
X53858569Y-144886396D01*
X54224837Y-144406294D01*
X54479682Y-144014265D01*
X54595552Y-143713404D01*
X54524763Y-143557990D01*
X54257721Y-143102290D01*
X53820296Y-142399104D01*
X53242509Y-141495817D01*
X52554379Y-140439815D01*
X51785927Y-139278483D01*
X51156781Y-138336589D01*
X50432570Y-137257812D01*
X49802354Y-136325053D01*
X49298230Y-135585590D01*
X48952297Y-135086698D01*
X48796652Y-134875651D01*
X48755805Y-134851853D01*
X48543191Y-134982705D01*
X48285205Y-135405660D01*
X47948962Y-136116366D01*
X46825928Y-136116366D01*
X46800000Y-135869090D01*
X46800052Y-135847878D01*
X46817668Y-135547229D01*
X46883994Y-135233989D01*
X47023943Y-134862151D01*
X47262428Y-134385710D01*
X47624363Y-133758657D01*
X47816722Y-133448172D01*
X49600000Y-133448172D01*
X49699411Y-133628764D01*
X49993887Y-134101394D01*
X50454454Y-134820018D01*
X51051994Y-135739568D01*
X51757389Y-136814972D01*
X52541520Y-138001160D01*
X55483041Y-142434648D01*
X55837073Y-141970895D01*
X56077260Y-141582371D01*
X56195552Y-141221307D01*
X56118232Y-141036824D01*
X55844158Y-140551458D01*
X55400468Y-139821470D01*
X54816992Y-138894849D01*
X54123559Y-137819581D01*
X53350000Y-136643653D01*
X52670752Y-135625997D01*
X51954494Y-134565151D01*
X51335697Y-133661843D01*
X50845255Y-132960696D01*
X50514059Y-132506333D01*
X50373001Y-132343378D01*
X50203232Y-132475082D01*
X49941864Y-132808209D01*
X49703906Y-133185283D01*
X49600000Y-133448172D01*
X47816722Y-133448172D01*
X48134661Y-132934988D01*
X48818236Y-131868696D01*
X49403273Y-130969724D01*
X51160931Y-130969724D01*
X54088170Y-135381688D01*
X54838663Y-136505400D01*
X55561184Y-137571967D01*
X56185683Y-138478027D01*
X56681514Y-139179628D01*
X57018030Y-139632820D01*
X57164583Y-139793651D01*
X57171292Y-139793140D01*
X57372501Y-139622231D01*
X57639810Y-139237306D01*
X57965864Y-138680960D01*
X55076398Y-134348814D01*
X54371262Y-133297303D01*
X53645889Y-132228421D01*
X53016886Y-131315125D01*
X52515574Y-130602423D01*
X52173274Y-130135321D01*
X52021307Y-129958825D01*
X52013734Y-129956804D01*
X51794837Y-130081934D01*
X51508307Y-130435354D01*
X51160931Y-130969724D01*
X49403273Y-130969724D01*
X49699999Y-130513773D01*
X50441938Y-129374582D01*
X51012141Y-128493807D01*
X52783805Y-128493807D01*
X55732456Y-132934205D01*
X56501564Y-134086394D01*
X57221860Y-135153506D01*
X57841786Y-136059624D01*
X58331152Y-136761007D01*
X58659764Y-137213914D01*
X58797431Y-137374603D01*
X58810650Y-137371695D01*
X58997346Y-137180068D01*
X59261869Y-136780619D01*
X59563543Y-136265873D01*
X79200000Y-136265873D01*
X79300000Y-136366667D01*
X79400000Y-136265873D01*
X79300000Y-136165080D01*
X79200000Y-136265873D01*
X59563543Y-136265873D01*
X59609981Y-136186635D01*
X59563181Y-136116366D01*
X87948962Y-136116366D01*
X90903765Y-140501381D01*
X93858569Y-144886396D01*
X94224837Y-144406294D01*
X94479682Y-144014265D01*
X94595552Y-143713404D01*
X94524763Y-143557990D01*
X94257721Y-143102290D01*
X93820296Y-142399104D01*
X93242509Y-141495817D01*
X92554379Y-140439815D01*
X91785927Y-139278483D01*
X91156781Y-138336589D01*
X90432570Y-137257812D01*
X89802354Y-136325053D01*
X89298230Y-135585590D01*
X88952297Y-135086698D01*
X88796652Y-134875651D01*
X88755805Y-134851853D01*
X88543191Y-134982705D01*
X88285205Y-135405660D01*
X87948962Y-136116366D01*
X59563181Y-136116366D01*
X58234937Y-134122021D01*
X59800000Y-134122021D01*
X59802330Y-134143034D01*
X59943505Y-134434946D01*
X60236106Y-134855242D01*
X60672213Y-135414062D01*
X63786106Y-135287770D01*
X63926452Y-135282185D01*
X65337745Y-135234905D01*
X66882399Y-135196077D01*
X68382793Y-135169585D01*
X69661307Y-135159311D01*
X72422614Y-135157143D01*
X72348690Y-135031007D01*
X75437964Y-135031007D01*
X75620989Y-135130385D01*
X76123359Y-135120516D01*
X76261098Y-135107817D01*
X76487678Y-135065146D01*
X76560987Y-135030998D01*
X78600000Y-135030998D01*
X78624063Y-135070281D01*
X78896855Y-135138579D01*
X79345472Y-135148122D01*
X79808411Y-135101891D01*
X80124170Y-135002866D01*
X80191614Y-134917607D01*
X82000000Y-134917607D01*
X82078857Y-134987454D01*
X82421843Y-135026360D01*
X82896630Y-134997261D01*
X83348153Y-134912788D01*
X83447800Y-134866384D01*
X85200000Y-134866384D01*
X85220165Y-134886265D01*
X85498493Y-134935745D01*
X85999542Y-134955556D01*
X86799084Y-134955556D01*
X87783552Y-133448172D01*
X89600000Y-133448172D01*
X89699411Y-133628764D01*
X89993887Y-134101394D01*
X90454454Y-134820018D01*
X91051994Y-135739568D01*
X91757389Y-136814972D01*
X92541520Y-138001160D01*
X95483041Y-142434648D01*
X95837073Y-141970895D01*
X96077260Y-141582371D01*
X96195552Y-141221307D01*
X96118232Y-141036824D01*
X95844158Y-140551458D01*
X95400468Y-139821470D01*
X94816992Y-138894849D01*
X94123559Y-137819581D01*
X93350000Y-136643653D01*
X92670752Y-135625997D01*
X91954494Y-134565151D01*
X91335697Y-133661843D01*
X90845255Y-132960696D01*
X90514059Y-132506333D01*
X90373001Y-132343378D01*
X90203232Y-132475082D01*
X89941864Y-132808209D01*
X89703906Y-133185283D01*
X89600000Y-133448172D01*
X87783552Y-133448172D01*
X89402219Y-130969724D01*
X91160931Y-130969724D01*
X94088170Y-135381688D01*
X94838663Y-136505400D01*
X95561184Y-137571967D01*
X96185683Y-138478027D01*
X96681514Y-139179628D01*
X97018030Y-139632820D01*
X97164583Y-139793651D01*
X97171292Y-139793140D01*
X97372501Y-139622231D01*
X97639810Y-139237306D01*
X97965864Y-138680960D01*
X95076398Y-134348814D01*
X94371262Y-133297303D01*
X93645889Y-132228421D01*
X93016886Y-131315125D01*
X92515574Y-130602423D01*
X92173274Y-130135321D01*
X92021307Y-129958825D01*
X92013734Y-129956804D01*
X91794837Y-130081934D01*
X91508307Y-130435354D01*
X91160931Y-130969724D01*
X89402219Y-130969724D01*
X89699542Y-130514473D01*
X90441892Y-129374651D01*
X91141984Y-128293238D01*
X91171680Y-128247028D01*
X92922142Y-128247028D01*
X92933815Y-128313847D01*
X93108402Y-128671130D01*
X93456051Y-129280888D01*
X93941972Y-130089077D01*
X94531377Y-131041650D01*
X95189477Y-132084563D01*
X95881485Y-133163769D01*
X96572612Y-134225222D01*
X97228069Y-135214877D01*
X97813068Y-136078689D01*
X98292820Y-136762611D01*
X98632537Y-137212598D01*
X98797431Y-137374603D01*
X98810979Y-137371559D01*
X98998008Y-137179076D01*
X99262838Y-136778965D01*
X99563542Y-136265873D01*
X119200000Y-136265873D01*
X119300000Y-136366667D01*
X119400000Y-136265873D01*
X119300000Y-136165080D01*
X119200000Y-136265873D01*
X99563542Y-136265873D01*
X99611919Y-136183328D01*
X99567125Y-136116366D01*
X127948962Y-136116366D01*
X130903765Y-140501381D01*
X133858569Y-144886396D01*
X134224837Y-144406294D01*
X134479682Y-144014265D01*
X134595552Y-143713404D01*
X134524763Y-143557990D01*
X134257721Y-143102290D01*
X133820296Y-142399104D01*
X133242509Y-141495817D01*
X132554379Y-140439815D01*
X131785927Y-139278483D01*
X131156781Y-138336589D01*
X130432570Y-137257812D01*
X129802354Y-136325053D01*
X129298230Y-135585590D01*
X128952297Y-135086698D01*
X128796652Y-134875651D01*
X128755805Y-134851853D01*
X128543191Y-134982705D01*
X128285205Y-135405660D01*
X127948962Y-136116366D01*
X99567125Y-136116366D01*
X98233018Y-134122021D01*
X99800000Y-134122021D01*
X99802330Y-134143034D01*
X99943505Y-134434946D01*
X100236106Y-134855242D01*
X100672213Y-135414062D01*
X103786106Y-135287770D01*
X103926452Y-135282185D01*
X105337745Y-135234905D01*
X106882399Y-135196077D01*
X108382793Y-135169585D01*
X109661307Y-135159311D01*
X112422614Y-135157143D01*
X112348690Y-135031007D01*
X115437964Y-135031007D01*
X115620989Y-135130385D01*
X116123359Y-135120516D01*
X116261098Y-135107817D01*
X116487678Y-135065146D01*
X116560987Y-135030998D01*
X118600000Y-135030998D01*
X118624063Y-135070281D01*
X118896855Y-135138579D01*
X119345472Y-135148122D01*
X119808411Y-135101891D01*
X120124170Y-135002866D01*
X120191614Y-134917607D01*
X122000000Y-134917607D01*
X122078857Y-134987454D01*
X122421843Y-135026360D01*
X122896630Y-134997261D01*
X123348153Y-134912788D01*
X123447800Y-134866384D01*
X125200000Y-134866384D01*
X125220165Y-134886265D01*
X125498493Y-134935745D01*
X125999542Y-134955556D01*
X126799084Y-134955556D01*
X127783552Y-133448172D01*
X129600000Y-133448172D01*
X129699411Y-133628764D01*
X129993887Y-134101394D01*
X130454454Y-134820018D01*
X131051994Y-135739568D01*
X131757389Y-136814972D01*
X132541520Y-138001160D01*
X135483041Y-142434648D01*
X135837073Y-141970895D01*
X136077260Y-141582371D01*
X136195552Y-141221307D01*
X136118232Y-141036824D01*
X135844158Y-140551458D01*
X135400468Y-139821470D01*
X134816992Y-138894849D01*
X134123559Y-137819581D01*
X133350000Y-136643653D01*
X132670752Y-135625997D01*
X131954494Y-134565151D01*
X131335697Y-133661843D01*
X130845255Y-132960696D01*
X130514059Y-132506333D01*
X130373001Y-132343378D01*
X130203232Y-132475082D01*
X129941864Y-132808209D01*
X129703906Y-133185283D01*
X129600000Y-133448172D01*
X127783552Y-133448172D01*
X129402219Y-130969724D01*
X131160931Y-130969724D01*
X134088170Y-135381688D01*
X134838663Y-136505400D01*
X135561184Y-137571967D01*
X136185683Y-138478027D01*
X136681514Y-139179628D01*
X137018030Y-139632820D01*
X137164583Y-139793651D01*
X137171292Y-139793140D01*
X137372501Y-139622231D01*
X137639810Y-139237306D01*
X137965864Y-138680960D01*
X135076398Y-134348814D01*
X134371262Y-133297303D01*
X133645889Y-132228421D01*
X133016886Y-131315125D01*
X132515574Y-130602423D01*
X132173274Y-130135321D01*
X132021307Y-129958825D01*
X132013734Y-129956804D01*
X131794837Y-130081934D01*
X131508307Y-130435354D01*
X131160931Y-130969724D01*
X129402219Y-130969724D01*
X129699542Y-130514473D01*
X130441892Y-129374651D01*
X131141984Y-128293238D01*
X131171680Y-128247028D01*
X132922142Y-128247028D01*
X132933815Y-128313847D01*
X133108402Y-128671130D01*
X133456051Y-129280888D01*
X133941972Y-130089077D01*
X134531377Y-131041650D01*
X135189477Y-132084563D01*
X135881485Y-133163769D01*
X136572612Y-134225222D01*
X137228069Y-135214877D01*
X137813068Y-136078689D01*
X138292820Y-136762611D01*
X138632537Y-137212598D01*
X138797431Y-137374603D01*
X138810979Y-137371559D01*
X138998008Y-137179076D01*
X139262838Y-136778965D01*
X139611919Y-136183328D01*
X136672810Y-131789680D01*
X135924474Y-130671010D01*
X135210084Y-129603105D01*
X134600680Y-128692160D01*
X134125918Y-127982505D01*
X133815458Y-127518475D01*
X133698957Y-127344399D01*
X133641211Y-127364477D01*
X133420873Y-127582658D01*
X133143756Y-127920331D01*
X132922142Y-128247028D01*
X131171680Y-128247028D01*
X131736651Y-127367890D01*
X132197083Y-126643659D01*
X132494469Y-126165598D01*
X132600000Y-125978759D01*
X132581557Y-125958444D01*
X132307717Y-125905396D01*
X131810336Y-125884127D01*
X131020672Y-125884127D01*
X128110336Y-130330670D01*
X127361573Y-131477673D01*
X126660254Y-132558106D01*
X126064619Y-133482105D01*
X125603487Y-134204760D01*
X125305674Y-134681156D01*
X125200000Y-134866384D01*
X123447800Y-134866384D01*
X123621345Y-134785567D01*
X123621976Y-134784875D01*
X123793451Y-134548776D01*
X124137183Y-134039489D01*
X124617497Y-133312450D01*
X125198716Y-132423094D01*
X125845166Y-131426856D01*
X126521170Y-130379171D01*
X127191052Y-129335476D01*
X127819138Y-128351205D01*
X128369752Y-127481793D01*
X128807217Y-126782676D01*
X129095858Y-126309289D01*
X129200000Y-126117068D01*
X129189731Y-126092672D01*
X128941022Y-126005686D01*
X128464120Y-125970522D01*
X127728240Y-125970522D01*
X124864120Y-130346453D01*
X124163829Y-131422329D01*
X123462760Y-132512643D01*
X122866626Y-133453957D01*
X122404644Y-134199641D01*
X122106030Y-134703068D01*
X122000000Y-134917607D01*
X120191614Y-134917607D01*
X120265139Y-134824661D01*
X120591821Y-134360680D01*
X121066655Y-133666177D01*
X121653573Y-132795537D01*
X122316508Y-131803147D01*
X123019392Y-130743394D01*
X123726157Y-129670663D01*
X124400735Y-128639342D01*
X125007060Y-127703816D01*
X125509062Y-126918473D01*
X125870676Y-126337699D01*
X125902079Y-126234131D01*
X125726340Y-126119614D01*
X125205989Y-126085715D01*
X124388371Y-126085715D01*
X121494185Y-130495284D01*
X120765965Y-131608867D01*
X120063656Y-132691429D01*
X119466866Y-133620433D01*
X119004633Y-134350369D01*
X118705998Y-134835728D01*
X118600000Y-135030998D01*
X116560987Y-135030998D01*
X116704291Y-134964246D01*
X116944205Y-134765614D01*
X117240692Y-134429745D01*
X117627021Y-133917135D01*
X118136462Y-133188278D01*
X118802284Y-132203671D01*
X119657759Y-130923810D01*
X120221484Y-130077932D01*
X120948760Y-128983119D01*
X121584861Y-128021513D01*
X122096655Y-127243369D01*
X122451011Y-126698944D01*
X122614796Y-126438492D01*
X122645514Y-126381713D01*
X122684124Y-126189254D01*
X122480866Y-126105106D01*
X121957036Y-126087239D01*
X121100000Y-126088764D01*
X118331374Y-130353007D01*
X117714367Y-131306255D01*
X117007857Y-132405563D01*
X116397742Y-133363537D01*
X115914918Y-134131328D01*
X115590283Y-134660087D01*
X115454734Y-134900966D01*
X115437964Y-135031007D01*
X112348690Y-135031007D01*
X112068185Y-134552381D01*
X111713756Y-133947619D01*
X105756878Y-133947619D01*
X105233636Y-133948291D01*
X103777781Y-133957573D01*
X102476610Y-133976640D01*
X101379185Y-134004054D01*
X100534568Y-134038380D01*
X99991818Y-134078181D01*
X99800000Y-134122021D01*
X98233018Y-134122021D01*
X96672810Y-131789680D01*
X96625474Y-131718918D01*
X98200000Y-131718918D01*
X98200651Y-131729897D01*
X98340336Y-132010102D01*
X98650000Y-132401125D01*
X99100000Y-132892987D01*
X104946329Y-132789985D01*
X110792659Y-132686983D01*
X110453208Y-132107777D01*
X110113756Y-131528572D01*
X104156878Y-131528572D01*
X102541754Y-131534101D01*
X101062887Y-131551439D01*
X99857716Y-131579598D01*
X98957804Y-131617570D01*
X98394711Y-131664346D01*
X98200000Y-131718918D01*
X96625474Y-131718918D01*
X95924474Y-130671010D01*
X95210084Y-129603105D01*
X94884115Y-129115842D01*
X96377225Y-129115842D01*
X96802231Y-129717445D01*
X97227237Y-130319048D01*
X103239250Y-130319048D01*
X109251263Y-130319048D01*
X108763308Y-129681283D01*
X108666990Y-129561725D01*
X108285826Y-129186160D01*
X107987676Y-129026125D01*
X107972040Y-129025483D01*
X107649557Y-129023386D01*
X106988787Y-129025018D01*
X106043518Y-129030050D01*
X104867541Y-129038157D01*
X103514642Y-129049012D01*
X102038612Y-129062286D01*
X96377225Y-129115842D01*
X94884115Y-129115842D01*
X94600680Y-128692160D01*
X94125918Y-127982505D01*
X93815458Y-127518475D01*
X93698957Y-127344399D01*
X93641211Y-127364477D01*
X93420873Y-127582658D01*
X93143756Y-127920331D01*
X92922142Y-128247028D01*
X91171680Y-128247028D01*
X91736651Y-127367890D01*
X92158533Y-126704295D01*
X94782524Y-126704295D01*
X95204881Y-127302148D01*
X95627237Y-127900000D01*
X101513618Y-127900000D01*
X101976910Y-127899461D01*
X103428322Y-127890472D01*
X104726514Y-127871538D01*
X105822133Y-127844122D01*
X106665822Y-127809685D01*
X107208229Y-127769690D01*
X107400000Y-127725599D01*
X107398204Y-127707346D01*
X107260441Y-127418400D01*
X106970410Y-127000729D01*
X106540821Y-126450261D01*
X102820410Y-126519972D01*
X101899927Y-126537679D01*
X100482623Y-126566431D01*
X99103311Y-126595971D01*
X97882641Y-126623692D01*
X96941262Y-126646989D01*
X94782524Y-126704295D01*
X92158533Y-126704295D01*
X92197083Y-126643659D01*
X92494469Y-126165598D01*
X92600000Y-125978759D01*
X92581557Y-125958444D01*
X92307717Y-125905396D01*
X91810336Y-125884127D01*
X91020672Y-125884127D01*
X88110336Y-130330670D01*
X87361573Y-131477673D01*
X86660254Y-132558106D01*
X86064619Y-133482105D01*
X85603487Y-134204760D01*
X85305674Y-134681156D01*
X85200000Y-134866384D01*
X83447800Y-134866384D01*
X83621345Y-134785567D01*
X83621976Y-134784875D01*
X83793451Y-134548776D01*
X84137183Y-134039489D01*
X84617497Y-133312450D01*
X85198716Y-132423094D01*
X85845166Y-131426856D01*
X86521170Y-130379171D01*
X87191052Y-129335476D01*
X87819138Y-128351205D01*
X88369752Y-127481793D01*
X88807217Y-126782676D01*
X89095858Y-126309289D01*
X89200000Y-126117068D01*
X89189731Y-126092672D01*
X88941022Y-126005686D01*
X88464120Y-125970522D01*
X87728240Y-125970522D01*
X84864120Y-130346453D01*
X84163829Y-131422329D01*
X83462760Y-132512643D01*
X82866626Y-133453957D01*
X82404644Y-134199641D01*
X82106030Y-134703068D01*
X82000000Y-134917607D01*
X80191614Y-134917607D01*
X80265139Y-134824661D01*
X80591821Y-134360680D01*
X81066655Y-133666177D01*
X81653573Y-132795537D01*
X82316508Y-131803147D01*
X83019392Y-130743394D01*
X83726157Y-129670663D01*
X84400735Y-128639342D01*
X85007060Y-127703816D01*
X85509062Y-126918473D01*
X85870676Y-126337699D01*
X85902079Y-126234131D01*
X85726340Y-126119614D01*
X85205989Y-126085715D01*
X84388371Y-126085715D01*
X81494185Y-130495284D01*
X80765965Y-131608867D01*
X80063656Y-132691429D01*
X79466866Y-133620433D01*
X79004633Y-134350369D01*
X78705998Y-134835728D01*
X78600000Y-135030998D01*
X76560987Y-135030998D01*
X76704291Y-134964246D01*
X76944205Y-134765614D01*
X77240692Y-134429745D01*
X77627021Y-133917135D01*
X78136462Y-133188278D01*
X78802284Y-132203671D01*
X79657759Y-130923810D01*
X80221484Y-130077932D01*
X80948760Y-128983119D01*
X81584861Y-128021513D01*
X82096655Y-127243369D01*
X82451011Y-126698944D01*
X82614796Y-126438492D01*
X82645514Y-126381713D01*
X82684124Y-126189254D01*
X82480866Y-126105106D01*
X81957036Y-126087239D01*
X81100000Y-126088764D01*
X78331374Y-130353007D01*
X77714367Y-131306255D01*
X77007857Y-132405563D01*
X76397742Y-133363537D01*
X75914918Y-134131328D01*
X75590283Y-134660087D01*
X75454734Y-134900966D01*
X75437964Y-135031007D01*
X72348690Y-135031007D01*
X72068185Y-134552381D01*
X71713756Y-133947619D01*
X65756878Y-133947619D01*
X65233636Y-133948291D01*
X63777781Y-133957573D01*
X62476610Y-133976640D01*
X61379185Y-134004054D01*
X60534568Y-134038380D01*
X59991818Y-134078181D01*
X59800000Y-134122021D01*
X58234937Y-134122021D01*
X56654990Y-131749748D01*
X56634364Y-131718918D01*
X58200000Y-131718918D01*
X58200651Y-131729897D01*
X58340336Y-132010102D01*
X58650000Y-132401125D01*
X59100000Y-132892987D01*
X64946329Y-132789985D01*
X70792659Y-132686983D01*
X70453208Y-132107777D01*
X70113756Y-131528572D01*
X64156878Y-131528572D01*
X62541754Y-131534101D01*
X61062887Y-131551439D01*
X59857716Y-131579598D01*
X58957804Y-131617570D01*
X58394711Y-131664346D01*
X58200000Y-131718918D01*
X56634364Y-131718918D01*
X55884506Y-130598086D01*
X55163651Y-129530958D01*
X54879940Y-129115842D01*
X56377225Y-129115842D01*
X56802231Y-129717445D01*
X57227237Y-130319048D01*
X63239250Y-130319048D01*
X69251263Y-130319048D01*
X68763308Y-129681283D01*
X68666990Y-129561725D01*
X68285826Y-129186160D01*
X67987676Y-129026125D01*
X67972040Y-129025483D01*
X67649557Y-129023386D01*
X66988787Y-129025018D01*
X66043518Y-129030050D01*
X64867541Y-129038157D01*
X63514642Y-129049012D01*
X62038612Y-129062286D01*
X56377225Y-129115842D01*
X54879940Y-129115842D01*
X54543925Y-128624198D01*
X54055488Y-127921600D01*
X53728499Y-127466953D01*
X53593121Y-127304050D01*
X53579413Y-127306640D01*
X53397607Y-127495870D01*
X53135024Y-127894523D01*
X52783805Y-128493807D01*
X51012141Y-128493807D01*
X51142008Y-128293206D01*
X51736661Y-127367879D01*
X52158535Y-126704295D01*
X54782524Y-126704295D01*
X55204881Y-127302148D01*
X55627237Y-127900000D01*
X61513618Y-127900000D01*
X61976910Y-127899461D01*
X63428322Y-127890472D01*
X64726514Y-127871538D01*
X65822133Y-127844122D01*
X66665822Y-127809685D01*
X67208229Y-127769690D01*
X67400000Y-127725599D01*
X67398204Y-127707346D01*
X67260441Y-127418400D01*
X66970410Y-127000729D01*
X66540821Y-126450261D01*
X62820410Y-126519972D01*
X61899927Y-126537679D01*
X60482623Y-126566431D01*
X59103311Y-126595971D01*
X57882641Y-126623692D01*
X56941262Y-126646989D01*
X54782524Y-126704295D01*
X52158535Y-126704295D01*
X52197085Y-126643658D01*
X52494469Y-126165600D01*
X52600000Y-125978759D01*
X52580002Y-125957735D01*
X52302110Y-125905174D01*
X51801428Y-125884127D01*
X51002857Y-125884127D01*
X48951428Y-129056920D01*
X46900000Y-132229713D01*
X46840224Y-131079714D01*
X46828129Y-130814418D01*
X46834492Y-130351478D01*
X46915901Y-129948068D01*
X47110337Y-129506311D01*
X47455784Y-128928328D01*
X47990224Y-128116242D01*
X48389549Y-127507920D01*
X48808875Y-126843233D01*
X49094488Y-126358554D01*
X49200000Y-126130040D01*
X49190484Y-126102481D01*
X48945002Y-126006187D01*
X48471305Y-125977699D01*
X48101241Y-126013744D01*
X47668610Y-126216840D01*
X47271305Y-126691370D01*
X46800000Y-127384655D01*
X46800000Y-126130423D01*
X46800000Y-125629197D01*
X68010447Y-125629197D01*
X70906444Y-129939598D01*
X71607104Y-130976153D01*
X72338074Y-132043121D01*
X72973572Y-132955390D01*
X73481823Y-133667885D01*
X73831053Y-134135531D01*
X73989489Y-134313254D01*
X74004329Y-134316348D01*
X74222310Y-134172068D01*
X74477883Y-133789139D01*
X74540611Y-133662270D01*
X74599947Y-133481418D01*
X74596850Y-133273573D01*
X74508448Y-132994731D01*
X74311870Y-132600887D01*
X73984245Y-132048036D01*
X73502702Y-131292175D01*
X72844371Y-130289298D01*
X71986381Y-128995403D01*
X71370790Y-128070333D01*
X70649730Y-126992435D01*
X70022197Y-126060644D01*
X69520251Y-125322318D01*
X69175951Y-124824816D01*
X69021356Y-124615494D01*
X68990002Y-124595508D01*
X68746900Y-124687493D01*
X68429814Y-125035575D01*
X68010447Y-125629197D01*
X46800000Y-125629197D01*
X46800000Y-125343922D01*
X55200000Y-125343922D01*
X55222248Y-125383851D01*
X55491340Y-125458421D01*
X55938327Y-125472525D01*
X56401573Y-125427998D01*
X56719438Y-125326675D01*
X56724543Y-125322420D01*
X56756306Y-125280910D01*
X58600000Y-125280910D01*
X58702950Y-125386942D01*
X59050000Y-125393874D01*
X59361783Y-125343474D01*
X59827044Y-125294345D01*
X59896952Y-125256383D01*
X61890922Y-125256383D01*
X62097577Y-125335822D01*
X62619505Y-125312041D01*
X62959446Y-125279365D01*
X64997642Y-125279365D01*
X65848821Y-125277283D01*
X66700000Y-125275201D01*
X68030178Y-123234827D01*
X69739477Y-123234827D01*
X72619738Y-127575526D01*
X73327628Y-128637680D01*
X74043038Y-129700767D01*
X74659129Y-130605284D01*
X75145440Y-131306888D01*
X75471510Y-131761236D01*
X75606878Y-131923985D01*
X75620849Y-131921168D01*
X75802981Y-131730491D01*
X76065899Y-131330886D01*
X76418041Y-130730026D01*
X73773534Y-126744775D01*
X73319157Y-126061009D01*
X72582722Y-124957018D01*
X71923495Y-123973904D01*
X71377620Y-123165330D01*
X70981242Y-122584957D01*
X70770506Y-122286446D01*
X70411986Y-121813368D01*
X70075731Y-122524098D01*
X69739477Y-123234827D01*
X68030178Y-123234827D01*
X69453195Y-121052045D01*
X69732812Y-120621712D01*
X71400000Y-120621712D01*
X71491414Y-120806469D01*
X71780162Y-121285189D01*
X72237374Y-122008411D01*
X72833451Y-122929953D01*
X73538792Y-124003634D01*
X74323796Y-125183273D01*
X77247592Y-129550207D01*
X77622478Y-128977088D01*
X77653992Y-128928487D01*
X77897947Y-128517307D01*
X77998682Y-128282024D01*
X77939651Y-128167280D01*
X77687423Y-127755086D01*
X77264577Y-127090159D01*
X76701338Y-126219469D01*
X76027932Y-125189988D01*
X75274585Y-124048690D01*
X74726144Y-123223431D01*
X74000448Y-122138160D01*
X73362007Y-121191103D01*
X72844344Y-120431661D01*
X72480983Y-119909235D01*
X72305447Y-119673227D01*
X72203971Y-119581954D01*
X71996765Y-119587806D01*
X71730861Y-119918119D01*
X71501026Y-120326626D01*
X71400000Y-120621712D01*
X69732812Y-120621712D01*
X70048808Y-120135392D01*
X70757615Y-119036013D01*
X71209879Y-118327466D01*
X73073415Y-118327466D01*
X73163843Y-118484117D01*
X73449091Y-118934789D01*
X73891391Y-119617456D01*
X74453513Y-120476039D01*
X75098226Y-121454457D01*
X75788300Y-122496629D01*
X76486505Y-123546477D01*
X77155610Y-124547920D01*
X77758385Y-125444877D01*
X78257599Y-126181268D01*
X78616023Y-126701013D01*
X78796424Y-126948033D01*
X78831241Y-126965813D01*
X79031868Y-126822739D01*
X79290891Y-126431321D01*
X79650725Y-125757847D01*
X79566005Y-125629197D01*
X108010447Y-125629197D01*
X110906444Y-129939598D01*
X111607104Y-130976153D01*
X112338074Y-132043121D01*
X112973572Y-132955390D01*
X113481823Y-133667885D01*
X113831053Y-134135531D01*
X113989489Y-134313254D01*
X114004329Y-134316348D01*
X114222310Y-134172068D01*
X114477883Y-133789139D01*
X114540611Y-133662270D01*
X114599947Y-133481418D01*
X114596850Y-133273573D01*
X114508448Y-132994731D01*
X114311870Y-132600887D01*
X113984245Y-132048036D01*
X113502702Y-131292175D01*
X112844371Y-130289298D01*
X111986381Y-128995403D01*
X111370790Y-128070333D01*
X110649730Y-126992435D01*
X110022197Y-126060644D01*
X109520251Y-125322318D01*
X109175951Y-124824816D01*
X109021356Y-124615494D01*
X108990002Y-124595508D01*
X108746900Y-124687493D01*
X108429814Y-125035575D01*
X108010447Y-125629197D01*
X79566005Y-125629197D01*
X79378144Y-125343922D01*
X95200000Y-125343922D01*
X95222248Y-125383851D01*
X95491340Y-125458421D01*
X95938327Y-125472525D01*
X96401573Y-125427998D01*
X96719438Y-125326675D01*
X96724543Y-125322420D01*
X96756306Y-125280910D01*
X98600000Y-125280910D01*
X98702950Y-125386942D01*
X99050000Y-125393874D01*
X99361783Y-125343474D01*
X99827044Y-125294345D01*
X99896952Y-125256383D01*
X101890922Y-125256383D01*
X102097577Y-125335822D01*
X102619505Y-125312041D01*
X102959446Y-125279365D01*
X104997642Y-125279365D01*
X105848821Y-125277283D01*
X106700000Y-125275201D01*
X108030178Y-123234827D01*
X109739477Y-123234827D01*
X112619738Y-127575526D01*
X113327628Y-128637680D01*
X114043038Y-129700767D01*
X114659129Y-130605284D01*
X115145440Y-131306888D01*
X115471510Y-131761236D01*
X115606878Y-131923985D01*
X115620849Y-131921168D01*
X115802981Y-131730491D01*
X116065899Y-131330886D01*
X116418041Y-130730026D01*
X113773534Y-126744775D01*
X113319157Y-126061009D01*
X112582722Y-124957018D01*
X111923495Y-123973904D01*
X111377620Y-123165330D01*
X110981242Y-122584957D01*
X110770506Y-122286446D01*
X110411986Y-121813368D01*
X110075731Y-122524098D01*
X109739477Y-123234827D01*
X108030178Y-123234827D01*
X109453195Y-121052045D01*
X109732812Y-120621712D01*
X111400000Y-120621712D01*
X111491414Y-120806469D01*
X111780162Y-121285189D01*
X112237374Y-122008411D01*
X112833451Y-122929953D01*
X113538792Y-124003634D01*
X114323796Y-125183273D01*
X117247592Y-129550207D01*
X117622478Y-128977088D01*
X117653992Y-128928487D01*
X117897947Y-128517307D01*
X117998682Y-128282024D01*
X117939651Y-128167280D01*
X117687423Y-127755086D01*
X117264577Y-127090159D01*
X116701338Y-126219469D01*
X116027932Y-125189988D01*
X115274585Y-124048690D01*
X114726144Y-123223431D01*
X114000448Y-122138160D01*
X113362007Y-121191103D01*
X112844344Y-120431661D01*
X112480983Y-119909235D01*
X112305447Y-119673227D01*
X112203971Y-119581954D01*
X111996765Y-119587806D01*
X111730861Y-119918119D01*
X111501026Y-120326626D01*
X111400000Y-120621712D01*
X109732812Y-120621712D01*
X110048808Y-120135392D01*
X110757615Y-119036013D01*
X111203322Y-118337739D01*
X113077326Y-118337739D01*
X113164524Y-118489775D01*
X113447136Y-118937252D01*
X113887554Y-119617598D01*
X114448462Y-120474622D01*
X115092543Y-121452129D01*
X115782478Y-122493927D01*
X116480953Y-123543823D01*
X117150649Y-124545625D01*
X117754251Y-125443140D01*
X118254439Y-126180175D01*
X118613899Y-126700537D01*
X118795313Y-126948033D01*
X118830336Y-126965811D01*
X119031598Y-126822758D01*
X119290891Y-126431321D01*
X119650725Y-125757847D01*
X119378144Y-125343922D01*
X135200000Y-125343922D01*
X135222248Y-125383851D01*
X135491340Y-125458421D01*
X135938327Y-125472525D01*
X136401573Y-125427998D01*
X136719438Y-125326675D01*
X136724543Y-125322420D01*
X136756306Y-125280910D01*
X138600000Y-125280910D01*
X138702950Y-125386942D01*
X139050000Y-125393874D01*
X139361783Y-125343474D01*
X139827044Y-125294345D01*
X139902047Y-125253616D01*
X140204363Y-124929555D01*
X140684903Y-124307218D01*
X141321784Y-123416770D01*
X142093126Y-122288374D01*
X142977044Y-120952194D01*
X143650458Y-119916833D01*
X144346443Y-118839493D01*
X144938584Y-117915003D01*
X145397686Y-117189227D01*
X145694555Y-116708029D01*
X145800000Y-116517273D01*
X145783365Y-116495138D01*
X145514487Y-116434054D01*
X145021167Y-116409524D01*
X144242335Y-116409524D01*
X141421167Y-120746460D01*
X140751577Y-121781468D01*
X140055024Y-122871476D01*
X139462335Y-123813447D01*
X139002763Y-124560358D01*
X138705566Y-125065186D01*
X138600000Y-125280910D01*
X136756306Y-125280910D01*
X136891584Y-125104120D01*
X137238378Y-124608299D01*
X137728702Y-123889527D01*
X138326331Y-123002374D01*
X138995042Y-122001409D01*
X139698609Y-120941204D01*
X140400810Y-119876327D01*
X141065420Y-118861349D01*
X141656214Y-117950840D01*
X142136969Y-117199369D01*
X142471461Y-116661508D01*
X142502652Y-116558949D01*
X142328052Y-116443681D01*
X141808687Y-116409524D01*
X140993768Y-116409524D01*
X138096884Y-120808208D01*
X137371377Y-121914211D01*
X136667403Y-122996722D01*
X136069133Y-123926583D01*
X135605712Y-124658160D01*
X135306285Y-125145818D01*
X135200000Y-125343922D01*
X119378144Y-125343922D01*
X118283373Y-123681471D01*
X119783220Y-123681471D01*
X120209005Y-124284177D01*
X120634791Y-124886883D01*
X126317395Y-124869956D01*
X127482278Y-124863621D01*
X129047057Y-124843614D01*
X130304319Y-124811971D01*
X131230964Y-124769562D01*
X131803890Y-124717259D01*
X132000000Y-124655930D01*
X131911130Y-124383786D01*
X131676998Y-123961955D01*
X131353996Y-123465080D01*
X127526998Y-123507270D01*
X126459854Y-123520579D01*
X125068461Y-123541910D01*
X123744356Y-123566218D01*
X122598439Y-123591427D01*
X121741610Y-123615465D01*
X119783220Y-123681471D01*
X118283373Y-123681471D01*
X116775362Y-121391499D01*
X116668130Y-121229536D01*
X118296765Y-121229536D01*
X118381642Y-121487474D01*
X118634326Y-121900971D01*
X119056835Y-122499039D01*
X124613801Y-122425627D01*
X124776304Y-122423425D01*
X126216791Y-122398946D01*
X127519286Y-122368217D01*
X128631390Y-122333127D01*
X129500703Y-122295566D01*
X130074828Y-122257421D01*
X130301364Y-122220583D01*
X130307150Y-122213765D01*
X130287822Y-121959751D01*
X130083754Y-121553302D01*
X129735548Y-121017654D01*
X124068148Y-121065063D01*
X123806446Y-121067352D01*
X122361145Y-121083722D01*
X121058722Y-121104597D01*
X119950601Y-121128704D01*
X119088205Y-121154770D01*
X118522958Y-121181522D01*
X118306283Y-121207688D01*
X118296765Y-121229536D01*
X116668130Y-121229536D01*
X116062047Y-120314113D01*
X115347587Y-119247658D01*
X115028431Y-118778175D01*
X116600993Y-118778175D01*
X116602470Y-118791723D01*
X116745633Y-119053454D01*
X117050993Y-119442915D01*
X117500000Y-119956464D01*
X123168605Y-119846089D01*
X128837211Y-119735715D01*
X128404089Y-119181349D01*
X127970967Y-118626984D01*
X122285483Y-118626984D01*
X121991816Y-118627185D01*
X120553597Y-118634200D01*
X119264334Y-118650256D01*
X118174235Y-118674016D01*
X117333507Y-118704147D01*
X116792357Y-118739311D01*
X116600993Y-118778175D01*
X115028431Y-118778175D01*
X114730982Y-118340624D01*
X114242703Y-117637377D01*
X113913219Y-117182286D01*
X113773001Y-117019719D01*
X113762834Y-117019864D01*
X113534612Y-117194472D01*
X113286263Y-117582252D01*
X113104822Y-118018306D01*
X113077326Y-118337739D01*
X111203322Y-118337739D01*
X111370894Y-118075210D01*
X111857349Y-117302399D01*
X112185681Y-116766994D01*
X112324592Y-116518413D01*
X112347553Y-116362388D01*
X112296845Y-116328008D01*
X115000000Y-116328008D01*
X115003681Y-116349097D01*
X115142478Y-116619641D01*
X115419808Y-117042326D01*
X115448330Y-117082547D01*
X115699214Y-117390781D01*
X115968796Y-117544391D01*
X116383514Y-117581548D01*
X117069808Y-117540418D01*
X117211123Y-117530970D01*
X117890180Y-117502336D01*
X118864447Y-117476479D01*
X120054435Y-117454928D01*
X121380655Y-117439213D01*
X122763618Y-117430863D01*
X127227237Y-117417461D01*
X126800000Y-116812699D01*
X126372762Y-116207937D01*
X120686381Y-116207937D01*
X120392160Y-116208097D01*
X118953787Y-116213670D01*
X117664332Y-116226422D01*
X116574010Y-116245292D01*
X115733037Y-116269220D01*
X115191628Y-116297145D01*
X115000000Y-116328008D01*
X112296845Y-116328008D01*
X112169090Y-116241391D01*
X111671397Y-116210851D01*
X111625999Y-116211052D01*
X111349676Y-116224139D01*
X111113593Y-116291266D01*
X110874248Y-116459459D01*
X110588141Y-116775748D01*
X110211771Y-117287161D01*
X109701638Y-118040726D01*
X109014241Y-119083470D01*
X108669593Y-119608586D01*
X107926399Y-120744568D01*
X107198414Y-121861570D01*
X106554387Y-122854000D01*
X106063062Y-123616270D01*
X104997642Y-125279365D01*
X102959446Y-125279365D01*
X103447811Y-125232422D01*
X106273905Y-120888190D01*
X106953806Y-119837422D01*
X107643806Y-118758129D01*
X108227251Y-117831500D01*
X108675571Y-117103410D01*
X108960197Y-116619733D01*
X109052560Y-116426344D01*
X108933553Y-116345978D01*
X108508862Y-116302494D01*
X107900000Y-116360089D01*
X107673192Y-116523834D01*
X107238101Y-117029925D01*
X106608076Y-117879339D01*
X105781603Y-119074122D01*
X104757172Y-120616324D01*
X104175198Y-121507965D01*
X103466424Y-122601943D01*
X102853398Y-123557296D01*
X102367517Y-124324724D01*
X102040176Y-124854925D01*
X101902772Y-125098599D01*
X101890922Y-125256383D01*
X99896952Y-125256383D01*
X99902047Y-125253616D01*
X100204363Y-124929555D01*
X100684903Y-124307218D01*
X101321784Y-123416770D01*
X102093126Y-122288374D01*
X102977044Y-120952194D01*
X103650458Y-119916833D01*
X104346443Y-118839493D01*
X104938584Y-117915003D01*
X105397686Y-117189227D01*
X105694555Y-116708029D01*
X105800000Y-116517273D01*
X105783365Y-116495138D01*
X105514487Y-116434054D01*
X105021167Y-116409524D01*
X104242335Y-116409524D01*
X101421167Y-120746460D01*
X100751577Y-121781468D01*
X100055024Y-122871476D01*
X99462335Y-123813447D01*
X99002763Y-124560358D01*
X98705566Y-125065186D01*
X98600000Y-125280910D01*
X96756306Y-125280910D01*
X96891584Y-125104120D01*
X97238378Y-124608299D01*
X97728702Y-123889527D01*
X98326331Y-123002374D01*
X98995042Y-122001409D01*
X99698609Y-120941204D01*
X100400810Y-119876327D01*
X101065420Y-118861349D01*
X101656214Y-117950840D01*
X102136969Y-117199369D01*
X102471461Y-116661508D01*
X102502652Y-116558949D01*
X102328052Y-116443681D01*
X101808687Y-116409524D01*
X100993768Y-116409524D01*
X98096884Y-120808208D01*
X97371377Y-121914211D01*
X96667403Y-122996722D01*
X96069133Y-123926583D01*
X95605712Y-124658160D01*
X95306285Y-125145818D01*
X95200000Y-125343922D01*
X79378144Y-125343922D01*
X78283373Y-123681471D01*
X79783220Y-123681471D01*
X80209005Y-124284177D01*
X80634791Y-124886883D01*
X86317395Y-124869956D01*
X87482278Y-124863621D01*
X89047057Y-124843614D01*
X90304319Y-124811971D01*
X91230964Y-124769562D01*
X91803890Y-124717259D01*
X92000000Y-124655930D01*
X91911130Y-124383786D01*
X91676998Y-123961955D01*
X91353996Y-123465080D01*
X87526998Y-123507270D01*
X86459854Y-123520579D01*
X85068461Y-123541910D01*
X83744356Y-123566218D01*
X82598439Y-123591427D01*
X81741610Y-123615465D01*
X79783220Y-123681471D01*
X78283373Y-123681471D01*
X76775362Y-121391499D01*
X76668130Y-121229536D01*
X78296765Y-121229536D01*
X78381642Y-121487474D01*
X78634326Y-121900971D01*
X79056835Y-122499039D01*
X84613801Y-122425627D01*
X84776304Y-122423425D01*
X86216791Y-122398946D01*
X87519286Y-122368217D01*
X88631390Y-122333127D01*
X89500703Y-122295566D01*
X90074828Y-122257421D01*
X90301364Y-122220583D01*
X90307150Y-122213765D01*
X90287822Y-121959751D01*
X90083754Y-121553302D01*
X89735548Y-121017654D01*
X84068148Y-121065063D01*
X83806446Y-121067352D01*
X82361145Y-121083722D01*
X81058722Y-121104597D01*
X79950601Y-121128704D01*
X79088205Y-121154770D01*
X78522958Y-121181522D01*
X78306283Y-121207688D01*
X78296765Y-121229536D01*
X76668130Y-121229536D01*
X76062047Y-120314113D01*
X75347587Y-119247658D01*
X75028431Y-118778175D01*
X76600993Y-118778175D01*
X76602470Y-118791723D01*
X76745633Y-119053454D01*
X77050993Y-119442915D01*
X77500000Y-119956464D01*
X83168605Y-119846089D01*
X88837211Y-119735715D01*
X88404089Y-119181349D01*
X87970967Y-118626984D01*
X82285483Y-118626984D01*
X81991816Y-118627185D01*
X80553597Y-118634200D01*
X79264334Y-118650256D01*
X78174235Y-118674016D01*
X77333507Y-118704147D01*
X76792357Y-118739311D01*
X76600993Y-118778175D01*
X75028431Y-118778175D01*
X74730982Y-118340624D01*
X74242703Y-117637377D01*
X73913219Y-117182286D01*
X73773001Y-117019719D01*
X73762988Y-117019873D01*
X73536444Y-117194022D01*
X73287152Y-117580010D01*
X73103385Y-118012827D01*
X73073415Y-118327466D01*
X71209879Y-118327466D01*
X71370894Y-118075210D01*
X71857349Y-117302399D01*
X72185681Y-116766994D01*
X72324592Y-116518413D01*
X72347553Y-116362388D01*
X72296845Y-116328008D01*
X75000000Y-116328008D01*
X75003681Y-116349097D01*
X75142478Y-116619641D01*
X75419808Y-117042326D01*
X75448330Y-117082547D01*
X75699214Y-117390781D01*
X75968796Y-117544391D01*
X76383514Y-117581548D01*
X77069808Y-117540418D01*
X77211123Y-117530970D01*
X77890180Y-117502336D01*
X78864447Y-117476479D01*
X80054435Y-117454928D01*
X81380655Y-117439213D01*
X82763618Y-117430863D01*
X87227237Y-117417461D01*
X86800000Y-116812699D01*
X86372762Y-116207937D01*
X80686381Y-116207937D01*
X80392160Y-116208097D01*
X78953787Y-116213670D01*
X77664332Y-116226422D01*
X76574010Y-116245292D01*
X75733037Y-116269220D01*
X75191628Y-116297145D01*
X75000000Y-116328008D01*
X72296845Y-116328008D01*
X72169090Y-116241391D01*
X71671397Y-116210851D01*
X71625999Y-116211052D01*
X71349676Y-116224139D01*
X71113593Y-116291266D01*
X70874248Y-116459459D01*
X70588141Y-116775748D01*
X70211771Y-117287161D01*
X69701638Y-118040726D01*
X69014241Y-119083470D01*
X68669593Y-119608586D01*
X67926399Y-120744568D01*
X67198414Y-121861570D01*
X66554387Y-122854000D01*
X66063062Y-123616270D01*
X64997642Y-125279365D01*
X62959446Y-125279365D01*
X63447811Y-125232422D01*
X66273905Y-120888190D01*
X66953806Y-119837422D01*
X67643806Y-118758129D01*
X68227251Y-117831500D01*
X68675571Y-117103410D01*
X68960197Y-116619733D01*
X69052560Y-116426344D01*
X68933553Y-116345978D01*
X68508862Y-116302494D01*
X67900000Y-116360089D01*
X67673192Y-116523834D01*
X67238101Y-117029925D01*
X66608076Y-117879339D01*
X65781603Y-119074122D01*
X64757172Y-120616324D01*
X64175198Y-121507965D01*
X63466424Y-122601943D01*
X62853398Y-123557296D01*
X62367517Y-124324724D01*
X62040176Y-124854925D01*
X61902772Y-125098599D01*
X61890922Y-125256383D01*
X59896952Y-125256383D01*
X59902047Y-125253616D01*
X60204363Y-124929555D01*
X60684903Y-124307218D01*
X61321784Y-123416770D01*
X62093126Y-122288374D01*
X62977044Y-120952194D01*
X63650458Y-119916833D01*
X64346443Y-118839493D01*
X64938584Y-117915003D01*
X65397686Y-117189227D01*
X65694555Y-116708029D01*
X65800000Y-116517273D01*
X65783365Y-116495138D01*
X65514487Y-116434054D01*
X65021167Y-116409524D01*
X64242335Y-116409524D01*
X61421167Y-120746460D01*
X60751577Y-121781468D01*
X60055024Y-122871476D01*
X59462335Y-123813447D01*
X59002763Y-124560358D01*
X58705566Y-125065186D01*
X58600000Y-125280910D01*
X56756306Y-125280910D01*
X56891584Y-125104120D01*
X57238378Y-124608299D01*
X57728702Y-123889527D01*
X58326331Y-123002374D01*
X58995042Y-122001409D01*
X59698609Y-120941204D01*
X60400810Y-119876327D01*
X61065420Y-118861349D01*
X61656214Y-117950840D01*
X62136969Y-117199369D01*
X62471461Y-116661508D01*
X62502652Y-116558949D01*
X62328052Y-116443681D01*
X61808687Y-116409524D01*
X60993768Y-116409524D01*
X58096884Y-120808208D01*
X57371377Y-121914211D01*
X56667403Y-122996722D01*
X56069133Y-123926583D01*
X55605712Y-124658160D01*
X55306285Y-125145818D01*
X55200000Y-125343922D01*
X46800000Y-125343922D01*
X46800000Y-124876191D01*
X49250000Y-124852319D01*
X49289001Y-124851942D01*
X50239184Y-124844792D01*
X51037987Y-124842472D01*
X51602547Y-124844981D01*
X51850000Y-124852319D01*
X51987128Y-124776318D01*
X51936866Y-124455486D01*
X51676998Y-123961955D01*
X51577784Y-123818133D01*
X51405962Y-123650974D01*
X51148579Y-123547112D01*
X50727028Y-123491524D01*
X50062703Y-123469187D01*
X49076998Y-123465080D01*
X46800000Y-123465080D01*
X46800000Y-122961111D01*
X46805774Y-122816522D01*
X46942237Y-122522535D01*
X47350000Y-122432406D01*
X48425772Y-122381443D01*
X49298586Y-122332029D01*
X49871834Y-122286557D01*
X50198478Y-122240724D01*
X50331479Y-122190228D01*
X50334108Y-122187256D01*
X50300681Y-121959852D01*
X50092978Y-121567491D01*
X50028790Y-121471867D01*
X49817960Y-121239711D01*
X49526688Y-121111732D01*
X49048519Y-121057362D01*
X48276998Y-121046032D01*
X46800000Y-121046032D01*
X46800000Y-120451805D01*
X46812253Y-120166150D01*
X46918182Y-119948370D01*
X47219955Y-119847040D01*
X47819521Y-119796646D01*
X48839042Y-119735715D01*
X48405005Y-119181349D01*
X48006135Y-118804696D01*
X47385483Y-118626984D01*
X47082704Y-118608884D01*
X46850018Y-118450944D01*
X46800000Y-118022222D01*
X46800001Y-118019720D01*
X46870323Y-117593036D01*
X47039999Y-117417461D01*
X47179144Y-117375306D01*
X47039999Y-117175556D01*
X46949433Y-117003009D01*
X46841923Y-116498182D01*
X46816842Y-116104773D01*
X48071423Y-116104773D01*
X48169818Y-116281781D01*
X48468613Y-116763345D01*
X48934163Y-117490709D01*
X49535027Y-118415236D01*
X50239763Y-119488288D01*
X51016929Y-120661228D01*
X53847033Y-124914560D01*
X54222198Y-124341010D01*
X54250819Y-124296793D01*
X54496926Y-123870086D01*
X54598682Y-123606090D01*
X54543107Y-123490016D01*
X54293871Y-123074948D01*
X53872292Y-122408100D01*
X53308938Y-121537061D01*
X52634381Y-120509418D01*
X51879190Y-119372757D01*
X51346796Y-118578124D01*
X50616637Y-117495594D01*
X49972710Y-116549384D01*
X49449078Y-115789179D01*
X49079801Y-115264662D01*
X48898940Y-115025520D01*
X48769079Y-114913748D01*
X48564641Y-114935640D01*
X48297760Y-115275948D01*
X48091148Y-115733194D01*
X48071423Y-116104773D01*
X46816842Y-116104773D01*
X46800000Y-115840598D01*
X46807031Y-115487680D01*
X46857953Y-115065528D01*
X46989725Y-114644540D01*
X47238738Y-114141333D01*
X47621096Y-113506219D01*
X49552360Y-113506219D01*
X52509563Y-117911726D01*
X55466766Y-122317232D01*
X55833383Y-121860887D01*
X56083004Y-121484352D01*
X56200000Y-121160082D01*
X56128705Y-120998781D01*
X55860543Y-120536006D01*
X55421591Y-119826666D01*
X54842023Y-118918544D01*
X54152015Y-117859427D01*
X53381740Y-116697097D01*
X52749628Y-115752523D01*
X52027794Y-114678098D01*
X51401762Y-113750936D01*
X50903305Y-113017915D01*
X50564197Y-112525913D01*
X50416212Y-112321809D01*
X50379727Y-112304041D01*
X50172296Y-112445242D01*
X49910651Y-112835633D01*
X49552360Y-113506219D01*
X47621096Y-113506219D01*
X47641383Y-113472522D01*
X48234051Y-112554725D01*
X49668102Y-110361905D01*
X50555449Y-110361905D01*
X51072841Y-110383809D01*
G37*
%TD*%
M02*
