%TF.GenerationSoftware,KiCad,Pcbnew,9.0.2-9.0.2-0~ubuntu24.04.1*%
%TF.CreationDate,2025-05-22T11:35:45-04:00*%
%TF.ProjectId,drone_sim_controler,64726f6e-655f-4736-996d-5f636f6e7472,rev?*%
%TF.SameCoordinates,Original*%
%TF.FileFunction,Copper,L1,Top*%
%TF.FilePolarity,Positive*%
%FSLAX46Y46*%
G04 Gerber Fmt 4.6, Leading zero omitted, Abs format (unit mm)*
G04 Created by KiCad (PCBNEW 9.0.2-9.0.2-0~ubuntu24.04.1) date 2025-05-22 11:35:45*
%MOMM*%
%LPD*%
G01*
G04 APERTURE LIST*
G04 Aperture macros list*
%AMRoundRect*
0 Rectangle with rounded corners*
0 $1 Rounding radius*
0 $2 $3 $4 $5 $6 $7 $8 $9 X,Y pos of 4 corners*
0 Add a 4 corners polygon primitive as box body*
4,1,4,$2,$3,$4,$5,$6,$7,$8,$9,$2,$3,0*
0 Add four circle primitives for the rounded corners*
1,1,$1+$1,$2,$3*
1,1,$1+$1,$4,$5*
1,1,$1+$1,$6,$7*
1,1,$1+$1,$8,$9*
0 Add four rect primitives between the rounded corners*
20,1,$1+$1,$2,$3,$4,$5,0*
20,1,$1+$1,$4,$5,$6,$7,0*
20,1,$1+$1,$6,$7,$8,$9,0*
20,1,$1+$1,$8,$9,$2,$3,0*%
G04 Aperture macros list end*
%TA.AperFunction,SMDPad,CuDef*%
%ADD10RoundRect,0.225000X0.225000X0.250000X-0.225000X0.250000X-0.225000X-0.250000X0.225000X-0.250000X0*%
%TD*%
%TA.AperFunction,SMDPad,CuDef*%
%ADD11C,1.000000*%
%TD*%
%TA.AperFunction,SMDPad,CuDef*%
%ADD12RoundRect,0.200000X0.200000X0.275000X-0.200000X0.275000X-0.200000X-0.275000X0.200000X-0.275000X0*%
%TD*%
%TA.AperFunction,SMDPad,CuDef*%
%ADD13RoundRect,0.225000X0.250000X-0.225000X0.250000X0.225000X-0.250000X0.225000X-0.250000X-0.225000X0*%
%TD*%
%TA.AperFunction,SMDPad,CuDef*%
%ADD14RoundRect,0.225000X-0.250000X0.225000X-0.250000X-0.225000X0.250000X-0.225000X0.250000X0.225000X0*%
%TD*%
%TA.AperFunction,SMDPad,CuDef*%
%ADD15RoundRect,0.200000X-0.200000X-0.275000X0.200000X-0.275000X0.200000X0.275000X-0.200000X0.275000X0*%
%TD*%
%TA.AperFunction,SMDPad,CuDef*%
%ADD16R,0.600000X1.100000*%
%TD*%
%TA.AperFunction,SMDPad,CuDef*%
%ADD17R,0.300000X1.100000*%
%TD*%
%TA.AperFunction,ComponentPad*%
%ADD18RoundRect,0.500000X-0.000010X0.400000X-0.000010X-0.400000X0.000010X-0.400000X0.000010X0.400000X0*%
%TD*%
%TA.AperFunction,ComponentPad*%
%ADD19RoundRect,0.500000X-0.000010X0.600000X-0.000010X-0.600000X0.000010X-0.600000X0.000010X0.600000X0*%
%TD*%
%TA.AperFunction,SMDPad,CuDef*%
%ADD20RoundRect,0.090000X-0.235000X0.210000X-0.235000X-0.210000X0.235000X-0.210000X0.235000X0.210000X0*%
%TD*%
%TA.AperFunction,SMDPad,CuDef*%
%ADD21RoundRect,0.200000X-0.275000X0.200000X-0.275000X-0.200000X0.275000X-0.200000X0.275000X0.200000X0*%
%TD*%
%TA.AperFunction,SMDPad,CuDef*%
%ADD22RoundRect,0.250000X1.075000X-0.375000X1.075000X0.375000X-1.075000X0.375000X-1.075000X-0.375000X0*%
%TD*%
%TA.AperFunction,ComponentPad*%
%ADD23C,2.000000*%
%TD*%
%TA.AperFunction,SMDPad,CuDef*%
%ADD24RoundRect,0.062500X0.350000X0.062500X-0.350000X0.062500X-0.350000X-0.062500X0.350000X-0.062500X0*%
%TD*%
%TA.AperFunction,SMDPad,CuDef*%
%ADD25RoundRect,0.062500X-0.062500X0.117500X-0.062500X-0.117500X0.062500X-0.117500X0.062500X0.117500X0*%
%TD*%
%TA.AperFunction,SMDPad,CuDef*%
%ADD26RoundRect,0.050000X-0.350000X-0.050000X0.350000X-0.050000X0.350000X0.050000X-0.350000X0.050000X0*%
%TD*%
%TA.AperFunction,SMDPad,CuDef*%
%ADD27RoundRect,0.050000X-0.050000X-0.350000X0.050000X-0.350000X0.050000X0.350000X-0.050000X0.350000X0*%
%TD*%
%TA.AperFunction,HeatsinkPad*%
%ADD28R,4.000000X4.000000*%
%TD*%
%TA.AperFunction,ComponentPad*%
%ADD29C,1.778000*%
%TD*%
%TA.AperFunction,ComponentPad*%
%ADD30C,2.286000*%
%TD*%
%TA.AperFunction,SMDPad,CuDef*%
%ADD31O,0.599999X0.249999*%
%TD*%
%TA.AperFunction,ComponentPad*%
%ADD32C,0.499999*%
%TD*%
%TA.AperFunction,SMDPad,CuDef*%
%ADD33R,1.200000X2.000001*%
%TD*%
%TA.AperFunction,SMDPad,CuDef*%
%ADD34RoundRect,0.157500X-0.567500X-0.367500X0.567500X-0.367500X0.567500X0.367500X-0.567500X0.367500X0*%
%TD*%
%TA.AperFunction,SMDPad,CuDef*%
%ADD35RoundRect,0.225000X-0.225000X-0.250000X0.225000X-0.250000X0.225000X0.250000X-0.225000X0.250000X0*%
%TD*%
%TA.AperFunction,ComponentPad*%
%ADD36R,1.700000X1.700000*%
%TD*%
%TA.AperFunction,ComponentPad*%
%ADD37C,1.700000*%
%TD*%
%TA.AperFunction,SMDPad,CuDef*%
%ADD38RoundRect,0.200000X0.275000X-0.200000X0.275000X0.200000X-0.275000X0.200000X-0.275000X-0.200000X0*%
%TD*%
%TA.AperFunction,ViaPad*%
%ADD39C,0.500000*%
%TD*%
%TA.AperFunction,ViaPad*%
%ADD40C,0.600000*%
%TD*%
%TA.AperFunction,Conductor*%
%ADD41C,0.200000*%
%TD*%
%TA.AperFunction,Conductor*%
%ADD42C,0.500000*%
%TD*%
%TA.AperFunction,Conductor*%
%ADD43C,0.445000*%
%TD*%
G04 APERTURE END LIST*
D10*
%TO.P,C5,1*%
%TO.N,+3V3*%
X88975000Y-132200000D03*
%TO.P,C5,2*%
%TO.N,GND*%
X87425000Y-132200000D03*
%TD*%
D11*
%TO.P,TP8,1,1*%
%TO.N,Net-(U1-DAC_2)*%
X97600000Y-143800000D03*
%TD*%
D12*
%TO.P,R7,1*%
%TO.N,LED_G*%
X89025000Y-141200000D03*
%TO.P,R7,2*%
%TO.N,Net-(D2-GA)*%
X87375000Y-141200000D03*
%TD*%
D10*
%TO.P,C4,1*%
%TO.N,+3V3*%
X88975000Y-135200000D03*
%TO.P,C4,2*%
%TO.N,GND*%
X87425000Y-135200000D03*
%TD*%
D13*
%TO.P,C29,1*%
%TO.N,+3V3*%
X58100000Y-126475000D03*
%TO.P,C29,2*%
%TO.N,GND*%
X58100000Y-124925000D03*
%TD*%
D11*
%TO.P,TP4,1,1*%
%TO.N,Net-(U1-GPIO34)*%
X102500000Y-136000000D03*
%TD*%
%TO.P,TP1,1,1*%
%TO.N,Net-(U1-GPIO33)*%
X104500000Y-136000000D03*
%TD*%
D10*
%TO.P,C7,1*%
%TO.N,+3V3*%
X88975000Y-133700000D03*
%TO.P,C7,2*%
%TO.N,GND*%
X87425000Y-133700000D03*
%TD*%
D11*
%TO.P,TP18,1,1*%
%TO.N,RS_SW*%
X114000000Y-146400000D03*
%TD*%
%TO.P,TP7,1,1*%
%TO.N,Net-(U1-GPIO21)*%
X101600000Y-141100000D03*
%TD*%
D14*
%TO.P,C14,1*%
%TO.N,Net-(U1-XTAL_N)*%
X100900000Y-126125000D03*
%TO.P,C14,2*%
%TO.N,GND*%
X100900000Y-127675000D03*
%TD*%
D15*
%TO.P,R10,1*%
%TO.N,+3V3*%
X118975000Y-137600000D03*
%TO.P,R10,2*%
%TO.N,RS_SW*%
X120625000Y-137600000D03*
%TD*%
D11*
%TO.P,TP5,1,1*%
%TO.N,Net-(U1-GPIO36)*%
X102500000Y-134000000D03*
%TD*%
D15*
%TO.P,R9,1*%
%TO.N,+3V3*%
X59075000Y-137600000D03*
%TO.P,R9,2*%
%TO.N,LS_SW*%
X60725000Y-137600000D03*
%TD*%
%TO.P,R12,1*%
%TO.N,+3V3*%
X96175000Y-150200000D03*
%TO.P,R12,2*%
%TO.N,BTN_2*%
X97825000Y-150200000D03*
%TD*%
%TO.P,R11,1*%
%TO.N,+3V3*%
X82475000Y-145600000D03*
%TO.P,R11,2*%
%TO.N,BTN_1*%
X84125000Y-145600000D03*
%TD*%
D16*
%TO.P,J1,A1,GND*%
%TO.N,GND*%
X71080000Y-125150000D03*
%TO.P,J1,A4,VBUS*%
%TO.N,+5V*%
X70280000Y-125150000D03*
D17*
%TO.P,J1,A5,CC1*%
%TO.N,Net-(J1-CC1)*%
X69130000Y-125150000D03*
%TO.P,J1,A6,D+*%
%TO.N,/USB_C_P*%
X68125000Y-125150000D03*
%TO.P,J1,A7,D-*%
%TO.N,/USB_C_N*%
X67630000Y-125150000D03*
%TO.P,J1,A8*%
%TO.N,N/C*%
X66630000Y-125150000D03*
D16*
%TO.P,J1,B1,GND*%
%TO.N,GND*%
X64680000Y-125150000D03*
%TO.P,J1,B4,VBUS*%
%TO.N,+5V*%
X65480000Y-125150000D03*
D17*
%TO.P,J1,B5,CC2*%
%TO.N,Net-(J1-CC2)*%
X66130000Y-125150000D03*
%TO.P,J1,B6,D+*%
%TO.N,/USB_C_P*%
X67130000Y-125150000D03*
%TO.P,J1,B7,D-*%
%TO.N,/USB_C_N*%
X68630000Y-125150000D03*
%TO.P,J1,B8*%
%TO.N,N/C*%
X69630000Y-125150000D03*
D18*
%TO.P,J1,S,SHIELD*%
%TO.N,GNDS*%
X73500000Y-124000000D03*
D19*
X73500000Y-120000000D03*
D18*
X62260000Y-124000000D03*
D19*
X62260000Y-120000000D03*
%TD*%
D12*
%TO.P,R8,1*%
%TO.N,LED_B*%
X89025000Y-139700000D03*
%TO.P,R8,2*%
%TO.N,Net-(D2-BA)*%
X87375000Y-139700000D03*
%TD*%
D20*
%TO.P,D2,1,GA*%
%TO.N,Net-(D2-GA)*%
X81700000Y-135500000D03*
%TO.P,D2,2,RA*%
%TO.N,Net-(D2-RA)*%
X82600000Y-135500000D03*
%TO.P,D2,3,BA*%
%TO.N,Net-(D2-BA)*%
X81700000Y-134100000D03*
%TO.P,D2,4,K*%
%TO.N,GND*%
X82600000Y-134100000D03*
%TD*%
D21*
%TO.P,R4,1*%
%TO.N,GNDS*%
X59000000Y-120875000D03*
%TO.P,R4,2*%
%TO.N,GND*%
X59000000Y-122525000D03*
%TD*%
D13*
%TO.P,C15,1*%
%TO.N,Net-(U1-XTAL_P)*%
X94600000Y-127775000D03*
%TO.P,C15,2*%
%TO.N,GND*%
X94600000Y-126225000D03*
%TD*%
D11*
%TO.P,TP11,1,1*%
%TO.N,Net-(U1-GPIO8)*%
X83300000Y-151500000D03*
%TD*%
D10*
%TO.P,C9,1*%
%TO.N,+3V3*%
X88975000Y-138200000D03*
%TO.P,C9,2*%
%TO.N,GND*%
X87425000Y-138200000D03*
%TD*%
D22*
%TO.P,L1,1,1*%
%TO.N,Net-(U3-L1)*%
X56200000Y-130900000D03*
%TO.P,L1,2,2*%
%TO.N,Net-(U3-L2)*%
X56200000Y-128100000D03*
%TD*%
D11*
%TO.P,TP6,1,1*%
%TO.N,Net-(U1-GPIO37)*%
X104500000Y-132000000D03*
%TD*%
D23*
%TO.P,SW2,1,1*%
%TO.N,BTN_2*%
X100250000Y-145578497D03*
%TO.P,SW2,2,2*%
%TO.N,unconnected-(SW2-Pad2)*%
X100250000Y-150078497D03*
%TO.P,SW2,3,K*%
%TO.N,unconnected-(SW2-K-Pad3)*%
X106750000Y-145578497D03*
%TO.P,SW2,4,A*%
%TO.N,GND*%
X106750000Y-150078497D03*
%TD*%
D11*
%TO.P,TP14,1,1*%
%TO.N,+3V3*%
X62600000Y-132800000D03*
%TD*%
%TO.P,TP15,1,1*%
%TO.N,GND*%
X66200000Y-132800000D03*
%TD*%
%TO.P,TP17,1,1*%
%TO.N,BTN_2*%
X97500000Y-152300000D03*
%TD*%
%TO.P,TP12,1,1*%
%TO.N,Net-(U1-GPIO7)*%
X83300000Y-149500000D03*
%TD*%
D14*
%TO.P,C13,1*%
%TO.N,GNDS*%
X57500000Y-120925000D03*
%TO.P,C13,2*%
%TO.N,GND*%
X57500000Y-122475000D03*
%TD*%
D13*
%TO.P,C8,1*%
%TO.N,+3V3*%
X91600000Y-127775000D03*
%TO.P,C8,2*%
%TO.N,GND*%
X91600000Y-126225000D03*
%TD*%
D12*
%TO.P,R6,1*%
%TO.N,LED_R*%
X89025000Y-142700000D03*
%TO.P,R6,2*%
%TO.N,Net-(D2-RA)*%
X87375000Y-142700000D03*
%TD*%
D11*
%TO.P,TP21,1,1*%
%TO.N,LS_SW*%
X53600000Y-146300000D03*
%TD*%
%TO.P,TP22,1,1*%
%TO.N,LS_Y*%
X53600000Y-150300000D03*
%TD*%
D24*
%TO.P,U2,1,D+_in*%
%TO.N,USB_P*%
X71687500Y-132300000D03*
%TO.P,U2,2,D-_in*%
%TO.N,USB_N*%
X71687500Y-131800000D03*
%TO.P,U2,3,GND*%
%TO.N,GND*%
X71687500Y-131300000D03*
%TO.P,U2,4,NC*%
%TO.N,unconnected-(U2-NC-Pad4)*%
X70312500Y-131300000D03*
%TO.P,U2,5,D-_out*%
%TO.N,/USB_C_N*%
X70312500Y-131800000D03*
%TO.P,U2,6,D+_out*%
%TO.N,/USB_C_P*%
X70312500Y-132300000D03*
%TD*%
D21*
%TO.P,R2,1*%
%TO.N,Net-(J1-CC2)*%
X66100000Y-128375000D03*
%TO.P,R2,2*%
%TO.N,GND*%
X66100000Y-130025000D03*
%TD*%
D25*
%TO.P,D1,1,A1*%
%TO.N,GND*%
X72000000Y-129520000D03*
%TO.P,D1,2,A2*%
%TO.N,+5V*%
X72000000Y-128680000D03*
%TD*%
D26*
%TO.P,U1,1,VDDA*%
%TO.N,+3V3*%
X93000000Y-134100000D03*
%TO.P,U1,2,LNA_IN*%
%TO.N,unconnected-(U1-LNA_IN-Pad2)*%
X93000000Y-134500000D03*
%TO.P,U1,3,VDD3P3*%
%TO.N,+3V3*%
X93000000Y-134900000D03*
%TO.P,U1,4,VDD3P3*%
X93000000Y-135300000D03*
%TO.P,U1,5,GPIO0*%
%TO.N,ESP_IO0*%
X93000000Y-135700000D03*
%TO.P,U1,6,GPIO1*%
%TO.N,LS_X*%
X93000000Y-136100000D03*
%TO.P,U1,7,GPIO2*%
%TO.N,LS_Y*%
X93000000Y-136500000D03*
%TO.P,U1,8,GPIO3*%
%TO.N,RS_X*%
X93000000Y-136900000D03*
%TO.P,U1,9,GPIO4*%
%TO.N,RS_Y*%
X93000000Y-137300000D03*
%TO.P,U1,10,GPIO5*%
%TO.N,LS_SW*%
X93000000Y-137700000D03*
%TO.P,U1,11,GPIO6*%
%TO.N,RS_SW*%
X93000000Y-138100000D03*
%TO.P,U1,12,GPIO7*%
%TO.N,Net-(U1-GPIO7)*%
X93000000Y-138500000D03*
%TO.P,U1,13,GPIO8*%
%TO.N,Net-(U1-GPIO8)*%
X93000000Y-138900000D03*
%TO.P,U1,14,GPIO9*%
%TO.N,LED_B*%
X93000000Y-139300000D03*
D27*
%TO.P,U1,15,GPIO10*%
%TO.N,LED_G*%
X93850000Y-140150000D03*
%TO.P,U1,16,GPIO11*%
%TO.N,LED_R*%
X94250000Y-140150000D03*
%TO.P,U1,17,GPIO12*%
%TO.N,BTN_1*%
X94650000Y-140150000D03*
%TO.P,U1,18,GPIO13*%
%TO.N,BTN_2*%
X95050000Y-140150000D03*
%TO.P,U1,19,GPIO14*%
%TO.N,Net-(U1-GPIO14)*%
X95450000Y-140150000D03*
%TO.P,U1,20,VDD3P3_RTC*%
%TO.N,+3V3*%
X95850000Y-140150000D03*
%TO.P,U1,21,XTAL_32K_P*%
%TO.N,unconnected-(U1-XTAL_32K_P-Pad21)*%
X96250000Y-140150000D03*
%TO.P,U1,22,XTAL_32K_N*%
%TO.N,unconnected-(U1-XTAL_32K_N-Pad22)*%
X96650000Y-140150000D03*
%TO.P,U1,23,DAC_1*%
%TO.N,Net-(U1-DAC_1)*%
X97050000Y-140150000D03*
%TO.P,U1,24,DAC_2*%
%TO.N,Net-(U1-DAC_2)*%
X97450000Y-140150000D03*
%TO.P,U1,25,GPIO19/USB_D-*%
%TO.N,USB_N*%
X97850000Y-140150000D03*
%TO.P,U1,26,GPIO20/USB_D+*%
%TO.N,USB_P*%
X98250000Y-140150000D03*
%TO.P,U1,27,VDD3P3_RTC_IO*%
%TO.N,+3V3*%
X98650000Y-140150000D03*
%TO.P,U1,28,GPIO21*%
%TO.N,Net-(U1-GPIO21)*%
X99050000Y-140150000D03*
D26*
%TO.P,U1,29,SPICS1*%
%TO.N,unconnected-(U1-SPICS1-Pad29)*%
X99900000Y-139300000D03*
%TO.P,U1,30,VDD_SPI*%
%TO.N,+3V3*%
X99900000Y-138900000D03*
%TO.P,U1,31,SPIHD*%
%TO.N,unconnected-(U1-SPIHD-Pad31)*%
X99900000Y-138500000D03*
%TO.P,U1,32,SPIWP*%
%TO.N,unconnected-(U1-SPIWP-Pad32)*%
X99900000Y-138100000D03*
%TO.P,U1,33,SPICS0*%
%TO.N,unconnected-(U1-SPICS0-Pad33)*%
X99900000Y-137700000D03*
%TO.P,U1,34,SPICLK*%
%TO.N,unconnected-(U1-SPICLK-Pad34)*%
X99900000Y-137300000D03*
%TO.P,U1,35,SPIQ*%
%TO.N,unconnected-(U1-SPIQ-Pad35)*%
X99900000Y-136900000D03*
%TO.P,U1,36,SPID*%
%TO.N,unconnected-(U1-SPID-Pad36)*%
X99900000Y-136500000D03*
%TO.P,U1,37,GPIO33*%
%TO.N,Net-(U1-GPIO33)*%
X99900000Y-136100000D03*
%TO.P,U1,38,GPIO34*%
%TO.N,Net-(U1-GPIO34)*%
X99900000Y-135700000D03*
%TO.P,U1,39,GPIO35*%
%TO.N,Net-(U1-GPIO35)*%
X99900000Y-135300000D03*
%TO.P,U1,40,GPIO36*%
%TO.N,Net-(U1-GPIO36)*%
X99900000Y-134900000D03*
%TO.P,U1,41,GPIO37*%
%TO.N,Net-(U1-GPIO37)*%
X99900000Y-134500000D03*
%TO.P,U1,42,GPIO38*%
%TO.N,Net-(U1-GPIO38)*%
X99900000Y-134100000D03*
D27*
%TO.P,U1,43,MTCK*%
%TO.N,MTCK*%
X99050000Y-133250000D03*
%TO.P,U1,44,MTD0*%
%TO.N,MTD0*%
X98650000Y-133250000D03*
%TO.P,U1,45,VDD3P3_CPU*%
%TO.N,+3V3*%
X98250000Y-133250000D03*
%TO.P,U1,46,MDTI*%
%TO.N,MTDI*%
X97850000Y-133250000D03*
%TO.P,U1,47,MTMS*%
%TO.N,MTMS*%
X97450000Y-133250000D03*
%TO.P,U1,48,U0TXD*%
%TO.N,ESP_TX*%
X97050000Y-133250000D03*
%TO.P,U1,49,U0RXD*%
%TO.N,ESP_RX*%
X96650000Y-133250000D03*
%TO.P,U1,50,GPIO45*%
%TO.N,GND*%
X96250000Y-133250000D03*
%TO.P,U1,51,VDDA*%
%TO.N,+3V3*%
X95850000Y-133250000D03*
%TO.P,U1,52,XTAL_N*%
%TO.N,Net-(U1-XTAL_N)*%
X95450000Y-133250000D03*
%TO.P,U1,53,XTAL_P*%
%TO.N,Net-(U1-XTAL_P)*%
X95050000Y-133250000D03*
%TO.P,U1,54,VDDA*%
%TO.N,+3V3*%
X94650000Y-133250000D03*
%TO.P,U1,55,GPIO46*%
%TO.N,GND*%
X94250000Y-133250000D03*
%TO.P,U1,56,CHIP_PU*%
%TO.N,RST*%
X93850000Y-133250000D03*
D28*
%TO.P,U1,57,GND*%
%TO.N,GND*%
X96450000Y-136700000D03*
%TD*%
D29*
%TO.P,JS2,B1A,SW_COM*%
%TO.N,RS_SW*%
X123525000Y-137585200D03*
%TO.P,JS2,B1B,SW_NO*%
%TO.N,unconnected-(JS2-SW_NO-PadB1B)*%
X129875000Y-137605000D03*
%TO.P,JS2,B2A,SW_COM*%
%TO.N,unconnected-(JS2-SW_COM-PadB2A)*%
X123525000Y-142525200D03*
%TO.P,JS2,B2B,SW_NO*%
%TO.N,GND*%
X129885000Y-142545200D03*
%TO.P,JS2,H1,Y_LO*%
X124175000Y-157275200D03*
%TO.P,JS2,H2,Y_W*%
%TO.N,RS_Y*%
X126715000Y-157295200D03*
%TO.P,JS2,H3,Y_HI*%
%TO.N,+3V3*%
X129255000Y-157275200D03*
D30*
%TO.P,JS2,S,SHLD*%
%TO.N,GNDS*%
X120350000Y-143335200D03*
X120350000Y-153465200D03*
X133050000Y-143320000D03*
X133050000Y-153480000D03*
D29*
%TO.P,JS2,V1,X_LO*%
%TO.N,GND*%
X117810000Y-145860000D03*
%TO.P,JS2,V2,X_W*%
%TO.N,RS_X*%
X117795000Y-148385200D03*
%TO.P,JS2,V3,X_HI*%
%TO.N,+3V3*%
X117795000Y-150925200D03*
%TD*%
D11*
%TO.P,TP9,1,1*%
%TO.N,Net-(U1-DAC_1)*%
X97600000Y-145800000D03*
%TD*%
%TO.P,TP16,1,1*%
%TO.N,BTN_1*%
X83300000Y-147500000D03*
%TD*%
D13*
%TO.P,C1,1*%
%TO.N,+3V3*%
X102400000Y-127675000D03*
%TO.P,C1,2*%
%TO.N,GND*%
X102400000Y-126125000D03*
%TD*%
D11*
%TO.P,TP10,1,1*%
%TO.N,Net-(U1-GPIO14)*%
X97600000Y-147800000D03*
%TD*%
%TO.P,TP13,1,1*%
%TO.N,+5V*%
X58700000Y-132800000D03*
%TD*%
D31*
%TO.P,U3,1,VOUT*%
%TO.N,+3V3*%
X58550000Y-127799997D03*
%TO.P,U3,2,L2*%
%TO.N,Net-(U3-L2)*%
X58550000Y-128299998D03*
%TO.P,U3,3,PGND*%
%TO.N,GND*%
X58550000Y-128799997D03*
%TO.P,U3,4,L1*%
%TO.N,Net-(U3-L1)*%
X58550000Y-129299996D03*
%TO.P,U3,5,VIN*%
%TO.N,+5V*%
X58550000Y-129799998D03*
%TO.P,U3,6,EN*%
X60850000Y-129799998D03*
%TO.P,U3,7,PS/SYNC*%
X60850000Y-129299996D03*
%TO.P,U3,8,VINA*%
X60850000Y-128799997D03*
%TO.P,U3,9,GND*%
%TO.N,GND*%
X60850000Y-128299998D03*
%TO.P,U3,10,FB*%
%TO.N,+3V3*%
X60850000Y-127799997D03*
D32*
%TO.P,U3,11,EXP*%
%TO.N,GND*%
X59700000Y-128406300D03*
D33*
X59700000Y-128800000D03*
D32*
X59700000Y-129193700D03*
%TD*%
D34*
%TO.P,Y1,1,1*%
%TO.N,Net-(U1-XTAL_P)*%
X96700000Y-127900000D03*
%TO.P,Y1,2,2*%
%TO.N,GND*%
X98850000Y-127900000D03*
%TO.P,Y1,3,3*%
%TO.N,Net-(U1-XTAL_N)*%
X98850000Y-126050000D03*
%TO.P,Y1,4,4*%
%TO.N,GND*%
X96700000Y-126050000D03*
%TD*%
D11*
%TO.P,TP24,1,1*%
%TO.N,Net-(D2-BA)*%
X79900000Y-132100000D03*
%TD*%
D21*
%TO.P,R3,1*%
%TO.N,Net-(J1-CC1)*%
X69400000Y-128375000D03*
%TO.P,R3,2*%
%TO.N,GND*%
X69400000Y-130025000D03*
%TD*%
D35*
%TO.P,C2,1*%
%TO.N,+3V3*%
X102562500Y-139262500D03*
%TO.P,C2,2*%
%TO.N,GND*%
X104112500Y-139262500D03*
%TD*%
D11*
%TO.P,TP25,1,1*%
%TO.N,Net-(D2-GA)*%
X79900000Y-134100000D03*
%TD*%
%TO.P,TP20,1,1*%
%TO.N,RS_X*%
X114000000Y-148400000D03*
%TD*%
%TO.P,TP3,1,1*%
%TO.N,Net-(U1-GPIO38)*%
X102500000Y-132000000D03*
%TD*%
D36*
%TO.P,J3,1,Pin_1*%
%TO.N,MTD0*%
X125085000Y-123605000D03*
D37*
%TO.P,J3,2,Pin_2*%
%TO.N,MTCK*%
X127625000Y-123605000D03*
%TO.P,J3,3,Pin_3*%
%TO.N,MTMS*%
X125085000Y-126145000D03*
%TO.P,J3,4,Pin_4*%
%TO.N,MTDI*%
X127625000Y-126145000D03*
%TD*%
D23*
%TO.P,SW1,1,1*%
%TO.N,BTN_1*%
X86700000Y-145578497D03*
%TO.P,SW1,2,2*%
%TO.N,unconnected-(SW1-Pad2)*%
X86700000Y-150078497D03*
%TO.P,SW1,3,K*%
%TO.N,unconnected-(SW1-K-Pad3)*%
X93200000Y-145578497D03*
%TO.P,SW1,4,A*%
%TO.N,GND*%
X93200000Y-150078497D03*
%TD*%
D11*
%TO.P,TP23,1,1*%
%TO.N,LS_X*%
X53600000Y-148300000D03*
%TD*%
D13*
%TO.P,C12,1*%
%TO.N,+3V3*%
X103900000Y-127675000D03*
%TO.P,C12,2*%
%TO.N,GND*%
X103900000Y-126125000D03*
%TD*%
D11*
%TO.P,TP19,1,1*%
%TO.N,RS_Y*%
X114000000Y-150400000D03*
%TD*%
D29*
%TO.P,JS1,B1A,SW_COM*%
%TO.N,LS_SW*%
X63525000Y-137585200D03*
%TO.P,JS1,B1B,SW_NO*%
%TO.N,unconnected-(JS1-SW_NO-PadB1B)*%
X69875000Y-137605000D03*
%TO.P,JS1,B2A,SW_COM*%
%TO.N,unconnected-(JS1-SW_COM-PadB2A)*%
X63525000Y-142525200D03*
%TO.P,JS1,B2B,SW_NO*%
%TO.N,GND*%
X69885000Y-142545200D03*
%TO.P,JS1,H1,Y_LO*%
X64175000Y-157275200D03*
%TO.P,JS1,H2,Y_W*%
%TO.N,LS_Y*%
X66715000Y-157295200D03*
%TO.P,JS1,H3,Y_HI*%
%TO.N,+3V3*%
X69255000Y-157275200D03*
D30*
%TO.P,JS1,S,SHLD*%
%TO.N,GNDS*%
X60350000Y-143335200D03*
X60350000Y-153465200D03*
X73050000Y-143320000D03*
X73050000Y-153480000D03*
D29*
%TO.P,JS1,V1,X_LO*%
%TO.N,GND*%
X57810000Y-145860000D03*
%TO.P,JS1,V2,X_W*%
%TO.N,LS_X*%
X57795000Y-148385200D03*
%TO.P,JS1,V3,X_HI*%
%TO.N,+3V3*%
X57795000Y-150925200D03*
%TD*%
D13*
%TO.P,C6,1*%
%TO.N,+3V3*%
X93100000Y-127775000D03*
%TO.P,C6,2*%
%TO.N,GND*%
X93100000Y-126225000D03*
%TD*%
D11*
%TO.P,TP26,1,1*%
%TO.N,Net-(D2-RA)*%
X79900000Y-136100000D03*
%TD*%
D36*
%TO.P,J2,1,Pin_1*%
%TO.N,GND*%
X118860000Y-123600000D03*
D37*
%TO.P,J2,2,Pin_2*%
%TO.N,+3V3*%
X121400000Y-123600000D03*
%TO.P,J2,3,Pin_3*%
%TO.N,RST*%
X118860000Y-126140000D03*
%TO.P,J2,4,Pin_4*%
%TO.N,ESP_TX*%
X121400000Y-126140000D03*
%TO.P,J2,5,Pin_5*%
%TO.N,ESP_IO0*%
X118860000Y-128680000D03*
%TO.P,J2,6,Pin_6*%
%TO.N,ESP_RX*%
X121400000Y-128680000D03*
%TD*%
D10*
%TO.P,C10,1*%
%TO.N,+3V3*%
X88975000Y-130700000D03*
%TO.P,C10,2*%
%TO.N,GND*%
X87425000Y-130700000D03*
%TD*%
D11*
%TO.P,TP2,1,1*%
%TO.N,Net-(U1-GPIO35)*%
X104500000Y-134000000D03*
%TD*%
D10*
%TO.P,C3,1*%
%TO.N,+3V3*%
X88975000Y-136700000D03*
%TO.P,C3,2*%
%TO.N,GND*%
X87425000Y-136700000D03*
%TD*%
D13*
%TO.P,C25,1*%
%TO.N,+5V*%
X62200000Y-129675000D03*
%TO.P,C25,2*%
%TO.N,GND*%
X62200000Y-128125000D03*
%TD*%
D38*
%TO.P,R1,1*%
%TO.N,+3V3*%
X118900000Y-132850000D03*
%TO.P,R1,2*%
%TO.N,ESP_IO0*%
X118900000Y-131200000D03*
%TD*%
D15*
%TO.P,R5,1*%
%TO.N,+3V3*%
X87375000Y-129200000D03*
%TO.P,R5,2*%
%TO.N,RST*%
X89025000Y-129200000D03*
%TD*%
D35*
%TO.P,C11,1*%
%TO.N,+3V3*%
X102562500Y-137762500D03*
%TO.P,C11,2*%
%TO.N,GND*%
X104112500Y-137762500D03*
%TD*%
D39*
%TO.N,+3V3*%
X89600000Y-134500000D03*
X83200000Y-145600000D03*
X96975000Y-150200000D03*
X59000000Y-127100000D03*
X103100000Y-128400000D03*
X59800000Y-137700000D03*
X118900000Y-132100000D03*
X62600000Y-132800000D03*
X101837500Y-138562500D03*
X89500000Y-132900000D03*
X89600000Y-131400000D03*
X92300000Y-128500000D03*
X89500000Y-136000000D03*
X89600000Y-137500000D03*
X119800000Y-138500000D03*
%TO.N,GND*%
X69400000Y-129300000D03*
X63900000Y-125600000D03*
X71800000Y-126200000D03*
X96450000Y-136700000D03*
D40*
X88186773Y-132989136D03*
D39*
X58300000Y-121800000D03*
X66035967Y-129225000D03*
D40*
X101645827Y-126923002D03*
X95400000Y-126900000D03*
X88186773Y-134489136D03*
D39*
X63900000Y-126100000D03*
D40*
X103189812Y-126886271D03*
D39*
X71800000Y-125700000D03*
X71800000Y-125200000D03*
X66200000Y-132800000D03*
D40*
X97700000Y-127000000D03*
X103437896Y-138684373D03*
X88100000Y-136000000D03*
X88186773Y-137489136D03*
X92328504Y-127000534D03*
X88100000Y-131500000D03*
D39*
X63900000Y-125100000D03*
X58115685Y-125575000D03*
D40*
X93800000Y-126900000D03*
D39*
X83300000Y-134100000D03*
%TO.N,+5V*%
X65500000Y-127100000D03*
X70300000Y-127100000D03*
%TO.N,/USB_C_P*%
X68081376Y-126479815D03*
X66950000Y-126427951D03*
%TO.N,RST*%
X93200000Y-133500000D03*
%TO.N,ESP_RX*%
X96407658Y-132411619D03*
%TO.N,ESP_TX*%
X96890627Y-131904920D03*
%TO.N,ESP_IO0*%
X93930089Y-135341541D03*
%TO.N,MTMS*%
X97256341Y-131308048D03*
%TO.N,MTCK*%
X100303730Y-130942368D03*
%TO.N,MTDI*%
X97999999Y-131522183D03*
%TO.N,MTD0*%
X99731817Y-131346001D03*
%TO.N,RS_X*%
X92094977Y-136750000D03*
%TO.N,RS_Y*%
X91600000Y-137300000D03*
%TO.N,RS_SW*%
X93800000Y-138100000D03*
%TO.N,LS_SW*%
X89666909Y-138943369D03*
%TO.N,LS_Y*%
X93847582Y-136798485D03*
%TO.N,LS_X*%
X93911803Y-136086545D03*
%TO.N,Net-(U1-GPIO8)*%
X92000000Y-139150000D03*
X83300000Y-151500000D03*
%TO.N,Net-(U1-GPIO7)*%
X83300000Y-149500000D03*
X91200000Y-139150000D03*
%TD*%
D41*
%TO.N,+3V3*%
X88975000Y-130700000D02*
X88975000Y-130775000D01*
X95850000Y-133750000D02*
X95850000Y-133250000D01*
X88975000Y-138125000D02*
X89600000Y-137500000D01*
X88975000Y-136700000D02*
X88975000Y-136875000D01*
X93000000Y-134900000D02*
X90175000Y-134900000D01*
X89875000Y-135200000D02*
X88975000Y-135200000D01*
X59700000Y-137600000D02*
X59800000Y-137700000D01*
X59075000Y-137600000D02*
X59700000Y-137600000D01*
X93100000Y-130899999D02*
X93100000Y-127775000D01*
X96150000Y-139350000D02*
X98650000Y-139350000D01*
X93000000Y-135300000D02*
X90200000Y-135300000D01*
X103825000Y-127675000D02*
X103100000Y-128400000D01*
X102400000Y-127675000D02*
X102400000Y-127700000D01*
X88975000Y-132200000D02*
X88975000Y-132375000D01*
X98250000Y-132050000D02*
X98250000Y-133250000D01*
X102562500Y-137762500D02*
X102562500Y-137837500D01*
X98650000Y-139350000D02*
X99100000Y-138900000D01*
X94650000Y-133950000D02*
X94800000Y-134100000D01*
X88975000Y-132200000D02*
X88975000Y-132025000D01*
X88975000Y-133700000D02*
X88975000Y-133875000D01*
X88975000Y-135200000D02*
X88975000Y-135475000D01*
X94800000Y-134100000D02*
X95500000Y-134100000D01*
X60549003Y-127499000D02*
X58850997Y-127499000D01*
X88975000Y-136700000D02*
X89200000Y-136700000D01*
X90700000Y-134100000D02*
X89500000Y-132900000D01*
X88975000Y-135125000D02*
X89600000Y-134500000D01*
X88975000Y-135475000D02*
X89500000Y-136000000D01*
X95850000Y-139650000D02*
X96150000Y-139350000D01*
X102562500Y-139262500D02*
X102537500Y-139262500D01*
X88975000Y-133875000D02*
X89600000Y-134500000D01*
X58850997Y-127499000D02*
X58550000Y-127799997D01*
X102537500Y-139262500D02*
X101837500Y-138562500D01*
X90175000Y-134900000D02*
X89875000Y-135200000D01*
X93100000Y-127775000D02*
X93025000Y-127775000D01*
X98650000Y-140150000D02*
X98650000Y-139350000D01*
X88975000Y-138200000D02*
X88975000Y-138125000D01*
X92300000Y-128475000D02*
X91600000Y-127775000D01*
X118975000Y-137600000D02*
X118975000Y-137675000D01*
X88975000Y-132375000D02*
X89500000Y-132900000D01*
X88975000Y-130775000D02*
X89600000Y-131400000D01*
X102400000Y-127700000D02*
X103100000Y-128400000D01*
X102562500Y-137837500D02*
X101837500Y-138562500D01*
X88975000Y-135200000D02*
X88975000Y-135125000D01*
X58550000Y-127799997D02*
X58550000Y-126925000D01*
X58550000Y-126925000D02*
X58100000Y-126475000D01*
X96175000Y-150200000D02*
X96975000Y-150200000D01*
X88975000Y-133700000D02*
X88975000Y-133425000D01*
X95500000Y-134100000D02*
X95850000Y-133750000D01*
X94650000Y-132449999D02*
X93100000Y-130899999D01*
X58550000Y-127550000D02*
X59000000Y-127100000D01*
X93025000Y-127775000D02*
X92300000Y-128500000D01*
X94650000Y-133250000D02*
X94650000Y-132449999D01*
X95850000Y-140150000D02*
X95850000Y-139650000D01*
X88975000Y-136875000D02*
X89600000Y-137500000D01*
X99900000Y-138900000D02*
X101500000Y-138900000D01*
X58550000Y-127799997D02*
X58550000Y-127550000D01*
X88975000Y-130700000D02*
X88875000Y-130700000D01*
X83200000Y-145600000D02*
X82475000Y-145600000D01*
X88975000Y-132025000D02*
X89600000Y-131400000D01*
X60850000Y-127799997D02*
X60549003Y-127499000D01*
X88975000Y-136700000D02*
X88975000Y-136525000D01*
X88875000Y-130700000D02*
X87375000Y-129200000D01*
X93000000Y-134100000D02*
X90700000Y-134100000D01*
X118900000Y-132850000D02*
X118900000Y-132100000D01*
X118975000Y-137675000D02*
X119800000Y-138500000D01*
X88975000Y-136525000D02*
X89500000Y-136000000D01*
X101500000Y-138900000D02*
X101837500Y-138562500D01*
X92300000Y-128500000D02*
X92300000Y-128475000D01*
X103900000Y-127675000D02*
X103825000Y-127675000D01*
X90200000Y-135300000D02*
X89500000Y-136000000D01*
X88975000Y-133425000D02*
X89500000Y-132900000D01*
X99100000Y-138900000D02*
X99900000Y-138900000D01*
X102400000Y-127675000D02*
X102400000Y-127900000D01*
X94650000Y-133250000D02*
X94650000Y-133950000D01*
X102400000Y-127900000D02*
X98250000Y-132050000D01*
%TO.N,GND*%
X62200000Y-128125000D02*
X62025002Y-128299998D01*
X103900000Y-126125000D02*
X103900000Y-126176083D01*
X87475909Y-135200000D02*
X88186773Y-134489136D01*
X71780000Y-129300000D02*
X69400000Y-129300000D01*
X93100000Y-126225000D02*
X93125000Y-126225000D01*
X87425000Y-136727363D02*
X88186773Y-137489136D01*
X96700000Y-126050000D02*
X96250000Y-126050000D01*
X94250000Y-133250000D02*
X94250000Y-134500000D01*
X94475000Y-126225000D02*
X93800000Y-126900000D01*
X94600000Y-126225000D02*
X94725000Y-126225000D01*
X93100000Y-126229038D02*
X92328504Y-127000534D01*
X91600000Y-126272030D02*
X92328504Y-127000534D01*
X102400000Y-126125000D02*
X102428541Y-126125000D01*
X103490901Y-138684373D02*
X104069028Y-139262500D01*
X59000000Y-122500000D02*
X58300000Y-121800000D01*
X87425000Y-130825000D02*
X88100000Y-131500000D01*
X87425000Y-133700000D02*
X87475909Y-133700000D01*
X87425000Y-135325000D02*
X88100000Y-136000000D01*
X98600000Y-127900000D02*
X97700000Y-127000000D01*
X59314466Y-128799997D02*
X59314469Y-128800000D01*
X104069028Y-139262500D02*
X104112500Y-139262500D01*
X87475909Y-138200000D02*
X88186773Y-137489136D01*
X98850000Y-127900000D02*
X98600000Y-127900000D01*
X57500000Y-122475000D02*
X57625000Y-122475000D01*
X87425000Y-133700000D02*
X87425000Y-133727363D01*
X60850000Y-128299998D02*
X60200002Y-128299998D01*
X87425000Y-132200000D02*
X87425000Y-132175000D01*
X102400000Y-126125000D02*
X102400000Y-126168829D01*
X94600000Y-126225000D02*
X94475000Y-126225000D01*
X103437896Y-138684373D02*
X103437896Y-138392940D01*
X66100000Y-129289033D02*
X66035967Y-129225000D01*
X58100000Y-124925000D02*
X58100000Y-125559315D01*
X87425000Y-136700000D02*
X87425000Y-136675000D01*
X103900000Y-126176083D02*
X103189812Y-126886271D01*
X59000000Y-122525000D02*
X59000000Y-122500000D01*
X72000000Y-129520000D02*
X71780000Y-129300000D01*
X87425000Y-133727363D02*
X88186773Y-134489136D01*
X102428541Y-126125000D02*
X103189812Y-126886271D01*
X96750000Y-126050000D02*
X97700000Y-127000000D01*
X87425000Y-132227363D02*
X88186773Y-132989136D01*
X82600000Y-134100000D02*
X83300000Y-134100000D01*
X69400000Y-130025000D02*
X69400000Y-129300000D01*
X87475909Y-133700000D02*
X88186773Y-132989136D01*
X87425000Y-135200000D02*
X87475909Y-135200000D01*
X87425000Y-135200000D02*
X87425000Y-135325000D01*
X91600000Y-126225000D02*
X91600000Y-126272030D01*
X71687500Y-131300000D02*
X70412500Y-130025000D01*
X96250000Y-136500000D02*
X96450000Y-136700000D01*
X62025002Y-128299998D02*
X60850000Y-128299998D01*
X66100000Y-130025000D02*
X66100000Y-129289033D01*
X87425000Y-138200000D02*
X87475909Y-138200000D01*
X96250000Y-133250000D02*
X96250000Y-136500000D01*
X93125000Y-126225000D02*
X93800000Y-126900000D01*
X96700000Y-126050000D02*
X96750000Y-126050000D01*
X94725000Y-126225000D02*
X95400000Y-126900000D01*
X93100000Y-126225000D02*
X93100000Y-126229038D01*
X100900000Y-127668829D02*
X101645827Y-126923002D01*
X100900000Y-127675000D02*
X100900000Y-127668829D01*
X87425000Y-132175000D02*
X88100000Y-131500000D01*
X87425000Y-136675000D02*
X88100000Y-136000000D01*
X57625000Y-122475000D02*
X58300000Y-121800000D01*
X58550000Y-128799997D02*
X59314466Y-128799997D01*
X102400000Y-126168829D02*
X101645827Y-126923002D01*
X87425000Y-136700000D02*
X87425000Y-136727363D01*
X58100000Y-125559315D02*
X58115685Y-125575000D01*
X94250000Y-134500000D02*
X96450000Y-136700000D01*
X70412500Y-130025000D02*
X69400000Y-130025000D01*
X87425000Y-130700000D02*
X87425000Y-130825000D01*
X60200002Y-128299998D02*
X59700000Y-128800000D01*
X96250000Y-126050000D02*
X95400000Y-126900000D01*
X87425000Y-132200000D02*
X87425000Y-132227363D01*
X103437896Y-138684373D02*
X103490901Y-138684373D01*
X103437896Y-138392940D02*
X104068336Y-137762500D01*
X104068336Y-137762500D02*
X104112500Y-137762500D01*
%TO.N,GNDS*%
X62260000Y-120000000D02*
X62200000Y-120000000D01*
X62260000Y-124000000D02*
X62260000Y-120000000D01*
X73500000Y-124000000D02*
X73500000Y-120000000D01*
X62200000Y-120000000D02*
X61325000Y-120875000D01*
X57500000Y-120925000D02*
X58950000Y-120925000D01*
X61325000Y-120875000D02*
X59000000Y-120875000D01*
X58950000Y-120925000D02*
X59000000Y-120875000D01*
%TO.N,Net-(U1-XTAL_N)*%
X98925000Y-126125000D02*
X98850000Y-126050000D01*
X99475551Y-128862231D02*
X98224449Y-128862231D01*
X100124000Y-128213782D02*
X99475551Y-128862231D01*
X98850000Y-126050000D02*
X100124000Y-127324000D01*
X95900000Y-132200000D02*
X95450000Y-132650000D01*
X100124000Y-127324000D02*
X100124000Y-128213782D01*
X98224449Y-128862231D02*
X95900000Y-131186680D01*
X100900000Y-126125000D02*
X98925000Y-126125000D01*
X95450000Y-132650000D02*
X95450000Y-133250000D01*
X95900000Y-131186680D02*
X95900000Y-132200000D01*
%TO.N,Net-(U1-XTAL_P)*%
X95050000Y-132000000D02*
X95050000Y-133250000D01*
X94050000Y-129560000D02*
X94440000Y-129560000D01*
X93890000Y-130120000D02*
X93890000Y-130200000D01*
X93890000Y-129320000D02*
X93890000Y-129400000D01*
X94600000Y-130920000D02*
X94600000Y-131000000D01*
X94440000Y-129560000D02*
X94600000Y-129560000D01*
X96575000Y-127775000D02*
X96700000Y-127900000D01*
X94725000Y-131675000D02*
X95050000Y-132000000D01*
X94600000Y-131550000D02*
X94725000Y-131675000D01*
X94050000Y-130360000D02*
X94600000Y-130360000D01*
X94600000Y-129960000D02*
X94050000Y-129960000D01*
X94600000Y-131000000D02*
X94600000Y-131550000D01*
X94760000Y-130360000D02*
X95150000Y-130360000D01*
X94600000Y-127775000D02*
X96575000Y-127775000D01*
X94600000Y-127775000D02*
X94600000Y-129000000D01*
X94600000Y-129560000D02*
X95150000Y-129560000D01*
X95150000Y-129960000D02*
X94600000Y-129960000D01*
X94600000Y-130360000D02*
X94760000Y-130360000D01*
X95150000Y-130760000D02*
X94760000Y-130760000D01*
X94440000Y-129160000D02*
X94050000Y-129160000D01*
X95310000Y-130520000D02*
X95310000Y-130600000D01*
X95310000Y-129720000D02*
X95310000Y-129800000D01*
X95310000Y-129800000D02*
G75*
G02*
X95150000Y-129960000I-160000J0D01*
G01*
X95150000Y-130360000D02*
G75*
G02*
X95310000Y-130520000I0J-160000D01*
G01*
X93890000Y-129400000D02*
G75*
G03*
X94050000Y-129560000I160000J0D01*
G01*
X94600000Y-129000000D02*
G75*
G02*
X94440000Y-129160000I-160000J0D01*
G01*
X94050000Y-129960000D02*
G75*
G03*
X93890000Y-130120000I0J-160000D01*
G01*
X94050000Y-129160000D02*
G75*
G03*
X93890000Y-129320000I0J-160000D01*
G01*
X95310000Y-130600000D02*
G75*
G02*
X95150000Y-130760000I-160000J0D01*
G01*
X93890000Y-130200000D02*
G75*
G03*
X94050000Y-130360000I160000J0D01*
G01*
X95150000Y-129560000D02*
G75*
G02*
X95310000Y-129720000I0J-160000D01*
G01*
X94760000Y-130760000D02*
G75*
G03*
X94600000Y-130920000I0J-160000D01*
G01*
D42*
%TO.N,+5V*%
X61624000Y-130251000D02*
X60200000Y-131675000D01*
X58751000Y-130251000D02*
X58550000Y-130050000D01*
X59100000Y-132800000D02*
X58700000Y-132800000D01*
X70280000Y-125150000D02*
X70280000Y-127080000D01*
X62200000Y-129675000D02*
X61624000Y-130251000D01*
X60900000Y-128875998D02*
X60850000Y-128875998D01*
X58550000Y-130050000D02*
X58550000Y-129875996D01*
X65500000Y-125170000D02*
X65480000Y-125150000D01*
X60900000Y-130251000D02*
X60900000Y-128875998D01*
D41*
X72000000Y-128680000D02*
X70420000Y-127100000D01*
D42*
X65500000Y-127100000D02*
X65500000Y-125170000D01*
X61624000Y-130251000D02*
X60900000Y-130251000D01*
X60200000Y-131700000D02*
X59100000Y-132800000D01*
X60900000Y-130251000D02*
X58751000Y-130251000D01*
X60200000Y-131675000D02*
X60200000Y-131700000D01*
X65500000Y-127100000D02*
X62925000Y-129675000D01*
X62925000Y-129675000D02*
X62200000Y-129675000D01*
X70280000Y-127080000D02*
X70300000Y-127100000D01*
D41*
X70420000Y-127100000D02*
X70300000Y-127100000D01*
%TO.N,Net-(D2-RA)*%
X82600000Y-135500000D02*
X82600000Y-135799999D01*
X82299999Y-136100000D02*
X79900000Y-136100000D01*
X82600000Y-137925000D02*
X82600000Y-135500000D01*
X82600000Y-135799999D02*
X82299999Y-136100000D01*
X87375000Y-142700000D02*
X82600000Y-137925000D01*
%TO.N,Net-(D2-GA)*%
X83400000Y-135299548D02*
X82999452Y-134899000D01*
X83400000Y-138157900D02*
X83400000Y-135299548D01*
X81700000Y-135200001D02*
X81700000Y-135500000D01*
X82999452Y-134899000D02*
X82001001Y-134899000D01*
X81300000Y-135500000D02*
X79900000Y-134100000D01*
X81700000Y-135500000D02*
X81300000Y-135500000D01*
X87375000Y-141200000D02*
X86442100Y-141200000D01*
X86442100Y-141200000D02*
X83400000Y-138157900D01*
X82001001Y-134899000D02*
X81700000Y-135200001D01*
%TO.N,Net-(D2-BA)*%
X83851000Y-133871768D02*
X83478232Y-133499000D01*
X85509200Y-139700000D02*
X83851000Y-138041800D01*
X81700000Y-134100000D02*
X81700000Y-133900000D01*
X83851000Y-138041800D02*
X83851000Y-133871768D01*
X83478232Y-133499000D02*
X82200548Y-133499000D01*
X81700000Y-133999548D02*
X81700000Y-134100000D01*
X82200548Y-133499000D02*
X81700000Y-133999548D01*
X87375000Y-139700000D02*
X85509200Y-139700000D01*
X81700000Y-133900000D02*
X79900000Y-132100000D01*
%TO.N,Net-(J1-CC2)*%
X66130000Y-125150000D02*
X66130000Y-128345000D01*
X66130000Y-128345000D02*
X66100000Y-128375000D01*
D43*
%TO.N,/USB_C_N*%
X68550748Y-131877500D02*
X69500000Y-131877500D01*
D41*
X68632376Y-126251583D02*
X68632376Y-126708047D01*
X67500000Y-126281959D02*
X67630000Y-126151959D01*
D43*
X67789070Y-130800000D02*
X67789070Y-131115822D01*
D41*
X69577500Y-131800000D02*
X70312500Y-131800000D01*
D43*
X68483995Y-130006000D02*
X68483995Y-130135000D01*
X67789070Y-130780000D02*
X67789070Y-130800000D01*
X67789070Y-131115822D02*
X68550748Y-131877500D01*
X68047070Y-129748000D02*
X68225995Y-129748000D01*
D41*
X67922329Y-127100000D02*
X67500000Y-126677671D01*
D43*
X68225995Y-130393000D02*
X68047070Y-130393000D01*
D41*
X69500000Y-131877500D02*
X69577500Y-131800000D01*
X67630000Y-126151959D02*
X67630000Y-125150000D01*
D43*
X67789070Y-127410930D02*
X67789070Y-128200000D01*
D41*
X68240423Y-127100000D02*
X67922329Y-127100000D01*
D43*
X68000000Y-127200000D02*
X67789070Y-127410930D01*
D41*
X68630000Y-125150000D02*
X68630000Y-126249207D01*
D43*
X67789070Y-130651000D02*
X67789070Y-130780000D01*
X68483995Y-128716000D02*
X68483995Y-128845000D01*
D41*
X68632376Y-126708047D02*
X68240423Y-127100000D01*
X68630000Y-126249207D02*
X68632376Y-126251583D01*
D43*
X68225995Y-129103000D02*
X68047070Y-129103000D01*
D41*
X67500000Y-126677671D02*
X67500000Y-126281959D01*
D43*
X68047070Y-128458000D02*
X68225995Y-128458000D01*
X67789070Y-129361000D02*
X67789070Y-129490000D01*
X67789070Y-129490000D02*
G75*
G03*
X68047070Y-129748030I258030J0D01*
G01*
X68225995Y-129748000D02*
G75*
G02*
X68484000Y-130006000I5J-258000D01*
G01*
X68483995Y-130135000D02*
G75*
G02*
X68225995Y-130392995I-257995J0D01*
G01*
X68047070Y-130393000D02*
G75*
G03*
X67789100Y-130651000I30J-258000D01*
G01*
X68047070Y-129103000D02*
G75*
G03*
X67789100Y-129361000I30J-258000D01*
G01*
X68225995Y-128458000D02*
G75*
G02*
X68484000Y-128716000I5J-258000D01*
G01*
X68483995Y-128845000D02*
G75*
G02*
X68225995Y-129102995I-257995J0D01*
G01*
X67789070Y-128200000D02*
G75*
G03*
X68047070Y-128458030I258030J0D01*
G01*
%TO.N,/USB_C_P*%
X66950000Y-126427951D02*
X66950000Y-127550000D01*
D41*
X70312500Y-132300000D02*
X70090000Y-132522500D01*
D43*
X66950000Y-127550000D02*
X67144070Y-127744070D01*
D41*
X66950000Y-126427951D02*
X66950000Y-126150000D01*
X68081376Y-126282887D02*
X68125000Y-126239263D01*
D43*
X67144070Y-131382990D02*
X68283580Y-132522500D01*
X68283580Y-132522500D02*
X69500000Y-132522500D01*
D41*
X68125000Y-126239263D02*
X68125000Y-125150000D01*
X70090000Y-132522500D02*
X69500000Y-132522500D01*
X67130000Y-125970000D02*
X67130000Y-125150000D01*
X66950000Y-126150000D02*
X67130000Y-125970000D01*
D43*
X67144070Y-127744070D02*
X67144070Y-131382990D01*
D41*
X68081376Y-126479815D02*
X68081376Y-126282887D01*
%TO.N,Net-(J1-CC1)*%
X69130000Y-128105000D02*
X69400000Y-128375000D01*
X69130000Y-125150000D02*
X69130000Y-128105000D01*
%TO.N,RST*%
X93450000Y-133250000D02*
X93200000Y-133500000D01*
X89800000Y-129200000D02*
X89025000Y-129200000D01*
X93850000Y-133250000D02*
X89800000Y-129200000D01*
X93850000Y-133250000D02*
X93450000Y-133250000D01*
%TO.N,ESP_RX*%
X96650000Y-132653961D02*
X96407658Y-132411619D01*
X96650000Y-133250000D02*
X96650000Y-132653961D01*
%TO.N,ESP_TX*%
X97050000Y-132064293D02*
X96890627Y-131904920D01*
X97050000Y-133250000D02*
X97050000Y-132064293D01*
%TO.N,ESP_IO0*%
X118900000Y-131200000D02*
X118900000Y-128720000D01*
X93000000Y-135700000D02*
X93500000Y-135700000D01*
X93858459Y-135341541D02*
X93930089Y-135341541D01*
X118900000Y-128720000D02*
X118860000Y-128680000D01*
X93500000Y-135700000D02*
X93858459Y-135341541D01*
%TO.N,MTMS*%
X97450000Y-133250000D02*
X97450000Y-131501707D01*
X97450000Y-131501707D02*
X97256341Y-131308048D01*
%TO.N,MTCK*%
X100303730Y-131996270D02*
X100303730Y-130942368D01*
X99050000Y-133250000D02*
X100303730Y-131996270D01*
%TO.N,MTDI*%
X97850000Y-133250000D02*
X97850000Y-131672182D01*
X97850000Y-131672182D02*
X97999999Y-131522183D01*
%TO.N,MTD0*%
X99731817Y-131346001D02*
X98650000Y-132427818D01*
X98650000Y-132427818D02*
X98650000Y-133250000D01*
%TO.N,RS_X*%
X92244977Y-136900000D02*
X92094977Y-136750000D01*
X93000000Y-136900000D02*
X92244977Y-136900000D01*
X114000000Y-148400000D02*
X117780200Y-148400000D01*
X117780200Y-148400000D02*
X117795000Y-148385200D01*
%TO.N,RS_Y*%
X119200000Y-155600000D02*
X125019800Y-155600000D01*
X93000000Y-137300000D02*
X91600000Y-137300000D01*
X114000000Y-150400000D02*
X119200000Y-155600000D01*
X125019800Y-155600000D02*
X126715000Y-157295200D01*
%TO.N,RS_SW*%
X120625000Y-139775000D02*
X120625000Y-137600000D01*
X123510200Y-137600000D02*
X123525000Y-137585200D01*
X93000000Y-138100000D02*
X93800000Y-138100000D01*
X114000000Y-146400000D02*
X120625000Y-139775000D01*
X120625000Y-137600000D02*
X123510200Y-137600000D01*
%TO.N,LS_SW*%
X63510200Y-137600000D02*
X63525000Y-137585200D01*
X89666909Y-138943369D02*
X90010278Y-138600000D01*
X53700000Y-144625000D02*
X60725000Y-137600000D01*
X90010278Y-138600000D02*
X91099775Y-138600000D01*
X91099775Y-138600000D02*
X91999775Y-137700000D01*
X53700000Y-146300000D02*
X53700000Y-144625000D01*
X60725000Y-137600000D02*
X63510200Y-137600000D01*
X91999775Y-137700000D02*
X93000000Y-137700000D01*
%TO.N,LS_Y*%
X93549097Y-136500000D02*
X93847582Y-136798485D01*
X64819800Y-155400000D02*
X58700000Y-155400000D01*
X93000000Y-136500000D02*
X93549097Y-136500000D01*
X66715000Y-157295200D02*
X64819800Y-155400000D01*
X58700000Y-155400000D02*
X53600000Y-150300000D01*
%TO.N,LS_X*%
X93898348Y-136100000D02*
X93911803Y-136086545D01*
X93000000Y-136100000D02*
X93898348Y-136100000D01*
X57795000Y-148385200D02*
X53685200Y-148385200D01*
X53685200Y-148385200D02*
X53600000Y-148300000D01*
%TO.N,Net-(U3-L1)*%
X57800004Y-129299996D02*
X56200000Y-130900000D01*
X58550000Y-129299996D02*
X57800004Y-129299996D01*
%TO.N,Net-(U3-L2)*%
X58550000Y-128299998D02*
X58100002Y-128299998D01*
X58100002Y-128299998D02*
X57900004Y-128100000D01*
X57900004Y-128100000D02*
X56200000Y-128100000D01*
%TO.N,LED_R*%
X94250000Y-141150000D02*
X94250000Y-140150000D01*
X92700000Y-142700000D02*
X94250000Y-141150000D01*
X89025000Y-142700000D02*
X92700000Y-142700000D01*
%TO.N,LED_G*%
X89025000Y-141200000D02*
X92800000Y-141200000D01*
X92800000Y-141200000D02*
X93850000Y-140150000D01*
%TO.N,LED_B*%
X92600000Y-139700000D02*
X93000000Y-139300000D01*
X89025000Y-139700000D02*
X92600000Y-139700000D01*
%TO.N,BTN_1*%
X84146503Y-145578497D02*
X84125000Y-145600000D01*
X83300000Y-146425000D02*
X84125000Y-145600000D01*
X94650000Y-141350000D02*
X90421503Y-145578497D01*
X86700000Y-145578497D02*
X84146503Y-145578497D01*
X94650000Y-140150000D02*
X94650000Y-141350000D01*
X90421503Y-145578497D02*
X86700000Y-145578497D01*
X83300000Y-147500000D02*
X83300000Y-146425000D01*
%TO.N,BTN_2*%
X95050000Y-140150000D02*
X95050000Y-147450000D01*
X97800000Y-150200000D02*
X97825000Y-150200000D01*
X97825000Y-150200000D02*
X100250000Y-147775000D01*
X97825000Y-150200000D02*
X97825000Y-151975000D01*
X95050000Y-147450000D02*
X97800000Y-150200000D01*
X100250000Y-147775000D02*
X100250000Y-145578497D01*
X97825000Y-151975000D02*
X97500000Y-152300000D01*
%TO.N,Net-(U1-GPIO33)*%
X100400000Y-136100000D02*
X101101000Y-136801000D01*
X101101000Y-136801000D02*
X103699000Y-136801000D01*
X99900000Y-136100000D02*
X100400000Y-136100000D01*
X103699000Y-136801000D02*
X104500000Y-136000000D01*
%TO.N,Net-(U1-GPIO35)*%
X101400000Y-135300000D02*
X101600000Y-135100000D01*
X101600000Y-135100000D02*
X103400000Y-135100000D01*
X103400000Y-135100000D02*
X104500000Y-134000000D01*
X99900000Y-135300000D02*
X101400000Y-135300000D01*
%TO.N,Net-(U1-GPIO38)*%
X100400000Y-134100000D02*
X102500000Y-132000000D01*
X102500000Y-132000000D02*
X102600000Y-132000000D01*
X99900000Y-134100000D02*
X100400000Y-134100000D01*
%TO.N,Net-(U1-GPIO34)*%
X102200000Y-135700000D02*
X102500000Y-136000000D01*
X99900000Y-135700000D02*
X102200000Y-135700000D01*
%TO.N,Net-(U1-GPIO36)*%
X99900000Y-134900000D02*
X101232900Y-134900000D01*
X101232900Y-134900000D02*
X102132900Y-134000000D01*
X102132900Y-134000000D02*
X102500000Y-134000000D01*
%TO.N,Net-(U1-GPIO37)*%
X103400000Y-133200000D02*
X104600000Y-132000000D01*
X99900000Y-134500000D02*
X100600000Y-134500000D01*
X100600000Y-134500000D02*
X101900000Y-133200000D01*
X101900000Y-133200000D02*
X103400000Y-133200000D01*
%TO.N,Net-(U1-GPIO21)*%
X99050000Y-140150000D02*
X100000000Y-141100000D01*
X100000000Y-141100000D02*
X101600000Y-141100000D01*
%TO.N,Net-(U1-DAC_2)*%
X97450000Y-140150000D02*
X97450000Y-140850000D01*
X97300000Y-143500000D02*
X97600000Y-143800000D01*
X97300000Y-141000000D02*
X97300000Y-143500000D01*
X97450000Y-140850000D02*
X97300000Y-141000000D01*
%TO.N,Net-(U1-DAC_1)*%
X97050000Y-140650000D02*
X96900000Y-140800000D01*
X97600000Y-145800000D02*
X96799000Y-144999000D01*
X96799000Y-144999000D02*
X96799000Y-140901000D01*
X97050000Y-140150000D02*
X97050000Y-140650000D01*
X96799000Y-140901000D02*
X96900000Y-140800000D01*
%TO.N,Net-(U1-GPIO14)*%
X97500000Y-147800000D02*
X95450000Y-145750000D01*
X95450000Y-145750000D02*
X95450000Y-140150000D01*
%TO.N,Net-(U1-GPIO8)*%
X92250000Y-138900000D02*
X92000000Y-139150000D01*
X93000000Y-138900000D02*
X92250000Y-138900000D01*
%TO.N,Net-(U1-GPIO7)*%
X93000000Y-138500000D02*
X91850000Y-138500000D01*
X91850000Y-138500000D02*
X91200000Y-139150000D01*
D43*
%TO.N,USB_P*%
X89137645Y-121980500D02*
X89137645Y-122460028D01*
X73573402Y-132652878D02*
X75300000Y-132652878D01*
D41*
X98250000Y-140850000D02*
X98600000Y-141200000D01*
D43*
X91800000Y-121722500D02*
X103066416Y-121722500D01*
X73573402Y-132652878D02*
X72823265Y-132652878D01*
X89782645Y-122460028D02*
X89782645Y-121980500D01*
X90427645Y-121980500D02*
X90427645Y-122460028D01*
X75603206Y-132652878D02*
X86533584Y-121722500D01*
D41*
X72040378Y-132652878D02*
X72823265Y-132652878D01*
D43*
X90685645Y-122718028D02*
X90814645Y-122718028D01*
X75300000Y-132652878D02*
X75603206Y-132652878D01*
X103066416Y-121722500D02*
X106077500Y-124733584D01*
X106077500Y-124733584D02*
X106077500Y-139466416D01*
X86533584Y-121722500D02*
X88879645Y-121722500D01*
X89395645Y-122718028D02*
X89524645Y-122718028D01*
X98600000Y-141400000D02*
X98600000Y-141200000D01*
X91459645Y-121722500D02*
X91800000Y-121722500D01*
X103266416Y-142277500D02*
X99477500Y-142277500D01*
X91072645Y-122460028D02*
X91072645Y-121980500D01*
D41*
X71687500Y-132300000D02*
X72040378Y-132652878D01*
X98250000Y-140150000D02*
X98250000Y-140850000D01*
D43*
X99477500Y-142277500D02*
X98600000Y-141400000D01*
X91330645Y-121722500D02*
X91459645Y-121722500D01*
X106077500Y-139466416D02*
X103266416Y-142277500D01*
X90040645Y-121722500D02*
X90169645Y-121722500D01*
X91072645Y-121980500D02*
G75*
G02*
X91330645Y-121722545I257955J0D01*
G01*
X90814645Y-122718028D02*
G75*
G03*
X91072628Y-122460028I-45J258028D01*
G01*
X89137645Y-122460028D02*
G75*
G03*
X89395645Y-122717955I257955J28D01*
G01*
X90427645Y-122460028D02*
G75*
G03*
X90685645Y-122717955I257955J28D01*
G01*
X88879645Y-121722500D02*
G75*
G02*
X89137600Y-121980500I-45J-258000D01*
G01*
X89782645Y-121980500D02*
G75*
G02*
X90040645Y-121722545I257955J0D01*
G01*
X90169645Y-121722500D02*
G75*
G02*
X90427600Y-121980500I-45J-258000D01*
G01*
X89524645Y-122718028D02*
G75*
G03*
X89782628Y-122460028I-45J258028D01*
G01*
%TO.N,USB_N*%
X103533584Y-142922500D02*
X106722500Y-139733584D01*
D41*
X72615387Y-131800000D02*
X72823265Y-132007878D01*
X71687500Y-131800000D02*
X72615387Y-131800000D01*
D43*
X97900000Y-141300000D02*
X97900000Y-141700000D01*
X103333584Y-121077500D02*
X86266416Y-121077500D01*
X106722500Y-124466416D02*
X103333584Y-121077500D01*
X73573402Y-132007878D02*
X72823265Y-132007878D01*
X86266416Y-121077500D02*
X75336038Y-132007878D01*
D41*
X97850000Y-140150000D02*
X97850000Y-141250000D01*
D43*
X73573402Y-132007878D02*
X75300000Y-132007878D01*
X106722500Y-139733584D02*
X106722500Y-124466416D01*
X99122500Y-142922500D02*
X103533584Y-142922500D01*
D41*
X97850000Y-141250000D02*
X97900000Y-141300000D01*
D43*
X97900000Y-141700000D02*
X99122500Y-142922500D01*
X75336038Y-132007878D02*
X75300000Y-132007878D01*
%TD*%
%TA.AperFunction,Conductor*%
%TO.N,GND*%
G36*
X72143039Y-124920185D02*
G01*
X72188794Y-124972989D01*
X72200000Y-125024500D01*
X72200000Y-126476000D01*
X72180315Y-126543039D01*
X72127511Y-126588794D01*
X72076000Y-126600000D01*
X71154500Y-126600000D01*
X71145814Y-126597449D01*
X71136853Y-126598738D01*
X71112812Y-126587759D01*
X71087461Y-126580315D01*
X71081533Y-126573474D01*
X71073297Y-126569713D01*
X71059007Y-126547478D01*
X71041706Y-126527511D01*
X71039418Y-126516996D01*
X71035523Y-126510935D01*
X71030500Y-126476000D01*
X71030500Y-126324000D01*
X71050185Y-126256961D01*
X71102989Y-126211206D01*
X71154500Y-126200000D01*
X71427828Y-126200000D01*
X71427844Y-126199999D01*
X71487372Y-126193598D01*
X71487376Y-126193597D01*
X71622091Y-126143351D01*
X71677969Y-126101520D01*
X71116818Y-125540369D01*
X71083333Y-125479046D01*
X71080499Y-125452694D01*
X71080499Y-125200860D01*
X71089142Y-125171425D01*
X71095666Y-125141436D01*
X71099421Y-125136419D01*
X71100184Y-125133823D01*
X71116817Y-125113182D01*
X71169093Y-125060905D01*
X71230416Y-125027419D01*
X71300107Y-125032403D01*
X71344456Y-125060904D01*
X71879999Y-125596448D01*
X71880000Y-125596447D01*
X71880000Y-125024500D01*
X71899685Y-124957461D01*
X71952489Y-124911706D01*
X72004000Y-124900500D01*
X72076000Y-124900500D01*
X72143039Y-124920185D01*
G37*
%TD.AperFunction*%
%TD*%
%TA.AperFunction,Conductor*%
%TO.N,GND*%
G36*
X63823039Y-124920185D02*
G01*
X63868794Y-124972989D01*
X63880000Y-125024500D01*
X63880000Y-125596448D01*
X64415543Y-125060905D01*
X64423488Y-125056566D01*
X64428914Y-125049319D01*
X64453673Y-125040084D01*
X64476866Y-125027420D01*
X64485895Y-125028065D01*
X64494378Y-125024902D01*
X64520198Y-125030518D01*
X64546557Y-125032404D01*
X64555610Y-125038222D01*
X64562651Y-125039754D01*
X64590905Y-125060905D01*
X64643181Y-125113181D01*
X64676666Y-125174504D01*
X64679500Y-125200862D01*
X64679500Y-125452688D01*
X64659815Y-125519727D01*
X64643181Y-125540369D01*
X64082029Y-126101520D01*
X64137910Y-126143352D01*
X64137913Y-126143354D01*
X64272620Y-126193596D01*
X64272627Y-126193598D01*
X64332155Y-126199999D01*
X64332172Y-126200000D01*
X64625500Y-126200000D01*
X64634185Y-126202550D01*
X64643147Y-126201262D01*
X64667187Y-126212240D01*
X64692539Y-126219685D01*
X64698466Y-126226525D01*
X64706703Y-126230287D01*
X64720992Y-126252521D01*
X64738294Y-126272489D01*
X64740581Y-126283003D01*
X64744477Y-126289065D01*
X64749500Y-126324000D01*
X64749500Y-126376000D01*
X64729815Y-126443039D01*
X64677011Y-126488794D01*
X64625500Y-126500000D01*
X63524000Y-126500000D01*
X63456961Y-126480315D01*
X63411206Y-126427511D01*
X63400000Y-126376000D01*
X63400000Y-125024500D01*
X63419685Y-124957461D01*
X63472489Y-124911706D01*
X63524000Y-124900500D01*
X63756000Y-124900500D01*
X63823039Y-124920185D01*
G37*
%TD.AperFunction*%
%TD*%
M02*
