M48
; DRILL file {KiCad 9.0.2-9.0.2-0~ubuntu24.04.1} date 2025-05-22T11:35:42-0400
; FORMAT={-:-/ absolute / inch / decimal}
; #@! TF.CreationDate,2025-05-22T11:35:42-04:00
; #@! TF.GenerationSoftware,Kicad,Pcbnew,9.0.2-9.0.2-0~ubuntu24.04.1
; #@! TF.FileFunction,Plated,1,4,PTH
FMAT,2
INCH
; #@! TA.AperFunction,Plated,PTH,ComponentDrill
T1C0.0080
; #@! TA.AperFunction,Plated,PTH,ViaDrill
T2C0.0118
; #@! TA.AperFunction,Plated,PTH,ComponentDrill
T3C0.0236
; #@! TA.AperFunction,Plated,PTH,ComponentDrill
T4C0.0350
; #@! TA.AperFunction,Plated,PTH,ComponentDrill
T5C0.0354
; #@! TA.AperFunction,Plated,PTH,ComponentDrill
T6C0.0394
; #@! TA.AperFunction,Plated,PTH,ComponentDrill
T7C0.0433
; #@! TA.AperFunction,Plated,PTH,ComponentDrill
T8C0.0550
%
G90
G05
T1
X2.3504Y-5.0554
X2.3504Y-5.0864
T2
X2.288Y-4.9439
X2.2953Y-4.7953
X2.3228Y-5.0039
X2.3543Y-5.4213
X2.4646Y-5.2283
X2.5157Y-4.9252
X2.5157Y-4.9449
X2.5157Y-4.9646
X2.5787Y-5.0039
X2.5998Y-5.0876
X2.6063Y-5.2283
X2.6358Y-4.9775
X2.6804Y-4.9795
X2.7323Y-5.0906
X2.7677Y-5.0039
X2.8268Y-4.9291
X2.8268Y-4.9488
X2.8268Y-4.9685
X3.2756Y-5.7323
X3.2795Y-5.2795
X3.2795Y-5.8858
X3.2795Y-5.9646
X3.4685Y-5.1772
X3.4685Y-5.3543
X3.4719Y-5.2358
X3.4719Y-5.2948
X3.4719Y-5.413
X3.5236Y-5.2323
X3.5236Y-5.3543
X3.5276Y-5.1732
X3.5276Y-5.2953
X3.5276Y-5.4134
X3.5302Y-5.4702
X3.5906Y-5.4783
X3.6063Y-5.4055
X3.622Y-5.4783
X3.6258Y-5.3839
X3.6339Y-5.0591
X3.635Y-5.0
X3.6693Y-5.2559
X3.6929Y-4.9961
X3.6929Y-5.437
X3.6948Y-5.3858
X3.6973Y-5.3577
X3.698Y-5.3284
X3.7559Y-4.9961
X3.7956Y-5.2131
X3.7972Y-5.3819
X3.8146Y-5.1931
X3.8179Y-5.9134
X3.829Y-5.1696
X3.8465Y-5.0
X3.8583Y-5.178
X3.9264Y-5.1711
X3.949Y-5.1552
X4.0018Y-4.997
X4.0094Y-5.4552
X4.0591Y-5.0551
X4.0626Y-4.9955
X4.0724Y-5.46
X4.6811Y-5.2008
X4.7165Y-5.4528
T4
X2.2754Y-5.8419
X2.2754Y-5.9419
X2.276Y-5.7425
X2.5266Y-6.1919
X2.6266Y-6.1927
X2.7266Y-6.1919
X4.6376Y-5.8419
X4.6376Y-5.9419
X4.6382Y-5.7425
X4.8888Y-6.1919
X4.9888Y-6.1927
X5.0888Y-6.1919
T5
X2.501Y-5.4167
X2.501Y-5.6112
X2.751Y-5.4175
X2.7514Y-5.612
X4.8632Y-5.4167
X4.8632Y-5.6112
X5.1132Y-5.4175
X5.1136Y-5.612
T6
X4.6795Y-4.8661
X4.6795Y-4.9661
X4.6795Y-5.0661
X4.7795Y-4.8661
X4.7795Y-4.9661
X4.7795Y-5.0661
X4.9246Y-4.8663
X4.9246Y-4.9663
X5.0246Y-4.8663
X5.0246Y-4.9663
T7
X3.4134Y-5.7314
X3.4134Y-5.9086
X3.6693Y-5.7314
X3.6693Y-5.9086
X3.9469Y-5.7314
X3.9469Y-5.9086
X4.2028Y-5.7314
X4.2028Y-5.9086
T8
X2.376Y-5.6431
X2.376Y-6.0419
X2.876Y-5.6425
X2.876Y-6.0425
X4.7382Y-5.6431
X4.7382Y-6.0419
X5.2382Y-5.6425
X5.2382Y-6.0425
T3
G00X2.4512Y-4.7008
M15
G01X2.4512Y-4.748
M16
G05
G00X2.4512Y-4.8661
M15
G01X2.4512Y-4.8976
M16
G05
G00X2.8937Y-4.7008
M15
G01X2.8937Y-4.748
M16
G05
G00X2.8937Y-4.8661
M15
G01X2.8937Y-4.8976
M16
G05
M30
