%TF.GenerationSoftware,KiCad,Pcbnew,9.0.2-9.0.2-0~ubuntu24.04.1*%
%TF.CreationDate,2025-05-22T11:35:46-04:00*%
%TF.ProjectId,drone_sim_controler,64726f6e-655f-4736-996d-5f636f6e7472,rev?*%
%TF.SameCoordinates,Original*%
%TF.FileFunction,Copper,L3,Inr*%
%TF.FilePolarity,Positive*%
%FSLAX46Y46*%
G04 Gerber Fmt 4.6, Leading zero omitted, Abs format (unit mm)*
G04 Created by KiCad (PCBNEW 9.0.2-9.0.2-0~ubuntu24.04.1) date 2025-05-22 11:35:46*
%MOMM*%
%LPD*%
G01*
G04 APERTURE LIST*
G04 Aperture macros list*
%AMRoundRect*
0 Rectangle with rounded corners*
0 $1 Rounding radius*
0 $2 $3 $4 $5 $6 $7 $8 $9 X,Y pos of 4 corners*
0 Add a 4 corners polygon primitive as box body*
4,1,4,$2,$3,$4,$5,$6,$7,$8,$9,$2,$3,0*
0 Add four circle primitives for the rounded corners*
1,1,$1+$1,$2,$3*
1,1,$1+$1,$4,$5*
1,1,$1+$1,$6,$7*
1,1,$1+$1,$8,$9*
0 Add four rect primitives between the rounded corners*
20,1,$1+$1,$2,$3,$4,$5,0*
20,1,$1+$1,$4,$5,$6,$7,0*
20,1,$1+$1,$6,$7,$8,$9,0*
20,1,$1+$1,$8,$9,$2,$3,0*%
G04 Aperture macros list end*
%TA.AperFunction,ComponentPad*%
%ADD10RoundRect,0.500000X-0.000010X0.400000X-0.000010X-0.400000X0.000010X-0.400000X0.000010X0.400000X0*%
%TD*%
%TA.AperFunction,ComponentPad*%
%ADD11RoundRect,0.500000X-0.000010X0.600000X-0.000010X-0.600000X0.000010X-0.600000X0.000010X0.600000X0*%
%TD*%
%TA.AperFunction,ComponentPad*%
%ADD12C,2.000000*%
%TD*%
%TA.AperFunction,ComponentPad*%
%ADD13C,1.778000*%
%TD*%
%TA.AperFunction,ComponentPad*%
%ADD14C,2.286000*%
%TD*%
%TA.AperFunction,ComponentPad*%
%ADD15C,0.499999*%
%TD*%
%TA.AperFunction,ComponentPad*%
%ADD16R,1.700000X1.700000*%
%TD*%
%TA.AperFunction,ComponentPad*%
%ADD17C,1.700000*%
%TD*%
%TA.AperFunction,ViaPad*%
%ADD18C,0.500000*%
%TD*%
%TA.AperFunction,ViaPad*%
%ADD19C,0.600000*%
%TD*%
%TA.AperFunction,Conductor*%
%ADD20C,0.200000*%
%TD*%
G04 APERTURE END LIST*
D10*
%TO.N,GNDS*%
%TO.C,J1*%
X73500000Y-124000000D03*
D11*
X73500000Y-120000000D03*
D10*
X62260000Y-124000000D03*
D11*
X62260000Y-120000000D03*
%TD*%
D12*
%TO.N,BTN_2*%
%TO.C,SW2*%
X100250000Y-145578497D03*
%TO.N,unconnected-(SW2-Pad2)*%
X100250000Y-150078497D03*
%TO.N,unconnected-(SW2-K-Pad3)*%
X106750000Y-145578497D03*
%TO.N,GND*%
X106750000Y-150078497D03*
%TD*%
D13*
%TO.N,RS_SW*%
%TO.C,JS2*%
X123525000Y-137585200D03*
%TO.N,unconnected-(JS2-SW_NO-PadB1B)*%
X129875000Y-137605000D03*
%TO.N,unconnected-(JS2-SW_COM-PadB2A)*%
X123525000Y-142525200D03*
%TO.N,GND*%
X129885000Y-142545200D03*
X124175000Y-157275200D03*
%TO.N,RS_Y*%
X126715000Y-157295200D03*
%TO.N,+3V3*%
X129255000Y-157275200D03*
D14*
%TO.N,GNDS*%
X120350000Y-143335200D03*
X120350000Y-153465200D03*
X133050000Y-143320000D03*
X133050000Y-153480000D03*
D13*
%TO.N,GND*%
X117810000Y-145860000D03*
%TO.N,RS_X*%
X117795000Y-148385200D03*
%TO.N,+3V3*%
X117795000Y-150925200D03*
%TD*%
D15*
%TO.N,GND*%
%TO.C,U3*%
X59700000Y-128406300D03*
X59700000Y-129193700D03*
%TD*%
D16*
%TO.N,MTD0*%
%TO.C,J3*%
X125085000Y-123605000D03*
D17*
%TO.N,MTCK*%
X127625000Y-123605000D03*
%TO.N,MTMS*%
X125085000Y-126145000D03*
%TO.N,MTDI*%
X127625000Y-126145000D03*
%TD*%
D12*
%TO.N,BTN_1*%
%TO.C,SW1*%
X86700000Y-145578497D03*
%TO.N,unconnected-(SW1-Pad2)*%
X86700000Y-150078497D03*
%TO.N,unconnected-(SW1-K-Pad3)*%
X93200000Y-145578497D03*
%TO.N,GND*%
X93200000Y-150078497D03*
%TD*%
D13*
%TO.N,LS_SW*%
%TO.C,JS1*%
X63525000Y-137585200D03*
%TO.N,unconnected-(JS1-SW_NO-PadB1B)*%
X69875000Y-137605000D03*
%TO.N,unconnected-(JS1-SW_COM-PadB2A)*%
X63525000Y-142525200D03*
%TO.N,GND*%
X69885000Y-142545200D03*
X64175000Y-157275200D03*
%TO.N,LS_Y*%
X66715000Y-157295200D03*
%TO.N,+3V3*%
X69255000Y-157275200D03*
D14*
%TO.N,GNDS*%
X60350000Y-143335200D03*
X60350000Y-153465200D03*
X73050000Y-143320000D03*
X73050000Y-153480000D03*
D13*
%TO.N,GND*%
X57810000Y-145860000D03*
%TO.N,LS_X*%
X57795000Y-148385200D03*
%TO.N,+3V3*%
X57795000Y-150925200D03*
%TD*%
D16*
%TO.N,GND*%
%TO.C,J2*%
X118860000Y-123600000D03*
D17*
%TO.N,+3V3*%
X121400000Y-123600000D03*
%TO.N,RST*%
X118860000Y-126140000D03*
%TO.N,ESP_TX*%
X121400000Y-126140000D03*
%TO.N,ESP_IO0*%
X118860000Y-128680000D03*
%TO.N,ESP_RX*%
X121400000Y-128680000D03*
%TD*%
D18*
%TO.N,+3V3*%
X89600000Y-134500000D03*
X83200000Y-145600000D03*
X96975000Y-150200000D03*
X59000000Y-127100000D03*
X103100000Y-128400000D03*
X59800000Y-137700000D03*
X118900000Y-132100000D03*
X62600000Y-132800000D03*
X101837500Y-138562500D03*
X89500000Y-132900000D03*
X89600000Y-131400000D03*
X92300000Y-128500000D03*
X89500000Y-136000000D03*
X89600000Y-137500000D03*
X119800000Y-138500000D03*
%TO.N,GND*%
X69400000Y-129300000D03*
X63900000Y-125600000D03*
X71800000Y-126200000D03*
X96450000Y-136700000D03*
D19*
X88186773Y-132989136D03*
D18*
X58300000Y-121800000D03*
X66035967Y-129225000D03*
D19*
X101645827Y-126923002D03*
X95400000Y-126900000D03*
X88186773Y-134489136D03*
D18*
X63900000Y-126100000D03*
D19*
X103189812Y-126886271D03*
D18*
X71800000Y-125700000D03*
X71800000Y-125200000D03*
X66200000Y-132800000D03*
D19*
X97700000Y-127000000D03*
X103437896Y-138684373D03*
X88100000Y-136000000D03*
X88186773Y-137489136D03*
X92328504Y-127000534D03*
X88100000Y-131500000D03*
D18*
X63900000Y-125100000D03*
X58115685Y-125575000D03*
D19*
X93800000Y-126900000D03*
D18*
X83300000Y-134100000D03*
%TO.N,+5V*%
X65500000Y-127100000D03*
X70300000Y-127100000D03*
%TO.N,/USB_C_P*%
X68081376Y-126479815D03*
X66950000Y-126427951D03*
%TO.N,RST*%
X93200000Y-133500000D03*
%TO.N,ESP_RX*%
X96407658Y-132411619D03*
%TO.N,ESP_TX*%
X96890627Y-131904920D03*
%TO.N,ESP_IO0*%
X93930089Y-135341541D03*
%TO.N,MTMS*%
X97256341Y-131308048D03*
%TO.N,MTCK*%
X100303730Y-130942368D03*
%TO.N,MTDI*%
X97999999Y-131522183D03*
%TO.N,MTD0*%
X99731817Y-131346001D03*
%TO.N,RS_X*%
X92094977Y-136750000D03*
%TO.N,RS_Y*%
X91600000Y-137300000D03*
%TO.N,RS_SW*%
X93800000Y-138100000D03*
%TO.N,LS_SW*%
X89666909Y-138943369D03*
%TO.N,LS_Y*%
X93847582Y-136798485D03*
%TO.N,LS_X*%
X93911803Y-136086545D03*
%TO.N,Net-(U1-GPIO8)*%
X92000000Y-139150000D03*
X83300000Y-151500000D03*
%TO.N,Net-(U1-GPIO7)*%
X83300000Y-149500000D03*
X91200000Y-139150000D03*
%TD*%
D20*
%TO.N,GNDS*%
X60350000Y-125910000D02*
X62260000Y-124000000D01*
X120350000Y-153465200D02*
X73064800Y-153465200D01*
X73500000Y-125979232D02*
X71379232Y-128100000D01*
X71379232Y-128100000D02*
X64700000Y-128100000D01*
X64700000Y-128100000D02*
X62260000Y-125660000D01*
X73500000Y-124000000D02*
X73500000Y-125979232D01*
X62260000Y-125660000D02*
X62260000Y-124000000D01*
X60350000Y-143335200D02*
X60350000Y-125910000D01*
X73064800Y-153465200D02*
X73050000Y-153480000D01*
%TD*%
%TA.AperFunction,Conductor*%
%TO.N,+3V3*%
G36*
X120934075Y-123792993D02*
G01*
X120999901Y-123907007D01*
X121092993Y-124000099D01*
X121207007Y-124065925D01*
X121270590Y-124082962D01*
X120638282Y-124715269D01*
X120638282Y-124715270D01*
X120692452Y-124754626D01*
X120692451Y-124754626D01*
X120701495Y-124759234D01*
X120752292Y-124807208D01*
X120769087Y-124875029D01*
X120746550Y-124941164D01*
X120701499Y-124980202D01*
X120692182Y-124984949D01*
X120520213Y-125109890D01*
X120369890Y-125260213D01*
X120244949Y-125432182D01*
X120240484Y-125440946D01*
X120192509Y-125491742D01*
X120124688Y-125508536D01*
X120058553Y-125485998D01*
X120019516Y-125440946D01*
X120015050Y-125432182D01*
X119890109Y-125260213D01*
X119776569Y-125146673D01*
X119743084Y-125085350D01*
X119748068Y-125015658D01*
X119789940Y-124959725D01*
X119820915Y-124942810D01*
X119952331Y-124893796D01*
X120067546Y-124807546D01*
X120153796Y-124692331D01*
X120204091Y-124557483D01*
X120210500Y-124497873D01*
X120210499Y-124487312D01*
X120230179Y-124420275D01*
X120246818Y-124399626D01*
X120917037Y-123729408D01*
X120934075Y-123792993D01*
G37*
%TD.AperFunction*%
%TA.AperFunction,Conductor*%
G36*
X146342536Y-118720195D02*
G01*
X146388293Y-118772997D01*
X146399500Y-118824512D01*
X146399500Y-167975500D01*
X146379815Y-168042539D01*
X146327011Y-168088294D01*
X146275500Y-168099500D01*
X47124500Y-168099500D01*
X47057461Y-168079815D01*
X47011706Y-168027011D01*
X47000500Y-167975500D01*
X47000500Y-157165838D01*
X62785500Y-157165838D01*
X62785500Y-157384561D01*
X62819714Y-157600576D01*
X62887297Y-157808580D01*
X62887298Y-157808583D01*
X62954782Y-157941025D01*
X62982864Y-157996139D01*
X62986595Y-158003460D01*
X63115142Y-158180393D01*
X63269806Y-158335057D01*
X63384508Y-158418391D01*
X63446743Y-158463607D01*
X63574132Y-158528515D01*
X63641616Y-158562901D01*
X63641619Y-158562902D01*
X63745621Y-158596693D01*
X63849625Y-158630486D01*
X63949672Y-158646332D01*
X64065639Y-158664700D01*
X64065644Y-158664700D01*
X64284361Y-158664700D01*
X64389082Y-158648112D01*
X64500375Y-158630486D01*
X64708383Y-158562901D01*
X64903257Y-158463607D01*
X65002601Y-158391429D01*
X65080193Y-158335057D01*
X65080195Y-158335054D01*
X65080199Y-158335052D01*
X65234852Y-158180399D01*
X65337416Y-158039229D01*
X65392745Y-157996564D01*
X65462358Y-157990585D01*
X65524153Y-158023190D01*
X65538052Y-158039230D01*
X65655142Y-158200393D01*
X65809806Y-158355057D01*
X65958625Y-158463178D01*
X65986743Y-158483607D01*
X66114132Y-158548515D01*
X66181616Y-158582901D01*
X66181619Y-158582902D01*
X66285621Y-158616693D01*
X66389625Y-158650486D01*
X66476212Y-158664200D01*
X66605639Y-158684700D01*
X66605644Y-158684700D01*
X66824361Y-158684700D01*
X66929082Y-158668112D01*
X67040375Y-158650486D01*
X67248383Y-158582901D01*
X67443257Y-158483607D01*
X67542601Y-158411429D01*
X67620193Y-158355057D01*
X67620195Y-158355054D01*
X67620199Y-158355052D01*
X67774852Y-158200399D01*
X67892257Y-158038803D01*
X67947585Y-157996139D01*
X68017198Y-157990160D01*
X68078994Y-158022765D01*
X68092893Y-158038806D01*
X68111806Y-158064838D01*
X68111807Y-158064838D01*
X68817352Y-157359293D01*
X68840792Y-157446771D01*
X68899311Y-157548130D01*
X68982070Y-157630889D01*
X69083429Y-157689408D01*
X69170905Y-157712847D01*
X68465360Y-158418391D01*
X68527008Y-158463180D01*
X68721808Y-158562437D01*
X68721811Y-158562438D01*
X68929740Y-158629997D01*
X69145684Y-158664200D01*
X69364316Y-158664200D01*
X69580259Y-158629997D01*
X69788188Y-158562438D01*
X69788191Y-158562437D01*
X69982995Y-158463178D01*
X70044638Y-158418391D01*
X70044639Y-158418391D01*
X69339094Y-157712847D01*
X69426571Y-157689408D01*
X69527930Y-157630889D01*
X69610689Y-157548130D01*
X69669208Y-157446771D01*
X69692647Y-157359294D01*
X70398191Y-158064839D01*
X70398191Y-158064838D01*
X70442978Y-158003195D01*
X70542237Y-157808391D01*
X70542238Y-157808388D01*
X70609797Y-157600459D01*
X70644000Y-157384516D01*
X70644000Y-157165883D01*
X70643993Y-157165838D01*
X122785500Y-157165838D01*
X122785500Y-157384561D01*
X122819714Y-157600576D01*
X122887297Y-157808580D01*
X122887298Y-157808583D01*
X122954782Y-157941025D01*
X122982864Y-157996139D01*
X122986595Y-158003460D01*
X123115142Y-158180393D01*
X123269806Y-158335057D01*
X123384508Y-158418391D01*
X123446743Y-158463607D01*
X123574132Y-158528515D01*
X123641616Y-158562901D01*
X123641619Y-158562902D01*
X123745621Y-158596693D01*
X123849625Y-158630486D01*
X123949672Y-158646332D01*
X124065639Y-158664700D01*
X124065644Y-158664700D01*
X124284361Y-158664700D01*
X124389082Y-158648112D01*
X124500375Y-158630486D01*
X124708383Y-158562901D01*
X124903257Y-158463607D01*
X125002601Y-158391429D01*
X125080193Y-158335057D01*
X125080195Y-158335054D01*
X125080199Y-158335052D01*
X125234852Y-158180399D01*
X125337416Y-158039229D01*
X125392745Y-157996564D01*
X125462358Y-157990585D01*
X125524153Y-158023190D01*
X125538052Y-158039230D01*
X125655142Y-158200393D01*
X125809806Y-158355057D01*
X125958625Y-158463178D01*
X125986743Y-158483607D01*
X126114132Y-158548515D01*
X126181616Y-158582901D01*
X126181619Y-158582902D01*
X126285621Y-158616693D01*
X126389625Y-158650486D01*
X126476212Y-158664200D01*
X126605639Y-158684700D01*
X126605644Y-158684700D01*
X126824361Y-158684700D01*
X126929082Y-158668112D01*
X127040375Y-158650486D01*
X127248383Y-158582901D01*
X127443257Y-158483607D01*
X127542601Y-158411429D01*
X127620193Y-158355057D01*
X127620195Y-158355054D01*
X127620199Y-158355052D01*
X127774852Y-158200399D01*
X127892257Y-158038803D01*
X127947585Y-157996139D01*
X128017198Y-157990160D01*
X128078994Y-158022765D01*
X128092893Y-158038806D01*
X128111806Y-158064838D01*
X128111807Y-158064838D01*
X128817352Y-157359293D01*
X128840792Y-157446771D01*
X128899311Y-157548130D01*
X128982070Y-157630889D01*
X129083429Y-157689408D01*
X129170905Y-157712847D01*
X128465360Y-158418391D01*
X128527008Y-158463180D01*
X128721808Y-158562437D01*
X128721811Y-158562438D01*
X128929740Y-158629997D01*
X129145684Y-158664200D01*
X129364316Y-158664200D01*
X129580259Y-158629997D01*
X129788188Y-158562438D01*
X129788191Y-158562437D01*
X129982995Y-158463178D01*
X130044638Y-158418391D01*
X130044639Y-158418391D01*
X129339094Y-157712847D01*
X129426571Y-157689408D01*
X129527930Y-157630889D01*
X129610689Y-157548130D01*
X129669208Y-157446771D01*
X129692647Y-157359295D01*
X130398191Y-158064839D01*
X130398191Y-158064838D01*
X130442978Y-158003195D01*
X130542237Y-157808391D01*
X130542238Y-157808388D01*
X130609797Y-157600459D01*
X130644000Y-157384516D01*
X130644000Y-157165883D01*
X130609797Y-156949940D01*
X130542238Y-156742011D01*
X130542237Y-156742008D01*
X130442980Y-156547208D01*
X130398191Y-156485560D01*
X129692647Y-157191104D01*
X129669208Y-157103629D01*
X129610689Y-157002270D01*
X129527930Y-156919511D01*
X129426571Y-156860992D01*
X129339092Y-156837552D01*
X130044638Y-156132007D01*
X130044638Y-156132006D01*
X129982995Y-156087221D01*
X129982993Y-156087220D01*
X129788191Y-155987962D01*
X129788188Y-155987961D01*
X129580259Y-155920402D01*
X129364316Y-155886200D01*
X129145684Y-155886200D01*
X128929740Y-155920402D01*
X128721811Y-155987961D01*
X128721808Y-155987962D01*
X128527001Y-156087223D01*
X128465360Y-156132006D01*
X128465360Y-156132007D01*
X129170905Y-156837552D01*
X129083429Y-156860992D01*
X128982070Y-156919511D01*
X128899311Y-157002270D01*
X128840792Y-157103629D01*
X128817352Y-157191105D01*
X128111807Y-156485560D01*
X128111806Y-156485560D01*
X128078362Y-156531594D01*
X128023032Y-156574260D01*
X127953419Y-156580239D01*
X127891623Y-156547634D01*
X127877727Y-156531598D01*
X127774852Y-156390001D01*
X127620199Y-156235348D01*
X127620193Y-156235342D01*
X127443260Y-156106795D01*
X127443259Y-156106794D01*
X127443257Y-156106793D01*
X127380825Y-156074982D01*
X127248383Y-156007498D01*
X127248380Y-156007497D01*
X127040376Y-155939914D01*
X126824361Y-155905700D01*
X126824356Y-155905700D01*
X126605644Y-155905700D01*
X126605639Y-155905700D01*
X126389623Y-155939914D01*
X126181619Y-156007497D01*
X126181616Y-156007498D01*
X125986739Y-156106795D01*
X125809806Y-156235342D01*
X125655146Y-156390002D01*
X125655142Y-156390007D01*
X125552583Y-156531169D01*
X125497253Y-156573835D01*
X125427640Y-156579814D01*
X125365845Y-156547209D01*
X125351949Y-156531173D01*
X125234852Y-156370001D01*
X125080199Y-156215348D01*
X125080193Y-156215342D01*
X124903260Y-156086795D01*
X124903259Y-156086794D01*
X124903257Y-156086793D01*
X124840825Y-156054982D01*
X124708383Y-155987498D01*
X124708380Y-155987497D01*
X124500376Y-155919914D01*
X124284361Y-155885700D01*
X124284356Y-155885700D01*
X124065644Y-155885700D01*
X124065639Y-155885700D01*
X123849623Y-155919914D01*
X123641619Y-155987497D01*
X123641616Y-155987498D01*
X123446739Y-156086795D01*
X123269806Y-156215342D01*
X123115142Y-156370006D01*
X122986595Y-156546939D01*
X122887298Y-156741816D01*
X122887297Y-156741819D01*
X122819714Y-156949823D01*
X122785500Y-157165838D01*
X70643993Y-157165838D01*
X70609797Y-156949940D01*
X70542238Y-156742011D01*
X70542237Y-156742008D01*
X70442980Y-156547208D01*
X70398191Y-156485560D01*
X69692647Y-157191104D01*
X69669208Y-157103629D01*
X69610689Y-157002270D01*
X69527930Y-156919511D01*
X69426571Y-156860992D01*
X69339092Y-156837552D01*
X70044638Y-156132007D01*
X70044638Y-156132006D01*
X69982995Y-156087221D01*
X69982993Y-156087220D01*
X69788191Y-155987962D01*
X69788188Y-155987961D01*
X69580259Y-155920402D01*
X69364316Y-155886200D01*
X69145684Y-155886200D01*
X68929740Y-155920402D01*
X68721811Y-155987961D01*
X68721808Y-155987962D01*
X68527001Y-156087223D01*
X68465360Y-156132006D01*
X68465360Y-156132007D01*
X69170905Y-156837552D01*
X69083429Y-156860992D01*
X68982070Y-156919511D01*
X68899311Y-157002270D01*
X68840792Y-157103629D01*
X68817352Y-157191105D01*
X68111807Y-156485560D01*
X68111806Y-156485560D01*
X68078362Y-156531594D01*
X68023032Y-156574260D01*
X67953419Y-156580239D01*
X67891623Y-156547634D01*
X67877727Y-156531598D01*
X67774852Y-156390001D01*
X67620199Y-156235348D01*
X67620193Y-156235342D01*
X67443260Y-156106795D01*
X67443259Y-156106794D01*
X67443257Y-156106793D01*
X67380825Y-156074982D01*
X67248383Y-156007498D01*
X67248380Y-156007497D01*
X67040376Y-155939914D01*
X66824361Y-155905700D01*
X66824356Y-155905700D01*
X66605644Y-155905700D01*
X66605639Y-155905700D01*
X66389623Y-155939914D01*
X66181619Y-156007497D01*
X66181616Y-156007498D01*
X65986739Y-156106795D01*
X65809806Y-156235342D01*
X65655146Y-156390002D01*
X65655142Y-156390007D01*
X65552583Y-156531169D01*
X65497253Y-156573835D01*
X65427640Y-156579814D01*
X65365845Y-156547209D01*
X65351949Y-156531173D01*
X65234852Y-156370001D01*
X65080199Y-156215348D01*
X65080193Y-156215342D01*
X64903260Y-156086795D01*
X64903259Y-156086794D01*
X64903257Y-156086793D01*
X64840825Y-156054982D01*
X64708383Y-155987498D01*
X64708380Y-155987497D01*
X64500376Y-155919914D01*
X64284361Y-155885700D01*
X64284356Y-155885700D01*
X64065644Y-155885700D01*
X64065639Y-155885700D01*
X63849623Y-155919914D01*
X63641619Y-155987497D01*
X63641616Y-155987498D01*
X63446739Y-156086795D01*
X63269806Y-156215342D01*
X63115142Y-156370006D01*
X62986595Y-156546939D01*
X62887298Y-156741816D01*
X62887297Y-156741819D01*
X62819714Y-156949823D01*
X62785500Y-157165838D01*
X47000500Y-157165838D01*
X47000500Y-153335848D01*
X58706500Y-153335848D01*
X58706500Y-153594551D01*
X58746967Y-153850050D01*
X58746968Y-153850054D01*
X58826909Y-154096085D01*
X58944353Y-154326582D01*
X59096408Y-154535868D01*
X59279332Y-154718792D01*
X59488618Y-154870847D01*
X59719115Y-154988291D01*
X59965146Y-155068232D01*
X60058591Y-155083032D01*
X60220649Y-155108700D01*
X60220654Y-155108700D01*
X60479351Y-155108700D01*
X60641409Y-155083032D01*
X60734854Y-155068232D01*
X60980885Y-154988291D01*
X61211382Y-154870847D01*
X61420668Y-154718792D01*
X61603592Y-154535868D01*
X61755647Y-154326582D01*
X61873091Y-154096085D01*
X61953032Y-153850054D01*
X61971017Y-153736494D01*
X61993500Y-153594551D01*
X61993500Y-153350648D01*
X71406500Y-153350648D01*
X71406500Y-153609351D01*
X71444623Y-153850050D01*
X71446968Y-153864854D01*
X71518623Y-154085385D01*
X71526910Y-154110887D01*
X71636812Y-154326582D01*
X71644353Y-154341382D01*
X71796408Y-154550668D01*
X71979332Y-154733592D01*
X72188618Y-154885647D01*
X72419115Y-155003091D01*
X72665146Y-155083032D01*
X72760961Y-155098207D01*
X72920649Y-155123500D01*
X72920654Y-155123500D01*
X73179351Y-155123500D01*
X73321294Y-155101017D01*
X73434854Y-155083032D01*
X73680885Y-155003091D01*
X73911382Y-154885647D01*
X74120668Y-154733592D01*
X74303592Y-154550668D01*
X74455647Y-154341382D01*
X74526078Y-154203151D01*
X74561617Y-154133405D01*
X74609592Y-154082609D01*
X74672102Y-154065700D01*
X118735439Y-154065700D01*
X118802478Y-154085385D01*
X118845924Y-154133405D01*
X118944353Y-154326582D01*
X119096408Y-154535868D01*
X119279332Y-154718792D01*
X119488618Y-154870847D01*
X119719115Y-154988291D01*
X119965146Y-155068232D01*
X120058591Y-155083032D01*
X120220649Y-155108700D01*
X120220654Y-155108700D01*
X120479351Y-155108700D01*
X120641409Y-155083032D01*
X120734854Y-155068232D01*
X120980885Y-154988291D01*
X121211382Y-154870847D01*
X121420668Y-154718792D01*
X121603592Y-154535868D01*
X121755647Y-154326582D01*
X121873091Y-154096085D01*
X121953032Y-153850054D01*
X121971017Y-153736494D01*
X121993500Y-153594551D01*
X121993500Y-153350648D01*
X131406500Y-153350648D01*
X131406500Y-153609351D01*
X131444623Y-153850050D01*
X131446968Y-153864854D01*
X131518623Y-154085385D01*
X131526910Y-154110887D01*
X131636812Y-154326582D01*
X131644353Y-154341382D01*
X131796408Y-154550668D01*
X131979332Y-154733592D01*
X132188618Y-154885647D01*
X132419115Y-155003091D01*
X132665146Y-155083032D01*
X132760961Y-155098207D01*
X132920649Y-155123500D01*
X132920654Y-155123500D01*
X133179351Y-155123500D01*
X133321294Y-155101017D01*
X133434854Y-155083032D01*
X133680885Y-155003091D01*
X133911382Y-154885647D01*
X134120668Y-154733592D01*
X134303592Y-154550668D01*
X134455647Y-154341382D01*
X134573091Y-154110885D01*
X134653032Y-153864854D01*
X134671017Y-153751294D01*
X134693500Y-153609351D01*
X134693500Y-153350648D01*
X134653032Y-153095149D01*
X134653032Y-153095146D01*
X134573091Y-152849115D01*
X134455647Y-152618618D01*
X134303592Y-152409332D01*
X134120668Y-152226408D01*
X133911382Y-152074353D01*
X133680885Y-151956909D01*
X133434854Y-151876968D01*
X133434852Y-151876967D01*
X133434850Y-151876967D01*
X133179351Y-151836500D01*
X133179346Y-151836500D01*
X132920654Y-151836500D01*
X132920649Y-151836500D01*
X132665149Y-151876967D01*
X132419112Y-151956910D01*
X132188617Y-152074353D01*
X131979329Y-152226410D01*
X131796410Y-152409329D01*
X131644353Y-152618617D01*
X131526910Y-152849112D01*
X131446967Y-153095149D01*
X131406500Y-153350648D01*
X121993500Y-153350648D01*
X121993500Y-153335848D01*
X121966521Y-153165515D01*
X121953032Y-153080346D01*
X121873091Y-152834315D01*
X121755647Y-152603818D01*
X121603592Y-152394532D01*
X121420668Y-152211608D01*
X121211382Y-152059553D01*
X121052147Y-151978419D01*
X120980887Y-151942110D01*
X120980886Y-151942109D01*
X120980885Y-151942109D01*
X120734854Y-151862168D01*
X120734852Y-151862167D01*
X120734850Y-151862167D01*
X120479351Y-151821700D01*
X120479346Y-151821700D01*
X120220654Y-151821700D01*
X120220649Y-151821700D01*
X119965149Y-151862167D01*
X119719112Y-151942110D01*
X119488617Y-152059553D01*
X119279329Y-152211610D01*
X119096410Y-152394529D01*
X118944353Y-152603817D01*
X118845924Y-152796995D01*
X118797949Y-152847791D01*
X118735439Y-152864700D01*
X74657020Y-152864700D01*
X74589981Y-152845015D01*
X74546535Y-152796995D01*
X74455646Y-152618617D01*
X74444893Y-152603817D01*
X74303592Y-152409332D01*
X74120668Y-152226408D01*
X73911382Y-152074353D01*
X73680885Y-151956909D01*
X73434854Y-151876968D01*
X73434852Y-151876967D01*
X73434850Y-151876967D01*
X73179351Y-151836500D01*
X73179346Y-151836500D01*
X72920654Y-151836500D01*
X72920649Y-151836500D01*
X72665149Y-151876967D01*
X72419112Y-151956910D01*
X72188617Y-152074353D01*
X71979329Y-152226410D01*
X71796410Y-152409329D01*
X71644353Y-152618617D01*
X71526910Y-152849112D01*
X71446967Y-153095149D01*
X71406500Y-153350648D01*
X61993500Y-153350648D01*
X61993500Y-153335848D01*
X61966521Y-153165515D01*
X61953032Y-153080346D01*
X61873091Y-152834315D01*
X61755647Y-152603818D01*
X61603592Y-152394532D01*
X61420668Y-152211608D01*
X61211382Y-152059553D01*
X61052147Y-151978419D01*
X60980887Y-151942110D01*
X60980886Y-151942109D01*
X60980885Y-151942109D01*
X60734854Y-151862168D01*
X60734852Y-151862167D01*
X60734850Y-151862167D01*
X60479351Y-151821700D01*
X60479346Y-151821700D01*
X60220654Y-151821700D01*
X60220649Y-151821700D01*
X59965149Y-151862167D01*
X59719112Y-151942110D01*
X59488617Y-152059553D01*
X59279329Y-152211610D01*
X59096410Y-152394529D01*
X58944353Y-152603817D01*
X58826910Y-152834312D01*
X58746967Y-153080349D01*
X58706500Y-153335848D01*
X47000500Y-153335848D01*
X47000500Y-148275838D01*
X56405500Y-148275838D01*
X56405500Y-148494561D01*
X56439714Y-148710576D01*
X56507297Y-148918580D01*
X56507298Y-148918583D01*
X56559779Y-149021580D01*
X56600239Y-149100987D01*
X56606595Y-149113460D01*
X56735142Y-149290393D01*
X56735148Y-149290399D01*
X56889801Y-149445052D01*
X57041395Y-149555191D01*
X57084060Y-149610519D01*
X57090039Y-149680132D01*
X57057434Y-149741928D01*
X57041394Y-149755826D01*
X57005360Y-149782005D01*
X57005360Y-149782007D01*
X57710905Y-150487552D01*
X57623429Y-150510992D01*
X57522070Y-150569511D01*
X57439311Y-150652270D01*
X57380792Y-150753629D01*
X57357352Y-150841105D01*
X56651807Y-150135560D01*
X56651806Y-150135560D01*
X56607023Y-150197201D01*
X56507762Y-150392008D01*
X56507761Y-150392011D01*
X56440202Y-150599940D01*
X56406000Y-150815883D01*
X56406000Y-151034516D01*
X56440202Y-151250459D01*
X56507761Y-151458388D01*
X56507762Y-151458391D01*
X56607020Y-151653193D01*
X56607021Y-151653195D01*
X56651806Y-151714838D01*
X56651807Y-151714838D01*
X57357352Y-151009293D01*
X57380792Y-151096771D01*
X57439311Y-151198130D01*
X57522070Y-151280889D01*
X57623429Y-151339408D01*
X57710905Y-151362847D01*
X57005360Y-152068391D01*
X57067008Y-152113180D01*
X57261808Y-152212437D01*
X57261811Y-152212438D01*
X57469740Y-152279997D01*
X57685684Y-152314200D01*
X57904316Y-152314200D01*
X58120259Y-152279997D01*
X58328188Y-152212438D01*
X58328191Y-152212437D01*
X58522995Y-152113178D01*
X58584638Y-152068391D01*
X58584639Y-152068391D01*
X57879094Y-151362847D01*
X57966571Y-151339408D01*
X58067930Y-151280889D01*
X58150689Y-151198130D01*
X58209208Y-151096771D01*
X58232647Y-151009295D01*
X58938191Y-151714839D01*
X58938191Y-151714838D01*
X58982978Y-151653195D01*
X59023371Y-151573920D01*
X82549499Y-151573920D01*
X82578340Y-151718907D01*
X82578343Y-151718917D01*
X82634912Y-151855488D01*
X82634919Y-151855501D01*
X82717048Y-151978415D01*
X82717051Y-151978419D01*
X82821580Y-152082948D01*
X82821584Y-152082951D01*
X82944498Y-152165080D01*
X82944511Y-152165087D01*
X83056824Y-152211608D01*
X83081087Y-152221658D01*
X83081091Y-152221658D01*
X83081092Y-152221659D01*
X83226079Y-152250500D01*
X83226082Y-152250500D01*
X83373920Y-152250500D01*
X83471462Y-152231096D01*
X83518913Y-152221658D01*
X83655495Y-152165084D01*
X83778416Y-152082951D01*
X83882951Y-151978416D01*
X83965084Y-151855495D01*
X84021658Y-151718913D01*
X84031096Y-151671462D01*
X84050500Y-151573920D01*
X84050500Y-151426079D01*
X84021659Y-151281092D01*
X84021658Y-151281091D01*
X84021658Y-151281087D01*
X84020691Y-151278753D01*
X83965087Y-151144511D01*
X83965080Y-151144498D01*
X83882951Y-151021584D01*
X83882948Y-151021580D01*
X83778419Y-150917051D01*
X83778415Y-150917048D01*
X83655501Y-150834919D01*
X83655488Y-150834912D01*
X83518917Y-150778343D01*
X83518907Y-150778340D01*
X83373920Y-150749500D01*
X83373918Y-150749500D01*
X83226082Y-150749500D01*
X83226080Y-150749500D01*
X83081092Y-150778340D01*
X83081082Y-150778343D01*
X82944511Y-150834912D01*
X82944498Y-150834919D01*
X82821584Y-150917048D01*
X82821580Y-150917051D01*
X82717051Y-151021580D01*
X82717048Y-151021584D01*
X82634919Y-151144498D01*
X82634912Y-151144511D01*
X82578343Y-151281082D01*
X82578340Y-151281092D01*
X82549500Y-151426079D01*
X82549500Y-151426082D01*
X82549500Y-151573918D01*
X82549500Y-151573920D01*
X82549499Y-151573920D01*
X59023371Y-151573920D01*
X59082237Y-151458391D01*
X59082238Y-151458388D01*
X59107165Y-151381672D01*
X59149797Y-151250459D01*
X59184000Y-151034516D01*
X59184000Y-150815883D01*
X59149797Y-150599940D01*
X59082238Y-150392011D01*
X59082237Y-150392008D01*
X58982980Y-150197208D01*
X58938191Y-150135560D01*
X58232647Y-150841104D01*
X58209208Y-150753629D01*
X58150689Y-150652270D01*
X58067930Y-150569511D01*
X57966571Y-150510992D01*
X57879092Y-150487552D01*
X58584638Y-149782007D01*
X58584638Y-149782006D01*
X58548606Y-149755828D01*
X58505939Y-149700499D01*
X58499959Y-149630885D01*
X58530016Y-149573920D01*
X82549499Y-149573920D01*
X82578340Y-149718907D01*
X82578343Y-149718917D01*
X82634912Y-149855488D01*
X82634919Y-149855501D01*
X82717048Y-149978415D01*
X82717051Y-149978419D01*
X82821580Y-150082948D01*
X82821584Y-150082951D01*
X82944498Y-150165080D01*
X82944511Y-150165087D01*
X83022042Y-150197201D01*
X83081087Y-150221658D01*
X83081091Y-150221658D01*
X83081092Y-150221659D01*
X83226079Y-150250500D01*
X83226082Y-150250500D01*
X83373920Y-150250500D01*
X83471462Y-150231096D01*
X83518913Y-150221658D01*
X83655495Y-150165084D01*
X83778416Y-150082951D01*
X83882951Y-149978416D01*
X83894989Y-149960399D01*
X85199500Y-149960399D01*
X85199500Y-150196594D01*
X85236446Y-150429865D01*
X85309433Y-150654493D01*
X85416657Y-150864930D01*
X85555483Y-151056007D01*
X85722490Y-151223014D01*
X85913567Y-151361840D01*
X85952490Y-151381672D01*
X86124003Y-151469063D01*
X86124005Y-151469063D01*
X86124008Y-151469065D01*
X86244412Y-151508186D01*
X86348631Y-151542050D01*
X86581903Y-151578997D01*
X86581908Y-151578997D01*
X86818097Y-151578997D01*
X87051368Y-151542050D01*
X87275992Y-151469065D01*
X87486433Y-151361840D01*
X87677510Y-151223014D01*
X87844517Y-151056007D01*
X87983343Y-150864930D01*
X88090568Y-150654489D01*
X88163553Y-150429865D01*
X88200500Y-150196594D01*
X88200500Y-149960399D01*
X91699500Y-149960399D01*
X91699500Y-150196594D01*
X91736446Y-150429865D01*
X91809433Y-150654493D01*
X91916657Y-150864930D01*
X92055483Y-151056007D01*
X92222490Y-151223014D01*
X92413567Y-151361840D01*
X92452490Y-151381672D01*
X92624003Y-151469063D01*
X92624005Y-151469063D01*
X92624008Y-151469065D01*
X92744412Y-151508186D01*
X92848631Y-151542050D01*
X93081903Y-151578997D01*
X93081908Y-151578997D01*
X93318097Y-151578997D01*
X93551368Y-151542050D01*
X93775992Y-151469065D01*
X93986433Y-151361840D01*
X94177510Y-151223014D01*
X94344517Y-151056007D01*
X94483343Y-150864930D01*
X94590568Y-150654489D01*
X94663553Y-150429865D01*
X94700500Y-150196594D01*
X94700500Y-149960399D01*
X98749500Y-149960399D01*
X98749500Y-150196594D01*
X98786446Y-150429865D01*
X98859433Y-150654493D01*
X98966657Y-150864930D01*
X99105483Y-151056007D01*
X99272490Y-151223014D01*
X99463567Y-151361840D01*
X99502490Y-151381672D01*
X99674003Y-151469063D01*
X99674005Y-151469063D01*
X99674008Y-151469065D01*
X99794412Y-151508186D01*
X99898631Y-151542050D01*
X100131903Y-151578997D01*
X100131908Y-151578997D01*
X100368097Y-151578997D01*
X100601368Y-151542050D01*
X100825992Y-151469065D01*
X101036433Y-151361840D01*
X101227510Y-151223014D01*
X101394517Y-151056007D01*
X101533343Y-150864930D01*
X101640568Y-150654489D01*
X101713553Y-150429865D01*
X101750500Y-150196594D01*
X101750500Y-149960399D01*
X105249500Y-149960399D01*
X105249500Y-150196594D01*
X105286446Y-150429865D01*
X105359433Y-150654493D01*
X105466657Y-150864930D01*
X105605483Y-151056007D01*
X105772490Y-151223014D01*
X105963567Y-151361840D01*
X106002490Y-151381672D01*
X106174003Y-151469063D01*
X106174005Y-151469063D01*
X106174008Y-151469065D01*
X106294412Y-151508186D01*
X106398631Y-151542050D01*
X106631903Y-151578997D01*
X106631908Y-151578997D01*
X106868097Y-151578997D01*
X107101368Y-151542050D01*
X107325992Y-151469065D01*
X107536433Y-151361840D01*
X107727510Y-151223014D01*
X107894517Y-151056007D01*
X108033343Y-150864930D01*
X108092158Y-150749500D01*
X108140566Y-150654493D01*
X108140566Y-150654492D01*
X108140568Y-150654489D01*
X108213553Y-150429865D01*
X108250500Y-150196594D01*
X108250500Y-149960399D01*
X108213553Y-149727128D01*
X108163772Y-149573920D01*
X108140568Y-149502505D01*
X108140566Y-149502502D01*
X108140566Y-149502500D01*
X108033342Y-149292063D01*
X108025371Y-149281092D01*
X107894517Y-149100987D01*
X107727510Y-148933980D01*
X107536433Y-148795154D01*
X107503434Y-148778340D01*
X107325996Y-148687930D01*
X107101368Y-148614943D01*
X106868097Y-148577997D01*
X106868092Y-148577997D01*
X106631908Y-148577997D01*
X106631903Y-148577997D01*
X106398631Y-148614943D01*
X106174003Y-148687930D01*
X105963566Y-148795154D01*
X105908839Y-148834916D01*
X105772490Y-148933980D01*
X105772488Y-148933982D01*
X105772487Y-148933982D01*
X105605485Y-149100984D01*
X105605485Y-149100985D01*
X105605483Y-149100987D01*
X105573865Y-149144505D01*
X105466657Y-149292063D01*
X105359433Y-149502500D01*
X105286446Y-149727128D01*
X105249500Y-149960399D01*
X101750500Y-149960399D01*
X101713553Y-149727128D01*
X101663772Y-149573920D01*
X101640568Y-149502505D01*
X101640566Y-149502502D01*
X101640566Y-149502500D01*
X101533342Y-149292063D01*
X101525371Y-149281092D01*
X101394517Y-149100987D01*
X101227510Y-148933980D01*
X101036433Y-148795154D01*
X101003434Y-148778340D01*
X100825996Y-148687930D01*
X100601368Y-148614943D01*
X100368097Y-148577997D01*
X100368092Y-148577997D01*
X100131908Y-148577997D01*
X100131903Y-148577997D01*
X99898631Y-148614943D01*
X99674003Y-148687930D01*
X99463566Y-148795154D01*
X99408839Y-148834916D01*
X99272490Y-148933980D01*
X99272488Y-148933982D01*
X99272487Y-148933982D01*
X99105485Y-149100984D01*
X99105485Y-149100985D01*
X99105483Y-149100987D01*
X99073865Y-149144505D01*
X98966657Y-149292063D01*
X98859433Y-149502500D01*
X98786446Y-149727128D01*
X98749500Y-149960399D01*
X94700500Y-149960399D01*
X94663553Y-149727128D01*
X94613772Y-149573920D01*
X94590568Y-149502505D01*
X94590566Y-149502502D01*
X94590566Y-149502500D01*
X94483342Y-149292063D01*
X94475371Y-149281092D01*
X94344517Y-149100987D01*
X94177510Y-148933980D01*
X93986433Y-148795154D01*
X93953434Y-148778340D01*
X93775996Y-148687930D01*
X93551368Y-148614943D01*
X93318097Y-148577997D01*
X93318092Y-148577997D01*
X93081908Y-148577997D01*
X93081903Y-148577997D01*
X92848631Y-148614943D01*
X92624003Y-148687930D01*
X92413566Y-148795154D01*
X92358839Y-148834916D01*
X92222490Y-148933980D01*
X92222488Y-148933982D01*
X92222487Y-148933982D01*
X92055485Y-149100984D01*
X92055485Y-149100985D01*
X92055483Y-149100987D01*
X92023865Y-149144505D01*
X91916657Y-149292063D01*
X91809433Y-149502500D01*
X91736446Y-149727128D01*
X91699500Y-149960399D01*
X88200500Y-149960399D01*
X88163553Y-149727128D01*
X88113772Y-149573920D01*
X88090568Y-149502505D01*
X88090566Y-149502502D01*
X88090566Y-149502500D01*
X87983342Y-149292063D01*
X87975371Y-149281092D01*
X87844517Y-149100987D01*
X87677510Y-148933980D01*
X87486433Y-148795154D01*
X87453434Y-148778340D01*
X87275996Y-148687930D01*
X87051368Y-148614943D01*
X86818097Y-148577997D01*
X86818092Y-148577997D01*
X86581908Y-148577997D01*
X86581903Y-148577997D01*
X86348631Y-148614943D01*
X86124003Y-148687930D01*
X85913566Y-148795154D01*
X85858839Y-148834916D01*
X85722490Y-148933980D01*
X85722488Y-148933982D01*
X85722487Y-148933982D01*
X85555485Y-149100984D01*
X85555485Y-149100985D01*
X85555483Y-149100987D01*
X85523865Y-149144505D01*
X85416657Y-149292063D01*
X85309433Y-149502500D01*
X85236446Y-149727128D01*
X85199500Y-149960399D01*
X83894989Y-149960399D01*
X83912620Y-149934011D01*
X83944273Y-149886642D01*
X83965080Y-149855501D01*
X83965080Y-149855500D01*
X83965084Y-149855495D01*
X84021658Y-149718913D01*
X84039168Y-149630885D01*
X84050500Y-149573920D01*
X84050500Y-149426079D01*
X84021659Y-149281092D01*
X84021658Y-149281091D01*
X84021658Y-149281087D01*
X84021656Y-149281082D01*
X83965087Y-149144511D01*
X83965080Y-149144498D01*
X83882951Y-149021584D01*
X83882948Y-149021580D01*
X83778419Y-148917051D01*
X83778415Y-148917048D01*
X83655501Y-148834919D01*
X83655488Y-148834912D01*
X83518917Y-148778343D01*
X83518907Y-148778340D01*
X83373920Y-148749500D01*
X83373918Y-148749500D01*
X83226082Y-148749500D01*
X83226080Y-148749500D01*
X83081092Y-148778340D01*
X83081082Y-148778343D01*
X82944511Y-148834912D01*
X82944498Y-148834919D01*
X82821584Y-148917048D01*
X82821580Y-148917051D01*
X82717051Y-149021580D01*
X82717048Y-149021584D01*
X82634919Y-149144498D01*
X82634912Y-149144511D01*
X82578343Y-149281082D01*
X82578340Y-149281092D01*
X82549500Y-149426079D01*
X82549500Y-149426082D01*
X82549500Y-149573918D01*
X82549500Y-149573920D01*
X82549499Y-149573920D01*
X58530016Y-149573920D01*
X58532565Y-149569090D01*
X58548599Y-149555194D01*
X58700199Y-149445052D01*
X58854852Y-149290399D01*
X58854854Y-149290395D01*
X58854857Y-149290393D01*
X58960849Y-149144505D01*
X58983407Y-149113457D01*
X59082701Y-148918583D01*
X59150286Y-148710575D01*
X59171284Y-148577997D01*
X59184500Y-148494561D01*
X59184500Y-148275838D01*
X116405500Y-148275838D01*
X116405500Y-148494561D01*
X116439714Y-148710576D01*
X116507297Y-148918580D01*
X116507298Y-148918583D01*
X116559779Y-149021580D01*
X116600239Y-149100987D01*
X116606595Y-149113460D01*
X116735142Y-149290393D01*
X116735148Y-149290399D01*
X116889801Y-149445052D01*
X117041395Y-149555191D01*
X117084060Y-149610519D01*
X117090039Y-149680132D01*
X117057434Y-149741928D01*
X117041394Y-149755826D01*
X117005360Y-149782005D01*
X117005360Y-149782007D01*
X117710905Y-150487552D01*
X117623429Y-150510992D01*
X117522070Y-150569511D01*
X117439311Y-150652270D01*
X117380792Y-150753629D01*
X117357352Y-150841105D01*
X116651807Y-150135560D01*
X116651806Y-150135560D01*
X116607023Y-150197201D01*
X116507762Y-150392008D01*
X116507761Y-150392011D01*
X116440202Y-150599940D01*
X116406000Y-150815883D01*
X116406000Y-151034516D01*
X116440202Y-151250459D01*
X116507761Y-151458388D01*
X116507762Y-151458391D01*
X116607020Y-151653193D01*
X116607021Y-151653195D01*
X116651806Y-151714838D01*
X116651807Y-151714838D01*
X117357352Y-151009293D01*
X117380792Y-151096771D01*
X117439311Y-151198130D01*
X117522070Y-151280889D01*
X117623429Y-151339408D01*
X117710905Y-151362847D01*
X117005360Y-152068391D01*
X117067008Y-152113180D01*
X117261808Y-152212437D01*
X117261811Y-152212438D01*
X117469740Y-152279997D01*
X117685684Y-152314200D01*
X117904316Y-152314200D01*
X118120259Y-152279997D01*
X118328188Y-152212438D01*
X118328191Y-152212437D01*
X118522995Y-152113178D01*
X118584638Y-152068391D01*
X118584639Y-152068391D01*
X117879094Y-151362847D01*
X117966571Y-151339408D01*
X118067930Y-151280889D01*
X118150689Y-151198130D01*
X118209208Y-151096771D01*
X118232647Y-151009295D01*
X118938191Y-151714839D01*
X118938191Y-151714838D01*
X118982978Y-151653195D01*
X119082237Y-151458391D01*
X119082238Y-151458388D01*
X119149797Y-151250459D01*
X119184000Y-151034516D01*
X119184000Y-150815883D01*
X119149797Y-150599940D01*
X119082238Y-150392011D01*
X119082237Y-150392008D01*
X118982980Y-150197208D01*
X118938191Y-150135560D01*
X118232647Y-150841104D01*
X118209208Y-150753629D01*
X118150689Y-150652270D01*
X118067930Y-150569511D01*
X117966571Y-150510992D01*
X117879092Y-150487552D01*
X118584638Y-149782007D01*
X118584638Y-149782006D01*
X118548606Y-149755828D01*
X118505939Y-149700499D01*
X118499959Y-149630885D01*
X118532565Y-149569090D01*
X118548599Y-149555194D01*
X118700199Y-149445052D01*
X118854852Y-149290399D01*
X118854854Y-149290395D01*
X118854857Y-149290393D01*
X118960849Y-149144505D01*
X118983407Y-149113457D01*
X119082701Y-148918583D01*
X119150286Y-148710575D01*
X119171284Y-148577997D01*
X119184500Y-148494561D01*
X119184500Y-148275838D01*
X119164595Y-148150171D01*
X119150286Y-148059825D01*
X119082701Y-147851817D01*
X119082701Y-147851816D01*
X119048315Y-147784332D01*
X118983407Y-147656943D01*
X118975147Y-147645574D01*
X118854857Y-147480006D01*
X118700193Y-147325342D01*
X118566716Y-147228367D01*
X118524050Y-147173038D01*
X118518071Y-147103424D01*
X118550676Y-147041629D01*
X118566716Y-147027731D01*
X118715193Y-146919857D01*
X118715195Y-146919854D01*
X118715199Y-146919852D01*
X118869852Y-146765199D01*
X118869854Y-146765195D01*
X118869857Y-146765193D01*
X118926229Y-146687601D01*
X118998407Y-146588257D01*
X119097701Y-146393383D01*
X119165286Y-146185375D01*
X119182912Y-146074082D01*
X119199500Y-145969361D01*
X119199500Y-145750638D01*
X119179595Y-145624971D01*
X119165286Y-145534625D01*
X119097701Y-145326617D01*
X119097701Y-145326616D01*
X119047008Y-145227128D01*
X118998407Y-145131743D01*
X118990147Y-145120374D01*
X118869857Y-144954806D01*
X118715193Y-144800142D01*
X118538260Y-144671595D01*
X118538259Y-144671594D01*
X118538257Y-144671593D01*
X118475825Y-144639782D01*
X118343383Y-144572298D01*
X118343380Y-144572297D01*
X118135376Y-144504714D01*
X117919361Y-144470500D01*
X117919356Y-144470500D01*
X117700644Y-144470500D01*
X117700639Y-144470500D01*
X117484623Y-144504714D01*
X117276619Y-144572297D01*
X117276616Y-144572298D01*
X117081739Y-144671595D01*
X116904806Y-144800142D01*
X116750142Y-144954806D01*
X116621595Y-145131739D01*
X116522298Y-145326616D01*
X116522297Y-145326619D01*
X116454714Y-145534623D01*
X116420500Y-145750638D01*
X116420500Y-145969361D01*
X116454714Y-146185376D01*
X116522297Y-146393380D01*
X116522298Y-146393383D01*
X116621595Y-146588260D01*
X116750142Y-146765193D01*
X116750148Y-146765199D01*
X116904801Y-146919852D01*
X117038284Y-147016832D01*
X117080949Y-147072161D01*
X117086928Y-147141774D01*
X117054323Y-147203570D01*
X117038284Y-147217468D01*
X116889802Y-147325346D01*
X116735142Y-147480006D01*
X116606595Y-147656939D01*
X116507298Y-147851816D01*
X116507297Y-147851819D01*
X116439714Y-148059823D01*
X116405500Y-148275838D01*
X59184500Y-148275838D01*
X59164595Y-148150171D01*
X59150286Y-148059825D01*
X59082701Y-147851817D01*
X59082701Y-147851816D01*
X59048315Y-147784332D01*
X58983407Y-147656943D01*
X58975147Y-147645574D01*
X58854857Y-147480006D01*
X58700193Y-147325342D01*
X58566716Y-147228367D01*
X58524050Y-147173038D01*
X58518071Y-147103424D01*
X58550676Y-147041629D01*
X58566716Y-147027731D01*
X58715193Y-146919857D01*
X58715195Y-146919854D01*
X58715199Y-146919852D01*
X58869852Y-146765199D01*
X58869854Y-146765195D01*
X58869857Y-146765193D01*
X58926229Y-146687601D01*
X58998407Y-146588257D01*
X59097701Y-146393383D01*
X59165286Y-146185375D01*
X59182912Y-146074082D01*
X59199500Y-145969361D01*
X59199500Y-145750638D01*
X59165286Y-145534624D01*
X59152038Y-145493851D01*
X59141169Y-145460399D01*
X85199500Y-145460399D01*
X85199500Y-145696594D01*
X85236446Y-145929865D01*
X85309433Y-146154493D01*
X85416657Y-146364930D01*
X85555483Y-146556007D01*
X85722490Y-146723014D01*
X85913567Y-146861840D01*
X86012991Y-146912499D01*
X86124003Y-146969063D01*
X86124005Y-146969063D01*
X86124008Y-146969065D01*
X86244412Y-147008186D01*
X86348631Y-147042050D01*
X86581903Y-147078997D01*
X86581908Y-147078997D01*
X86818097Y-147078997D01*
X87051368Y-147042050D01*
X87095437Y-147027731D01*
X87275992Y-146969065D01*
X87486433Y-146861840D01*
X87677510Y-146723014D01*
X87844517Y-146556007D01*
X87983343Y-146364930D01*
X88090568Y-146154489D01*
X88163553Y-145929865D01*
X88191940Y-145750638D01*
X88200500Y-145696594D01*
X88200500Y-145460399D01*
X91699500Y-145460399D01*
X91699500Y-145696594D01*
X91736446Y-145929865D01*
X91809433Y-146154493D01*
X91916657Y-146364930D01*
X92055483Y-146556007D01*
X92222490Y-146723014D01*
X92413567Y-146861840D01*
X92512991Y-146912499D01*
X92624003Y-146969063D01*
X92624005Y-146969063D01*
X92624008Y-146969065D01*
X92744412Y-147008186D01*
X92848631Y-147042050D01*
X93081903Y-147078997D01*
X93081908Y-147078997D01*
X93318097Y-147078997D01*
X93551368Y-147042050D01*
X93595437Y-147027731D01*
X93775992Y-146969065D01*
X93986433Y-146861840D01*
X94177510Y-146723014D01*
X94344517Y-146556007D01*
X94483343Y-146364930D01*
X94590568Y-146154489D01*
X94663553Y-145929865D01*
X94691940Y-145750638D01*
X94700500Y-145696594D01*
X94700500Y-145460399D01*
X98749500Y-145460399D01*
X98749500Y-145696594D01*
X98786446Y-145929865D01*
X98859433Y-146154493D01*
X98966657Y-146364930D01*
X99105483Y-146556007D01*
X99272490Y-146723014D01*
X99463567Y-146861840D01*
X99562991Y-146912499D01*
X99674003Y-146969063D01*
X99674005Y-146969063D01*
X99674008Y-146969065D01*
X99794412Y-147008186D01*
X99898631Y-147042050D01*
X100131903Y-147078997D01*
X100131908Y-147078997D01*
X100368097Y-147078997D01*
X100601368Y-147042050D01*
X100645437Y-147027731D01*
X100825992Y-146969065D01*
X101036433Y-146861840D01*
X101227510Y-146723014D01*
X101394517Y-146556007D01*
X101533343Y-146364930D01*
X101640568Y-146154489D01*
X101713553Y-145929865D01*
X101741940Y-145750638D01*
X101750500Y-145696594D01*
X101750500Y-145460399D01*
X105249500Y-145460399D01*
X105249500Y-145696594D01*
X105286446Y-145929865D01*
X105359433Y-146154493D01*
X105466657Y-146364930D01*
X105605483Y-146556007D01*
X105772490Y-146723014D01*
X105963567Y-146861840D01*
X106062991Y-146912499D01*
X106174003Y-146969063D01*
X106174005Y-146969063D01*
X106174008Y-146969065D01*
X106294412Y-147008186D01*
X106398631Y-147042050D01*
X106631903Y-147078997D01*
X106631908Y-147078997D01*
X106868097Y-147078997D01*
X107101368Y-147042050D01*
X107145437Y-147027731D01*
X107325992Y-146969065D01*
X107536433Y-146861840D01*
X107727510Y-146723014D01*
X107894517Y-146556007D01*
X108033343Y-146364930D01*
X108140568Y-146154489D01*
X108213553Y-145929865D01*
X108241940Y-145750638D01*
X108250500Y-145696594D01*
X108250500Y-145460399D01*
X108213553Y-145227128D01*
X108140566Y-145002500D01*
X108067086Y-144858289D01*
X108033343Y-144792064D01*
X107894517Y-144600987D01*
X107727510Y-144433980D01*
X107536433Y-144295154D01*
X107325996Y-144187930D01*
X107101368Y-144114943D01*
X106868097Y-144077997D01*
X106868092Y-144077997D01*
X106631908Y-144077997D01*
X106631903Y-144077997D01*
X106398631Y-144114943D01*
X106174003Y-144187930D01*
X105963566Y-144295154D01*
X105854550Y-144374359D01*
X105772490Y-144433980D01*
X105772488Y-144433982D01*
X105772487Y-144433982D01*
X105605485Y-144600984D01*
X105605485Y-144600985D01*
X105605483Y-144600987D01*
X105554185Y-144671593D01*
X105466657Y-144792063D01*
X105359433Y-145002500D01*
X105286446Y-145227128D01*
X105249500Y-145460399D01*
X101750500Y-145460399D01*
X101713553Y-145227128D01*
X101640566Y-145002500D01*
X101567086Y-144858289D01*
X101533343Y-144792064D01*
X101394517Y-144600987D01*
X101227510Y-144433980D01*
X101036433Y-144295154D01*
X100825996Y-144187930D01*
X100601368Y-144114943D01*
X100368097Y-144077997D01*
X100368092Y-144077997D01*
X100131908Y-144077997D01*
X100131903Y-144077997D01*
X99898631Y-144114943D01*
X99674003Y-144187930D01*
X99463566Y-144295154D01*
X99354550Y-144374359D01*
X99272490Y-144433980D01*
X99272488Y-144433982D01*
X99272487Y-144433982D01*
X99105485Y-144600984D01*
X99105485Y-144600985D01*
X99105483Y-144600987D01*
X99054185Y-144671593D01*
X98966657Y-144792063D01*
X98859433Y-145002500D01*
X98786446Y-145227128D01*
X98749500Y-145460399D01*
X94700500Y-145460399D01*
X94663553Y-145227128D01*
X94590566Y-145002500D01*
X94517086Y-144858289D01*
X94483343Y-144792064D01*
X94344517Y-144600987D01*
X94177510Y-144433980D01*
X93986433Y-144295154D01*
X93775996Y-144187930D01*
X93551368Y-144114943D01*
X93318097Y-144077997D01*
X93318092Y-144077997D01*
X93081908Y-144077997D01*
X93081903Y-144077997D01*
X92848631Y-144114943D01*
X92624003Y-144187930D01*
X92413566Y-144295154D01*
X92304550Y-144374359D01*
X92222490Y-144433980D01*
X92222488Y-144433982D01*
X92222487Y-144433982D01*
X92055485Y-144600984D01*
X92055485Y-144600985D01*
X92055483Y-144600987D01*
X92004185Y-144671593D01*
X91916657Y-144792063D01*
X91809433Y-145002500D01*
X91736446Y-145227128D01*
X91699500Y-145460399D01*
X88200500Y-145460399D01*
X88163553Y-145227128D01*
X88090566Y-145002500D01*
X88017086Y-144858289D01*
X87983343Y-144792064D01*
X87844517Y-144600987D01*
X87677510Y-144433980D01*
X87486433Y-144295154D01*
X87275996Y-144187930D01*
X87051368Y-144114943D01*
X86818097Y-144077997D01*
X86818092Y-144077997D01*
X86581908Y-144077997D01*
X86581903Y-144077997D01*
X86348631Y-144114943D01*
X86124003Y-144187930D01*
X85913566Y-144295154D01*
X85804550Y-144374359D01*
X85722490Y-144433980D01*
X85722488Y-144433982D01*
X85722487Y-144433982D01*
X85555485Y-144600984D01*
X85555485Y-144600985D01*
X85555483Y-144600987D01*
X85504185Y-144671593D01*
X85416657Y-144792063D01*
X85309433Y-145002500D01*
X85236446Y-145227128D01*
X85199500Y-145460399D01*
X59141169Y-145460399D01*
X59097702Y-145326619D01*
X59097701Y-145326616D01*
X59047008Y-145227128D01*
X58998407Y-145131743D01*
X58990147Y-145120374D01*
X58869857Y-144954806D01*
X58715193Y-144800142D01*
X58538260Y-144671595D01*
X58538259Y-144671594D01*
X58538257Y-144671593D01*
X58475825Y-144639782D01*
X58343383Y-144572298D01*
X58343380Y-144572297D01*
X58135376Y-144504714D01*
X57919361Y-144470500D01*
X57919356Y-144470500D01*
X57700644Y-144470500D01*
X57700639Y-144470500D01*
X57484623Y-144504714D01*
X57276619Y-144572297D01*
X57276616Y-144572298D01*
X57081739Y-144671595D01*
X56904806Y-144800142D01*
X56750142Y-144954806D01*
X56621595Y-145131739D01*
X56522298Y-145326616D01*
X56522297Y-145326619D01*
X56454714Y-145534623D01*
X56420500Y-145750638D01*
X56420500Y-145969361D01*
X56454714Y-146185376D01*
X56522297Y-146393380D01*
X56522298Y-146393383D01*
X56621595Y-146588260D01*
X56750142Y-146765193D01*
X56750148Y-146765199D01*
X56904801Y-146919852D01*
X57038284Y-147016832D01*
X57080949Y-147072161D01*
X57086928Y-147141774D01*
X57054323Y-147203570D01*
X57038284Y-147217468D01*
X56889802Y-147325346D01*
X56735142Y-147480006D01*
X56606595Y-147656939D01*
X56507298Y-147851816D01*
X56507297Y-147851819D01*
X56439714Y-148059823D01*
X56405500Y-148275838D01*
X47000500Y-148275838D01*
X47000500Y-125648920D01*
X57365184Y-125648920D01*
X57394025Y-125793907D01*
X57394028Y-125793917D01*
X57450597Y-125930488D01*
X57450604Y-125930501D01*
X57532733Y-126053415D01*
X57532736Y-126053419D01*
X57637265Y-126157948D01*
X57637269Y-126157951D01*
X57760183Y-126240080D01*
X57760196Y-126240087D01*
X57896767Y-126296656D01*
X57896772Y-126296658D01*
X57896776Y-126296658D01*
X57896777Y-126296659D01*
X58041764Y-126325500D01*
X58041767Y-126325500D01*
X58189605Y-126325500D01*
X58287147Y-126306096D01*
X58334598Y-126296658D01*
X58446029Y-126250502D01*
X58471173Y-126240087D01*
X58471173Y-126240086D01*
X58471180Y-126240084D01*
X58594101Y-126157951D01*
X58698636Y-126053416D01*
X58780769Y-125930495D01*
X58837343Y-125793913D01*
X58860331Y-125678349D01*
X58866185Y-125648920D01*
X58866185Y-125501079D01*
X58837344Y-125356092D01*
X58837343Y-125356091D01*
X58837343Y-125356087D01*
X58821945Y-125318913D01*
X58780772Y-125219511D01*
X58780765Y-125219498D01*
X58698636Y-125096584D01*
X58698633Y-125096580D01*
X58594104Y-124992051D01*
X58594100Y-124992048D01*
X58471186Y-124909919D01*
X58471173Y-124909912D01*
X58334602Y-124853343D01*
X58334592Y-124853340D01*
X58189605Y-124824500D01*
X58189603Y-124824500D01*
X58041767Y-124824500D01*
X58041765Y-124824500D01*
X57896777Y-124853340D01*
X57896767Y-124853343D01*
X57760196Y-124909912D01*
X57760183Y-124909919D01*
X57637269Y-124992048D01*
X57637265Y-124992051D01*
X57532736Y-125096580D01*
X57532733Y-125096584D01*
X57450604Y-125219498D01*
X57450597Y-125219511D01*
X57394028Y-125356082D01*
X57394025Y-125356092D01*
X57365185Y-125501079D01*
X57365185Y-125501082D01*
X57365185Y-125648918D01*
X57365185Y-125648920D01*
X57365184Y-125648920D01*
X47000500Y-125648920D01*
X47000500Y-121873920D01*
X57549499Y-121873920D01*
X57578340Y-122018907D01*
X57578343Y-122018917D01*
X57634912Y-122155488D01*
X57634919Y-122155501D01*
X57717048Y-122278415D01*
X57717051Y-122278419D01*
X57821580Y-122382948D01*
X57821584Y-122382951D01*
X57944498Y-122465080D01*
X57944511Y-122465087D01*
X58059390Y-122512671D01*
X58081087Y-122521658D01*
X58081091Y-122521658D01*
X58081092Y-122521659D01*
X58226079Y-122550500D01*
X58226082Y-122550500D01*
X58373920Y-122550500D01*
X58471462Y-122531096D01*
X58518913Y-122521658D01*
X58655495Y-122465084D01*
X58778416Y-122382951D01*
X58882951Y-122278416D01*
X58965084Y-122155495D01*
X59021658Y-122018913D01*
X59050500Y-121873918D01*
X59050500Y-121726082D01*
X59050500Y-121726079D01*
X59021659Y-121581092D01*
X59021658Y-121581091D01*
X59021658Y-121581087D01*
X58988492Y-121501016D01*
X58965087Y-121444511D01*
X58965080Y-121444498D01*
X58882951Y-121321584D01*
X58882948Y-121321580D01*
X58778419Y-121217051D01*
X58778415Y-121217048D01*
X58655501Y-121134919D01*
X58655488Y-121134912D01*
X58518917Y-121078343D01*
X58518907Y-121078340D01*
X58373920Y-121049500D01*
X58373918Y-121049500D01*
X58226082Y-121049500D01*
X58226080Y-121049500D01*
X58081092Y-121078340D01*
X58081082Y-121078343D01*
X57944511Y-121134912D01*
X57944498Y-121134919D01*
X57821584Y-121217048D01*
X57821580Y-121217051D01*
X57717051Y-121321580D01*
X57717048Y-121321584D01*
X57634919Y-121444498D01*
X57634912Y-121444511D01*
X57578343Y-121581082D01*
X57578340Y-121581092D01*
X57549500Y-121726079D01*
X57549500Y-121726082D01*
X57549500Y-121873918D01*
X57549500Y-121873920D01*
X57549499Y-121873920D01*
X47000500Y-121873920D01*
X47000500Y-118824563D01*
X47020185Y-118757524D01*
X47072989Y-118711769D01*
X47124515Y-118700563D01*
X61222988Y-118702695D01*
X61223011Y-118702701D01*
X61262392Y-118702701D01*
X61290810Y-118702705D01*
X61357846Y-118722399D01*
X61403594Y-118775209D01*
X61413527Y-118844369D01*
X61400701Y-118884116D01*
X61326090Y-119026952D01*
X61270114Y-119222583D01*
X61270113Y-119222586D01*
X61259500Y-119341966D01*
X61259500Y-120658028D01*
X61259501Y-120658034D01*
X61270113Y-120777415D01*
X61326089Y-120973045D01*
X61326090Y-120973048D01*
X61326091Y-120973049D01*
X61420302Y-121153407D01*
X61420304Y-121153409D01*
X61548890Y-121311109D01*
X61642803Y-121387684D01*
X61706593Y-121439698D01*
X61886951Y-121533909D01*
X62082582Y-121589886D01*
X62201963Y-121600500D01*
X62318036Y-121600499D01*
X62437418Y-121589886D01*
X62633049Y-121533909D01*
X62779348Y-121457488D01*
X62847881Y-121443898D01*
X62912885Y-121469517D01*
X62953718Y-121526212D01*
X62960758Y-121567449D01*
X62960316Y-122632422D01*
X62940604Y-122699454D01*
X62887781Y-122745187D01*
X62818618Y-122755102D01*
X62778908Y-122742281D01*
X62633049Y-122666091D01*
X62633048Y-122666090D01*
X62633045Y-122666089D01*
X62513710Y-122631944D01*
X62437418Y-122610114D01*
X62437415Y-122610113D01*
X62437413Y-122610113D01*
X62376515Y-122604699D01*
X62318037Y-122599500D01*
X62318031Y-122599500D01*
X62201972Y-122599500D01*
X62201964Y-122599501D01*
X62082584Y-122610113D01*
X61886954Y-122666089D01*
X61808376Y-122707135D01*
X61706593Y-122760302D01*
X61706591Y-122760303D01*
X61706590Y-122760304D01*
X61548890Y-122888890D01*
X61420304Y-123046590D01*
X61420302Y-123046593D01*
X61392405Y-123100000D01*
X61326089Y-123226954D01*
X61270114Y-123422583D01*
X61270113Y-123422586D01*
X61259500Y-123541966D01*
X61259500Y-124099902D01*
X61239815Y-124166941D01*
X61223181Y-124187583D01*
X59869481Y-125541282D01*
X59869475Y-125541290D01*
X59823119Y-125621583D01*
X59823119Y-125621584D01*
X59790423Y-125678215D01*
X59749499Y-125830943D01*
X59749499Y-125830945D01*
X59749499Y-125999046D01*
X59749500Y-125999059D01*
X59749500Y-127531801D01*
X59729815Y-127598840D01*
X59677011Y-127644595D01*
X59632060Y-127654373D01*
X59632142Y-127655204D01*
X59626079Y-127655800D01*
X59481093Y-127684641D01*
X59481083Y-127684644D01*
X59344512Y-127741213D01*
X59344499Y-127741220D01*
X59221585Y-127823349D01*
X59221581Y-127823352D01*
X59117052Y-127927881D01*
X59117049Y-127927885D01*
X59034920Y-128050799D01*
X59034913Y-128050812D01*
X58978344Y-128187383D01*
X58978341Y-128187393D01*
X58949501Y-128332379D01*
X58949501Y-128332382D01*
X58949501Y-128480218D01*
X58949501Y-128480220D01*
X58949500Y-128480220D01*
X58978341Y-128625206D01*
X58978343Y-128625212D01*
X59031086Y-128752548D01*
X59038555Y-128822017D01*
X59031086Y-128847452D01*
X58978344Y-128974783D01*
X58978341Y-128974793D01*
X58949501Y-129119779D01*
X58949501Y-129119782D01*
X58949501Y-129267618D01*
X58949501Y-129267620D01*
X58949500Y-129267620D01*
X58978341Y-129412606D01*
X58978344Y-129412616D01*
X59034913Y-129549187D01*
X59034920Y-129549200D01*
X59117049Y-129672114D01*
X59117052Y-129672118D01*
X59221581Y-129776647D01*
X59221585Y-129776650D01*
X59344499Y-129858779D01*
X59344512Y-129858786D01*
X59481083Y-129915355D01*
X59481088Y-129915357D01*
X59481092Y-129915357D01*
X59481093Y-129915358D01*
X59626079Y-129944199D01*
X59632142Y-129944796D01*
X59632012Y-129946111D01*
X59692539Y-129963884D01*
X59738294Y-130016688D01*
X59749500Y-130068199D01*
X59749500Y-141720639D01*
X59729815Y-141787678D01*
X59681795Y-141831124D01*
X59488617Y-141929553D01*
X59279329Y-142081610D01*
X59096410Y-142264529D01*
X58944353Y-142473817D01*
X58826910Y-142704312D01*
X58746967Y-142950349D01*
X58706500Y-143205848D01*
X58706500Y-143464551D01*
X58745946Y-143713604D01*
X58746968Y-143720054D01*
X58826909Y-143966085D01*
X58944353Y-144196582D01*
X59096408Y-144405868D01*
X59279332Y-144588792D01*
X59488618Y-144740847D01*
X59719115Y-144858291D01*
X59965146Y-144938232D01*
X60060961Y-144953407D01*
X60220649Y-144978700D01*
X60220654Y-144978700D01*
X60479351Y-144978700D01*
X60621294Y-144956217D01*
X60734854Y-144938232D01*
X60980885Y-144858291D01*
X61211382Y-144740847D01*
X61420668Y-144588792D01*
X61603592Y-144405868D01*
X61755647Y-144196582D01*
X61873091Y-143966085D01*
X61953032Y-143720054D01*
X61974414Y-143585052D01*
X61993500Y-143464551D01*
X61993500Y-143205848D01*
X61963550Y-143016755D01*
X61953032Y-142950346D01*
X61873091Y-142704315D01*
X61755647Y-142473818D01*
X61713522Y-142415838D01*
X62135500Y-142415838D01*
X62135500Y-142634561D01*
X62159195Y-142784172D01*
X62159199Y-142784189D01*
X62169714Y-142850575D01*
X62204130Y-142956498D01*
X62204135Y-142956517D01*
X62237297Y-143058580D01*
X62237298Y-143058583D01*
X62336595Y-143253460D01*
X62465142Y-143430393D01*
X62619806Y-143585057D01*
X62784690Y-143704850D01*
X62796743Y-143713607D01*
X62924132Y-143778515D01*
X62991616Y-143812901D01*
X62991619Y-143812902D01*
X63095621Y-143846693D01*
X63199625Y-143880486D01*
X63299672Y-143896332D01*
X63415639Y-143914700D01*
X63415644Y-143914700D01*
X63634361Y-143914700D01*
X63739082Y-143898112D01*
X63850375Y-143880486D01*
X64058383Y-143812901D01*
X64253257Y-143713607D01*
X64352601Y-143641429D01*
X64430193Y-143585057D01*
X64430195Y-143585054D01*
X64430199Y-143585052D01*
X64584852Y-143430399D01*
X64584854Y-143430395D01*
X64584857Y-143430393D01*
X64641229Y-143352801D01*
X64713407Y-143253457D01*
X64812701Y-143058583D01*
X64880286Y-142850575D01*
X64897930Y-142739176D01*
X64914500Y-142634561D01*
X64914500Y-142435838D01*
X68495500Y-142435838D01*
X68495500Y-142654561D01*
X68529714Y-142870576D01*
X68597297Y-143078580D01*
X68597298Y-143078583D01*
X68654399Y-143190648D01*
X68686402Y-143253457D01*
X68696595Y-143273460D01*
X68825142Y-143450393D01*
X68979806Y-143605057D01*
X69129211Y-143713604D01*
X69156743Y-143733607D01*
X69284132Y-143798515D01*
X69351616Y-143832901D01*
X69351619Y-143832902D01*
X69455621Y-143866693D01*
X69559625Y-143900486D01*
X69649369Y-143914700D01*
X69775639Y-143934700D01*
X69775644Y-143934700D01*
X69994361Y-143934700D01*
X70099082Y-143918112D01*
X70210375Y-143900486D01*
X70418383Y-143832901D01*
X70613257Y-143733607D01*
X70712601Y-143661429D01*
X70790193Y-143605057D01*
X70790195Y-143605054D01*
X70790199Y-143605052D01*
X70944852Y-143450399D01*
X70944854Y-143450395D01*
X70944857Y-143450393D01*
X71001229Y-143372801D01*
X71073407Y-143273457D01*
X71172701Y-143078583D01*
X71172703Y-143078577D01*
X71176609Y-143066557D01*
X71216046Y-143008881D01*
X71280404Y-142981682D01*
X71349250Y-142993596D01*
X71400727Y-143040840D01*
X71418489Y-143108414D01*
X71417013Y-143124272D01*
X71406500Y-143190648D01*
X71406500Y-143449351D01*
X71446967Y-143704850D01*
X71446968Y-143704854D01*
X71526909Y-143950885D01*
X71644353Y-144181382D01*
X71796408Y-144390668D01*
X71979332Y-144573592D01*
X72188618Y-144725647D01*
X72419115Y-144843091D01*
X72665146Y-144923032D01*
X72760961Y-144938207D01*
X72920649Y-144963500D01*
X72920654Y-144963500D01*
X73179351Y-144963500D01*
X73321294Y-144941017D01*
X73434854Y-144923032D01*
X73680885Y-144843091D01*
X73911382Y-144725647D01*
X74120668Y-144573592D01*
X74303592Y-144390668D01*
X74455647Y-144181382D01*
X74573091Y-143950885D01*
X74653032Y-143704854D01*
X74672007Y-143585052D01*
X74693500Y-143449351D01*
X74693500Y-143205848D01*
X118706500Y-143205848D01*
X118706500Y-143464551D01*
X118745946Y-143713604D01*
X118746968Y-143720054D01*
X118826909Y-143966085D01*
X118944353Y-144196582D01*
X119096408Y-144405868D01*
X119279332Y-144588792D01*
X119488618Y-144740847D01*
X119719115Y-144858291D01*
X119965146Y-144938232D01*
X120060961Y-144953407D01*
X120220649Y-144978700D01*
X120220654Y-144978700D01*
X120479351Y-144978700D01*
X120621294Y-144956217D01*
X120734854Y-144938232D01*
X120980885Y-144858291D01*
X121211382Y-144740847D01*
X121420668Y-144588792D01*
X121603592Y-144405868D01*
X121755647Y-144196582D01*
X121873091Y-143966085D01*
X121953032Y-143720054D01*
X121974414Y-143585052D01*
X121993500Y-143464551D01*
X121993500Y-143205848D01*
X121963550Y-143016755D01*
X121953032Y-142950346D01*
X121873091Y-142704315D01*
X121755647Y-142473818D01*
X121713522Y-142415838D01*
X122135500Y-142415838D01*
X122135500Y-142634561D01*
X122159195Y-142784172D01*
X122159199Y-142784189D01*
X122169714Y-142850575D01*
X122204130Y-142956498D01*
X122204135Y-142956517D01*
X122237297Y-143058580D01*
X122237298Y-143058583D01*
X122336595Y-143253460D01*
X122465142Y-143430393D01*
X122619806Y-143585057D01*
X122784690Y-143704850D01*
X122796743Y-143713607D01*
X122924132Y-143778515D01*
X122991616Y-143812901D01*
X122991619Y-143812902D01*
X123095621Y-143846693D01*
X123199625Y-143880486D01*
X123299672Y-143896332D01*
X123415639Y-143914700D01*
X123415644Y-143914700D01*
X123634361Y-143914700D01*
X123739082Y-143898112D01*
X123850375Y-143880486D01*
X124058383Y-143812901D01*
X124253257Y-143713607D01*
X124352601Y-143641429D01*
X124430193Y-143585057D01*
X124430195Y-143585054D01*
X124430199Y-143585052D01*
X124584852Y-143430399D01*
X124584854Y-143430395D01*
X124584857Y-143430393D01*
X124641229Y-143352801D01*
X124713407Y-143253457D01*
X124812701Y-143058583D01*
X124880286Y-142850575D01*
X124897930Y-142739176D01*
X124914500Y-142634561D01*
X124914500Y-142435838D01*
X128495500Y-142435838D01*
X128495500Y-142654561D01*
X128529714Y-142870576D01*
X128597297Y-143078580D01*
X128597298Y-143078583D01*
X128654399Y-143190648D01*
X128686402Y-143253457D01*
X128696595Y-143273460D01*
X128825142Y-143450393D01*
X128979806Y-143605057D01*
X129129211Y-143713604D01*
X129156743Y-143733607D01*
X129284132Y-143798515D01*
X129351616Y-143832901D01*
X129351619Y-143832902D01*
X129455621Y-143866693D01*
X129559625Y-143900486D01*
X129649369Y-143914700D01*
X129775639Y-143934700D01*
X129775644Y-143934700D01*
X129994361Y-143934700D01*
X130099082Y-143918112D01*
X130210375Y-143900486D01*
X130418383Y-143832901D01*
X130613257Y-143733607D01*
X130712601Y-143661429D01*
X130790193Y-143605057D01*
X130790195Y-143605054D01*
X130790199Y-143605052D01*
X130944852Y-143450399D01*
X130944854Y-143450395D01*
X130944857Y-143450393D01*
X131001229Y-143372801D01*
X131073407Y-143273457D01*
X131172701Y-143078583D01*
X131172703Y-143078577D01*
X131176609Y-143066557D01*
X131216046Y-143008881D01*
X131280404Y-142981682D01*
X131349250Y-142993596D01*
X131400727Y-143040840D01*
X131418489Y-143108414D01*
X131417013Y-143124272D01*
X131406500Y-143190648D01*
X131406500Y-143449351D01*
X131446967Y-143704850D01*
X131446968Y-143704854D01*
X131526909Y-143950885D01*
X131644353Y-144181382D01*
X131796408Y-144390668D01*
X131979332Y-144573592D01*
X132188618Y-144725647D01*
X132419115Y-144843091D01*
X132665146Y-144923032D01*
X132760961Y-144938207D01*
X132920649Y-144963500D01*
X132920654Y-144963500D01*
X133179351Y-144963500D01*
X133321294Y-144941017D01*
X133434854Y-144923032D01*
X133680885Y-144843091D01*
X133911382Y-144725647D01*
X134120668Y-144573592D01*
X134303592Y-144390668D01*
X134455647Y-144181382D01*
X134573091Y-143950885D01*
X134653032Y-143704854D01*
X134672007Y-143585052D01*
X134693500Y-143449351D01*
X134693500Y-143190648D01*
X134660402Y-142981682D01*
X134653032Y-142935146D01*
X134573091Y-142689115D01*
X134455647Y-142458618D01*
X134303592Y-142249332D01*
X134120668Y-142066408D01*
X133911382Y-141914353D01*
X133680885Y-141796909D01*
X133434854Y-141716968D01*
X133434852Y-141716967D01*
X133434850Y-141716967D01*
X133179351Y-141676500D01*
X133179346Y-141676500D01*
X132920654Y-141676500D01*
X132920649Y-141676500D01*
X132665149Y-141716967D01*
X132419112Y-141796910D01*
X132188617Y-141914353D01*
X131979329Y-142066410D01*
X131796410Y-142249329D01*
X131644353Y-142458617D01*
X131526908Y-142689114D01*
X131510642Y-142739176D01*
X131471204Y-142796851D01*
X131406845Y-142824048D01*
X131337998Y-142812132D01*
X131286523Y-142764887D01*
X131268763Y-142697313D01*
X131270237Y-142681465D01*
X131274500Y-142654556D01*
X131274500Y-142435844D01*
X131274500Y-142435838D01*
X131244959Y-142249329D01*
X131240286Y-142219825D01*
X131190439Y-142066410D01*
X131172702Y-142011819D01*
X131172701Y-142011816D01*
X131123040Y-141914353D01*
X131073407Y-141816943D01*
X131052145Y-141787678D01*
X130944857Y-141640006D01*
X130790193Y-141485342D01*
X130613260Y-141356795D01*
X130613259Y-141356794D01*
X130613257Y-141356793D01*
X130550825Y-141324982D01*
X130418383Y-141257498D01*
X130418380Y-141257497D01*
X130210376Y-141189914D01*
X129994361Y-141155700D01*
X129994356Y-141155700D01*
X129775644Y-141155700D01*
X129775639Y-141155700D01*
X129559623Y-141189914D01*
X129351619Y-141257497D01*
X129351616Y-141257498D01*
X129156739Y-141356795D01*
X128979806Y-141485342D01*
X128825142Y-141640006D01*
X128696595Y-141816939D01*
X128597298Y-142011816D01*
X128597297Y-142011819D01*
X128529714Y-142219823D01*
X128495500Y-142435838D01*
X124914500Y-142435838D01*
X124914500Y-142415838D01*
X124894595Y-142290171D01*
X124880286Y-142199825D01*
X124841876Y-142081610D01*
X124812702Y-141991819D01*
X124812701Y-141991816D01*
X124730823Y-141831124D01*
X124713407Y-141796943D01*
X124666345Y-141732167D01*
X124584857Y-141620006D01*
X124430193Y-141465342D01*
X124253260Y-141336795D01*
X124253259Y-141336794D01*
X124253257Y-141336793D01*
X124190825Y-141304982D01*
X124058383Y-141237498D01*
X124058380Y-141237497D01*
X123850376Y-141169914D01*
X123634361Y-141135700D01*
X123634356Y-141135700D01*
X123415644Y-141135700D01*
X123415639Y-141135700D01*
X123199623Y-141169914D01*
X122991619Y-141237497D01*
X122991616Y-141237498D01*
X122796739Y-141336795D01*
X122619806Y-141465342D01*
X122465142Y-141620006D01*
X122336595Y-141796939D01*
X122237298Y-141991816D01*
X122237297Y-141991819D01*
X122169714Y-142199823D01*
X122135500Y-142415838D01*
X121713522Y-142415838D01*
X121603592Y-142264532D01*
X121420668Y-142081608D01*
X121211382Y-141929553D01*
X120980885Y-141812109D01*
X120734854Y-141732168D01*
X120734852Y-141732167D01*
X120734850Y-141732167D01*
X120479351Y-141691700D01*
X120479346Y-141691700D01*
X120220654Y-141691700D01*
X120220649Y-141691700D01*
X119965149Y-141732167D01*
X119719112Y-141812110D01*
X119488617Y-141929553D01*
X119279329Y-142081610D01*
X119096410Y-142264529D01*
X118944353Y-142473817D01*
X118826910Y-142704312D01*
X118746967Y-142950349D01*
X118706500Y-143205848D01*
X74693500Y-143205848D01*
X74693500Y-143190648D01*
X74660402Y-142981682D01*
X74653032Y-142935146D01*
X74573091Y-142689115D01*
X74455647Y-142458618D01*
X74303592Y-142249332D01*
X74120668Y-142066408D01*
X73911382Y-141914353D01*
X73680885Y-141796909D01*
X73434854Y-141716968D01*
X73434852Y-141716967D01*
X73434850Y-141716967D01*
X73179351Y-141676500D01*
X73179346Y-141676500D01*
X72920654Y-141676500D01*
X72920649Y-141676500D01*
X72665149Y-141716967D01*
X72419112Y-141796910D01*
X72188617Y-141914353D01*
X71979329Y-142066410D01*
X71796410Y-142249329D01*
X71644353Y-142458617D01*
X71526908Y-142689114D01*
X71510642Y-142739176D01*
X71471204Y-142796851D01*
X71406845Y-142824048D01*
X71337998Y-142812132D01*
X71286523Y-142764887D01*
X71268763Y-142697313D01*
X71270237Y-142681465D01*
X71274500Y-142654556D01*
X71274500Y-142435844D01*
X71274500Y-142435838D01*
X71244959Y-142249329D01*
X71240286Y-142219825D01*
X71190439Y-142066410D01*
X71172702Y-142011819D01*
X71172701Y-142011816D01*
X71123040Y-141914353D01*
X71073407Y-141816943D01*
X71052145Y-141787678D01*
X70944857Y-141640006D01*
X70790193Y-141485342D01*
X70613260Y-141356795D01*
X70613259Y-141356794D01*
X70613257Y-141356793D01*
X70550825Y-141324982D01*
X70418383Y-141257498D01*
X70418380Y-141257497D01*
X70210376Y-141189914D01*
X69994361Y-141155700D01*
X69994356Y-141155700D01*
X69775644Y-141155700D01*
X69775639Y-141155700D01*
X69559623Y-141189914D01*
X69351619Y-141257497D01*
X69351616Y-141257498D01*
X69156739Y-141356795D01*
X68979806Y-141485342D01*
X68825142Y-141640006D01*
X68696595Y-141816939D01*
X68597298Y-142011816D01*
X68597297Y-142011819D01*
X68529714Y-142219823D01*
X68495500Y-142435838D01*
X64914500Y-142435838D01*
X64914500Y-142415838D01*
X64894595Y-142290171D01*
X64880286Y-142199825D01*
X64841876Y-142081610D01*
X64812702Y-141991819D01*
X64812701Y-141991816D01*
X64730823Y-141831124D01*
X64713407Y-141796943D01*
X64666345Y-141732167D01*
X64584857Y-141620006D01*
X64430193Y-141465342D01*
X64253260Y-141336795D01*
X64253259Y-141336794D01*
X64253257Y-141336793D01*
X64190825Y-141304982D01*
X64058383Y-141237498D01*
X64058380Y-141237497D01*
X63850376Y-141169914D01*
X63634361Y-141135700D01*
X63634356Y-141135700D01*
X63415644Y-141135700D01*
X63415639Y-141135700D01*
X63199623Y-141169914D01*
X62991619Y-141237497D01*
X62991616Y-141237498D01*
X62796739Y-141336795D01*
X62619806Y-141465342D01*
X62465142Y-141620006D01*
X62336595Y-141796939D01*
X62237298Y-141991816D01*
X62237297Y-141991819D01*
X62169714Y-142199823D01*
X62135500Y-142415838D01*
X61713522Y-142415838D01*
X61603592Y-142264532D01*
X61420668Y-142081608D01*
X61211382Y-141929553D01*
X61181550Y-141914353D01*
X61018205Y-141831124D01*
X60967409Y-141783149D01*
X60950500Y-141720639D01*
X60950500Y-139017289D01*
X88916408Y-139017289D01*
X88945249Y-139162276D01*
X88945252Y-139162286D01*
X89001821Y-139298857D01*
X89001828Y-139298870D01*
X89083957Y-139421784D01*
X89083960Y-139421788D01*
X89188489Y-139526317D01*
X89188493Y-139526320D01*
X89311407Y-139608449D01*
X89311420Y-139608456D01*
X89447991Y-139665025D01*
X89447996Y-139665027D01*
X89448000Y-139665027D01*
X89448001Y-139665028D01*
X89592988Y-139693869D01*
X89592991Y-139693869D01*
X89740829Y-139693869D01*
X89838371Y-139674465D01*
X89885822Y-139665027D01*
X90022404Y-139608453D01*
X90145325Y-139526320D01*
X90249860Y-139421785D01*
X90275539Y-139383352D01*
X90329151Y-139338548D01*
X90398476Y-139329840D01*
X90461504Y-139359994D01*
X90493203Y-139404791D01*
X90534912Y-139505488D01*
X90534919Y-139505501D01*
X90617048Y-139628415D01*
X90617051Y-139628419D01*
X90721580Y-139732948D01*
X90721584Y-139732951D01*
X90844498Y-139815080D01*
X90844511Y-139815087D01*
X90981082Y-139871656D01*
X90981087Y-139871658D01*
X90981091Y-139871658D01*
X90981092Y-139871659D01*
X91126079Y-139900500D01*
X91126082Y-139900500D01*
X91273920Y-139900500D01*
X91371462Y-139881096D01*
X91418913Y-139871658D01*
X91552547Y-139816304D01*
X91622017Y-139808836D01*
X91647452Y-139816304D01*
X91781087Y-139871658D01*
X91781091Y-139871658D01*
X91781092Y-139871659D01*
X91926079Y-139900500D01*
X91926082Y-139900500D01*
X92073920Y-139900500D01*
X92171462Y-139881096D01*
X92218913Y-139871658D01*
X92355495Y-139815084D01*
X92478416Y-139732951D01*
X92582951Y-139628416D01*
X92665084Y-139505495D01*
X92721658Y-139368913D01*
X92750500Y-139223918D01*
X92750500Y-139076082D01*
X92750500Y-139076079D01*
X92721659Y-138931092D01*
X92721658Y-138931091D01*
X92721658Y-138931087D01*
X92716180Y-138917862D01*
X92665087Y-138794511D01*
X92665080Y-138794498D01*
X92582951Y-138671584D01*
X92582948Y-138671580D01*
X92478419Y-138567051D01*
X92478415Y-138567048D01*
X92355501Y-138484919D01*
X92355488Y-138484912D01*
X92218917Y-138428343D01*
X92218907Y-138428340D01*
X92073920Y-138399500D01*
X92073918Y-138399500D01*
X91926082Y-138399500D01*
X91926080Y-138399500D01*
X91781092Y-138428340D01*
X91781082Y-138428343D01*
X91647452Y-138483694D01*
X91577982Y-138491163D01*
X91552548Y-138483694D01*
X91418917Y-138428343D01*
X91418907Y-138428340D01*
X91273920Y-138399500D01*
X91273918Y-138399500D01*
X91126082Y-138399500D01*
X91126080Y-138399500D01*
X90981092Y-138428340D01*
X90981082Y-138428343D01*
X90844511Y-138484912D01*
X90844498Y-138484919D01*
X90721584Y-138567048D01*
X90721580Y-138567051D01*
X90617049Y-138671582D01*
X90591367Y-138710018D01*
X90537754Y-138754822D01*
X90468429Y-138763528D01*
X90405402Y-138733372D01*
X90373707Y-138688581D01*
X90331993Y-138587874D01*
X90331991Y-138587871D01*
X90331989Y-138587867D01*
X90249860Y-138464953D01*
X90249857Y-138464949D01*
X90145328Y-138360420D01*
X90145324Y-138360417D01*
X90022410Y-138278288D01*
X90022397Y-138278281D01*
X89885826Y-138221712D01*
X89885816Y-138221709D01*
X89740829Y-138192869D01*
X89740827Y-138192869D01*
X89592991Y-138192869D01*
X89592989Y-138192869D01*
X89448001Y-138221709D01*
X89447991Y-138221712D01*
X89311420Y-138278281D01*
X89311407Y-138278288D01*
X89188493Y-138360417D01*
X89188489Y-138360420D01*
X89083960Y-138464949D01*
X89083957Y-138464953D01*
X89001828Y-138587867D01*
X89001821Y-138587880D01*
X88945252Y-138724451D01*
X88945249Y-138724461D01*
X88916409Y-138869448D01*
X88916409Y-138869451D01*
X88916409Y-139017287D01*
X88916409Y-139017289D01*
X88916408Y-139017289D01*
X60950500Y-139017289D01*
X60950500Y-137475838D01*
X62135500Y-137475838D01*
X62135500Y-137694561D01*
X62169714Y-137910576D01*
X62237297Y-138118580D01*
X62237298Y-138118583D01*
X62289846Y-138221711D01*
X62332379Y-138305187D01*
X62336595Y-138313460D01*
X62465142Y-138490393D01*
X62619806Y-138645057D01*
X62770887Y-138754822D01*
X62796743Y-138773607D01*
X62891044Y-138821656D01*
X62991616Y-138872901D01*
X62991619Y-138872902D01*
X63052559Y-138892702D01*
X63199625Y-138940486D01*
X63299672Y-138956332D01*
X63415639Y-138974700D01*
X63415644Y-138974700D01*
X63634361Y-138974700D01*
X63739082Y-138958112D01*
X63850375Y-138940486D01*
X64058383Y-138872901D01*
X64253257Y-138773607D01*
X64378035Y-138682951D01*
X64430193Y-138645057D01*
X64430195Y-138645054D01*
X64430199Y-138645052D01*
X64584852Y-138490399D01*
X64584854Y-138490395D01*
X64584857Y-138490393D01*
X64641229Y-138412801D01*
X64713407Y-138313457D01*
X64812701Y-138118583D01*
X64880286Y-137910575D01*
X64897912Y-137799282D01*
X64914500Y-137694561D01*
X64914500Y-137495638D01*
X68485500Y-137495638D01*
X68485500Y-137714361D01*
X68519714Y-137930376D01*
X68587297Y-138138380D01*
X68587298Y-138138383D01*
X68648691Y-138258871D01*
X68679286Y-138318917D01*
X68686595Y-138333260D01*
X68815142Y-138510193D01*
X68969806Y-138664857D01*
X69119486Y-138773604D01*
X69146743Y-138793407D01*
X69274132Y-138858315D01*
X69341616Y-138892701D01*
X69341619Y-138892702D01*
X69445621Y-138926493D01*
X69549625Y-138960286D01*
X69640632Y-138974700D01*
X69765639Y-138994500D01*
X69765644Y-138994500D01*
X69984361Y-138994500D01*
X70089082Y-138977912D01*
X70200375Y-138960286D01*
X70408383Y-138892701D01*
X70603257Y-138793407D01*
X70645054Y-138763040D01*
X70645056Y-138763039D01*
X70780192Y-138664857D01*
X70780190Y-138664857D01*
X70780199Y-138664852D01*
X70934852Y-138510199D01*
X70934854Y-138510195D01*
X70934857Y-138510193D01*
X71015279Y-138399500D01*
X71063407Y-138333257D01*
X71162701Y-138138383D01*
X71230286Y-137930375D01*
X71247912Y-137819082D01*
X71264500Y-137714361D01*
X71264500Y-137495638D01*
X71238732Y-137332951D01*
X71230286Y-137279625D01*
X71175156Y-137109950D01*
X71162702Y-137071619D01*
X71162701Y-137071616D01*
X71110367Y-136968907D01*
X71063407Y-136876743D01*
X71023329Y-136821580D01*
X70934857Y-136699806D01*
X70780193Y-136545142D01*
X70603260Y-136416595D01*
X70603259Y-136416594D01*
X70603257Y-136416593D01*
X70529840Y-136379185D01*
X70408383Y-136317298D01*
X70408380Y-136317297D01*
X70200376Y-136249714D01*
X69984361Y-136215500D01*
X69984356Y-136215500D01*
X69765644Y-136215500D01*
X69765639Y-136215500D01*
X69549623Y-136249714D01*
X69341619Y-136317297D01*
X69341616Y-136317298D01*
X69146739Y-136416595D01*
X68969806Y-136545142D01*
X68815142Y-136699806D01*
X68686595Y-136876739D01*
X68587298Y-137071616D01*
X68587297Y-137071619D01*
X68519714Y-137279623D01*
X68485500Y-137495638D01*
X64914500Y-137495638D01*
X64914500Y-137475838D01*
X64891868Y-137332951D01*
X64880286Y-137259825D01*
X64822213Y-137081092D01*
X64812702Y-137051819D01*
X64812701Y-137051816D01*
X64758019Y-136944498D01*
X64713407Y-136856943D01*
X64689413Y-136823918D01*
X64584857Y-136680006D01*
X64430193Y-136525342D01*
X64253260Y-136396795D01*
X64253259Y-136396794D01*
X64253257Y-136396793D01*
X64150637Y-136344505D01*
X64058383Y-136297498D01*
X64058380Y-136297497D01*
X63850376Y-136229914D01*
X63634361Y-136195700D01*
X63634356Y-136195700D01*
X63415644Y-136195700D01*
X63415639Y-136195700D01*
X63199623Y-136229914D01*
X62991619Y-136297497D01*
X62991616Y-136297498D01*
X62796739Y-136396795D01*
X62619806Y-136525342D01*
X62465142Y-136680006D01*
X62336595Y-136856939D01*
X62237298Y-137051816D01*
X62237297Y-137051819D01*
X62169714Y-137259823D01*
X62135500Y-137475838D01*
X60950500Y-137475838D01*
X60950500Y-134173920D01*
X82549499Y-134173920D01*
X82578340Y-134318907D01*
X82578343Y-134318917D01*
X82634912Y-134455488D01*
X82634919Y-134455501D01*
X82717048Y-134578415D01*
X82717051Y-134578419D01*
X82821580Y-134682948D01*
X82821584Y-134682951D01*
X82944498Y-134765080D01*
X82944511Y-134765087D01*
X83081082Y-134821656D01*
X83081087Y-134821658D01*
X83081091Y-134821658D01*
X83081092Y-134821659D01*
X83226079Y-134850500D01*
X83226082Y-134850500D01*
X83373920Y-134850500D01*
X83471462Y-134831096D01*
X83518913Y-134821658D01*
X83655495Y-134765084D01*
X83778416Y-134682951D01*
X83882951Y-134578416D01*
X83965084Y-134455495D01*
X84021658Y-134318913D01*
X84035267Y-134250500D01*
X84050500Y-134173920D01*
X84050500Y-134026079D01*
X84021659Y-133881092D01*
X84021658Y-133881091D01*
X84021658Y-133881087D01*
X84011060Y-133855501D01*
X83965087Y-133744511D01*
X83965080Y-133744498D01*
X83882951Y-133621584D01*
X83882948Y-133621580D01*
X83778419Y-133517051D01*
X83778415Y-133517048D01*
X83655501Y-133434919D01*
X83655488Y-133434912D01*
X83518917Y-133378343D01*
X83518907Y-133378340D01*
X83373920Y-133349500D01*
X83373918Y-133349500D01*
X83226082Y-133349500D01*
X83226080Y-133349500D01*
X83081092Y-133378340D01*
X83081082Y-133378343D01*
X82944511Y-133434912D01*
X82944498Y-133434919D01*
X82821584Y-133517048D01*
X82821580Y-133517051D01*
X82717051Y-133621580D01*
X82717048Y-133621584D01*
X82634919Y-133744498D01*
X82634912Y-133744511D01*
X82578343Y-133881082D01*
X82578340Y-133881092D01*
X82549500Y-134026079D01*
X82549500Y-134026082D01*
X82549500Y-134173918D01*
X82549500Y-134173920D01*
X82549499Y-134173920D01*
X60950500Y-134173920D01*
X60950500Y-132873920D01*
X65449499Y-132873920D01*
X65478340Y-133018907D01*
X65478343Y-133018917D01*
X65534912Y-133155488D01*
X65534919Y-133155501D01*
X65617048Y-133278415D01*
X65617051Y-133278419D01*
X65721580Y-133382948D01*
X65721584Y-133382951D01*
X65844498Y-133465080D01*
X65844511Y-133465087D01*
X65981082Y-133521656D01*
X65981087Y-133521658D01*
X65981091Y-133521658D01*
X65981092Y-133521659D01*
X66126079Y-133550500D01*
X66126082Y-133550500D01*
X66273920Y-133550500D01*
X66371462Y-133531096D01*
X66418913Y-133521658D01*
X66555495Y-133465084D01*
X66678416Y-133382951D01*
X66782951Y-133278416D01*
X66865084Y-133155495D01*
X66921658Y-133018913D01*
X66943265Y-132910289D01*
X66950500Y-132873920D01*
X66950500Y-132726079D01*
X66921659Y-132581092D01*
X66921658Y-132581091D01*
X66921658Y-132581087D01*
X66879309Y-132478847D01*
X66865087Y-132444511D01*
X66865080Y-132444498D01*
X66782951Y-132321584D01*
X66782948Y-132321580D01*
X66678419Y-132217051D01*
X66678415Y-132217048D01*
X66555501Y-132134919D01*
X66555488Y-132134912D01*
X66418917Y-132078343D01*
X66418907Y-132078340D01*
X66273920Y-132049500D01*
X66273918Y-132049500D01*
X66126082Y-132049500D01*
X66126080Y-132049500D01*
X65981092Y-132078340D01*
X65981082Y-132078343D01*
X65844511Y-132134912D01*
X65844498Y-132134919D01*
X65721584Y-132217048D01*
X65721580Y-132217051D01*
X65617051Y-132321580D01*
X65617048Y-132321584D01*
X65534919Y-132444498D01*
X65534912Y-132444511D01*
X65478343Y-132581082D01*
X65478340Y-132581092D01*
X65449500Y-132726079D01*
X65449500Y-132726082D01*
X65449500Y-132873918D01*
X65449500Y-132873920D01*
X65449499Y-132873920D01*
X60950500Y-132873920D01*
X60950500Y-131421153D01*
X87299500Y-131421153D01*
X87299500Y-131578846D01*
X87330261Y-131733489D01*
X87330264Y-131733501D01*
X87390602Y-131879172D01*
X87390609Y-131879185D01*
X87478210Y-132010288D01*
X87478213Y-132010292D01*
X87589707Y-132121786D01*
X87589711Y-132121789D01*
X87663454Y-132171063D01*
X87708259Y-132224675D01*
X87716966Y-132294000D01*
X87686812Y-132357028D01*
X87680662Y-132362910D01*
X87680791Y-132363039D01*
X87564986Y-132478843D01*
X87564983Y-132478847D01*
X87477382Y-132609950D01*
X87477375Y-132609963D01*
X87417037Y-132755634D01*
X87417034Y-132755646D01*
X87386273Y-132910289D01*
X87386273Y-133067982D01*
X87417034Y-133222625D01*
X87417037Y-133222637D01*
X87477375Y-133368308D01*
X87477382Y-133368321D01*
X87564983Y-133499424D01*
X87564986Y-133499428D01*
X87676480Y-133610922D01*
X87676483Y-133610924D01*
X87676484Y-133610925D01*
X87692430Y-133621580D01*
X87714062Y-133636034D01*
X87758866Y-133689647D01*
X87767573Y-133758972D01*
X87737418Y-133821999D01*
X87714062Y-133842238D01*
X87676480Y-133867349D01*
X87564986Y-133978843D01*
X87564983Y-133978847D01*
X87477382Y-134109950D01*
X87477375Y-134109963D01*
X87417037Y-134255634D01*
X87417034Y-134255646D01*
X87386273Y-134410289D01*
X87386273Y-134567982D01*
X87417034Y-134722625D01*
X87417037Y-134722637D01*
X87477375Y-134868308D01*
X87477382Y-134868321D01*
X87564983Y-134999424D01*
X87564986Y-134999428D01*
X87676480Y-135110922D01*
X87676484Y-135110925D01*
X87678799Y-135112472D01*
X87679738Y-135113596D01*
X87681192Y-135114789D01*
X87680965Y-135115064D01*
X87723607Y-135166082D01*
X87732317Y-135235406D01*
X87702166Y-135298435D01*
X87678805Y-135318678D01*
X87589713Y-135378208D01*
X87589707Y-135378213D01*
X87478213Y-135489707D01*
X87478210Y-135489711D01*
X87390609Y-135620814D01*
X87390602Y-135620827D01*
X87330264Y-135766498D01*
X87330261Y-135766510D01*
X87299500Y-135921153D01*
X87299500Y-136078846D01*
X87330261Y-136233489D01*
X87330264Y-136233501D01*
X87390602Y-136379172D01*
X87390609Y-136379185D01*
X87478210Y-136510288D01*
X87478213Y-136510292D01*
X87589707Y-136621786D01*
X87589711Y-136621789D01*
X87663454Y-136671063D01*
X87708259Y-136724675D01*
X87716966Y-136794000D01*
X87686812Y-136857028D01*
X87680662Y-136862910D01*
X87680791Y-136863039D01*
X87564986Y-136978843D01*
X87564983Y-136978847D01*
X87477382Y-137109950D01*
X87477375Y-137109963D01*
X87417037Y-137255634D01*
X87417034Y-137255646D01*
X87386273Y-137410289D01*
X87386273Y-137567982D01*
X87417034Y-137722625D01*
X87417037Y-137722637D01*
X87477375Y-137868308D01*
X87477382Y-137868321D01*
X87564983Y-137999424D01*
X87564986Y-137999428D01*
X87676480Y-138110922D01*
X87676484Y-138110925D01*
X87807587Y-138198526D01*
X87807600Y-138198533D01*
X87953271Y-138258871D01*
X87953276Y-138258873D01*
X88107926Y-138289635D01*
X88107929Y-138289636D01*
X88107931Y-138289636D01*
X88265617Y-138289636D01*
X88265618Y-138289635D01*
X88420270Y-138258873D01*
X88565952Y-138198530D01*
X88602783Y-138173920D01*
X93049499Y-138173920D01*
X93078340Y-138318907D01*
X93078343Y-138318917D01*
X93134912Y-138455488D01*
X93134919Y-138455501D01*
X93217048Y-138578415D01*
X93217051Y-138578419D01*
X93321580Y-138682948D01*
X93321584Y-138682951D01*
X93444498Y-138765080D01*
X93444511Y-138765087D01*
X93515548Y-138794511D01*
X93581087Y-138821658D01*
X93581091Y-138821658D01*
X93581092Y-138821659D01*
X93726079Y-138850500D01*
X93726082Y-138850500D01*
X93873920Y-138850500D01*
X93971462Y-138831096D01*
X94018913Y-138821658D01*
X94155495Y-138765084D01*
X94278416Y-138682951D01*
X94355841Y-138605526D01*
X102637396Y-138605526D01*
X102637396Y-138763219D01*
X102668157Y-138917862D01*
X102668160Y-138917874D01*
X102728498Y-139063545D01*
X102728505Y-139063558D01*
X102816106Y-139194661D01*
X102816109Y-139194665D01*
X102927603Y-139306159D01*
X102927607Y-139306162D01*
X103058710Y-139393763D01*
X103058723Y-139393770D01*
X103204394Y-139454108D01*
X103204399Y-139454110D01*
X103359049Y-139484872D01*
X103359052Y-139484873D01*
X103359054Y-139484873D01*
X103516740Y-139484873D01*
X103516741Y-139484872D01*
X103671393Y-139454110D01*
X103817075Y-139393767D01*
X103948185Y-139306162D01*
X104059685Y-139194662D01*
X104147290Y-139063552D01*
X104207633Y-138917870D01*
X104238396Y-138763215D01*
X104238396Y-138605531D01*
X104238396Y-138605528D01*
X104238395Y-138605526D01*
X104219432Y-138510193D01*
X104207633Y-138450876D01*
X104186353Y-138399500D01*
X104147293Y-138305200D01*
X104147286Y-138305187D01*
X104059685Y-138174084D01*
X104059682Y-138174080D01*
X103948188Y-138062586D01*
X103948184Y-138062583D01*
X103817081Y-137974982D01*
X103817068Y-137974975D01*
X103671397Y-137914637D01*
X103671385Y-137914634D01*
X103516741Y-137883873D01*
X103516738Y-137883873D01*
X103359054Y-137883873D01*
X103359051Y-137883873D01*
X103204406Y-137914634D01*
X103204394Y-137914637D01*
X103058723Y-137974975D01*
X103058710Y-137974982D01*
X102927607Y-138062583D01*
X102927603Y-138062586D01*
X102816109Y-138174080D01*
X102816106Y-138174084D01*
X102728505Y-138305187D01*
X102728498Y-138305200D01*
X102668160Y-138450871D01*
X102668157Y-138450883D01*
X102637396Y-138605526D01*
X94355841Y-138605526D01*
X94382951Y-138578416D01*
X94398599Y-138554995D01*
X94414936Y-138530548D01*
X94465080Y-138455501D01*
X94465080Y-138455500D01*
X94465084Y-138455495D01*
X94521658Y-138318913D01*
X94545604Y-138198533D01*
X94550500Y-138173920D01*
X94550500Y-138026079D01*
X94521659Y-137881092D01*
X94521658Y-137881091D01*
X94521658Y-137881087D01*
X94479132Y-137778419D01*
X94465087Y-137744511D01*
X94465080Y-137744498D01*
X94382951Y-137621584D01*
X94382948Y-137621580D01*
X94322082Y-137560714D01*
X94288597Y-137499391D01*
X94290281Y-137475838D01*
X122135500Y-137475838D01*
X122135500Y-137694561D01*
X122169714Y-137910576D01*
X122237297Y-138118580D01*
X122237298Y-138118583D01*
X122289846Y-138221711D01*
X122332379Y-138305187D01*
X122336595Y-138313460D01*
X122465142Y-138490393D01*
X122619806Y-138645057D01*
X122770887Y-138754822D01*
X122796743Y-138773607D01*
X122891044Y-138821656D01*
X122991616Y-138872901D01*
X122991619Y-138872902D01*
X123052559Y-138892702D01*
X123199625Y-138940486D01*
X123299672Y-138956332D01*
X123415639Y-138974700D01*
X123415644Y-138974700D01*
X123634361Y-138974700D01*
X123739082Y-138958112D01*
X123850375Y-138940486D01*
X124058383Y-138872901D01*
X124253257Y-138773607D01*
X124378035Y-138682951D01*
X124430193Y-138645057D01*
X124430195Y-138645054D01*
X124430199Y-138645052D01*
X124584852Y-138490399D01*
X124584854Y-138490395D01*
X124584857Y-138490393D01*
X124641229Y-138412801D01*
X124713407Y-138313457D01*
X124812701Y-138118583D01*
X124880286Y-137910575D01*
X124897912Y-137799282D01*
X124914500Y-137694561D01*
X124914500Y-137495638D01*
X128485500Y-137495638D01*
X128485500Y-137714361D01*
X128519714Y-137930376D01*
X128587297Y-138138380D01*
X128587298Y-138138383D01*
X128648691Y-138258871D01*
X128679286Y-138318917D01*
X128686595Y-138333260D01*
X128815142Y-138510193D01*
X128969806Y-138664857D01*
X129119486Y-138773604D01*
X129146743Y-138793407D01*
X129274132Y-138858315D01*
X129341616Y-138892701D01*
X129341619Y-138892702D01*
X129445621Y-138926493D01*
X129549625Y-138960286D01*
X129640632Y-138974700D01*
X129765639Y-138994500D01*
X129765644Y-138994500D01*
X129984361Y-138994500D01*
X130089082Y-138977912D01*
X130200375Y-138960286D01*
X130408383Y-138892701D01*
X130603257Y-138793407D01*
X130718033Y-138710018D01*
X130780193Y-138664857D01*
X130780195Y-138664854D01*
X130780199Y-138664852D01*
X130934852Y-138510199D01*
X130934854Y-138510195D01*
X130934857Y-138510193D01*
X131015279Y-138399500D01*
X131063407Y-138333257D01*
X131162701Y-138138383D01*
X131230286Y-137930375D01*
X131247912Y-137819082D01*
X131264500Y-137714361D01*
X131264500Y-137495638D01*
X131238732Y-137332951D01*
X131230286Y-137279625D01*
X131175156Y-137109950D01*
X131162702Y-137071619D01*
X131162701Y-137071616D01*
X131110367Y-136968907D01*
X131063407Y-136876743D01*
X131023329Y-136821580D01*
X130934857Y-136699806D01*
X130780193Y-136545142D01*
X130603260Y-136416595D01*
X130603259Y-136416594D01*
X130603257Y-136416593D01*
X130529840Y-136379185D01*
X130408383Y-136317298D01*
X130408380Y-136317297D01*
X130200376Y-136249714D01*
X129984361Y-136215500D01*
X129984356Y-136215500D01*
X129765644Y-136215500D01*
X129765639Y-136215500D01*
X129549623Y-136249714D01*
X129341619Y-136317297D01*
X129341616Y-136317298D01*
X129146739Y-136416595D01*
X128969806Y-136545142D01*
X128815142Y-136699806D01*
X128686595Y-136876739D01*
X128587298Y-137071616D01*
X128587297Y-137071619D01*
X128519714Y-137279623D01*
X128485500Y-137495638D01*
X124914500Y-137495638D01*
X124914500Y-137475838D01*
X124891868Y-137332951D01*
X124880286Y-137259825D01*
X124822213Y-137081092D01*
X124812702Y-137051819D01*
X124812701Y-137051816D01*
X124758019Y-136944498D01*
X124713407Y-136856943D01*
X124689413Y-136823918D01*
X124584857Y-136680006D01*
X124430193Y-136525342D01*
X124253260Y-136396795D01*
X124253259Y-136396794D01*
X124253257Y-136396793D01*
X124150637Y-136344505D01*
X124058383Y-136297498D01*
X124058380Y-136297497D01*
X123850376Y-136229914D01*
X123634361Y-136195700D01*
X123634356Y-136195700D01*
X123415644Y-136195700D01*
X123415639Y-136195700D01*
X123199623Y-136229914D01*
X122991619Y-136297497D01*
X122991616Y-136297498D01*
X122796739Y-136396795D01*
X122619806Y-136525342D01*
X122465142Y-136680006D01*
X122336595Y-136856939D01*
X122237298Y-137051816D01*
X122237297Y-137051819D01*
X122169714Y-137259823D01*
X122135500Y-137475838D01*
X94290281Y-137475838D01*
X94293581Y-137429699D01*
X94322082Y-137385351D01*
X94325994Y-137381438D01*
X94325998Y-137381436D01*
X94430533Y-137276901D01*
X94512666Y-137153980D01*
X94569240Y-137017398D01*
X94578886Y-136968907D01*
X94598082Y-136872405D01*
X94598082Y-136773920D01*
X95699499Y-136773920D01*
X95728340Y-136918907D01*
X95728343Y-136918917D01*
X95784912Y-137055488D01*
X95784919Y-137055501D01*
X95867048Y-137178415D01*
X95867051Y-137178419D01*
X95971580Y-137282948D01*
X95971584Y-137282951D01*
X96094498Y-137365080D01*
X96094511Y-137365087D01*
X96215199Y-137415077D01*
X96231087Y-137421658D01*
X96231091Y-137421658D01*
X96231092Y-137421659D01*
X96376079Y-137450500D01*
X96376082Y-137450500D01*
X96523920Y-137450500D01*
X96628489Y-137429699D01*
X96668913Y-137421658D01*
X96805495Y-137365084D01*
X96928416Y-137282951D01*
X97032951Y-137178416D01*
X97115084Y-137055495D01*
X97116608Y-137051817D01*
X97130867Y-137017392D01*
X97171658Y-136918913D01*
X97190554Y-136823918D01*
X97200500Y-136773920D01*
X97200500Y-136626079D01*
X97171659Y-136481092D01*
X97171658Y-136481091D01*
X97171658Y-136481087D01*
X97155878Y-136442990D01*
X97115087Y-136344511D01*
X97115080Y-136344498D01*
X97032951Y-136221584D01*
X97032948Y-136221580D01*
X96928419Y-136117051D01*
X96928415Y-136117048D01*
X96805501Y-136034919D01*
X96805488Y-136034912D01*
X96668917Y-135978343D01*
X96668907Y-135978340D01*
X96523920Y-135949500D01*
X96523918Y-135949500D01*
X96376082Y-135949500D01*
X96376080Y-135949500D01*
X96231092Y-135978340D01*
X96231082Y-135978343D01*
X96094511Y-136034912D01*
X96094498Y-136034919D01*
X95971584Y-136117048D01*
X95971580Y-136117051D01*
X95867051Y-136221580D01*
X95867048Y-136221584D01*
X95784919Y-136344498D01*
X95784912Y-136344511D01*
X95728343Y-136481082D01*
X95728340Y-136481092D01*
X95699500Y-136626079D01*
X95699500Y-136626082D01*
X95699500Y-136773918D01*
X95699500Y-136773920D01*
X95699499Y-136773920D01*
X94598082Y-136773920D01*
X94598082Y-136724564D01*
X94587439Y-136671063D01*
X94569240Y-136579572D01*
X94558994Y-136554838D01*
X94556809Y-136546312D01*
X94557725Y-136519838D01*
X94554894Y-136493501D01*
X94558988Y-136483360D01*
X94559227Y-136476485D01*
X94565313Y-136467699D01*
X94573822Y-136446625D01*
X94576887Y-136442040D01*
X94633461Y-136305458D01*
X94644549Y-136249714D01*
X94662303Y-136160465D01*
X94662303Y-136012624D01*
X94633462Y-135867637D01*
X94633461Y-135867636D01*
X94633461Y-135867632D01*
X94598641Y-135783568D01*
X94591172Y-135714099D01*
X94598641Y-135688663D01*
X94616926Y-135644519D01*
X94651747Y-135560454D01*
X94680589Y-135415459D01*
X94680589Y-135267623D01*
X94680589Y-135267620D01*
X94651748Y-135122633D01*
X94651747Y-135122632D01*
X94651747Y-135122628D01*
X94647540Y-135112472D01*
X94595176Y-134986052D01*
X94595169Y-134986039D01*
X94513040Y-134863125D01*
X94513037Y-134863121D01*
X94408508Y-134758592D01*
X94408504Y-134758589D01*
X94285590Y-134676460D01*
X94285577Y-134676453D01*
X94149006Y-134619884D01*
X94148996Y-134619881D01*
X94004009Y-134591041D01*
X94004007Y-134591041D01*
X93856171Y-134591041D01*
X93856169Y-134591041D01*
X93711181Y-134619881D01*
X93711171Y-134619884D01*
X93574600Y-134676453D01*
X93574587Y-134676460D01*
X93451673Y-134758589D01*
X93451669Y-134758592D01*
X93347140Y-134863121D01*
X93347137Y-134863125D01*
X93265008Y-134986039D01*
X93265001Y-134986052D01*
X93208432Y-135122623D01*
X93208429Y-135122633D01*
X93179589Y-135267620D01*
X93179589Y-135267623D01*
X93179589Y-135415459D01*
X93179589Y-135415461D01*
X93179588Y-135415461D01*
X93208429Y-135560448D01*
X93208431Y-135560453D01*
X93243251Y-135644519D01*
X93250719Y-135713988D01*
X93243250Y-135739422D01*
X93190146Y-135867627D01*
X93190143Y-135867637D01*
X93161303Y-136012624D01*
X93161303Y-136012627D01*
X93161303Y-136160463D01*
X93161303Y-136160465D01*
X93161302Y-136160465D01*
X93190143Y-136305452D01*
X93190146Y-136305462D01*
X93197022Y-136322062D01*
X93204489Y-136391531D01*
X93185570Y-136438391D01*
X93182499Y-136442987D01*
X93182498Y-136442989D01*
X93125924Y-136579571D01*
X93125922Y-136579577D01*
X93097082Y-136724564D01*
X93097082Y-136872402D01*
X93097081Y-136872405D01*
X93125922Y-137017392D01*
X93125925Y-137017402D01*
X93182494Y-137153973D01*
X93182501Y-137153986D01*
X93264630Y-137276900D01*
X93264633Y-137276904D01*
X93325499Y-137337770D01*
X93358984Y-137399093D01*
X93354000Y-137468785D01*
X93325500Y-137513132D01*
X93217048Y-137621584D01*
X93134919Y-137744498D01*
X93134912Y-137744511D01*
X93078343Y-137881082D01*
X93078340Y-137881092D01*
X93049500Y-138026079D01*
X93049500Y-138026082D01*
X93049500Y-138173918D01*
X93049500Y-138173920D01*
X93049499Y-138173920D01*
X88602783Y-138173920D01*
X88697062Y-138110925D01*
X88808562Y-137999425D01*
X88896167Y-137868315D01*
X88956510Y-137722633D01*
X88987273Y-137567978D01*
X88987273Y-137410294D01*
X88987273Y-137410291D01*
X88987272Y-137410289D01*
X88980038Y-137373920D01*
X90849499Y-137373920D01*
X90878340Y-137518907D01*
X90878343Y-137518917D01*
X90934912Y-137655488D01*
X90934919Y-137655501D01*
X91017048Y-137778415D01*
X91017051Y-137778419D01*
X91121580Y-137882948D01*
X91121584Y-137882951D01*
X91244498Y-137965080D01*
X91244511Y-137965087D01*
X91381082Y-138021656D01*
X91381087Y-138021658D01*
X91381091Y-138021658D01*
X91381092Y-138021659D01*
X91526079Y-138050500D01*
X91526082Y-138050500D01*
X91673920Y-138050500D01*
X91771462Y-138031096D01*
X91818913Y-138021658D01*
X91955495Y-137965084D01*
X91955501Y-137965080D01*
X92027626Y-137916888D01*
X92078416Y-137882951D01*
X92182948Y-137778419D01*
X92182951Y-137778416D01*
X92265084Y-137655495D01*
X92321658Y-137518913D01*
X92321659Y-137518905D01*
X92322144Y-137517310D01*
X92322628Y-137516570D01*
X92323989Y-137513286D01*
X92324611Y-137513544D01*
X92360441Y-137458871D01*
X92393353Y-137438743D01*
X92402593Y-137434916D01*
X92450472Y-137415084D01*
X92573393Y-137332951D01*
X92677928Y-137228416D01*
X92760061Y-137105495D01*
X92816635Y-136968913D01*
X92835832Y-136872405D01*
X92845477Y-136823920D01*
X92845477Y-136676079D01*
X92816636Y-136531092D01*
X92816635Y-136531091D01*
X92816635Y-136531087D01*
X92811976Y-136519838D01*
X92760064Y-136394511D01*
X92760057Y-136394498D01*
X92677928Y-136271584D01*
X92677925Y-136271580D01*
X92573396Y-136167051D01*
X92573392Y-136167048D01*
X92450478Y-136084919D01*
X92450465Y-136084912D01*
X92313894Y-136028343D01*
X92313884Y-136028340D01*
X92168897Y-135999500D01*
X92168895Y-135999500D01*
X92021059Y-135999500D01*
X92021057Y-135999500D01*
X91876069Y-136028340D01*
X91876059Y-136028343D01*
X91739488Y-136084912D01*
X91739475Y-136084919D01*
X91616561Y-136167048D01*
X91616557Y-136167051D01*
X91512028Y-136271580D01*
X91512025Y-136271584D01*
X91429896Y-136394498D01*
X91429889Y-136394511D01*
X91373316Y-136531091D01*
X91372825Y-136532712D01*
X91372337Y-136533454D01*
X91370988Y-136536714D01*
X91370369Y-136536457D01*
X91334516Y-136591143D01*
X91301626Y-136611254D01*
X91244510Y-136634913D01*
X91244498Y-136634919D01*
X91121584Y-136717048D01*
X91121580Y-136717051D01*
X91017051Y-136821580D01*
X91017048Y-136821584D01*
X90934919Y-136944498D01*
X90934912Y-136944511D01*
X90878343Y-137081082D01*
X90878340Y-137081092D01*
X90849500Y-137226079D01*
X90849500Y-137226082D01*
X90849500Y-137373918D01*
X90849500Y-137373920D01*
X90849499Y-137373920D01*
X88980038Y-137373920D01*
X88956511Y-137255644D01*
X88956509Y-137255636D01*
X88896170Y-137109963D01*
X88896163Y-137109950D01*
X88808562Y-136978847D01*
X88808559Y-136978843D01*
X88697065Y-136867349D01*
X88697061Y-136867346D01*
X88623318Y-136818072D01*
X88578513Y-136764459D01*
X88569806Y-136695134D01*
X88599961Y-136632107D01*
X88606112Y-136626227D01*
X88605982Y-136626097D01*
X88721786Y-136510292D01*
X88721789Y-136510289D01*
X88809394Y-136379179D01*
X88869737Y-136233497D01*
X88900500Y-136078842D01*
X88900500Y-135921158D01*
X88900500Y-135921155D01*
X88900499Y-135921153D01*
X88869738Y-135766510D01*
X88869737Y-135766503D01*
X88847985Y-135713988D01*
X88809397Y-135620827D01*
X88809390Y-135620814D01*
X88721789Y-135489711D01*
X88721786Y-135489707D01*
X88610292Y-135378213D01*
X88610287Y-135378209D01*
X88607970Y-135376661D01*
X88607029Y-135375535D01*
X88605581Y-135374347D01*
X88605806Y-135374072D01*
X88563164Y-135323050D01*
X88554455Y-135253725D01*
X88584609Y-135190697D01*
X88607968Y-135170456D01*
X88630434Y-135155444D01*
X88697062Y-135110925D01*
X88808562Y-134999425D01*
X88896167Y-134868315D01*
X88956510Y-134722633D01*
X88987273Y-134567978D01*
X88987273Y-134410294D01*
X88987273Y-134410291D01*
X88987272Y-134410289D01*
X88956511Y-134255646D01*
X88956510Y-134255639D01*
X88922661Y-134173920D01*
X88896170Y-134109963D01*
X88896163Y-134109950D01*
X88808562Y-133978847D01*
X88808559Y-133978843D01*
X88697065Y-133867349D01*
X88697057Y-133867343D01*
X88659485Y-133842238D01*
X88614679Y-133788626D01*
X88605972Y-133719301D01*
X88636126Y-133656274D01*
X88659485Y-133636034D01*
X88686052Y-133618281D01*
X88697062Y-133610925D01*
X88734067Y-133573920D01*
X92449499Y-133573920D01*
X92478340Y-133718907D01*
X92478343Y-133718917D01*
X92534912Y-133855488D01*
X92534919Y-133855501D01*
X92617048Y-133978415D01*
X92617051Y-133978419D01*
X92721580Y-134082948D01*
X92721584Y-134082951D01*
X92844498Y-134165080D01*
X92844511Y-134165087D01*
X92981082Y-134221656D01*
X92981087Y-134221658D01*
X92981091Y-134221658D01*
X92981092Y-134221659D01*
X93126079Y-134250500D01*
X93126082Y-134250500D01*
X93273920Y-134250500D01*
X93371462Y-134231096D01*
X93418913Y-134221658D01*
X93555495Y-134165084D01*
X93678416Y-134082951D01*
X93782951Y-133978416D01*
X93865084Y-133855495D01*
X93921658Y-133718913D01*
X93938144Y-133636034D01*
X93950500Y-133573920D01*
X93950500Y-133426079D01*
X93921659Y-133281092D01*
X93921658Y-133281091D01*
X93921658Y-133281087D01*
X93920551Y-133278415D01*
X93865087Y-133144511D01*
X93865080Y-133144498D01*
X93782951Y-133021584D01*
X93782948Y-133021580D01*
X93678419Y-132917051D01*
X93678415Y-132917048D01*
X93555501Y-132834919D01*
X93555488Y-132834912D01*
X93418917Y-132778343D01*
X93418907Y-132778340D01*
X93273920Y-132749500D01*
X93273918Y-132749500D01*
X93126082Y-132749500D01*
X93126080Y-132749500D01*
X92981092Y-132778340D01*
X92981082Y-132778343D01*
X92844511Y-132834912D01*
X92844498Y-132834919D01*
X92721584Y-132917048D01*
X92721580Y-132917051D01*
X92617051Y-133021580D01*
X92617048Y-133021584D01*
X92534919Y-133144498D01*
X92534912Y-133144511D01*
X92478343Y-133281082D01*
X92478340Y-133281092D01*
X92449500Y-133426079D01*
X92449500Y-133426082D01*
X92449500Y-133573918D01*
X92449500Y-133573920D01*
X92449499Y-133573920D01*
X88734067Y-133573920D01*
X88808562Y-133499425D01*
X88896167Y-133368315D01*
X88956510Y-133222633D01*
X88987273Y-133067978D01*
X88987273Y-132910294D01*
X88987273Y-132910291D01*
X88987272Y-132910289D01*
X88961026Y-132778342D01*
X88956510Y-132755639D01*
X88944266Y-132726079D01*
X88896170Y-132609963D01*
X88896163Y-132609950D01*
X88813033Y-132485539D01*
X95657157Y-132485539D01*
X95685998Y-132630526D01*
X95686001Y-132630536D01*
X95742570Y-132767107D01*
X95742577Y-132767120D01*
X95824706Y-132890034D01*
X95824709Y-132890038D01*
X95929238Y-132994567D01*
X95929242Y-132994570D01*
X96052156Y-133076699D01*
X96052169Y-133076706D01*
X96188740Y-133133275D01*
X96188745Y-133133277D01*
X96188749Y-133133277D01*
X96188750Y-133133278D01*
X96333737Y-133162119D01*
X96333740Y-133162119D01*
X96481578Y-133162119D01*
X96579120Y-133142715D01*
X96626571Y-133133277D01*
X96763153Y-133076703D01*
X96886074Y-132994570D01*
X96990609Y-132890035D01*
X97072742Y-132767114D01*
X97115733Y-132663323D01*
X97159573Y-132608920D01*
X97182842Y-132596215D01*
X97246115Y-132570007D01*
X97246115Y-132570006D01*
X97246122Y-132570004D01*
X97369043Y-132487871D01*
X97473578Y-132383336D01*
X97555711Y-132260415D01*
X97555713Y-132260408D01*
X97556701Y-132258931D01*
X97610313Y-132214126D01*
X97679638Y-132205417D01*
X97707256Y-132213259D01*
X97781086Y-132243841D01*
X97781090Y-132243841D01*
X97781091Y-132243842D01*
X97926078Y-132272683D01*
X97926081Y-132272683D01*
X98073919Y-132272683D01*
X98171461Y-132253279D01*
X98218912Y-132243841D01*
X98355494Y-132187267D01*
X98478415Y-132105134D01*
X98582950Y-132000599D01*
X98665083Y-131877678D01*
X98721657Y-131741096D01*
X98739138Y-131653215D01*
X98750499Y-131596103D01*
X98750499Y-131524804D01*
X98750499Y-131448265D01*
X98734550Y-131368088D01*
X98734550Y-131368083D01*
X98721658Y-131303275D01*
X98721657Y-131303274D01*
X98721657Y-131303270D01*
X98719417Y-131297863D01*
X98708738Y-131272080D01*
X98981317Y-131272080D01*
X98981317Y-131272083D01*
X98981317Y-131419919D01*
X98997263Y-131500086D01*
X98997265Y-131500099D01*
X99010157Y-131564908D01*
X99010160Y-131564918D01*
X99066729Y-131701489D01*
X99066736Y-131701502D01*
X99148865Y-131824416D01*
X99148868Y-131824420D01*
X99253397Y-131928949D01*
X99253401Y-131928952D01*
X99376315Y-132011081D01*
X99376328Y-132011088D01*
X99469064Y-132049500D01*
X99512904Y-132067659D01*
X99512908Y-132067659D01*
X99512909Y-132067660D01*
X99657896Y-132096501D01*
X99657899Y-132096501D01*
X99805737Y-132096501D01*
X99903279Y-132077097D01*
X99950730Y-132067659D01*
X100087312Y-132011085D01*
X100210233Y-131928952D01*
X100314768Y-131824417D01*
X100377967Y-131729831D01*
X100431577Y-131685029D01*
X100456868Y-131677109D01*
X100522643Y-131664026D01*
X100659225Y-131607452D01*
X100782146Y-131525319D01*
X100886681Y-131420784D01*
X100968814Y-131297863D01*
X101025388Y-131161281D01*
X101048764Y-131043767D01*
X101054230Y-131016288D01*
X101054230Y-130868447D01*
X101025389Y-130723460D01*
X101025388Y-130723459D01*
X101025388Y-130723455D01*
X101015466Y-130699500D01*
X100968817Y-130586879D01*
X100968810Y-130586866D01*
X100886681Y-130463952D01*
X100886678Y-130463948D01*
X100782149Y-130359419D01*
X100782145Y-130359416D01*
X100659231Y-130277287D01*
X100659218Y-130277280D01*
X100522647Y-130220711D01*
X100522637Y-130220708D01*
X100377650Y-130191868D01*
X100377648Y-130191868D01*
X100229812Y-130191868D01*
X100229810Y-130191868D01*
X100084822Y-130220708D01*
X100084812Y-130220711D01*
X99948241Y-130277280D01*
X99948228Y-130277287D01*
X99825314Y-130359416D01*
X99825310Y-130359419D01*
X99720781Y-130463948D01*
X99720778Y-130463952D01*
X99657580Y-130558534D01*
X99603967Y-130603339D01*
X99578671Y-130611260D01*
X99512907Y-130624341D01*
X99512901Y-130624343D01*
X99376328Y-130680913D01*
X99376315Y-130680920D01*
X99253401Y-130763049D01*
X99253397Y-130763052D01*
X99148868Y-130867581D01*
X99148865Y-130867585D01*
X99066736Y-130990499D01*
X99066729Y-130990512D01*
X99010160Y-131127083D01*
X99010157Y-131127093D01*
X98981317Y-131272080D01*
X98708738Y-131272080D01*
X98665086Y-131166694D01*
X98665079Y-131166681D01*
X98582950Y-131043767D01*
X98582947Y-131043763D01*
X98478418Y-130939234D01*
X98478414Y-130939231D01*
X98355500Y-130857102D01*
X98355487Y-130857095D01*
X98218916Y-130800526D01*
X98218906Y-130800523D01*
X98073919Y-130771683D01*
X98073917Y-130771683D01*
X97926081Y-130771683D01*
X97870361Y-130782766D01*
X97800770Y-130776537D01*
X97758490Y-130748829D01*
X97734760Y-130725099D01*
X97734756Y-130725096D01*
X97611842Y-130642967D01*
X97611829Y-130642960D01*
X97475258Y-130586391D01*
X97475248Y-130586388D01*
X97330261Y-130557548D01*
X97330259Y-130557548D01*
X97182423Y-130557548D01*
X97182421Y-130557548D01*
X97037433Y-130586388D01*
X97037423Y-130586391D01*
X96900852Y-130642960D01*
X96900839Y-130642967D01*
X96777925Y-130725096D01*
X96777921Y-130725099D01*
X96673392Y-130829628D01*
X96673389Y-130829632D01*
X96591260Y-130952546D01*
X96591253Y-130952559D01*
X96534684Y-131089130D01*
X96534681Y-131089140D01*
X96510062Y-131212906D01*
X96477677Y-131274817D01*
X96457337Y-131291815D01*
X96412213Y-131321966D01*
X96412207Y-131321971D01*
X96307678Y-131426500D01*
X96307675Y-131426504D01*
X96225546Y-131549418D01*
X96225541Y-131549428D01*
X96182551Y-131653215D01*
X96138710Y-131707618D01*
X96115443Y-131720323D01*
X96052166Y-131746533D01*
X96052156Y-131746538D01*
X95929242Y-131828667D01*
X95929238Y-131828670D01*
X95824709Y-131933199D01*
X95824706Y-131933203D01*
X95742577Y-132056117D01*
X95742570Y-132056130D01*
X95686001Y-132192701D01*
X95685998Y-132192711D01*
X95657158Y-132337698D01*
X95657158Y-132337701D01*
X95657158Y-132485537D01*
X95657158Y-132485539D01*
X95657157Y-132485539D01*
X88813033Y-132485539D01*
X88808562Y-132478847D01*
X88808559Y-132478843D01*
X88753672Y-132423956D01*
X88753666Y-132423951D01*
X88697062Y-132367347D01*
X88618668Y-132314966D01*
X88614317Y-132311453D01*
X88597471Y-132287144D01*
X88578513Y-132264459D01*
X88577796Y-132258752D01*
X88574520Y-132254025D01*
X88573490Y-132224471D01*
X88569806Y-132195134D01*
X88572288Y-132189945D01*
X88572088Y-132184198D01*
X88587198Y-132158781D01*
X88599961Y-132132107D01*
X88606112Y-132126227D01*
X88605982Y-132126097D01*
X88607581Y-132124497D01*
X88607794Y-132124140D01*
X88608083Y-132123995D01*
X88721786Y-132010292D01*
X88721789Y-132010289D01*
X88809394Y-131879179D01*
X88869737Y-131733497D01*
X88900500Y-131578842D01*
X88900500Y-131421158D01*
X88900500Y-131421155D01*
X88900499Y-131421153D01*
X88875975Y-131297863D01*
X88869737Y-131266503D01*
X88826153Y-131161281D01*
X88809397Y-131120827D01*
X88809390Y-131120814D01*
X88721789Y-130989711D01*
X88721786Y-130989707D01*
X88610292Y-130878213D01*
X88610288Y-130878210D01*
X88479185Y-130790609D01*
X88479172Y-130790602D01*
X88333501Y-130730264D01*
X88333489Y-130730261D01*
X88178845Y-130699500D01*
X88178842Y-130699500D01*
X88021158Y-130699500D01*
X88021155Y-130699500D01*
X87866510Y-130730261D01*
X87866498Y-130730264D01*
X87720827Y-130790602D01*
X87720814Y-130790609D01*
X87589711Y-130878210D01*
X87589707Y-130878213D01*
X87478213Y-130989707D01*
X87478210Y-130989711D01*
X87390609Y-131120814D01*
X87390602Y-131120827D01*
X87330264Y-131266498D01*
X87330261Y-131266510D01*
X87299500Y-131421153D01*
X60950500Y-131421153D01*
X60950500Y-126210097D01*
X60970185Y-126143058D01*
X60986819Y-126122416D01*
X61217377Y-125891858D01*
X61448042Y-125661192D01*
X61509363Y-125627709D01*
X61579054Y-125632693D01*
X61634988Y-125674564D01*
X61658659Y-125732682D01*
X61659497Y-125739049D01*
X61659499Y-125739056D01*
X61659499Y-125739057D01*
X61700423Y-125891785D01*
X61722776Y-125930501D01*
X61729358Y-125941900D01*
X61729359Y-125941904D01*
X61729360Y-125941904D01*
X61779479Y-126028714D01*
X61779481Y-126028717D01*
X61898349Y-126147585D01*
X61898355Y-126147590D01*
X64215139Y-128464374D01*
X64215149Y-128464385D01*
X64219479Y-128468715D01*
X64219480Y-128468716D01*
X64331284Y-128580520D01*
X64408694Y-128625212D01*
X64468215Y-128659577D01*
X64620943Y-128700500D01*
X64779057Y-128700500D01*
X65255308Y-128700500D01*
X65322347Y-128720185D01*
X65368102Y-128772989D01*
X65378046Y-128842147D01*
X65369869Y-128871953D01*
X65314309Y-129006086D01*
X65314307Y-129006092D01*
X65285467Y-129151079D01*
X65285467Y-129151082D01*
X65285467Y-129298918D01*
X65285467Y-129298920D01*
X65285466Y-129298920D01*
X65314307Y-129443907D01*
X65314310Y-129443917D01*
X65370879Y-129580488D01*
X65370886Y-129580501D01*
X65453015Y-129703415D01*
X65453018Y-129703419D01*
X65557547Y-129807948D01*
X65557551Y-129807951D01*
X65680465Y-129890080D01*
X65680478Y-129890087D01*
X65811117Y-129944199D01*
X65817054Y-129946658D01*
X65817058Y-129946658D01*
X65817059Y-129946659D01*
X65962046Y-129975500D01*
X65962049Y-129975500D01*
X66109887Y-129975500D01*
X66207429Y-129956096D01*
X66254880Y-129946658D01*
X66391462Y-129890084D01*
X66514383Y-129807951D01*
X66618918Y-129703416D01*
X66701051Y-129580495D01*
X66757625Y-129443913D01*
X66786467Y-129298918D01*
X66786467Y-129151082D01*
X66786467Y-129151079D01*
X66757626Y-129006092D01*
X66757625Y-129006091D01*
X66757625Y-129006087D01*
X66702065Y-128871953D01*
X66694596Y-128802483D01*
X66725871Y-128740004D01*
X66785960Y-128704352D01*
X66816626Y-128700500D01*
X68665967Y-128700500D01*
X68733006Y-128720185D01*
X68778761Y-128772989D01*
X68788705Y-128842147D01*
X68769069Y-128893391D01*
X68734919Y-128944498D01*
X68734912Y-128944511D01*
X68678343Y-129081082D01*
X68678340Y-129081092D01*
X68649500Y-129226079D01*
X68649500Y-129226082D01*
X68649500Y-129373918D01*
X68649500Y-129373920D01*
X68649499Y-129373920D01*
X68678340Y-129518907D01*
X68678343Y-129518917D01*
X68734912Y-129655488D01*
X68734919Y-129655501D01*
X68817048Y-129778415D01*
X68817051Y-129778419D01*
X68921580Y-129882948D01*
X68921584Y-129882951D01*
X69044498Y-129965080D01*
X69044511Y-129965087D01*
X69169088Y-130016688D01*
X69181087Y-130021658D01*
X69181091Y-130021658D01*
X69181092Y-130021659D01*
X69326079Y-130050500D01*
X69326082Y-130050500D01*
X69473920Y-130050500D01*
X69574462Y-130030500D01*
X69618913Y-130021658D01*
X69724547Y-129977902D01*
X69755488Y-129965087D01*
X69755488Y-129965086D01*
X69755495Y-129965084D01*
X69878416Y-129882951D01*
X69982951Y-129778416D01*
X70065084Y-129655495D01*
X70121658Y-129518913D01*
X70136578Y-129443907D01*
X70150500Y-129373920D01*
X70150500Y-129226079D01*
X70121659Y-129081092D01*
X70121658Y-129081091D01*
X70121658Y-129081087D01*
X70077626Y-128974783D01*
X70065087Y-128944511D01*
X70065080Y-128944498D01*
X70030931Y-128893391D01*
X70010053Y-128826714D01*
X70028537Y-128759334D01*
X70080516Y-128712643D01*
X70134033Y-128700500D01*
X71292563Y-128700500D01*
X71292579Y-128700501D01*
X71300175Y-128700501D01*
X71458286Y-128700501D01*
X71458289Y-128700501D01*
X71611017Y-128659577D01*
X71670538Y-128625212D01*
X71747948Y-128580520D01*
X71859752Y-128468716D01*
X71859752Y-128468714D01*
X71869956Y-128458511D01*
X71869960Y-128458506D01*
X73406779Y-126921687D01*
X91528004Y-126921687D01*
X91528004Y-127079380D01*
X91558765Y-127234023D01*
X91558768Y-127234035D01*
X91619106Y-127379706D01*
X91619113Y-127379719D01*
X91706714Y-127510822D01*
X91706717Y-127510826D01*
X91818211Y-127622320D01*
X91818215Y-127622323D01*
X91949318Y-127709924D01*
X91949331Y-127709931D01*
X92093713Y-127769735D01*
X92095007Y-127770271D01*
X92245535Y-127800213D01*
X92249657Y-127801033D01*
X92249660Y-127801034D01*
X92249662Y-127801034D01*
X92407348Y-127801034D01*
X92407349Y-127801033D01*
X92562001Y-127770271D01*
X92707683Y-127709928D01*
X92838793Y-127622323D01*
X92950293Y-127510823D01*
X92960532Y-127495500D01*
X92997909Y-127439561D01*
X93051521Y-127394756D01*
X93120846Y-127386049D01*
X93183873Y-127416203D01*
X93188692Y-127420771D01*
X93289707Y-127521786D01*
X93289711Y-127521789D01*
X93420814Y-127609390D01*
X93420827Y-127609397D01*
X93532858Y-127655801D01*
X93566503Y-127669737D01*
X93721153Y-127700499D01*
X93721156Y-127700500D01*
X93721158Y-127700500D01*
X93878844Y-127700500D01*
X93878845Y-127700499D01*
X94033497Y-127669737D01*
X94179179Y-127609394D01*
X94310289Y-127521789D01*
X94421789Y-127410289D01*
X94495730Y-127299629D01*
X94496898Y-127297881D01*
X94550510Y-127253076D01*
X94619835Y-127244369D01*
X94682863Y-127274523D01*
X94703102Y-127297881D01*
X94778210Y-127410288D01*
X94778213Y-127410292D01*
X94889707Y-127521786D01*
X94889711Y-127521789D01*
X95020814Y-127609390D01*
X95020827Y-127609397D01*
X95132858Y-127655801D01*
X95166503Y-127669737D01*
X95321153Y-127700499D01*
X95321156Y-127700500D01*
X95321158Y-127700500D01*
X95478844Y-127700500D01*
X95478845Y-127700499D01*
X95633497Y-127669737D01*
X95779179Y-127609394D01*
X95910289Y-127521789D01*
X96021789Y-127410289D01*
X96109394Y-127279179D01*
X96169737Y-127133497D01*
X96200500Y-126978842D01*
X96200500Y-126921153D01*
X96899500Y-126921153D01*
X96899500Y-127078846D01*
X96930261Y-127233489D01*
X96930264Y-127233501D01*
X96990602Y-127379172D01*
X96990609Y-127379185D01*
X97078210Y-127510288D01*
X97078213Y-127510292D01*
X97189707Y-127621786D01*
X97189711Y-127621789D01*
X97320814Y-127709390D01*
X97320827Y-127709397D01*
X97397656Y-127741220D01*
X97466503Y-127769737D01*
X97619690Y-127800208D01*
X97621153Y-127800499D01*
X97621156Y-127800500D01*
X97621158Y-127800500D01*
X97778844Y-127800500D01*
X97778845Y-127800499D01*
X97933497Y-127769737D01*
X98077890Y-127709928D01*
X98079172Y-127709397D01*
X98079172Y-127709396D01*
X98079179Y-127709394D01*
X98210289Y-127621789D01*
X98321789Y-127510289D01*
X98409394Y-127379179D01*
X98422520Y-127347491D01*
X98445952Y-127290920D01*
X98469737Y-127233497D01*
X98500500Y-127078842D01*
X98500500Y-126921158D01*
X98500500Y-126921155D01*
X98500499Y-126921153D01*
X98488785Y-126862259D01*
X98485184Y-126844155D01*
X100845327Y-126844155D01*
X100845327Y-127001848D01*
X100876088Y-127156491D01*
X100876091Y-127156503D01*
X100936429Y-127302174D01*
X100936436Y-127302187D01*
X101024037Y-127433290D01*
X101024040Y-127433294D01*
X101135534Y-127544788D01*
X101135538Y-127544791D01*
X101266641Y-127632392D01*
X101266654Y-127632399D01*
X101397919Y-127686770D01*
X101412330Y-127692739D01*
X101566980Y-127723501D01*
X101566983Y-127723502D01*
X101566985Y-127723502D01*
X101724671Y-127723502D01*
X101724672Y-127723501D01*
X101879324Y-127692739D01*
X102025006Y-127632396D01*
X102156116Y-127544791D01*
X102267616Y-127433291D01*
X102326990Y-127344431D01*
X102380599Y-127299629D01*
X102449924Y-127290920D01*
X102512952Y-127321075D01*
X102533192Y-127344433D01*
X102568022Y-127396559D01*
X102568025Y-127396563D01*
X102679519Y-127508057D01*
X102679523Y-127508060D01*
X102810626Y-127595661D01*
X102810639Y-127595668D01*
X102941559Y-127649896D01*
X102956315Y-127656008D01*
X103100262Y-127684641D01*
X103110965Y-127686770D01*
X103110968Y-127686771D01*
X103110970Y-127686771D01*
X103268656Y-127686771D01*
X103268657Y-127686770D01*
X103423309Y-127656008D01*
X103568991Y-127595665D01*
X103700101Y-127508060D01*
X103811601Y-127396560D01*
X103899206Y-127265450D01*
X103904332Y-127253076D01*
X103913759Y-127230315D01*
X103959549Y-127119768D01*
X103990312Y-126965113D01*
X103990312Y-126807429D01*
X103990312Y-126807426D01*
X103990311Y-126807424D01*
X103977797Y-126744511D01*
X103959549Y-126652774D01*
X103948538Y-126626191D01*
X103899209Y-126507098D01*
X103899202Y-126507085D01*
X103811601Y-126375982D01*
X103811598Y-126375978D01*
X103700104Y-126264484D01*
X103700100Y-126264481D01*
X103568997Y-126176880D01*
X103568984Y-126176873D01*
X103423313Y-126116535D01*
X103423301Y-126116532D01*
X103268657Y-126085771D01*
X103268654Y-126085771D01*
X103110970Y-126085771D01*
X103110967Y-126085771D01*
X102956322Y-126116532D01*
X102956310Y-126116535D01*
X102810639Y-126176873D01*
X102810626Y-126176880D01*
X102679523Y-126264481D01*
X102679519Y-126264484D01*
X102568025Y-126375978D01*
X102568022Y-126375982D01*
X102508650Y-126464839D01*
X102455038Y-126509644D01*
X102385713Y-126518351D01*
X102322685Y-126488196D01*
X102302446Y-126464839D01*
X102267616Y-126412713D01*
X102267613Y-126412709D01*
X102156119Y-126301215D01*
X102156115Y-126301212D01*
X102025012Y-126213611D01*
X102024999Y-126213604D01*
X101879328Y-126153266D01*
X101879316Y-126153263D01*
X101724672Y-126122502D01*
X101724669Y-126122502D01*
X101566985Y-126122502D01*
X101566982Y-126122502D01*
X101412337Y-126153263D01*
X101412325Y-126153266D01*
X101266654Y-126213604D01*
X101266641Y-126213611D01*
X101135538Y-126301212D01*
X101135534Y-126301215D01*
X101024040Y-126412709D01*
X101024037Y-126412713D01*
X100936436Y-126543816D01*
X100936429Y-126543829D01*
X100876091Y-126689500D01*
X100876088Y-126689512D01*
X100845327Y-126844155D01*
X98485184Y-126844155D01*
X98469738Y-126766508D01*
X98469737Y-126766507D01*
X98469737Y-126766503D01*
X98441664Y-126698728D01*
X98409397Y-126620827D01*
X98409390Y-126620814D01*
X98321789Y-126489711D01*
X98321786Y-126489707D01*
X98210292Y-126378213D01*
X98210288Y-126378210D01*
X98079185Y-126290609D01*
X98079172Y-126290602D01*
X97933501Y-126230264D01*
X97933489Y-126230261D01*
X97778845Y-126199500D01*
X97778842Y-126199500D01*
X97621158Y-126199500D01*
X97621155Y-126199500D01*
X97466510Y-126230261D01*
X97466498Y-126230264D01*
X97320827Y-126290602D01*
X97320814Y-126290609D01*
X97189711Y-126378210D01*
X97189707Y-126378213D01*
X97078213Y-126489707D01*
X97078210Y-126489711D01*
X96990609Y-126620814D01*
X96990602Y-126620827D01*
X96930264Y-126766498D01*
X96930261Y-126766510D01*
X96899500Y-126921153D01*
X96200500Y-126921153D01*
X96200500Y-126821158D01*
X96200500Y-126821155D01*
X96200499Y-126821153D01*
X96197769Y-126807429D01*
X96169737Y-126666503D01*
X96168457Y-126663412D01*
X96109397Y-126520827D01*
X96109390Y-126520814D01*
X96021789Y-126389711D01*
X96021786Y-126389707D01*
X95910292Y-126278213D01*
X95910288Y-126278210D01*
X95779185Y-126190609D01*
X95779172Y-126190602D01*
X95633501Y-126130264D01*
X95633489Y-126130261D01*
X95478845Y-126099500D01*
X95478842Y-126099500D01*
X95321158Y-126099500D01*
X95321155Y-126099500D01*
X95166510Y-126130261D01*
X95166498Y-126130264D01*
X95020827Y-126190602D01*
X95020814Y-126190609D01*
X94889711Y-126278210D01*
X94889707Y-126278213D01*
X94778213Y-126389707D01*
X94778210Y-126389711D01*
X94703102Y-126502118D01*
X94649490Y-126546923D01*
X94580165Y-126555630D01*
X94517137Y-126525475D01*
X94496898Y-126502118D01*
X94421789Y-126389711D01*
X94421786Y-126389707D01*
X94310292Y-126278213D01*
X94310288Y-126278210D01*
X94179185Y-126190609D01*
X94179172Y-126190602D01*
X94033501Y-126130264D01*
X94033489Y-126130261D01*
X93878845Y-126099500D01*
X93878842Y-126099500D01*
X93721158Y-126099500D01*
X93721155Y-126099500D01*
X93566510Y-126130261D01*
X93566498Y-126130264D01*
X93420827Y-126190602D01*
X93420814Y-126190609D01*
X93289711Y-126278210D01*
X93289707Y-126278213D01*
X93178210Y-126389710D01*
X93130595Y-126460973D01*
X93076983Y-126505778D01*
X93007658Y-126514485D01*
X92944631Y-126484331D01*
X92939812Y-126479763D01*
X92838796Y-126378747D01*
X92838792Y-126378744D01*
X92707689Y-126291143D01*
X92707676Y-126291136D01*
X92562005Y-126230798D01*
X92561993Y-126230795D01*
X92407349Y-126200034D01*
X92407346Y-126200034D01*
X92249662Y-126200034D01*
X92249659Y-126200034D01*
X92095014Y-126230795D01*
X92095002Y-126230798D01*
X91949331Y-126291136D01*
X91949318Y-126291143D01*
X91818215Y-126378744D01*
X91818211Y-126378747D01*
X91706717Y-126490241D01*
X91706714Y-126490245D01*
X91619113Y-126621348D01*
X91619106Y-126621361D01*
X91558768Y-126767032D01*
X91558765Y-126767044D01*
X91528004Y-126921687D01*
X73406779Y-126921687D01*
X73858506Y-126469960D01*
X73858511Y-126469956D01*
X73868714Y-126459752D01*
X73868716Y-126459752D01*
X73980520Y-126347948D01*
X74036781Y-126250500D01*
X74059577Y-126211017D01*
X74100501Y-126058289D01*
X74100501Y-125900175D01*
X74100501Y-125892580D01*
X74100500Y-125892562D01*
X74100500Y-125260185D01*
X74120185Y-125193146D01*
X74146134Y-125164088D01*
X74211109Y-125111109D01*
X74339698Y-124953407D01*
X74433909Y-124773049D01*
X74489886Y-124577418D01*
X74500500Y-124458037D01*
X74500499Y-123541964D01*
X74489886Y-123422582D01*
X74433909Y-123226951D01*
X74339698Y-123046593D01*
X74273001Y-122964795D01*
X74211109Y-122888890D01*
X74095848Y-122794908D01*
X74095846Y-122794906D01*
X74053412Y-122760305D01*
X74053408Y-122760303D01*
X74053407Y-122760302D01*
X73942052Y-122702135D01*
X117509500Y-122702135D01*
X117509500Y-124497870D01*
X117509501Y-124497876D01*
X117515908Y-124557483D01*
X117566202Y-124692328D01*
X117566206Y-124692335D01*
X117652452Y-124807544D01*
X117652455Y-124807547D01*
X117767664Y-124893793D01*
X117767671Y-124893797D01*
X117899082Y-124942810D01*
X117955016Y-124984681D01*
X117979433Y-125050145D01*
X117964582Y-125118418D01*
X117943431Y-125146673D01*
X117829889Y-125260215D01*
X117704951Y-125432179D01*
X117608445Y-125621583D01*
X117608444Y-125621585D01*
X117608443Y-125621588D01*
X117561256Y-125766815D01*
X117542753Y-125823760D01*
X117522759Y-125950000D01*
X117509500Y-126033713D01*
X117509500Y-126246287D01*
X117518200Y-126301215D01*
X117542635Y-126455495D01*
X117542754Y-126456243D01*
X117606613Y-126652781D01*
X117608444Y-126658414D01*
X117704951Y-126847820D01*
X117829890Y-127019786D01*
X117980213Y-127170109D01*
X118152182Y-127295050D01*
X118160946Y-127299516D01*
X118211742Y-127347491D01*
X118228536Y-127415312D01*
X118205998Y-127481447D01*
X118160946Y-127520484D01*
X118152182Y-127524949D01*
X117980213Y-127649890D01*
X117829890Y-127800213D01*
X117704951Y-127972179D01*
X117608444Y-128161585D01*
X117542753Y-128363760D01*
X117509500Y-128573713D01*
X117509500Y-128786286D01*
X117539356Y-128974793D01*
X117542754Y-128996243D01*
X117593064Y-129151082D01*
X117608444Y-129198414D01*
X117704951Y-129387820D01*
X117829890Y-129559786D01*
X117980213Y-129710109D01*
X118152179Y-129835048D01*
X118152181Y-129835049D01*
X118152184Y-129835051D01*
X118341588Y-129931557D01*
X118543757Y-129997246D01*
X118753713Y-130030500D01*
X118753714Y-130030500D01*
X118966286Y-130030500D01*
X118966287Y-130030500D01*
X119176243Y-129997246D01*
X119378412Y-129931557D01*
X119567816Y-129835051D01*
X119645768Y-129778416D01*
X119739786Y-129710109D01*
X119739788Y-129710106D01*
X119739792Y-129710104D01*
X119890104Y-129559792D01*
X119890106Y-129559788D01*
X119890109Y-129559786D01*
X120015048Y-129387820D01*
X120015047Y-129387820D01*
X120015051Y-129387816D01*
X120019514Y-129379054D01*
X120067488Y-129328259D01*
X120135308Y-129311463D01*
X120201444Y-129333999D01*
X120240486Y-129379056D01*
X120244951Y-129387820D01*
X120369890Y-129559786D01*
X120520213Y-129710109D01*
X120692179Y-129835048D01*
X120692181Y-129835049D01*
X120692184Y-129835051D01*
X120881588Y-129931557D01*
X121083757Y-129997246D01*
X121293713Y-130030500D01*
X121293714Y-130030500D01*
X121506286Y-130030500D01*
X121506287Y-130030500D01*
X121716243Y-129997246D01*
X121918412Y-129931557D01*
X122107816Y-129835051D01*
X122185768Y-129778416D01*
X122279786Y-129710109D01*
X122279788Y-129710106D01*
X122279792Y-129710104D01*
X122430104Y-129559792D01*
X122430106Y-129559788D01*
X122430109Y-129559786D01*
X122555048Y-129387820D01*
X122555047Y-129387820D01*
X122555051Y-129387816D01*
X122651557Y-129198412D01*
X122717246Y-128996243D01*
X122750500Y-128786287D01*
X122750500Y-128573713D01*
X122717246Y-128363757D01*
X122651557Y-128161588D01*
X122555051Y-127972184D01*
X122555049Y-127972181D01*
X122555048Y-127972179D01*
X122430109Y-127800213D01*
X122279786Y-127649890D01*
X122107820Y-127524951D01*
X122101608Y-127521786D01*
X122099054Y-127520485D01*
X122048259Y-127472512D01*
X122031463Y-127404692D01*
X122053999Y-127338556D01*
X122099054Y-127299515D01*
X122107816Y-127295051D01*
X122165590Y-127253076D01*
X122279786Y-127170109D01*
X122279788Y-127170106D01*
X122279792Y-127170104D01*
X122430104Y-127019792D01*
X122430106Y-127019788D01*
X122430109Y-127019786D01*
X122555048Y-126847820D01*
X122555047Y-126847820D01*
X122555051Y-126847816D01*
X122651557Y-126658412D01*
X122717246Y-126456243D01*
X122750500Y-126246287D01*
X122750500Y-126033713D01*
X122717246Y-125823757D01*
X122651557Y-125621588D01*
X122651555Y-125621585D01*
X122651555Y-125621583D01*
X122585018Y-125490998D01*
X122555051Y-125432184D01*
X122555049Y-125432181D01*
X122555048Y-125432179D01*
X122430109Y-125260213D01*
X122279786Y-125109890D01*
X122107817Y-124984949D01*
X122098504Y-124980204D01*
X122047707Y-124932230D01*
X122030912Y-124864409D01*
X122053449Y-124798274D01*
X122098507Y-124759232D01*
X122107555Y-124754622D01*
X122161716Y-124715270D01*
X122161717Y-124715270D01*
X121529408Y-124082962D01*
X121592993Y-124065925D01*
X121707007Y-124000099D01*
X121800099Y-123907007D01*
X121865925Y-123792993D01*
X121882962Y-123729409D01*
X122515270Y-124361717D01*
X122515270Y-124361716D01*
X122554622Y-124307554D01*
X122651095Y-124118217D01*
X122716757Y-123916130D01*
X122716757Y-123916127D01*
X122750000Y-123706246D01*
X122750000Y-123493753D01*
X122716757Y-123283872D01*
X122716757Y-123283869D01*
X122651095Y-123081782D01*
X122554624Y-122892449D01*
X122515270Y-122838282D01*
X122515269Y-122838282D01*
X121882962Y-123470590D01*
X121865925Y-123407007D01*
X121800099Y-123292993D01*
X121707007Y-123199901D01*
X121592993Y-123134075D01*
X121529409Y-123117037D01*
X121939310Y-122707135D01*
X123734500Y-122707135D01*
X123734500Y-124502870D01*
X123734501Y-124502876D01*
X123740908Y-124562483D01*
X123791202Y-124697328D01*
X123791206Y-124697335D01*
X123877452Y-124812544D01*
X123877455Y-124812547D01*
X123992664Y-124898793D01*
X123992671Y-124898797D01*
X124124082Y-124947810D01*
X124180016Y-124989681D01*
X124204433Y-125055145D01*
X124189582Y-125123418D01*
X124168431Y-125151673D01*
X124054889Y-125265215D01*
X123929951Y-125437179D01*
X123833444Y-125626585D01*
X123767753Y-125828760D01*
X123748551Y-125950000D01*
X123734500Y-126038713D01*
X123734500Y-126251287D01*
X123738085Y-126273920D01*
X123767517Y-126459752D01*
X123767754Y-126461243D01*
X123831818Y-126658412D01*
X123833444Y-126663414D01*
X123929951Y-126852820D01*
X124054890Y-127024786D01*
X124205213Y-127175109D01*
X124377179Y-127300048D01*
X124377181Y-127300049D01*
X124377184Y-127300051D01*
X124566588Y-127396557D01*
X124768757Y-127462246D01*
X124978713Y-127495500D01*
X124978714Y-127495500D01*
X125191286Y-127495500D01*
X125191287Y-127495500D01*
X125401243Y-127462246D01*
X125603412Y-127396557D01*
X125792816Y-127300051D01*
X125857472Y-127253076D01*
X125964786Y-127175109D01*
X125964788Y-127175106D01*
X125964792Y-127175104D01*
X126115104Y-127024792D01*
X126115106Y-127024788D01*
X126115109Y-127024786D01*
X126240048Y-126852820D01*
X126240047Y-126852820D01*
X126240051Y-126852816D01*
X126244514Y-126844054D01*
X126292488Y-126793259D01*
X126360308Y-126776463D01*
X126426444Y-126798999D01*
X126465484Y-126844054D01*
X126469591Y-126852115D01*
X126469951Y-126852820D01*
X126594890Y-127024786D01*
X126745213Y-127175109D01*
X126917179Y-127300048D01*
X126917181Y-127300049D01*
X126917184Y-127300051D01*
X127106588Y-127396557D01*
X127308757Y-127462246D01*
X127518713Y-127495500D01*
X127518714Y-127495500D01*
X127731286Y-127495500D01*
X127731287Y-127495500D01*
X127941243Y-127462246D01*
X128143412Y-127396557D01*
X128332816Y-127300051D01*
X128397472Y-127253076D01*
X128504786Y-127175109D01*
X128504788Y-127175106D01*
X128504792Y-127175104D01*
X128655104Y-127024792D01*
X128655106Y-127024788D01*
X128655109Y-127024786D01*
X128780048Y-126852820D01*
X128780047Y-126852820D01*
X128780051Y-126852816D01*
X128876557Y-126663412D01*
X128942246Y-126461243D01*
X128975500Y-126251287D01*
X128975500Y-126038713D01*
X128942246Y-125828757D01*
X128876557Y-125626588D01*
X128780051Y-125437184D01*
X128780049Y-125437181D01*
X128780048Y-125437179D01*
X128655109Y-125265213D01*
X128504786Y-125114890D01*
X128332820Y-124989951D01*
X128332115Y-124989591D01*
X128324054Y-124985485D01*
X128273259Y-124937512D01*
X128256463Y-124869692D01*
X128278999Y-124803556D01*
X128324054Y-124764515D01*
X128332816Y-124760051D01*
X128419138Y-124697335D01*
X128504786Y-124635109D01*
X128504788Y-124635106D01*
X128504792Y-124635104D01*
X128655104Y-124484792D01*
X128655106Y-124484788D01*
X128655109Y-124484786D01*
X128780048Y-124312820D01*
X128780047Y-124312820D01*
X128780051Y-124312816D01*
X128876557Y-124123412D01*
X128942246Y-123921243D01*
X128975500Y-123711287D01*
X128975500Y-123498713D01*
X128942246Y-123288757D01*
X128876557Y-123086588D01*
X128780051Y-122897184D01*
X128780049Y-122897181D01*
X128780048Y-122897179D01*
X128655109Y-122725213D01*
X128504786Y-122574890D01*
X128332820Y-122449951D01*
X128143414Y-122353444D01*
X128143413Y-122353443D01*
X128143412Y-122353443D01*
X127941243Y-122287754D01*
X127941241Y-122287753D01*
X127941240Y-122287753D01*
X127779957Y-122262208D01*
X127731287Y-122254500D01*
X127518713Y-122254500D01*
X127470042Y-122262208D01*
X127308760Y-122287753D01*
X127106585Y-122353444D01*
X126917179Y-122449951D01*
X126745215Y-122574889D01*
X126631673Y-122688431D01*
X126570350Y-122721915D01*
X126500658Y-122716931D01*
X126444725Y-122675059D01*
X126427810Y-122644082D01*
X126378797Y-122512671D01*
X126378793Y-122512664D01*
X126292547Y-122397455D01*
X126292544Y-122397452D01*
X126177335Y-122311206D01*
X126177328Y-122311202D01*
X126042482Y-122260908D01*
X126042483Y-122260908D01*
X125982883Y-122254501D01*
X125982881Y-122254500D01*
X125982873Y-122254500D01*
X125982864Y-122254500D01*
X124187129Y-122254500D01*
X124187123Y-122254501D01*
X124127516Y-122260908D01*
X123992671Y-122311202D01*
X123992664Y-122311206D01*
X123877455Y-122397452D01*
X123877452Y-122397455D01*
X123791206Y-122512664D01*
X123791202Y-122512671D01*
X123740908Y-122647517D01*
X123734501Y-122707116D01*
X123734500Y-122707135D01*
X121939310Y-122707135D01*
X122030320Y-122616125D01*
X122161716Y-122484728D01*
X122107550Y-122445375D01*
X121918217Y-122348904D01*
X121716129Y-122283242D01*
X121506246Y-122250000D01*
X121293754Y-122250000D01*
X121083872Y-122283242D01*
X121083869Y-122283242D01*
X120881782Y-122348904D01*
X120692439Y-122445380D01*
X120638282Y-122484727D01*
X120638282Y-122484728D01*
X121270591Y-123117037D01*
X121207007Y-123134075D01*
X121092993Y-123199901D01*
X120999901Y-123292993D01*
X120934075Y-123407007D01*
X120917037Y-123470591D01*
X120246818Y-122800372D01*
X120213333Y-122739049D01*
X120213330Y-122739036D01*
X120210499Y-122726015D01*
X120210499Y-122702128D01*
X120204091Y-122642517D01*
X120155659Y-122512664D01*
X120153798Y-122507673D01*
X120153793Y-122507664D01*
X120067547Y-122392455D01*
X120067544Y-122392452D01*
X119952335Y-122306206D01*
X119952328Y-122306202D01*
X119817482Y-122255908D01*
X119817483Y-122255908D01*
X119757883Y-122249501D01*
X119757881Y-122249500D01*
X119757873Y-122249500D01*
X119757864Y-122249500D01*
X117962129Y-122249500D01*
X117962123Y-122249501D01*
X117902516Y-122255908D01*
X117767671Y-122306202D01*
X117767664Y-122306206D01*
X117652455Y-122392452D01*
X117652452Y-122392455D01*
X117566206Y-122507664D01*
X117566202Y-122507671D01*
X117515908Y-122642517D01*
X117509501Y-122702116D01*
X117509500Y-122702135D01*
X73942052Y-122702135D01*
X73873049Y-122666091D01*
X73873048Y-122666090D01*
X73873045Y-122666089D01*
X73753710Y-122631944D01*
X73677418Y-122610114D01*
X73677415Y-122610113D01*
X73677413Y-122610113D01*
X73616515Y-122604699D01*
X73558037Y-122599500D01*
X73558031Y-122599500D01*
X73441972Y-122599500D01*
X73441964Y-122599501D01*
X73322584Y-122610113D01*
X73126952Y-122666090D01*
X72981911Y-122741853D01*
X72913376Y-122755444D01*
X72848373Y-122729825D01*
X72807539Y-122673129D01*
X72800500Y-122631944D01*
X72800500Y-121568055D01*
X72820185Y-121501016D01*
X72872989Y-121455261D01*
X72942147Y-121445317D01*
X72981906Y-121458144D01*
X73126951Y-121533909D01*
X73322582Y-121589886D01*
X73441963Y-121600500D01*
X73558036Y-121600499D01*
X73677418Y-121589886D01*
X73873049Y-121533909D01*
X74053407Y-121439698D01*
X74211109Y-121311109D01*
X74339698Y-121153407D01*
X74433909Y-120973049D01*
X74489886Y-120777418D01*
X74500500Y-120658037D01*
X74500499Y-119341964D01*
X74489886Y-119222582D01*
X74433909Y-119026951D01*
X74359295Y-118884110D01*
X74345705Y-118815578D01*
X74371324Y-118750574D01*
X74428019Y-118709741D01*
X74469196Y-118702701D01*
X146275498Y-118700512D01*
X146342536Y-118720195D01*
G37*
%TD.AperFunction*%
%TD*%
M02*
