%TF.GenerationSoftware,KiCad,Pcbnew,9.0.2-9.0.2-0~ubuntu24.04.1*%
%TF.CreationDate,2025-05-22T11:35:47-04:00*%
%TF.ProjectId,drone_sim_controler,64726f6e-655f-4736-996d-5f636f6e7472,rev?*%
%TF.SameCoordinates,Original*%
%TF.FileFunction,Soldermask,Top*%
%TF.FilePolarity,Negative*%
%FSLAX46Y46*%
G04 Gerber Fmt 4.6, Leading zero omitted, Abs format (unit mm)*
G04 Created by KiCad (PCBNEW 9.0.2-9.0.2-0~ubuntu24.04.1) date 2025-05-22 11:35:47*
%MOMM*%
%LPD*%
G01*
G04 APERTURE LIST*
G04 Aperture macros list*
%AMRoundRect*
0 Rectangle with rounded corners*
0 $1 Rounding radius*
0 $2 $3 $4 $5 $6 $7 $8 $9 X,Y pos of 4 corners*
0 Add a 4 corners polygon primitive as box body*
4,1,4,$2,$3,$4,$5,$6,$7,$8,$9,$2,$3,0*
0 Add four circle primitives for the rounded corners*
1,1,$1+$1,$2,$3*
1,1,$1+$1,$4,$5*
1,1,$1+$1,$6,$7*
1,1,$1+$1,$8,$9*
0 Add four rect primitives between the rounded corners*
20,1,$1+$1,$2,$3,$4,$5,0*
20,1,$1+$1,$4,$5,$6,$7,0*
20,1,$1+$1,$6,$7,$8,$9,0*
20,1,$1+$1,$8,$9,$2,$3,0*%
G04 Aperture macros list end*
%ADD10C,0.000000*%
%ADD11RoundRect,0.225000X0.225000X0.250000X-0.225000X0.250000X-0.225000X-0.250000X0.225000X-0.250000X0*%
%ADD12C,1.000000*%
%ADD13RoundRect,0.200000X0.200000X0.275000X-0.200000X0.275000X-0.200000X-0.275000X0.200000X-0.275000X0*%
%ADD14RoundRect,0.225000X0.250000X-0.225000X0.250000X0.225000X-0.250000X0.225000X-0.250000X-0.225000X0*%
%ADD15RoundRect,0.225000X-0.250000X0.225000X-0.250000X-0.225000X0.250000X-0.225000X0.250000X0.225000X0*%
%ADD16RoundRect,0.200000X-0.200000X-0.275000X0.200000X-0.275000X0.200000X0.275000X-0.200000X0.275000X0*%
%ADD17R,0.600000X1.100000*%
%ADD18R,0.300000X1.100000*%
%ADD19RoundRect,0.500000X-0.000010X0.400000X-0.000010X-0.400000X0.000010X-0.400000X0.000010X0.400000X0*%
%ADD20RoundRect,0.500000X-0.000010X0.600000X-0.000010X-0.600000X0.000010X-0.600000X0.000010X0.600000X0*%
%ADD21RoundRect,0.090000X-0.235000X0.210000X-0.235000X-0.210000X0.235000X-0.210000X0.235000X0.210000X0*%
%ADD22RoundRect,0.200000X-0.275000X0.200000X-0.275000X-0.200000X0.275000X-0.200000X0.275000X0.200000X0*%
%ADD23RoundRect,0.250000X1.075000X-0.375000X1.075000X0.375000X-1.075000X0.375000X-1.075000X-0.375000X0*%
%ADD24C,2.000000*%
%ADD25RoundRect,0.062500X0.350000X0.062500X-0.350000X0.062500X-0.350000X-0.062500X0.350000X-0.062500X0*%
%ADD26RoundRect,0.062500X-0.062500X0.117500X-0.062500X-0.117500X0.062500X-0.117500X0.062500X0.117500X0*%
%ADD27RoundRect,0.050000X-0.350000X-0.050000X0.350000X-0.050000X0.350000X0.050000X-0.350000X0.050000X0*%
%ADD28RoundRect,0.050000X-0.050000X-0.350000X0.050000X-0.350000X0.050000X0.350000X-0.050000X0.350000X0*%
%ADD29R,4.000000X4.000000*%
%ADD30C,1.778000*%
%ADD31C,2.286000*%
%ADD32O,0.599999X0.249999*%
%ADD33C,0.499999*%
%ADD34R,1.200000X2.000001*%
%ADD35RoundRect,0.157500X-0.567500X-0.367500X0.567500X-0.367500X0.567500X0.367500X-0.567500X0.367500X0*%
%ADD36RoundRect,0.225000X-0.225000X-0.250000X0.225000X-0.250000X0.225000X0.250000X-0.225000X0.250000X0*%
%ADD37R,1.700000X1.700000*%
%ADD38C,1.700000*%
%ADD39RoundRect,0.200000X0.275000X-0.200000X0.275000X0.200000X-0.275000X0.200000X-0.275000X-0.200000X0*%
G04 APERTURE END LIST*
D10*
%TO.C,U3*%
G36*
X60363499Y-128206300D02*
G01*
X59036501Y-128206300D01*
X59036501Y-127736499D01*
X60363499Y-127736499D01*
X60363499Y-128206300D01*
G37*
G36*
X60363499Y-128993700D02*
G01*
X59036501Y-128993700D01*
X59036501Y-128606300D01*
X60363499Y-128606300D01*
X60363499Y-128993700D01*
G37*
G36*
X59500000Y-129863501D02*
G01*
X59036501Y-129863501D01*
X59036501Y-127736499D01*
X59500000Y-127736499D01*
X59500000Y-129863501D01*
G37*
G36*
X60363499Y-129863501D02*
G01*
X59036501Y-129863501D01*
X59036501Y-129393700D01*
X60363499Y-129393700D01*
X60363499Y-129863501D01*
G37*
G36*
X60363499Y-129863501D02*
G01*
X59900000Y-129863501D01*
X59900000Y-127736499D01*
X60363499Y-127736499D01*
X60363499Y-129863501D01*
G37*
%TD*%
D11*
%TO.C,C5*%
X88975000Y-132200000D03*
X87425000Y-132200000D03*
%TD*%
D12*
%TO.C,TP8*%
X97600000Y-143800000D03*
%TD*%
D13*
%TO.C,R7*%
X89025000Y-141200000D03*
X87375000Y-141200000D03*
%TD*%
D11*
%TO.C,C4*%
X88975000Y-135200000D03*
X87425000Y-135200000D03*
%TD*%
D14*
%TO.C,C29*%
X58100000Y-126475000D03*
X58100000Y-124925000D03*
%TD*%
D12*
%TO.C,TP4*%
X102500000Y-136000000D03*
%TD*%
%TO.C,TP1*%
X104500000Y-136000000D03*
%TD*%
D11*
%TO.C,C7*%
X88975000Y-133700000D03*
X87425000Y-133700000D03*
%TD*%
D12*
%TO.C,TP18*%
X114000000Y-146400000D03*
%TD*%
%TO.C,TP7*%
X101600000Y-141100000D03*
%TD*%
D15*
%TO.C,C14*%
X100900000Y-126125000D03*
X100900000Y-127675000D03*
%TD*%
D16*
%TO.C,R10*%
X118975000Y-137600000D03*
X120625000Y-137600000D03*
%TD*%
D12*
%TO.C,TP5*%
X102500000Y-134000000D03*
%TD*%
D16*
%TO.C,R9*%
X59075000Y-137600000D03*
X60725000Y-137600000D03*
%TD*%
%TO.C,R12*%
X96175000Y-150200000D03*
X97825000Y-150200000D03*
%TD*%
%TO.C,R11*%
X82475000Y-145600000D03*
X84125000Y-145600000D03*
%TD*%
D17*
%TO.C,J1*%
X71080000Y-125150000D03*
X70280000Y-125150000D03*
D18*
X69130000Y-125150000D03*
X68125000Y-125150000D03*
X67630000Y-125150000D03*
X66630000Y-125150000D03*
D17*
X64680000Y-125150000D03*
X65480000Y-125150000D03*
D18*
X66130000Y-125150000D03*
X67130000Y-125150000D03*
X68630000Y-125150000D03*
X69630000Y-125150000D03*
D19*
X73500000Y-124000000D03*
D20*
X73500000Y-120000000D03*
D19*
X62260000Y-124000000D03*
D20*
X62260000Y-120000000D03*
%TD*%
D13*
%TO.C,R8*%
X89025000Y-139700000D03*
X87375000Y-139700000D03*
%TD*%
D21*
%TO.C,D2*%
X81700000Y-135500000D03*
X82600000Y-135500000D03*
X81700000Y-134100000D03*
X82600000Y-134100000D03*
%TD*%
D22*
%TO.C,R4*%
X59000000Y-120875000D03*
X59000000Y-122525000D03*
%TD*%
D14*
%TO.C,C15*%
X94600000Y-127775000D03*
X94600000Y-126225000D03*
%TD*%
D12*
%TO.C,TP11*%
X83300000Y-151500000D03*
%TD*%
D11*
%TO.C,C9*%
X88975000Y-138200000D03*
X87425000Y-138200000D03*
%TD*%
D23*
%TO.C,L1*%
X56200000Y-130900000D03*
X56200000Y-128100000D03*
%TD*%
D12*
%TO.C,TP6*%
X104500000Y-132000000D03*
%TD*%
D24*
%TO.C,SW2*%
X100250000Y-145578497D03*
X100250000Y-150078497D03*
X106750000Y-145578497D03*
X106750000Y-150078497D03*
%TD*%
D12*
%TO.C,TP14*%
X62600000Y-132800000D03*
%TD*%
%TO.C,TP15*%
X66200000Y-132800000D03*
%TD*%
%TO.C,TP17*%
X97500000Y-152300000D03*
%TD*%
%TO.C,TP12*%
X83300000Y-149500000D03*
%TD*%
D15*
%TO.C,C13*%
X57500000Y-120925000D03*
X57500000Y-122475000D03*
%TD*%
D14*
%TO.C,C8*%
X91600000Y-127775000D03*
X91600000Y-126225000D03*
%TD*%
D13*
%TO.C,R6*%
X89025000Y-142700000D03*
X87375000Y-142700000D03*
%TD*%
D12*
%TO.C,TP21*%
X53600000Y-146300000D03*
%TD*%
%TO.C,TP22*%
X53600000Y-150300000D03*
%TD*%
D25*
%TO.C,U2*%
X71687500Y-132300000D03*
X71687500Y-131800000D03*
X71687500Y-131300000D03*
X70312500Y-131300000D03*
X70312500Y-131800000D03*
X70312500Y-132300000D03*
%TD*%
D22*
%TO.C,R2*%
X66100000Y-128375000D03*
X66100000Y-130025000D03*
%TD*%
D26*
%TO.C,D1*%
X72000000Y-129520000D03*
X72000000Y-128680000D03*
%TD*%
D27*
%TO.C,U1*%
X93000000Y-134100000D03*
X93000000Y-134500000D03*
X93000000Y-134900000D03*
X93000000Y-135300000D03*
X93000000Y-135700000D03*
X93000000Y-136100000D03*
X93000000Y-136500000D03*
X93000000Y-136900000D03*
X93000000Y-137300000D03*
X93000000Y-137700000D03*
X93000000Y-138100000D03*
X93000000Y-138500000D03*
X93000000Y-138900000D03*
X93000000Y-139300000D03*
D28*
X93850000Y-140150000D03*
X94250000Y-140150000D03*
X94650000Y-140150000D03*
X95050000Y-140150000D03*
X95450000Y-140150000D03*
X95850000Y-140150000D03*
X96250000Y-140150000D03*
X96650000Y-140150000D03*
X97050000Y-140150000D03*
X97450000Y-140150000D03*
X97850000Y-140150000D03*
X98250000Y-140150000D03*
X98650000Y-140150000D03*
X99050000Y-140150000D03*
D27*
X99900000Y-139300000D03*
X99900000Y-138900000D03*
X99900000Y-138500000D03*
X99900000Y-138100000D03*
X99900000Y-137700000D03*
X99900000Y-137300000D03*
X99900000Y-136900000D03*
X99900000Y-136500000D03*
X99900000Y-136100000D03*
X99900000Y-135700000D03*
X99900000Y-135300000D03*
X99900000Y-134900000D03*
X99900000Y-134500000D03*
X99900000Y-134100000D03*
D28*
X99050000Y-133250000D03*
X98650000Y-133250000D03*
X98250000Y-133250000D03*
X97850000Y-133250000D03*
X97450000Y-133250000D03*
X97050000Y-133250000D03*
X96650000Y-133250000D03*
X96250000Y-133250000D03*
X95850000Y-133250000D03*
X95450000Y-133250000D03*
X95050000Y-133250000D03*
X94650000Y-133250000D03*
X94250000Y-133250000D03*
X93850000Y-133250000D03*
D29*
X96450000Y-136700000D03*
%TD*%
D30*
%TO.C,JS2*%
X123525000Y-137585200D03*
X129875000Y-137605000D03*
X123525000Y-142525200D03*
X129885000Y-142545200D03*
X124175000Y-157275200D03*
X126715000Y-157295200D03*
X129255000Y-157275200D03*
D31*
X120350000Y-143335200D03*
X120350000Y-153465200D03*
X133050000Y-143320000D03*
X133050000Y-153480000D03*
D30*
X117810000Y-145860000D03*
X117795000Y-148385200D03*
X117795000Y-150925200D03*
%TD*%
D12*
%TO.C,TP9*%
X97600000Y-145800000D03*
%TD*%
%TO.C,TP16*%
X83300000Y-147500000D03*
%TD*%
D14*
%TO.C,C1*%
X102400000Y-127675000D03*
X102400000Y-126125000D03*
%TD*%
D12*
%TO.C,TP10*%
X97600000Y-147800000D03*
%TD*%
%TO.C,TP13*%
X58700000Y-132800000D03*
%TD*%
D32*
%TO.C,U3*%
X58550000Y-127799997D03*
X58550000Y-128299998D03*
X58550000Y-128799997D03*
X58550000Y-129299996D03*
X58550000Y-129799998D03*
X60850000Y-129799998D03*
X60850000Y-129299996D03*
X60850000Y-128799997D03*
X60850000Y-128299998D03*
X60850000Y-127799997D03*
D33*
X59700000Y-128406300D03*
D34*
X59700000Y-128800000D03*
D33*
X59700000Y-129193700D03*
%TD*%
D35*
%TO.C,Y1*%
X96700000Y-127900000D03*
X98850000Y-127900000D03*
X98850000Y-126050000D03*
X96700000Y-126050000D03*
%TD*%
D12*
%TO.C,TP24*%
X79900000Y-132100000D03*
%TD*%
D22*
%TO.C,R3*%
X69400000Y-128375000D03*
X69400000Y-130025000D03*
%TD*%
D36*
%TO.C,C2*%
X102562500Y-139262500D03*
X104112500Y-139262500D03*
%TD*%
D12*
%TO.C,TP25*%
X79900000Y-134100000D03*
%TD*%
%TO.C,TP20*%
X114000000Y-148400000D03*
%TD*%
%TO.C,TP3*%
X102500000Y-132000000D03*
%TD*%
D37*
%TO.C,J3*%
X125085000Y-123605000D03*
D38*
X127625000Y-123605000D03*
X125085000Y-126145000D03*
X127625000Y-126145000D03*
%TD*%
D24*
%TO.C,SW1*%
X86700000Y-145578497D03*
X86700000Y-150078497D03*
X93200000Y-145578497D03*
X93200000Y-150078497D03*
%TD*%
D12*
%TO.C,TP23*%
X53600000Y-148300000D03*
%TD*%
D14*
%TO.C,C12*%
X103900000Y-127675000D03*
X103900000Y-126125000D03*
%TD*%
D12*
%TO.C,TP19*%
X114000000Y-150400000D03*
%TD*%
D30*
%TO.C,JS1*%
X63525000Y-137585200D03*
X69875000Y-137605000D03*
X63525000Y-142525200D03*
X69885000Y-142545200D03*
X64175000Y-157275200D03*
X66715000Y-157295200D03*
X69255000Y-157275200D03*
D31*
X60350000Y-143335200D03*
X60350000Y-153465200D03*
X73050000Y-143320000D03*
X73050000Y-153480000D03*
D30*
X57810000Y-145860000D03*
X57795000Y-148385200D03*
X57795000Y-150925200D03*
%TD*%
D14*
%TO.C,C6*%
X93100000Y-127775000D03*
X93100000Y-126225000D03*
%TD*%
D12*
%TO.C,TP26*%
X79900000Y-136100000D03*
%TD*%
D37*
%TO.C,J2*%
X118860000Y-123600000D03*
D38*
X121400000Y-123600000D03*
X118860000Y-126140000D03*
X121400000Y-126140000D03*
X118860000Y-128680000D03*
X121400000Y-128680000D03*
%TD*%
D11*
%TO.C,C10*%
X88975000Y-130700000D03*
X87425000Y-130700000D03*
%TD*%
D12*
%TO.C,TP2*%
X104500000Y-134000000D03*
%TD*%
D11*
%TO.C,C3*%
X88975000Y-136700000D03*
X87425000Y-136700000D03*
%TD*%
D14*
%TO.C,C25*%
X62200000Y-129675000D03*
X62200000Y-128125000D03*
%TD*%
D39*
%TO.C,R1*%
X118900000Y-132850000D03*
X118900000Y-131200000D03*
%TD*%
D16*
%TO.C,R5*%
X87375000Y-129200000D03*
X89025000Y-129200000D03*
%TD*%
D36*
%TO.C,C11*%
X102562500Y-137762500D03*
X104112500Y-137762500D03*
%TD*%
M02*
